<?xml version="1.0" standalone="no"?>
<!DOCTYPE svg PUBLIC "-//W3C//DTD SVG 20010904//EN"
 "http://www.w3.org/TR/2001/REC-SVG-20010904/DTD/svg10.dtd">
<svg version="1.0" xmlns="http://www.w3.org/2000/svg"
 width="554.000000pt" height="554.000000pt" viewBox="0 0 554.000000 554.000000"
 preserveAspectRatio="xMidYMid meet">
<metadata>
Created by potrace 1.16, written by Peter Selinger 2001-2019
</metadata>
<g transform="translate(0.000000,554.000000) scale(0.100000,-0.100000)"
fill="#000000" stroke="none">
<path d="M0 2770 l0 -2770 2770 0 2770 0 0 2770 0 2770 -2770 0 -2770 0 0
-2770z m2878 2103 c5 -16 15 -60 22 -99 l11 -72 85 -7 c47 -4 86 -5 88 -3 1 1
10 28 19 58 22 74 52 120 76 120 11 0 42 -5 70 -11 60 -13 66 -27 50 -134 -7
-44 -8 -80 -3 -84 9 -9 144 -51 161 -51 5 0 23 25 38 55 16 30 39 67 51 82 21
26 23 27 64 14 24 -7 55 -20 68 -29 27 -17 27 -37 -2 -155 l-15 -59 31 -16
c17 -10 48 -28 69 -43 l39 -25 69 68 c37 37 72 68 77 68 17 0 104 -59 110 -75
6 -14 -15 -66 -57 -146 -22 -42 -22 -41 61 -115 30 -27 52 -45 48 -40 -12 14
133 106 168 106 18 0 93 -78 94 -98 0 -12 -95 -151 -112 -163 -7 -5 87 -139
98 -139 3 0 19 7 36 16 49 26 137 54 151 48 7 -2 28 -29 47 -60 l33 -55 -72
-72 -72 -72 -21 25 c-20 25 -20 25 0 -10 12 -20 37 -68 56 -107 l35 -71 42 15
c23 8 70 17 103 20 l61 5 23 -63 c26 -75 26 -79 8 -79 -8 0 -16 -4 -18 -8 -3
-8 -76 -60 -122 -87 -16 -9 -16 -15 -1 -80 8 -38 17 -79 20 -90 4 -19 11 -20
105 -17 113 4 115 2 120 -83 5 -68 3 -71 -52 -87 -29 -8 -70 -23 -90 -32 -37
-16 -38 -16 -38 4 0 11 5 20 11 20 16 0 39 27 39 46 0 16 -1 16 -14 -2 -14
-19 -15 -19 -21 1 -3 11 -12 32 -20 48 -10 19 -11 27 -3 27 7 0 3 6 -8 14 -10
8 -20 14 -21 13 -1 -1 3 -25 9 -52 6 -28 13 -110 17 -184 l6 -135 82 -17 c124
-27 127 -29 119 -102 -3 -34 -10 -65 -14 -69 -4 -4 -43 -13 -87 -19 -44 -6
-82 -11 -85 -12 -3 -1 -6 3 -8 8 -2 6 5 12 15 14 26 5 56 38 40 44 -7 3 -5 6
4 6 9 1 19 8 22 15 4 10 1 13 -9 9 -21 -8 -46 16 -38 39 5 18 -23 58 -41 58
-3 0 -5 -33 -5 -72 0 -62 -15 -180 -37 -291 -3 -17 -1 -27 7 -27 7 0 50 -18
97 -40 l85 -40 -7 -37 c-3 -20 -14 -53 -23 -72 -17 -35 -18 -36 -67 -32 -49 4
-83 6 -117 9 -10 1 -18 6 -18 10 0 4 15 6 34 4 28 -3 35 0 41 18 6 20 7 21 21
3 20 -27 17 -3 -7 46 -11 24 -18 48 -16 54 2 7 -6 23 -18 36 l-23 23 -18 -53
c-11 -32 -20 -47 -22 -37 -4 20 -11 22 -32 8 -10 -6 -11 -10 -2 -10 6 0 12 -4
12 -10 0 -5 -7 -7 -15 -4 -18 7 -19 -3 -1 -35 l13 -24 7 27 c3 14 10 26 15 26
6 0 5 -14 0 -32 -6 -18 -15 -48 -20 -66 -10 -34 -11 -34 -32 -15 -33 27 -37
35 -38 73 l-1 35 -8 -33 c-4 -18 -16 -40 -26 -48 -11 -9 -14 -13 -7 -10 6 4
14 -2 18 -13 8 -25 -5 -77 -15 -61 -5 8 -11 0 -19 -20 -9 -27 -8 -31 4 -26 8
3 15 1 15 -4 0 -6 0 -13 0 -17 0 -5 -5 -8 -10 -8 -12 0 -40 -50 -40 -71 0 -8
-6 -17 -14 -20 -18 -7 -9 -34 10 -34 8 0 14 7 14 15 0 8 5 15 11 15 5 0 7 5 4
10 -3 6 1 10 10 10 15 0 14 -4 -3 -32 -40 -66 -62 -109 -62 -122 0 -15 -24
-28 -34 -19 -3 3 1 15 9 27 22 31 18 38 -8 13 -13 -12 -21 -28 -19 -34 5 -16
-10 -17 -26 -1 -6 6 -24 13 -39 14 -27 3 -28 2 -25 -36 4 -39 16 -52 25 -27 3
6 6 -1 6 -18 0 -20 -2 -26 -8 -16 -6 10 -10 10 -16 1 -11 -18 11 -36 28 -21
10 8 12 22 7 51 -7 40 -5 50 13 50 5 0 7 -13 3 -30 l-6 -30 27 17 c31 20 29
16 -31 -65 -23 -31 -44 -51 -52 -48 -9 3 -11 -1 -7 -12 4 -13 2 -12 -10 3 -8
11 -13 23 -11 27 3 5 -2 8 -11 8 -12 0 -15 -6 -9 -22 3 -13 3 -20 -1 -16 -4 4
-17 -2 -28 -15 l-20 -22 5 27 c4 19 1 25 -9 21 -16 -6 -16 -8 2 -43 16 -30 29
-41 19 -16 -4 9 3 13 22 13 23 0 25 -2 13 -11 -8 -6 -27 -28 -42 -49 -44 -58
-69 -79 -78 -65 -5 7 -4 17 1 22 14 14 13 46 -1 46 -6 0 -9 -7 -5 -15 3 -8 0
-14 -7 -12 -7 1 -14 11 -17 22 -7 24 -50 30 -76 11 -17 -13 -17 -15 0 -50 13
-27 15 -48 10 -82 -9 -59 -36 -72 -77 -38 -16 13 -33 24 -38 24 -12 0 -12 -17
1 -22 5 -1 -1 -8 -15 -14 -20 -10 -24 -9 -28 7 -3 11 -1 17 3 14 5 -3 12 5 16
17 8 26 29 49 37 42 3 -3 3 -12 0 -20 -4 -10 3 -13 26 -10 42 5 43 6 35 54 -7
42 -21 56 -44 42 -9 -6 -7 -10 9 -15 11 -3 21 -11 21 -17 0 -6 -3 -9 -6 -5 -4
3 -22 0 -41 -8 -43 -18 -46 -18 -40 -2 11 28 -9 38 -29 15 -16 -19 -16 -20 -1
-9 16 13 18 11 15 -23 -1 -20 -7 -35 -13 -33 -5 2 -9 13 -7 23 2 12 0 15 -5 7
-4 -6 -17 -13 -28 -15 -23 -3 -37 -46 -22 -66 18 -24 -5 -27 -24 -3 -17 20
-21 19 -18 -6 0 -4 -9 -11 -21 -15 -18 -7 -20 -11 -10 -23 11 -13 9 -19 -5
-12 -2 1 -12 -8 -20 -21 -9 -12 -21 -20 -26 -17 -5 4 -9 1 -9 -4 0 -6 5 -11
10 -11 6 0 10 -10 10 -22 1 -22 2 -21 16 5 15 28 34 36 34 14 0 -7 -6 -19 -12
-26 -9 -8 -9 -11 -1 -9 6 2 11 -1 12 -7 1 -5 -3 -11 -9 -11 -5 -1 -14 -2 -20
-3 -5 0 -10 -10 -10 -22 0 -15 5 -19 16 -15 8 3 12 2 9 -4 -9 -14 -52 -12 -58
3 -4 7 -9 3 -13 -11 -5 -18 -9 -20 -15 -10 -7 10 -9 9 -9 -3 0 -10 -16 -23
-40 -33 -48 -19 -77 -20 -83 -3 -2 7 -10 0 -17 -15 -9 -19 -21 -28 -39 -30
-26 -1 -42 -4 -51 -8 -3 -1 -16 -4 -30 -5 -30 -3 -51 11 -43 30 6 16 44 16 55
0 5 -6 8 -5 8 3 0 7 5 10 10 7 6 -3 10 1 10 10 0 8 7 18 15 21 8 4 15 12 15
20 0 18 28 7 33 -14 3 -12 8 -7 17 16 13 35 30 43 30 14 0 -11 9 -27 20 -37
20 -18 20 -17 21 8 3 48 4 52 23 55 13 3 16 0 10 -10 -4 -7 2 -4 14 6 12 11
22 16 22 12 0 -4 7 -1 15 8 8 8 15 18 15 22 0 3 -7 1 -15 -6 -18 -15 -19 -7
-4 21 5 11 7 29 3 41 -6 20 -8 18 -41 -17 -25 -28 -37 -35 -43 -25 -10 16 -30
4 -30 -18 0 -12 -3 -13 -12 -4 -9 9 -15 9 -26 -1 -13 -10 -14 -8 -8 16 4 19 3
27 -6 27 -18 -1 -66 -29 -50 -30 7 0 10 -5 7 -10 -3 -5 3 -10 14 -10 12 0 21
-4 21 -10 0 -5 -6 -10 -13 -10 -7 0 -23 -9 -34 -19 -22 -21 -35 -18 -26 5 3 8
-1 14 -8 14 -9 0 -10 3 -4 8 12 9 18 32 7 32 -18 -1 -34 -19 -29 -34 5 -12 0
-16 -21 -17 -15 -1 -30 -1 -34 0 -5 0 -8 -6 -8 -14 0 -11 -5 -12 -25 -5 -20 8
-27 6 -32 -5 -4 -11 -9 -13 -18 -5 -26 22 -95 -10 -95 -44 0 -9 -5 -16 -11
-16 -5 0 -8 4 -4 9 3 5 0 13 -6 17 -9 5 -7 11 6 21 17 12 17 13 2 13 -10 0
-23 -11 -29 -25 -6 -14 -19 -25 -30 -25 -10 0 -20 0 -23 0 -3 0 -5 3 -6 8 -1
15 -30 23 -44 12 -15 -13 -91 -16 -124 -5 -13 4 -21 2 -21 -5 0 -6 -5 -8 -11
-4 -6 3 -24 -3 -40 -15 l-28 -21 -12 21 c-10 20 -9 21 10 16 12 -3 19 -2 16 3
-8 13 -66 20 -85 10 -9 -5 -20 -21 -22 -34 -3 -14 -1 -23 3 -20 5 3 9 -6 9
-20 0 -16 -6 -26 -14 -26 -18 0 -25 24 -21 67 2 24 -2 32 -16 36 -20 5 -28
-18 -8 -25 7 -2 7 -11 0 -28 -5 -14 -10 -19 -10 -11 -1 7 -11 22 -23 32 -18
16 -19 19 -4 19 9 0 14 5 11 10 -3 6 -17 10 -30 10 -13 0 -30 7 -38 15 -8 8
-18 11 -22 7 -11 -11 -59 -10 -68 2 -6 8 -10 7 -14 -1 -7 -18 -33 -16 -33 1 0
17 -18 31 -28 21 -3 -3 0 -10 7 -14 8 -5 10 -14 6 -21 -6 -9 -9 -9 -16 1 -4 8
-13 15 -19 15 -5 1 -14 2 -20 3 -5 0 -10 9 -10 19 0 9 -4 13 -8 7 -12 -16 -32
-16 -38 0 -8 21 -24 9 -24 -18 0 -16 -6 -23 -19 -23 -11 0 -17 5 -14 13 3 7 9
13 13 13 13 0 -1 49 -18 62 -13 11 -15 10 -9 -4 3 -10 2 -18 -4 -18 -5 0 -12
7 -15 15 -9 23 -24 18 -25 -7 0 -16 -5 -10 -13 17 -7 22 -14 34 -17 27 -7 -20
-39 -3 -39 20 0 15 -5 18 -20 13 -15 -5 -20 -2 -20 10 0 14 -6 16 -34 11 -26
-5 -37 -3 -44 10 -5 8 -11 14 -15 12 -12 -7 -67 44 -67 62 0 14 -5 18 -17 13
-10 -3 -15 -3 -11 2 12 13 -11 45 -32 45 -11 0 -20 3 -20 8 0 4 -7 16 -16 27
-13 17 -16 18 -25 5 -9 -13 -10 -12 -5 2 6 22 -10 34 -18 13 -7 -19 -26 -19
-26 0 0 8 -6 14 -12 12 -12 -2 -14 3 -17 45 -1 11 -6 15 -16 12 -10 -4 -14 -2
-10 7 2 8 -7 27 -21 43 -24 27 -27 28 -36 12 -8 -13 -13 -15 -24 -5 -8 6 -14
20 -14 29 0 10 -6 21 -12 24 -10 5 -10 7 0 12 10 5 8 11 -10 23 -12 9 -24 22
-26 29 -4 20 -33 62 -43 62 -5 0 -9 6 -9 14 0 7 -7 19 -15 26 -9 7 -23 29 -32
49 -10 20 -23 42 -30 49 -7 7 -13 18 -13 23 0 5 -6 9 -14 9 -16 0 -29 27 -20
41 3 5 -3 21 -14 37 -11 15 -26 47 -35 72 -13 37 -24 36 -18 -2 0 -5 -3 -8 -8
-8 -4 0 -6 23 -3 51 4 41 2 50 -8 44 -9 -5 -11 -4 -6 4 4 7 -3 33 -15 59 -37
75 -63 174 -74 282 -7 61 -12 71 -30 64 -12 -5 -15 1 -14 27 1 19 3 26 6 17 7
-29 23 -20 23 12 0 17 -4 30 -9 30 -12 0 -22 43 -12 53 5 5 4 27 -1 50 -5 23
-7 54 -4 68 3 14 0 31 -6 37 -9 9 -7 17 6 31 13 15 14 20 4 24 -10 4 -9 8 4
18 10 9 18 32 21 59 2 25 4 -31 5 -125 3 -251 29 -409 103 -620 80 -229 222
-470 366 -620 272 -283 538 -438 883 -512 114 -25 144 -27 335 -27 228 0 316
13 483 70 157 54 470 222 541 292 8 8 37 31 65 52 28 22 83 72 121 112 39 40
74 72 78 70 5 -1 6 2 2 8 -3 5 -1 15 5 22 6 7 24 32 41 55 19 27 35 40 44 36
8 -3 15 -1 15 4 0 5 14 25 30 43 32 36 36 45 20 55 -5 3 -12 -6 -16 -20 -3
-14 -11 -25 -16 -25 -5 0 5 26 23 58 44 77 59 99 59 84 0 -7 5 -10 11 -7 6 4
17 -1 24 -11 12 -16 16 -17 24 -5 9 14 9 63 -1 91 -2 8 -3 11 0 7 2 -4 10 0
17 10 14 19 2 58 -16 48 -5 -4 -9 -2 -9 4 0 18 20 23 26 7 7 -19 30 -21 40 -4
4 6 3 8 -4 4 -19 -12 -23 12 -8 56 28 84 56 201 49 211 -3 6 -1 7 5 3 8 -5 12
0 12 13 0 30 11 51 26 51 17 0 17 5 3 32 -12 23 -20 100 -9 93 3 -2 12 1 20 6
12 8 12 12 2 16 -10 4 -11 29 -6 114 4 68 3 109 -3 109 -5 0 -8 14 -5 30 2 17
-1 36 -7 44 -7 8 -11 29 -10 47 1 19 -1 44 -5 57 -5 13 -3 22 3 22 14 0 14 44
0 95 -10 35 -13 37 -21 20 -6 -15 -7 -12 -3 13 2 17 0 32 -5 32 -6 0 -10 18
-10 40 0 22 -4 40 -9 40 -5 0 -12 21 -16 48 -4 26 -11 50 -16 53 -5 3 -19 32
-30 65 -11 32 -25 63 -30 69 -5 5 -9 17 -9 28 0 11 -4 15 -12 11 -6 -4 -8 -3
-5 3 7 11 -14 63 -25 63 -3 0 -9 14 -13 30 -4 17 -11 30 -16 30 -5 0 -9 6 -9
14 0 7 -16 28 -35 47 -19 19 -35 39 -35 46 0 7 -11 23 -25 37 -14 14 -25 28
-25 31 0 11 -53 79 -82 106 -16 14 -28 30 -28 36 0 13 -45 54 -53 48 -4 -3 -5
-2 -3 1 8 11 -52 66 -65 59 -8 -5 -10 -4 -5 3 4 7 1 12 -7 12 -8 0 -28 15 -45
34 -17 19 -48 46 -70 60 -22 14 -43 30 -47 35 -3 6 -24 15 -46 21 -22 6 -37
15 -34 20 6 10 -7 14 -32 11 -6 -1 -18 8 -27 20 -8 12 -23 23 -33 24 -10 0
-44 13 -77 28 -32 15 -62 27 -67 27 -8 0 -79 30 -121 51 -10 5 -39 11 -65 15
-26 3 -52 8 -57 12 -6 3 -17 7 -26 7 -8 1 -49 8 -90 15 -41 8 -130 14 -197 14
-68 1 -123 5 -123 9 0 4 -9 3 -19 -3 -14 -7 -21 -6 -24 3 -4 8 -8 9 -14 1 -4
-5 -44 -11 -88 -13 -47 -1 -89 -8 -102 -16 -11 -8 -37 -16 -57 -18 -20 -2 -39
-7 -43 -10 -3 -4 -16 -7 -27 -7 -12 0 -63 -16 -115 -35 -51 -19 -97 -32 -102
-29 -5 3 -9 0 -9 -6 0 -7 -7 -9 -16 -6 -8 3 -13 2 -10 -2 3 -5 -12 -16 -32
-26 -20 -10 -45 -23 -56 -28 -12 -7 -16 -6 -11 1 4 7 -6 11 -28 11 -30 0 -34
-3 -30 -20 4 -15 0 -20 -16 -20 -12 0 -19 -4 -16 -10 3 -5 -3 -10 -15 -10 -12
0 -19 -4 -16 -9 3 -5 -1 -12 -10 -15 -25 -10 -74 -7 -74 4 0 6 -5 10 -11 10
-15 0 -7 -35 9 -36 6 -1 15 -2 19 -3 3 0 -4 -10 -17 -21 -12 -11 -27 -17 -32
-14 -6 4 -14 0 -19 -7 -13 -21 -29 1 -35 47 -3 21 -8 41 -13 44 -4 3 -10 11
-12 19 -3 8 -17 15 -33 17 -21 2 -26 -1 -22 -12 3 -8 2 -24 -3 -37 -11 -28 11
-62 33 -54 10 4 5 -8 -12 -32 -17 -24 -28 -33 -30 -24 -2 8 2 20 8 28 12 15 6
35 -10 35 -5 0 -13 -12 -17 -27 l-7 -28 -6 25 c-4 14 -12 24 -18 23 -15 -4
-16 23 -2 32 6 3 10 1 10 -6 0 -9 3 -9 14 1 14 11 11 40 -4 40 -13 0 -90 -75
-90 -87 0 -7 -8 -17 -17 -23 -14 -8 -15 -13 -5 -17 10 -4 9 -9 -5 -20 -13 -10
-15 -16 -5 -19 6 -3 12 -20 12 -37 l-1 -32 -15 30 c-8 17 -12 22 -9 13 2 -10
0 -18 -4 -18 -14 0 -23 32 -11 44 22 22 8 28 -15 6 -17 -16 -23 -31 -21 -47 4
-20 1 -22 -18 -17 -24 6 -42 -17 -30 -37 9 -15 -16 -39 -33 -32 -11 4 -14 2
-9 -5 4 -7 1 -12 -7 -12 -8 0 -25 -25 -38 -55 -21 -48 -34 -60 -60 -57 -4 1
-10 -11 -14 -26 -4 -15 -12 -34 -19 -42 -38 -45 -74 -135 -67 -167 1 -7 -5
-13 -14 -13 -8 0 -15 -6 -15 -14 0 -8 -6 -21 -13 -28 -7 -7 -18 -33 -25 -58
-8 -25 -20 -59 -28 -77 -8 -17 -19 -55 -24 -83 -5 -28 -12 -55 -14 -59 -14
-21 -37 -171 -33 -208 3 -31 1 -43 -10 -48 -13 -4 -13 -8 -2 -21 10 -13 10
-17 -2 -25 -10 -6 -10 -9 -1 -9 6 0 12 -11 12 -25 0 -16 -6 -25 -16 -25 -14 0
-14 -1 0 -16 20 -20 21 -54 1 -54 -9 0 -12 6 -9 15 4 8 1 22 -5 29 -9 10 -9
36 -1 101 6 48 8 90 4 94 -4 3 -9 1 -11 -5 -2 -7 -20 -10 -47 -7 -30 4 -47 1
-57 -9 -10 -12 -18 -13 -32 -4 -14 9 -20 8 -27 -4 -8 -12 -10 -12 -10 -1 0 11
-3 11 -15 1 -13 -11 -14 -10 -7 11 8 21 18 25 78 32 38 4 83 7 100 5 30 -4 32
-2 42 47 5 27 24 104 41 170 18 66 34 129 37 140 4 15 1 21 -13 22 -21 1 -94
11 -142 20 -32 5 -34 5 -29 -21 3 -15 1 -29 -3 -32 -12 -7 13 -54 45 -83 29
-27 36 -53 9 -29 -10 8 -26 18 -36 22 -11 3 -21 15 -24 27 -3 12 -11 18 -19
15 -18 -7 -17 8 5 74 l18 55 69 -3 c38 -1 84 -7 101 -11 l33 -9 40 86 c23 49
36 88 30 90 -5 2 -10 13 -10 23 0 11 -4 17 -10 14 -6 -3 -10 -1 -10 5 0 6 -4
8 -10 5 -5 -3 -10 0 -10 8 0 8 12 17 26 20 18 3 24 1 20 -9 -3 -8 -1 -14 4
-14 5 0 10 -10 13 -22 3 -20 6 -18 21 17 10 22 29 54 42 72 13 17 24 36 24 41
0 6 -21 17 -46 26 -45 15 -48 15 -65 -5 -12 -14 -24 -19 -38 -14 -18 5 -21 2
-21 -19 0 -29 -7 -31 -45 -14 -30 14 -32 24 -5 33 11 4 18 10 15 15 -8 13 25
69 44 75 19 6 102 -22 154 -51 16 -9 30 -14 32 -12 2 1 27 37 57 79 51 70 54
77 40 97 -13 20 -12 23 9 31 29 10 36 6 21 -12 -7 -8 -9 -16 -6 -20 3 -3 47
39 97 93 51 54 146 140 211 191 65 51 114 95 108 97 -6 2 -23 -8 -38 -21 -55
-51 -98 -61 -74 -18 9 18 8 21 -12 18 -19 -2 -24 3 -26 32 -2 21 0 31 7 26 6
-3 11 0 11 7 0 8 5 6 11 -4 22 -38 34 -11 23 50 -6 33 -36 27 -73 -14 -34 -37
-47 -39 -37 -7 7 18 101 83 123 83 6 0 39 -30 72 -67 l61 -66 73 35 c39 20
110 55 157 78 47 22 74 38 60 34 -14 -3 -41 -8 -60 -9 -22 -2 -40 -11 -49 -24
-7 -12 -20 -21 -27 -21 -16 0 -19 26 -5 34 5 3 7 15 4 26 -6 22 12 28 20 8 4
-9 6 -8 6 2 1 9 -4 21 -11 28 -9 9 -7 13 6 18 12 4 22 -1 32 -15 21 -30 32
-19 25 25 -6 34 -31 62 -31 34 0 -8 -10 -10 -25 -8 -15 3 -25 1 -24 -6 5 -38
-1 -47 -22 -36 -15 9 -19 19 -17 43 2 26 11 36 49 56 68 36 90 27 141 -64 35
-62 47 -74 63 -70 169 44 160 34 145 149 -5 39 -5 77 0 86 9 16 111 43 134 34
7 -3 22 -26 33 -52 11 -26 28 -67 38 -90 17 -38 22 -43 44 -39 14 3 54 9 89
13 l62 7 2 41 c1 22 1 52 0 66 -1 14 3 40 9 58 l11 32 73 0 c70 0 73 -1 83
-27z m-1521 -625 c60 -35 103 -69 98 -79 -6 -9 -65 -8 -65 1 0 3 -9 6 -21 6
-14 0 -19 -5 -16 -18 3 -11 0 -18 -10 -18 -18 0 -46 -27 -39 -38 3 -5 -1 -9
-9 -9 -18 0 -12 66 7 79 10 6 8 8 -4 8 -10 0 -18 4 -18 9 0 4 18 7 40 6 22 -1
40 2 40 8 0 6 -3 7 -7 4 -3 -4 -21 5 -40 19 -21 16 -33 20 -33 12 0 -8 -9 -21
-20 -31 -22 -18 -19 -37 6 -37 8 0 14 -6 14 -14 0 -12 -6 -12 -35 -3 -19 6
-35 16 -35 22 0 19 73 95 92 95 9 0 34 -10 55 -22z m600 -96 c6 -4 13 -32 15
-62 3 -50 5 -55 28 -58 19 -2 29 5 42 28 25 44 55 40 77 -11 l19 -41 26 28
c24 27 27 28 43 11 16 -16 16 -19 -5 -63 -35 -72 -8 -87 56 -30 l37 34 25 -20
c24 -19 24 -20 6 -34 -11 -8 -16 -17 -12 -21 4 -4 11 -1 17 7 7 12 11 12 17 2
12 -19 13 87 1 110 -6 10 -15 16 -21 12 -6 -4 -9 -1 -6 6 8 25 26 21 37 -7 6
-15 20 -41 31 -58 11 -16 25 -41 30 -55 21 -46 38 -85 69 -153 17 -37 31 -70
31 -72 0 -3 23 -51 51 -107 30 -61 49 -111 47 -126 l-3 -26 -15 30 c-8 16 -20
32 -27 37 -7 4 -15 24 -19 45 -4 20 -11 43 -17 50 -5 6 -6 12 -1 13 5 0 -2 5
-16 11 -14 6 -28 10 -32 10 -13 -3 -22 52 -10 56 7 2 12 8 12 13 0 5 -25 -3
-55 -18 -30 -15 -55 -32 -55 -39 0 -25 29 -36 80 -29 l50 7 0 -31 c0 -20 -4
-29 -12 -26 -23 7 -83 -29 -83 -49 0 -16 11 -22 56 -31 31 -6 63 -9 70 -6 10
3 8 -2 -4 -16 -9 -11 -14 -23 -10 -26 3 -4 -16 -7 -43 -7 -27 0 -55 -4 -62 -9
-17 -10 -12 -43 6 -49 7 -2 11 2 10 9 -4 16 60 23 78 8 25 -21 15 -31 -23 -25
l-38 5 38 -18 c36 -17 37 -19 22 -35 -26 -25 -117 -17 -95 9 7 9 6 16 -3 24
-11 9 -14 4 -14 -27 0 -20 -2 -41 -3 -47 -6 -24 3 -36 40 -55 42 -21 50 -39
26 -59 -12 -10 -14 -9 -10 7 7 25 -24 52 -36 32 -5 -9 -5 -20 2 -27 14 -17
-13 -18 -30 -1 -9 9 -12 8 -12 -5 0 -9 -4 -17 -10 -17 -5 0 -10 -7 -10 -15 0
-8 6 -15 13 -15 8 0 7 -4 -3 -11 -12 -9 -10 -10 8 -6 28 6 79 -33 68 -52 -6
-9 -13 -6 -26 9 -10 11 -20 16 -22 11 -6 -18 -48 0 -48 20 0 11 -7 19 -16 19
-8 0 -12 -4 -9 -10 3 -5 1 -10 -4 -10 -23 0 -10 -37 24 -70 32 -31 45 -60 28
-60 -4 0 -32 12 -61 27 l-54 27 -18 -24 c-11 -14 -20 -36 -22 -49 -3 -27 -28
-42 -28 -17 0 19 -24 21 -42 3 -7 -7 -21 -16 -30 -20 -10 -3 -18 -14 -18 -23
0 -11 -5 -14 -16 -10 -9 4 -27 -1 -40 -9 -22 -14 -24 -14 -24 3 0 14 -7 19
-29 19 -26 0 -28 -3 -20 -24 7 -19 5 -23 -11 -23 -10 0 -21 9 -25 19 -8 27
-45 35 -45 9 0 -11 8 -22 20 -25 12 -3 18 -12 17 -24 -5 -29 -14 -33 -22 -8
-17 52 -65 78 -101 54 -21 -14 -24 -14 -24 0 0 11 -12 15 -47 15 -35 0 -44 -3
-33 -10 12 -8 11 -10 -7 -10 -12 0 -31 -11 -41 -25 -12 -15 -23 -21 -27 -15
-12 19 -26 0 -15 -20 8 -16 8 -18 -5 -14 -18 7 -19 24 -3 61 16 38 16 37 32
24 18 -15 36 -7 36 16 0 9 -6 13 -15 10 -8 -4 -17 -2 -20 3 -3 5 -18 7 -34 4
-28 -6 -35 -1 -74 46 -17 20 -17 23 -2 34 17 12 12 46 -7 46 -6 0 -8 -7 -5
-14 9 -23 -32 -31 -52 -11 -15 15 -14 16 14 11 17 -4 24 -3 18 0 -7 3 -13 15
-13 25 0 13 5 18 13 14 6 -4 4 0 -6 9 -11 8 -25 12 -33 9 -9 -3 -12 1 -9 14 5
27 -10 47 -29 40 -20 -8 -21 -27 -1 -27 8 0 15 -5 15 -11 0 -5 -4 -7 -10 -4
-19 11 -10 -7 12 -26 11 -11 18 -22 14 -27 -5 -4 -20 7 -34 24 -25 27 -30 29
-57 19 -16 -6 -44 -18 -62 -28 -26 -14 -32 -14 -36 -3 -6 16 32 46 58 46 8 0
15 6 15 13 0 9 3 8 9 -2 5 -7 14 -10 20 -6 8 4 9 11 3 18 -12 14 -13 65 -2 72
4 3 10 -9 14 -25 6 -31 12 -35 34 -21 11 6 9 18 -9 59 -25 58 -36 64 -45 27
-6 -24 -14 -29 -41 -26 -6 1 -14 -3 -18 -9 -8 -13 -25 -13 -25 -1 0 5 16 15
35 21 29 9 35 16 30 31 -4 11 -2 19 4 19 14 0 14 37 1 45 -15 10 -12 23 8 28
13 4 11 5 -5 6 -25 1 -33 21 -9 21 20 0 9 38 -13 43 -11 3 -9 5 7 6 12 0 22 7
22 14 0 6 3 22 6 35 5 19 2 22 -20 22 -28 0 -27 -7 -17 103 1 4 4 7 9 7 11 0
32 -52 25 -64 -4 -6 4 -2 16 8 18 16 21 27 17 63 -2 24 -1 41 4 38 11 -7 21
21 14 39 -3 8 0 17 7 22 8 4 10 3 5 -4 -4 -7 -2 -12 3 -12 11 0 15 12 12 43
-3 20 14 23 23 5 3 -7 3 -3 0 10 -3 12 -1 22 5 22 20 0 11 28 -10 33 -17 5
-20 2 -16 -14 4 -16 2 -19 -14 -14 -16 5 -19 1 -19 -30 0 -22 -4 -34 -10 -30
-6 3 -13 -1 -16 -10 -5 -12 -9 -13 -20 -4 -12 10 -12 14 3 24 10 7 21 11 25 9
5 -3 8 9 8 25 0 17 5 31 10 31 6 0 10 7 10 15 0 8 -6 15 -12 15 -7 0 -24 3
-37 7 -21 5 -22 4 -12 -15 19 -36 12 -38 -19 -4 -32 36 -33 37 -20 67 6 15 9
16 9 4 1 -11 20 -19 66 -29 35 -7 62 -17 59 -21 -2 -4 0 -10 6 -14 15 -9 24
23 11 39 -6 7 -8 16 -5 19 13 13 24 -5 24 -39 l0 -34 20 20 c21 21 32 24 43
13 10 -9 -14 -34 -26 -26 -6 3 -7 1 -3 -6 4 -6 -4 -25 -19 -43 -44 -52 -76
-128 -91 -218 -19 -118 -18 -160 11 -241 40 -115 66 -159 138 -230 55 -54 83
-73 145 -98 42 -17 100 -33 128 -37 57 -7 151 9 204 36 61 30 76 32 77 10 1
-11 -4 -20 -13 -20 -18 0 -18 -16 0 -23 8 -3 20 0 26 8 6 8 18 11 27 8 11 -4
14 -1 12 12 -2 10 -10 20 -18 23 -9 3 -11 0 -6 -8 5 -9 4 -11 -3 -6 -21 13 -7
43 50 105 34 37 72 92 95 140 21 43 45 81 54 83 13 4 14 0 5 -28 -6 -19 -13
-28 -17 -22 -4 7 -11 -6 -14 -28 -4 -21 -14 -49 -21 -61 -8 -13 -13 -26 -12
-29 2 -4 -8 -11 -22 -16 -24 -9 -24 -10 -7 -23 12 -8 14 -15 7 -20 -5 -3 -8
-10 -5 -15 6 -10 -15 -8 -32 3 -8 5 -13 4 -13 -2 0 -6 5 -11 10 -11 6 0 8 -11
4 -26 -6 -22 -4 -25 7 -19 18 11 45 48 41 58 -1 4 4 7 11 7 9 0 12 10 10 28
-4 30 20 68 36 57 6 -3 9 -11 6 -16 -4 -5 -2 -9 4 -9 17 0 21 18 5 24 -13 5
-13 10 5 35 14 19 18 32 11 36 -7 4 -3 19 10 41 14 21 17 34 10 34 -10 0 -10
3 0 15 7 9 10 25 6 41 -5 17 -3 23 4 19 5 -3 10 -1 10 4 0 6 -6 11 -12 11 -9
0 -8 4 2 10 13 9 13 11 0 20 -13 8 -12 10 3 10 19 0 20 2 11 24 -3 8 -12 12
-19 10 -7 -3 -15 3 -18 13 -3 10 -6 -2 -7 -27 -4 -86 -8 -107 -19 -126 -11
-16 -12 -14 -7 15 3 18 6 65 6 103 0 45 4 67 10 63 15 -10 39 13 35 33 -2 9
-4 20 -4 25 -2 17 -20 5 -23 -15 -2 -12 -9 -23 -15 -26 -9 -2 -13 10 -13 42 0
25 -4 46 -10 46 -5 0 -10 8 -10 18 0 10 -7 28 -16 40 -9 13 -19 34 -23 47 -3
14 -9 24 -13 22 -3 -1 -20 14 -37 33 -30 34 -41 70 -21 70 6 0 10 5 10 12 0 6
-3 8 -6 5 -4 -3 -15 -2 -25 4 -22 11 -23 6 -8 -23 8 -15 0 -12 -34 14 -25 18
-43 36 -40 40 2 4 -2 5 -10 2 -8 -3 -20 3 -28 12 -12 15 -11 16 11 10 23 -6
22 -5 -4 10 -17 10 -31 12 -35 6 -4 -6 -23 -6 -53 1 -37 9 -47 15 -43 28 3 10
-1 16 -10 16 -9 0 -14 -6 -11 -14 4 -10 -6 -13 -38 -13 -56 0 -76 8 -76 29 0
12 2 13 9 3 7 -11 9 -11 14 2 7 19 -1 20 -38 6 -20 -8 -26 -16 -22 -29 3 -14
-4 -23 -32 -35 -20 -8 -44 -17 -55 -18 -10 -2 -37 -20 -60 -41 -46 -41 -60
-43 -64 -4 -2 19 -7 24 -19 20 -10 -4 -14 -2 -10 4 9 15 -42 26 -58 13 -10 -8
-19 -3 -39 21 -27 31 -27 60 0 38 12 -10 13 -9 9 4 -13 31 16 27 46 -8 20 -22
38 -34 47 -30 8 3 25 -1 37 -9 14 -9 26 -11 36 -5 15 10 14 11 -39 48 -12 8
-18 20 -14 29 3 10 1 13 -6 8 -7 -4 -12 -1 -12 9 0 9 -4 14 -9 11 -5 -4 -7 3
-4 14 4 16 2 19 -13 13 -18 -6 -18 -6 0 15 11 12 26 22 34 22 19 0 52 -29 52
-45 0 -19 37 -47 57 -43 25 5 28 33 8 74 -16 33 -16 37 0 54 23 26 40 16 66
-36 17 -35 26 -44 43 -42 17 2 21 10 22 44 1 49 9 64 34 64 19 0 23 -8 35 -67
5 -24 12 -33 26 -33 21 0 22 2 39 68 10 41 22 50 47 34z m1676 -266 c3 -7 9
-34 12 -60 6 -40 10 -46 32 -46 13 0 32 -4 42 -9 22 -12 38 -2 42 28 3 17 11
25 27 26 13 1 22 -4 22 -12 0 -10 -6 -12 -20 -8 -11 4 -20 2 -20 -4 0 -6 7
-11 16 -11 12 0 15 -6 10 -23 -5 -21 0 -26 34 -37 22 -7 40 -17 40 -22 0 -4 7
-8 15 -8 17 0 55 -30 55 -43 0 -5 -7 -7 -15 -3 -8 3 -15 4 -15 2 0 -3 -3 -12
-7 -22 -4 -12 -3 -15 6 -9 18 10 61 -15 61 -36 0 -18 30 -81 30 -64 0 6 4 3
10 -5 5 -8 12 -12 15 -8 3 3 -1 13 -10 21 -10 11 -12 18 -4 22 5 4 12 5 13 4
24 -30 66 -95 66 -103 0 -6 -7 -3 -15 8 -13 17 -15 17 -30 2 -10 -9 -12 -16
-5 -16 6 0 10 -6 7 -12 -2 -7 -11 -12 -18 -10 -11 3 -12 1 -1 -9 6 -7 12 -21
12 -30 0 -10 9 -20 19 -24 13 -4 17 -12 14 -25 -3 -11 -10 -20 -15 -20 -5 0
-6 5 -3 11 4 6 -2 13 -13 16 -13 3 -23 17 -27 35 -4 16 -10 27 -13 24 -3 -4
-14 14 -23 39 -32 84 -110 166 -194 204 -121 54 -265 57 -364 7 -94 -48 -207
-173 -227 -250 -3 -14 -10 -28 -14 -31 -5 -3 -5 8 0 25 7 25 5 32 -10 40 -11
6 -23 10 -27 9 -40 -7 -42 15 -8 83 29 58 30 64 10 102 -14 27 -12 66 3 66 13
-1 52 -38 52 -49 0 -16 6 -14 48 17 36 25 38 29 29 61 -6 27 -5 37 8 50 15 15
17 14 31 -4 9 -11 19 -26 23 -33 6 -11 14 -11 44 1 34 15 36 18 43 77 8 72 23
74 42 6 l14 -48 41 6 c54 9 64 18 72 71 6 44 27 61 38 31z m55 -237 c2 -5 13
-9 25 -9 31 0 116 -47 155 -86 17 -17 32 -35 32 -38 0 -3 12 -22 26 -43 18
-27 24 -48 22 -70 -2 -18 0 -33 5 -33 5 0 7 -15 4 -32 -2 -18 -1 -41 4 -50 11
-20 -26 -148 -42 -148 -5 0 -9 -9 -9 -20 0 -11 -6 -20 -14 -20 -8 0 -17 -11
-20 -25 -4 -14 -10 -25 -15 -25 -12 0 -22 30 -14 42 3 6 1 8 -5 4 -6 -3 -9
-23 -6 -44 2 -20 2 -31 -2 -24 -8 17 -22 15 -20 -4 0 -9 -8 -21 -19 -28 -10
-6 -25 -17 -33 -24 -29 -27 -56 -35 -145 -47 -47 -7 -57 -1 -50 26 4 15 8 17
14 8 4 -8 12 -10 16 -5 4 4 -1 14 -11 22 -17 12 -18 14 -3 14 9 0 17 7 17 15
0 8 7 15 15 15 8 0 15 5 15 10 0 6 6 10 14 10 8 0 16 4 18 8 6 15 80 52 90 46
7 -5 8 -2 3 5 -4 7 1 20 12 30 15 15 21 15 31 5 7 -7 12 -18 12 -24 0 -6 4 -9
9 -6 11 7 10 76 -2 76 -4 0 -5 -4 -2 -10 3 -5 1 -10 -4 -10 -13 0 -13 0 0 38
6 18 14 30 18 27 4 -2 7 15 6 39 -2 39 0 43 19 39 l21 -4 -21 10 c-13 6 -25
25 -32 51 -14 56 -71 147 -96 154 -16 4 -14 -1 12 -25 45 -42 96 -149 71 -149
-5 0 -9 8 -9 18 0 9 -4 23 -8 29 -4 7 -6 -16 -4 -51 4 -54 0 -72 -23 -117 -28
-58 -48 -78 -109 -111 -32 -16 -51 -19 -96 -15 -61 7 -120 32 -120 51 0 7 -9
21 -20 31 -12 10 -18 25 -16 32 4 8 -2 13 -16 13 -17 0 -18 2 -8 15 10 12 10
19 2 27 -18 18 -15 59 3 52 21 -8 19 13 -2 25 -15 8 -16 13 -6 28 7 10 19 33
27 50 17 37 70 93 89 93 8 0 8 3 -2 9 -19 12 -3 19 60 25 38 4 46 3 29 -3 -25
-9 -25 -9 5 -10 17 -1 48 -8 70 -16 35 -12 38 -12 21 1 -11 7 -29 14 -40 15
-12 0 -15 3 -8 6 7 3 26 0 43 -6 23 -8 30 -8 26 2 -2 6 -20 13 -41 15 -28 3
-36 7 -32 18 4 11 2 12 -12 5 -10 -5 -38 -11 -62 -13 -103 -10 -216 -103 -235
-193 -8 -39 -18 -56 -26 -43 -7 10 -9 9 -9 -5 0 -15 -3 -16 -22 -6 -13 7 -26
17 -30 23 -6 8 -11 6 -17 -4 -6 -8 -14 -11 -18 -6 -4 4 -1 13 7 19 8 7 14 22
12 33 -5 36 51 130 112 187 48 45 102 75 166 92 50 13 193 9 198 -6z m-1733
-31 c64 -34 105 -102 109 -182 2 -29 -2 -66 -9 -82 -12 -28 -13 -28 -9 16 4
44 4 45 -7 11 -20 -65 -71 -131 -102 -131 -10 0 -17 5 -14 13 2 6 11 12 21 12
19 0 38 24 29 39 -3 5 -1 6 5 2 7 -4 12 -4 13 1 1 4 2 22 4 38 1 17 3 36 4 44
0 7 7 11 16 7 12 -4 14 0 9 22 -4 15 -13 34 -22 42 -11 11 -13 12 -7 1 5 -9 4
-12 -3 -7 -7 4 -12 14 -12 21 0 8 -12 22 -27 32 -16 10 -30 20 -33 24 -3 3
-12 9 -20 12 -11 4 -9 6 6 6 11 1 25 -4 32 -11 9 -9 12 -9 12 3 0 9 -9 24 -20
34 -16 15 -22 16 -36 5 -11 -10 -18 -10 -22 -3 -8 12 -67 24 -76 15 -3 -3 -1
-11 5 -19 6 -7 9 -13 5 -13 -3 0 -9 -1 -13 -2 -3 -2 -7 6 -9 16 -1 10 -8 23
-16 27 -18 11 -7 18 43 27 51 9 101 2 144 -20z m791 -138 c9 -55 23 -70 71
-77 35 -4 44 -2 60 17 10 13 25 30 35 38 9 8 14 22 11 30 -4 9 -1 13 7 10 14
-4 18 -52 7 -80 -8 -21 33 -49 77 -52 26 -2 32 1 33 17 1 11 11 29 22 40 16
16 23 18 34 8 12 -9 13 -21 6 -53 -6 -22 -8 -41 -7 -42 6 -3 122 -81 134 -91
9 -6 21 -2 39 15 18 17 28 21 36 13 15 -15 2 -53 -18 -53 -14 0 -14 -2 -2 -17
8 -10 21 -31 29 -48 8 -16 27 -42 41 -57 15 -14 30 -36 34 -48 6 -20 12 -22
56 -18 42 4 51 2 60 -14 9 -17 4 -26 -30 -57 -23 -21 -41 -44 -41 -52 0 -11
-2 -11 -11 1 -7 11 -7 0 -2 -35 4 -27 8 -102 8 -165 -1 -129 -15 -191 -71
-307 -33 -69 -133 -192 -134 -165 0 6 5 12 10 12 6 0 10 7 10 15 0 8 9 20 20
27 11 7 20 18 20 25 0 7 4 13 10 13 5 0 9 3 9 8 -3 19 2 33 10 27 5 -3 12 -1
16 5 3 5 1 10 -4 10 -6 0 -11 5 -11 11 0 5 5 7 10 4 6 -3 10 -2 10 4 0 5 -6
12 -12 15 -7 4 -3 4 10 2 19 -4 22 -1 16 16 -4 13 -2 18 4 14 5 -3 13 1 16 10
4 9 2 13 -5 8 -14 -8 -1 38 13 47 5 3 10 32 12 65 1 32 5 65 7 73 2 7 -2 16
-8 18 -7 3 -13 -3 -13 -13 0 -9 -2 -15 -5 -12 -10 10 8 68 21 68 8 0 11 6 7
16 -3 10 -8 12 -12 5 -4 -6 -12 -2 -20 11 -12 19 -11 20 13 14 26 -6 34 2 17
20 -5 5 -11 18 -14 29 -4 19 -5 19 -6 -1 0 -12 -8 -24 -16 -28 -17 -6 -21 9
-5 19 8 5 8 11 1 19 -6 7 -8 16 -4 20 4 4 2 11 -5 15 -10 6 -10 15 -2 35 15
40 12 54 -11 61 -19 6 -19 8 -5 24 9 10 13 26 9 39 -7 29 -23 28 -23 0 0 -18
-2 -20 -10 -8 -5 8 -6 26 -3 39 4 15 2 22 -4 18 -6 -4 -13 7 -17 27 -5 23 -13
36 -29 40 -18 5 -20 8 -7 16 10 6 11 10 2 10 -6 0 -11 6 -10 13 2 7 -7 12 -19
11 -21 0 -32 13 -33 41 -1 6 -13 17 -29 25 -52 29 -73 48 -66 61 5 7 4 10 -3
5 -5 -3 -12 -1 -14 4 -2 7 -13 7 -34 0 -27 -9 -36 -7 -72 16 -23 15 -42 32
-42 38 0 6 -4 5 -9 -3 -6 -9 -15 -11 -27 -6 -11 5 -34 9 -52 10 -18 0 -37 7
-42 15 -7 12 -10 11 -16 -4 -6 -15 -9 -13 -22 13 -16 34 -32 32 -32 -4 0 -22
-2 -24 -27 -14 -21 8 -28 7 -36 -6 -6 -12 -17 -14 -38 -10 -18 4 -29 3 -29 -4
0 -6 -9 -11 -21 -11 -32 0 -17 23 22 32 63 16 89 30 94 52 2 11 7 38 10 59 8
51 33 49 41 -3z m1319 -200 c0 -8 6 -14 13 -12 6 1 12 -5 12 -14 0 -9 -5 -12
-12 -8 -10 6 -10 4 0 -7 6 -7 12 -23 12 -36 0 -13 5 -23 11 -23 6 0 8 9 4 20
-8 25 -5 25 40 -1 45 -27 34 -42 -29 -38 l-46 4 -15 -44 c-15 -45 -13 -61 9
-61 7 0 21 -9 31 -20 24 -26 8 -48 -23 -31 -37 20 -69 13 -97 -20 -16 -20 -24
-38 -20 -48 21 -51 26 -73 21 -87 -5 -13 -9 -14 -21 -4 -7 6 -13 17 -11 23 1
7 1 8 -2 4 -2 -4 -11 -2 -20 5 -17 14 -17 14 4 -37 4 -11 0 -15 -15 -15 -16 0
-21 7 -22 28 -1 16 -3 20 -6 10 -5 -19 -18 -24 -27 -9 -4 5 6 18 20 29 26 18
26 19 5 25 -11 3 -21 1 -21 -4 0 -18 -46 -8 -59 12 -11 19 -11 21 3 16 11 -4
16 -1 16 11 0 14 2 15 10 2 5 -8 12 -11 17 -7 10 11 -19 28 -36 22 -11 -4 -11
-3 -2 9 7 8 20 12 29 9 9 -3 14 -3 10 2 -10 10 33 44 49 38 7 -3 13 2 13 11 0
9 6 19 14 22 8 3 12 13 9 23 -2 9 5 25 16 35 12 11 21 25 21 33 0 7 4 13 9 13
10 0 21 45 27 110 6 68 10 73 37 47 12 -12 23 -29 22 -37z m-1125 -54 c179
-63 298 -185 350 -357 25 -81 26 -210 4 -294 -21 -85 -103 -225 -130 -225 -4
0 3 12 17 28 77 86 127 251 114 372 -7 66 -44 192 -55 185 -7 -4 -15 13 -25
52 -5 20 -129 139 -174 167 -145 91 -355 93 -518 6 -42 -22 -53 -25 -53 -10 0
6 6 10 14 10 8 0 16 3 18 8 5 12 90 50 148 67 68 19 224 14 290 -9z m-7 -79
c236 -86 359 -353 275 -598 -13 -39 -39 -82 -45 -75 -2 2 5 24 16 49 34 74 47
176 33 249 -16 80 -71 191 -119 243 -146 156 -393 186 -564 68 -30 -20 -56
-39 -59 -42 -3 -3 -14 -13 -25 -21 -12 -9 -9 -2 8 19 106 128 302 172 480 108z
m-90 -142 c96 -25 173 -86 218 -174 16 -32 24 -67 27 -127 4 -72 1 -89 -21
-138 -32 -70 -95 -149 -113 -142 -8 3 -13 0 -11 -6 2 -12 -44 -41 -52 -33 -2
3 6 13 17 24 19 16 32 71 16 71 -18 0 -45 -24 -40 -35 6 -18 -7 -27 -28 -19
-24 9 -19 28 12 46 16 10 48 38 71 63 46 49 61 56 61 24 0 -11 -4 -17 -10 -14
-5 3 -10 2 -10 -3 0 -5 -12 -15 -27 -22 -18 -8 -23 -14 -15 -17 8 -3 19 0 25
6 7 7 14 7 24 -1 11 -9 12 -7 6 7 -5 15 -3 17 11 12 15 -6 17 -3 13 13 -3 11
-1 20 5 20 6 0 8 6 5 14 -3 8 1 17 9 20 13 5 13 8 0 28 -20 28 -20 45 -1 45 8
0 12 -4 10 -8 -3 -4 1 -9 9 -12 20 -8 27 18 11 40 -8 10 -15 31 -15 47 0 21
-4 27 -15 22 -10 -3 -15 -1 -14 7 2 12 -8 74 -18 110 -2 9 -11 17 -19 17 -8 0
-14 6 -14 13 0 6 -5 4 -11 -6 -6 -10 -9 -27 -6 -37 3 -11 -1 -24 -8 -30 -10
-8 -21 -3 -46 21 -19 18 -26 27 -17 20 15 -11 19 -11 25 5 4 11 2 19 -6 22 -8
3 -6 8 6 17 27 21 6 46 -52 61 -50 13 -110 10 -100 -6 3 -5 0 -12 -6 -16 -8
-5 -7 -9 2 -15 7 -4 18 -4 24 0 5 5 25 8 43 8 24 0 32 -5 32 -19 0 -21 -32
-38 -38 -20 -2 7 -10 12 -19 12 -10 0 -12 -6 -8 -21 5 -15 4 -19 -4 -15 -6 4
-11 14 -11 22 0 11 -5 12 -17 6 -10 -5 -27 -6 -38 -1 -29 11 -35 11 -35 -5 0
-8 -9 -18 -20 -21 -12 -4 -17 -11 -14 -18 4 -7 4 -9 -1 -5 -11 11 -36 -12 -28
-26 3 -6 2 -8 -2 -3 -11 9 -55 -32 -55 -52 -1 -13 -3 -12 -12 3 -8 15 -8 21 0
24 7 2 12 10 12 18 0 8 5 14 12 14 6 0 8 3 5 7 -4 3 2 16 12 27 13 14 17 26
11 35 -7 12 -10 12 -22 0 -8 -8 -18 -23 -22 -34 -5 -12 -10 -15 -13 -8 -2 7 1
22 7 35 9 18 5 16 -14 -7 -14 -16 -26 -37 -26 -45 0 -8 -9 -21 -20 -28 -11 -7
-20 -21 -20 -33 0 -11 -4 -28 -10 -38 -8 -16 -4 -18 31 -18 21 0 41 -2 43 -4
2 -2 6 -22 8 -45 3 -23 8 -46 12 -53 4 -6 4 -11 -1 -10 -20 3 -24 -2 -12 -17
11 -14 10 -18 -6 -30 -10 -8 -26 -14 -34 -14 -10 0 -12 3 -5 8 16 11 22 35 13
57 -6 15 -8 16 -8 4 -1 -9 -8 -20 -17 -23 -11 -4 -14 -1 -9 13 3 12 0 21 -9
24 -12 5 -14 0 -10 -26 5 -27 4 -29 -6 -14 -8 12 -11 50 -8 100 4 100 40 181
103 232 96 78 186 99 298 70z m953 -90 c9 -14 23 -25 30 -25 8 0 14 -7 14 -15
0 -8 -6 -12 -14 -9 -19 7 -30 -14 -17 -30 8 -9 7 -13 -2 -14 -6 -1 -24 -4 -39
-8 -18 -4 -28 -2 -28 5 0 6 -9 11 -20 11 -11 0 -20 -4 -20 -10 0 -5 5 -10 12
-10 9 0 9 -3 0 -12 -16 -16 -34 -17 -45 -3 -5 6 -7 1 -4 -10 2 -11 9 -19 16
-17 7 1 10 -2 6 -8 -3 -5 -1 -10 4 -10 6 0 11 -9 11 -20 0 -11 -5 -20 -11 -20
-6 0 -8 7 -5 15 4 11 -3 19 -19 25 -15 6 -25 17 -25 29 0 17 -5 19 -35 14 -35
-6 -35 -5 -35 30 0 38 -19 57 -59 57 -12 0 -21 4 -21 9 0 4 31 6 69 3 52 -3
81 0 112 12 24 10 55 18 71 18 15 1 25 5 22 10 -13 21 17 5 32 -17z m-1021
-95 c-2 -11 0 -20 6 -20 5 0 9 9 9 20 0 24 3 24 39 5 16 -8 31 -24 34 -36 3
-11 10 -18 15 -15 13 8 44 -86 32 -98 -5 -5 -6 -14 -3 -22 9 -24 -10 -42 -34
-33 -13 5 -23 13 -23 19 0 6 5 8 13 3 18 -11 37 -12 37 -2 0 5 -7 9 -16 9 -8
0 -13 4 -9 9 3 5 0 22 -7 37 l-13 27 -7 -24 c-5 -16 -6 -9 -3 18 4 35 2 41
-13 38 -9 -1 -22 7 -28 18 -11 19 -12 19 -18 -10 -4 -19 -15 -33 -27 -36 -23
-6 -24 -1 -4 19 17 18 20 38 4 29 -6 -4 -10 -1 -8 6 4 31 -2 50 -13 46 -7 -2
-12 -9 -11 -15 1 -6 -9 -9 -23 -7 -19 2 -23 -1 -19 -15 4 -11 -1 -20 -11 -24
-26 -10 -35 6 -16 30 25 30 53 43 89 44 27 0 31 -3 28 -20z m-1858 -92 c1 -13
2 -45 3 -72 0 -27 5 -55 11 -63 6 -7 9 -19 6 -27 -3 -8 0 -19 7 -25 7 -6 11
-23 8 -41 -3 -18 0 -30 7 -30 6 0 11 -5 11 -11 0 -5 -4 -7 -10 -4 -13 8 -13
-2 1 -64 8 -37 14 -48 25 -44 8 3 14 0 14 -6 0 -6 -6 -11 -14 -11 -8 0 -16 -7
-19 -14 -4 -10 -1 -13 9 -9 8 3 14 -1 14 -10 0 -10 7 -13 20 -10 11 3 20 0 20
-6 0 -6 -9 -11 -20 -11 -10 0 -23 -8 -29 -17 -10 -19 -12 -17 -24 32 -3 11
-14 54 -25 95 -31 114 -50 370 -29 370 7 0 13 -10 14 -22z m2733 4 c0 -4 11
-19 25 -34 20 -22 31 -26 55 -21 22 4 30 2 30 -8 0 -8 8 1 16 19 16 31 42 46
30 17 -3 -9 0 -15 10 -15 8 0 12 5 9 10 -4 6 10 10 34 10 36 0 41 -3 41 -22
l0 -23 20 25 c11 14 18 31 15 38 -3 9 0 10 15 2 24 -13 26 -30 5 -30 -10 0
-15 -10 -15 -26 0 -22 2 -25 15 -14 12 10 15 10 15 -2 0 -7 9 -14 20 -14 11 0
20 4 20 8 0 4 -4 8 -10 8 -5 0 -10 9 -10 20 0 13 7 20 19 20 46 0 73 -29 29
-31 -13 0 -17 -3 -11 -6 10 -3 10 -10 2 -25 -12 -22 -6 -48 12 -48 7 0 9 11 6
30 -6 25 -3 30 13 30 13 0 18 5 14 15 -7 17 11 21 21 5 4 -6 11 -8 16 -5 5 4
9 -3 9 -14 0 -22 24 -29 35 -11 9 15 25 12 25 -6 0 -8 -4 -12 -10 -9 -5 3 -10
-4 -10 -16 0 -19 2 -20 17 -8 12 10 17 11 20 2 2 -7 11 -9 19 -6 8 3 14 -1 14
-8 0 -12 2 -12 9 -1 5 9 8 0 7 -24 -1 -31 -5 -38 -23 -39 -13 -1 -23 3 -23 8
0 6 -2 8 -5 5 -8 -7 5 -38 16 -38 14 0 46 -36 53 -58 7 -21 -6 -24 -31 -9 -6
4 -13 1 -16 -5 -3 -7 -10 1 -17 19 -8 22 -24 38 -56 52 -24 12 -44 26 -44 31
0 6 -11 10 -25 10 -19 0 -25 5 -26 23 -1 16 -2 18 -6 4 -3 -13 -11 -16 -31
-11 -15 4 -31 9 -37 12 -5 4 -24 5 -42 3 -19 -1 -33 2 -33 8 0 6 -7 11 -15 11
-8 0 -15 -4 -15 -9 0 -12 -88 -33 -103 -25 -7 4 -9 4 -5 -1 4 -4 -19 -26 -50
-49 -74 -55 -108 -100 -139 -189 -36 -103 -30 -185 22 -295 21 -45 48 -91 61
-103 18 -17 21 -28 17 -55 -3 -20 -1 -34 4 -34 6 0 8 11 5 25 -2 14 -2 25 2
25 3 0 28 -14 56 -31 70 -43 130 -59 222 -59 43 0 78 -3 78 -7 -1 -38 -14 -53
-46 -53 -19 0 -34 5 -34 10 0 6 -10 9 -22 9 -17 -1 -19 -2 -5 -6 9 -2 17 -11
17 -20 0 -12 -3 -13 -15 -3 -8 6 -20 8 -26 4 -8 -4 -9 -3 -5 4 9 15 -9 15 -35
1 -11 -5 -17 -14 -14 -18 3 -5 -2 -12 -10 -15 -13 -5 -14 -2 -5 15 12 22 -4
54 -22 43 -5 -3 -18 2 -29 12 -18 16 -19 16 -20 -2 0 -18 -1 -18 -8 -1 -6 17
-8 17 -20 3 -7 -8 -10 -20 -6 -26 4 -6 -3 -6 -19 2 -32 14 -76 -5 -76 -33 0
-18 -44 -38 -56 -26 -7 7 27 87 37 87 5 0 9 -5 9 -12 0 -9 3 -9 11 -1 8 8 2
19 -22 42 -51 46 -66 48 -103 12 -44 -42 -66 -41 -66 4 0 44 2 50 18 50 19 0
43 36 37 55 -3 9 1 7 10 -5 14 -18 14 -21 0 -31 -8 -6 -15 -18 -15 -27 0 -9
-9 -21 -20 -27 -25 -14 -26 -29 -1 -27 11 1 22 10 25 20 3 12 9 16 17 11 9 -5
11 -1 7 14 -4 13 -2 19 6 16 6 -2 12 6 12 18 4 51 8 74 16 85 5 6 5 14 0 17
-5 3 -15 -6 -22 -19 -7 -14 -17 -25 -21 -25 -9 0 -5 67 4 76 3 3 3 12 1 19 -3
7 -1 16 5 20 6 3 11 11 11 17 0 7 -9 2 -20 -10 -11 -12 -20 -26 -20 -32 0 -6
-7 -6 -20 2 -11 7 -20 21 -20 31 0 10 -3 16 -7 14 -5 -3 -9 22 -11 54 -3 59 9
78 23 37 5 -13 9 -36 9 -53 1 -40 36 -50 36 -10 0 16 4 24 11 20 5 -4 3 10 -6
31 -9 22 -12 41 -6 47 5 5 6 18 3 29 -4 15 -11 19 -34 16 -35 -5 -33 13 3 23
13 4 18 7 11 8 -19 1 -46 30 -37 39 4 4 10 1 12 -5 6 -18 32 -16 39 2 5 13 8
13 21 0 19 -20 29 -13 43 30 9 28 8 38 -6 59 -9 15 -21 26 -28 26 -6 0 -3 7 8
15 10 8 16 21 13 29 -3 8 2 16 14 19 21 6 36 -9 17 -16 -8 -3 -5 -6 6 -6 15
-1 16 -4 6 -16 -8 -9 -9 -15 -2 -15 32 0 15 59 -25 85 -12 9 -23 22 -23 29 0
8 -6 17 -12 19 -7 3 -3 6 10 6 15 1 22 7 22 20 0 10 6 31 14 45 12 23 15 25
26 11 11 -13 15 -13 21 -3 6 9 9 9 9 1 0 -6 -4 -15 -10 -18 -15 -9 -12 -25 5
-25 8 0 15 5 15 10 0 6 7 10 16 10 12 0 14 -4 7 -12 -5 -7 -8 -19 -7 -25 1 -7
2 -17 3 -23 0 -5 11 -10 24 -10 13 0 17 3 11 8 -7 4 -12 18 -12 32 0 30 -40
102 -53 94 -5 -3 -6 -11 -3 -17 5 -9 4 -9 -6 0 -14 13 -6 63 10 63 6 0 10 -3
10 -8z m351 -351 c77 -34 129 -109 129 -185 0 -27 -3 -34 -15 -30 -8 4 -12 10
-9 15 3 5 -3 9 -13 9 -15 0 -15 2 -3 10 12 8 12 11 -3 28 -9 10 -17 28 -17 39
0 11 -13 31 -30 44 -16 13 -30 30 -30 37 0 17 -37 15 -44 -3 -7 -18 -67 -20
-85 -2 -10 10 -11 8 -6 -8 6 -19 6 -19 -8 -2 -8 9 -17 17 -21 17 -3 0 -6 -8
-7 -17 0 -16 -1 -15 -8 2 -7 18 -8 18 -18 1 -6 -11 -8 -27 -6 -37 3 -10 -2
-25 -10 -34 -19 -18 -34 -20 -19 -2 5 6 8 27 6 44 -3 29 1 36 34 56 20 13 44
26 52 30 31 12 89 6 131 -12z m-722 -545 c188 -396 193 -407 203 -456 14 -71
14 -83 -1 -88 -9 -3 -11 1 -7 16 5 14 1 21 -14 25 -18 4 -21 11 -17 36 8 51
-37 180 -68 192 -5 2 -9 9 -7 16 1 6 -9 35 -23 64 -14 29 -25 59 -25 66 0 7
-5 13 -11 13 -6 0 -8 -7 -5 -16 3 -9 2 -12 -5 -9 -5 4 -7 15 -4 26 4 11 0 26
-9 35 -9 8 -16 24 -16 35 0 10 -4 19 -10 19 -5 0 -10 9 -10 21 0 11 -6 33 -14
47 -8 15 -19 42 -25 60 -21 66 11 19 68 -102z m1304 55 c23 -16 55 -43 71 -60
l30 -31 -25 -50 c-13 -27 -28 -50 -33 -50 -4 0 -6 7 -2 15 3 8 1 15 -5 15 -7
0 -9 -10 -5 -26 7 -25 6 -25 -26 -19 -60 14 -139 41 -141 49 -3 13 35 33 39
21 11 -26 26 -40 31 -27 7 17 26 15 19 -3 -10 -28 13 -15 29 15 14 27 14 30 0
30 -8 0 -17 11 -21 25 -5 22 -9 24 -22 13 -13 -11 -14 -9 -8 17 4 17 7 45 7
63 -1 39 9 40 62 3z m-2868 -371 c10 0 15 -3 12 -7 -10 -9 14 -34 26 -26 6 3
7 1 3 -5 -4 -7 7 -20 29 -33 19 -12 40 -30 46 -40 5 -11 16 -19 24 -19 8 0 15
-5 15 -11 0 -5 5 -7 12 -3 6 4 8 3 5 -3 -4 -6 0 -14 9 -17 8 -3 12 -2 9 4 -12
19 54 -12 86 -41 19 -17 50 -38 69 -47 19 -8 48 -26 64 -39 16 -13 36 -21 44
-18 8 3 24 3 35 -1 16 -5 17 -8 6 -16 -11 -7 -9 -8 5 -4 26 9 56 -2 56 -20 0
-16 16 -19 25 -4 10 16 26 11 23 -7 -2 -14 4 -18 29 -17 21 1 31 -2 26 -9 -3
-6 -1 -7 6 -3 6 4 25 0 43 -8 34 -17 62 -22 38 -6 -20 13 -10 12 52 -4 30 -8
69 -12 86 -10 20 2 31 0 27 -6 -3 -6 0 -11 7 -11 190 -17 405 -6 526 28 30 8
56 13 59 10 6 -7 -54 -24 -134 -38 -35 -6 -63 -14 -63 -19 0 -4 -12 -5 -27 -3
-18 3 -24 1 -16 -4 7 -5 -50 -7 -137 -5 -98 3 -150 1 -150 -6 0 -14 -81 -2
-98 15 -7 7 -30 13 -50 13 -38 1 -104 15 -207 45 -181 53 -401 169 -503 265
-23 22 -46 40 -50 40 -10 0 -152 138 -152 147 0 4 15 -7 33 -25 18 -18 41 -32
52 -32z m2649 -35 c25 -32 46 -66 46 -75 0 -9 -20 -35 -44 -59 l-45 -44 -43
22 c-24 12 -61 32 -83 44 l-40 21 30 6 c23 4 32 1 37 -13 4 -10 12 -15 18 -12
5 3 10 1 10 -5 0 -6 10 -8 25 -4 15 4 25 2 25 -5 0 -6 5 -11 11 -11 7 0 9 12
7 30 -3 22 -1 29 8 26 13 -5 23 21 17 42 -3 6 -12 12 -20 12 -9 0 -13 3 -10 6
3 4 0 16 -8 28 -19 26 -19 55 -1 52 8 -1 35 -28 60 -61z m-368 -273 c14 -10
74 -122 74 -140 0 -9 -6 -12 -16 -8 -8 3 -13 2 -10 -3 6 -9 -24 -32 -73 -59
-23 -12 -28 -10 -65 25 -22 21 -46 44 -54 51 -22 20 -5 27 22 8 14 -9 35 -16
46 -16 12 0 19 -4 15 -9 -3 -5 -1 -12 5 -16 5 -3 10 0 10 7 0 9 3 9 10 -2 9
-13 11 -13 20 0 5 8 8 21 5 29 -3 7 -1 19 5 26 7 9 7 21 -2 41 -12 31 -18 74
-8 74 3 0 10 -4 16 -8z"/>
<path d="M3520 3451 c0 -3 -9 -12 -21 -19 -12 -8 -18 -9 -14 -3 3 6 -1 11 -9
11 -9 0 -16 -8 -16 -19 0 -11 -5 -21 -11 -23 -7 -2 -13 -30 -14 -63 -4 -80 23
-146 71 -171 19 -10 34 -22 34 -26 0 -10 77 1 102 13 10 6 19 5 23 -1 10 -16
25 -12 25 7 0 9 12 31 26 50 19 25 26 46 26 86 2 60 -7 79 -56 126 -32 31 -41
34 -101 36 -36 1 -65 -1 -65 -4z m103 -45 c41 -17 71 -51 64 -71 -4 -8 -1 -15
6 -15 8 0 6 -4 -3 -10 -10 -6 -11 -10 -2 -10 17 0 15 -29 -3 -36 -8 -4 -15
-15 -15 -25 0 -11 -7 -22 -15 -25 -8 -4 -15 -11 -15 -18 0 -6 -9 -20 -21 -29
-20 -18 -21 -18 -14 2 4 12 2 21 -4 21 -6 0 -11 -4 -11 -10 0 -5 -5 -10 -11
-10 -5 0 -8 4 -5 9 3 5 -11 12 -31 16 -20 3 -42 13 -49 20 -20 20 -17 45 5 45
29 0 35 18 9 22 -20 3 -23 8 -20 47 4 77 61 109 135 77z"/>
</g>
</svg>
