<?xml version="1.0" standalone="no"?>
<!DOCTYPE svg PUBLIC "-//W3C//DTD SVG 20010904//EN"
 "http://www.w3.org/TR/2001/REC-SVG-20010904/DTD/svg10.dtd">
<svg version="1.0" xmlns="http://www.w3.org/2000/svg"
 width="1280.000000pt" height="853.000000pt" viewBox="0 0 1280.000000 853.000000"
 preserveAspectRatio="xMidYMid meet">
<metadata>
Created by potrace 1.16, written by Peter Selinger 2001-2019
</metadata>
<g transform="translate(0.000000,853.000000) scale(0.100000,-0.100000)"
fill="#000000" stroke="none">
<path d="M0 4265 l0 -4265 6400 0 6400 0 0 4265 0 4265 -6400 0 -6400 0 0
-4265z m8061 2739 c27 -9 49 -22 49 -28 0 -8 -58 -20 -167 -35 -93 -13 -220
-32 -283 -42 -118 -19 -164 -23 -120 -9 14 4 -11 5 -55 2 -95 -6 -110 -12 -34
-13 l54 -1 -40 -9 c-59 -12 -87 -11 -79 2 5 9 -1 10 -20 5 -18 -4 -25 -3 -21
4 4 6 -4 10 -19 10 -14 0 -26 -5 -26 -11 0 -5 -5 -7 -11 -4 -6 4 -8 13 -5 21
3 8 0 11 -10 7 -13 -5 -208 56 -201 64 2 2 39 0 83 -4 57 -5 72 -9 54 -14 -22
-6 -21 -7 10 -8 19 -1 48 -8 64 -16 33 -17 105 -19 195 -4 86 14 388 49 484
56 42 3 77 10 77 14 0 5 -8 9 -17 9 -10 0 -25 5 -33 10 -25 16 13 13 71 -6z
m-5298 -147 c44 -40 57 -73 57 -141 0 -51 -1 -53 -42 -80 -23 -15 -54 -30 -69
-33 -24 -5 -26 -3 -22 21 4 19 1 26 -10 26 -12 0 -15 8 -10 35 3 21 1 35 -5
35 -5 0 -10 10 -10 23 1 12 -3 37 -7 55 -5 21 -4 32 4 32 6 0 11 7 11 15 0 8
6 15 14 15 8 0 16 7 20 15 9 23 30 18 69 -18z m5465 -76 c48 -16 222 -73 387
-126 165 -53 325 -104 355 -115 30 -10 87 -28 125 -40 39 -11 241 -77 450
-145 209 -68 433 -140 498 -161 156 -49 164 -56 99 -77 -28 -10 -60 -17 -71
-17 -11 0 -22 -4 -26 -10 -3 -5 -11 -7 -18 -4 -15 5 -226 -28 -320 -50 -34 -8
-105 -22 -157 -31 -190 -32 -327 -58 -410 -77 -47 -10 -121 -26 -164 -34 -44
-8 -85 -19 -90 -23 -16 -13 -154 -34 -167 -25 -8 4 -9 3 -5 -4 4 -8 -7 -11
-36 -10 -24 1 -72 -7 -108 -16 -36 -10 -83 -18 -105 -18 -39 0 -39 0 -10 -9
23 -6 16 -7 -25 -3 -42 3 -51 2 -40 -7 12 -9 12 -10 -4 -5 -11 4 -42 2 -70 -3
-28 -6 -107 -18 -176 -26 -69 -9 -127 -21 -128 -26 -2 -5 -7 -7 -11 -5 -14 9
-256 -35 -279 -50 -13 -9 -53 -17 -90 -19 -37 -2 -116 -11 -177 -20 -60 -9
-155 -22 -210 -30 -55 -8 -131 -21 -170 -30 -38 -10 -81 -18 -95 -19 -14 -2
-35 -8 -47 -14 -12 -7 -37 -12 -55 -12 -18 0 -76 -6 -128 -15 -97 -15 -397
-60 -460 -69 -19 -3 -71 -12 -115 -21 -44 -9 -87 -17 -95 -17 -8 0 -33 -4 -56
-9 -22 -4 -67 -11 -100 -14 -134 -13 -548 -77 -649 -101 -33 -7 -75 -14 -94
-14 -19 0 -60 -7 -90 -14 -31 -8 -73 -18 -93 -21 -40 -6 -50 -20 -20 -28 15
-4 15 -5 -1 -6 -11 -1 -21 8 -24 20 -3 11 -11 18 -18 15 -15 -5 -84 -16 -140
-21 -57 -5 -186 -24 -206 -30 -9 -3 -43 -10 -76 -16 -114 -20 -173 -28 -473
-60 -58 -6 -136 -17 -173 -25 -38 -8 -83 -14 -101 -14 -17 0 -36 -4 -41 -9
-14 -12 -104 -20 -111 -10 -3 5 -18 9 -34 9 -15 0 -31 6 -33 13 -4 8 -8 8 -14
2 -10 -13 -63 -17 -63 -4 0 5 10 9 23 10 14 0 17 3 7 6 -8 3 -23 14 -34 25
-11 10 -34 18 -52 18 -17 0 -37 7 -44 15 -7 9 -19 14 -26 11 -8 -3 -11 0 -8 9
6 14 -29 30 -45 20 -5 -3 -12 -1 -16 5 -3 6 4 10 17 10 13 0 30 5 38 11 12 8
10 10 -10 5 -17 -4 -39 5 -75 29 -32 21 -59 32 -71 29 -13 -3 -27 3 -39 18
l-20 23 21 -17 c21 -19 44 -24 44 -10 0 14 -104 72 -110 61 -4 -5 -18 1 -34
16 -15 14 -24 25 -20 25 3 0 1 7 -6 15 -14 17 -35 21 -25 5 10 -16 -7 -12 -40
10 -16 11 -25 20 -18 20 6 0 15 -4 18 -10 3 -5 11 -10 17 -10 6 0 1 11 -12 25
-13 14 -27 25 -32 25 -10 0 -88 57 -131 95 -41 37 -64 32 -25 -6 l33 -31 -33
26 c-19 14 -37 26 -41 26 -4 0 -16 8 -27 18 -10 9 -35 27 -54 40 -36 22 -27
30 13 12 18 -9 17 -7 -3 7 -13 10 -33 26 -42 36 -10 9 -21 17 -24 17 -3 0 -21
12 -40 26 -19 15 -38 23 -42 19 -4 -4 -1 -10 6 -12 6 -3 12 -8 12 -13 0 -4
-11 -3 -25 3 -25 12 -33 27 -14 27 6 0 5 5 -3 13 -15 14 -140 111 -182 142
-16 11 -49 36 -75 56 -70 54 -111 73 -111 50 0 -5 13 -12 30 -16 16 -4 30 -11
30 -16 0 -5 -2 -9 -3 -9 -9 0 -64 32 -87 50 -19 15 -21 20 -8 20 9 0 18 -5 20
-12 3 -8 9 -8 24 0 12 7 14 12 5 12 -7 0 -21 8 -30 18 -9 9 -34 26 -55 37 -50
25 -101 71 -89 78 21 13 111 28 285 47 101 11 198 22 216 25 l32 6 0 -46 c0
-26 4 -55 10 -65 8 -14 4 -21 -16 -35 -14 -9 -29 -26 -34 -38 -8 -21 -9 -20
-9 6 -1 17 -6 27 -16 27 -8 0 -15 -4 -15 -9 0 -5 -11 -11 -25 -13 -17 -4 -25
-1 -25 9 0 10 -10 12 -37 8 -21 -2 -60 -7 -88 -11 -38 -4 -45 -8 -32 -15 24
-14 21 -27 -5 -31 -13 -2 9 -4 47 -4 82 0 108 -10 80 -31 -11 -7 -14 -13 -7
-13 6 0 9 -6 6 -14 -4 -11 5 -14 44 -13 48 2 65 -12 19 -14 -19 -1 -19 -2 -3
-6 15 -4 16 -7 5 -14 -9 -6 3 -9 35 -9 39 0 46 -3 37 -13 -12 -15 -5 -27 17
-27 8 0 12 6 8 15 -4 11 2 15 27 15 24 0 28 -3 17 -10 -11 -7 -6 -10 20 -10
19 0 30 4 23 8 -6 4 19 8 55 8 37 1 109 9 160 19 75 14 99 23 125 47 18 16 24
26 15 22 -12 -4 -18 -1 -18 9 0 10 7 13 20 10 11 -3 20 -10 20 -15 0 -5 5 -6
10 -3 6 3 10 2 10 -3 0 -5 -10 -14 -23 -20 l-22 -11 23 0 c20 -1 21 -3 10 -14
-7 -8 -20 -17 -28 -20 -8 -4 1 -4 20 -2 93 11 241 15 235 5 -3 -5 -14 -10 -24
-10 -10 0 -34 -7 -52 -15 l-34 -16 45 6 c25 3 72 9 105 12 33 3 64 9 70 14 5
5 20 9 35 10 14 0 34 4 45 9 12 5 -11 7 -60 4 -60 -4 -76 -3 -65 5 11 9 -5 10
-65 7 -44 -2 -68 -2 -54 1 21 3 26 8 22 24 -5 19 -2 20 49 18 30 -1 59 0 64 3
9 6 89 22 168 34 25 3 35 8 27 13 -9 6 -4 12 17 19 17 6 33 8 36 5 3 -4 6 -1
6 5 0 6 -4 14 -10 17 -5 3 -10 1 -10 -4 0 -6 -11 -11 -24 -11 l-24 0 17 45
c18 46 31 67 31 47 0 -7 5 -12 11 -12 5 0 7 4 4 10 -11 17 40 21 77 5 45 -18
104 -20 111 -2 4 9 8 8 16 -3 9 -13 11 -12 11 5 0 15 2 17 9 6 5 -8 16 -11 25
-8 13 5 16 24 16 101 l0 96 28 5 c66 14 62 17 62 -35 0 -43 -2 -48 -20 -43
-11 3 -20 9 -20 13 0 5 -9 6 -19 3 -23 -6 -26 -56 -5 -74 18 -15 159 -25 150
-11 -4 7 -2 12 3 12 6 0 11 -5 11 -11 0 -6 10 -9 22 -7 19 2 23 11 26 48 2 25
5 46 5 46 1 1 27 4 57 7 50 5 52 5 20 -5 -20 -6 -29 -13 -21 -16 11 -4 11 -6
0 -13 -21 -13 36 -31 115 -35 37 -3 71 -5 75 -6 3 0 18 0 34 1 24 1 27 5 27
36 0 30 3 35 23 34 25 0 69 -17 49 -18 -7 -1 -11 -5 -8 -10 3 -4 18 -6 33 -4
l28 4 -25 -16 -25 -16 33 6 c20 4 32 3 32 -4 0 -6 15 -11 34 -11 19 0 38 -4
41 -10 4 -6 -6 -10 -22 -10 -15 0 -34 -4 -40 -8 -7 -4 15 -6 50 -4 34 2 105
-4 157 -13 52 -10 122 -20 155 -22 57 -5 91 -25 78 -46 -2 -4 24 -5 60 -1 43
4 67 3 71 -5 4 -6 20 -11 36 -11 41 0 65 -10 48 -21 -8 -5 28 -9 87 -10 106
-1 101 -8 -24 -28 -47 -8 -75 -19 -103 -41 -43 -35 -74 -35 -135 0 -38 22 -73
28 -93 15 -12 -7 -13 -6 -3 6 12 15 7 59 -6 59 -14 0 -31 -25 -31 -46 0 -17
-8 -23 -34 -28 -42 -8 -58 -36 -21 -36 14 0 33 -4 43 -9 23 -13 174 -41 219
-41 20 0 33 -3 30 -7 -4 -3 -34 -5 -67 -4 -64 3 -100 -5 -100 -20 0 -5 12 -9
26 -9 14 0 23 -4 19 -10 -3 -5 -1 -10 5 -10 19 0 57 -34 52 -48 -2 -8 9 -12
35 -12 28 0 34 -3 23 -10 -11 -7 -8 -10 16 -10 16 0 53 -11 82 -25 28 -13 69
-28 91 -31 23 -4 38 -10 35 -15 -3 -5 1 -9 9 -9 8 0 17 -7 21 -15 3 -8 17 -15
31 -15 15 0 36 -5 47 -11 17 -9 18 -13 7 -21 -10 -6 -5 -7 16 -4 38 8 69 -9
40 -21 -15 -6 -8 -9 30 -13 31 -3 49 -10 48 -17 -1 -6 15 -14 37 -18 22 -4 40
-11 40 -17 0 -15 150 -5 178 13 32 19 63 73 67 114 4 44 -34 79 -75 70 -18 -4
-35 2 -60 20 -18 14 -40 25 -48 25 -24 0 -112 42 -106 51 2 5 -7 11 -21 15
-15 4 -48 17 -73 30 -46 23 -46 23 -12 17 50 -8 140 -50 140 -65 0 -9 3 -10 8
-2 4 7 21 9 41 6 23 -3 29 -7 20 -13 -11 -7 -10 -9 4 -9 11 0 15 -4 11 -12 -4
-6 -3 -8 3 -5 6 4 28 0 49 -9 72 -30 280 -13 292 24 3 9 -34 12 -160 13 -103
0 -153 4 -135 9 15 5 86 8 158 8 71 0 133 3 136 6 4 4 0 13 -8 22 -20 19 -192
33 -402 34 -81 0 -155 4 -165 9 -9 5 -60 26 -112 46 -160 62 -155 58 -75 67
92 11 262 1 405 -24 181 -31 231 -38 290 -42 30 -1 118 -6 195 -11 148 -8 185
-2 185 32 0 13 -3 14 -12 5 -27 -27 -174 -9 -528 62 -118 24 -208 44 -199 45
9 1 63 -8 119 -19 56 -12 105 -19 108 -15 3 3 0 5 -7 5 -7 0 -9 5 -6 10 10 16
55 12 55 -4 0 -8 -6 -17 -12 -19 -7 -3 3 -6 23 -6 19 -1 40 4 45 9 8 8 19 8
38 0 35 -13 76 -13 76 0 0 6 -6 10 -14 10 -8 0 -16 4 -18 10 -3 9 -44 20 -198
55 -41 9 -102 23 -135 30 -33 7 -85 16 -115 19 l-55 6 45 -16 c25 -8 51 -17
58 -19 7 -3 11 -9 7 -14 -6 -10 -125 27 -136 42 -4 5 -9 5 -12 0 -4 -6 -27 -6
-61 0 -64 12 -66 30 -3 21 28 -4 39 -3 32 3 -5 6 -45 16 -87 23 -43 7 -78 16
-78 20 0 4 -28 13 -62 19 -106 20 -221 39 -268 45 -95 14 -62 21 89 20 86 0
174 -4 196 -7 100 -17 101 -17 80 -8 -17 8 -15 10 13 10 20 1 31 -3 27 -9 -8
-12 -11 -12 56 0 30 5 133 14 229 20 288 17 419 31 530 55 58 13 150 26 205
30 55 3 145 13 200 21 55 8 145 19 200 25 55 5 161 18 235 29 74 11 167 22
205 25 39 4 142 16 229 28 150 21 159 23 162 45 4 21 -11 32 -18 13 -3 -9 -28
-14 -63 -12 -17 1 -15 3 8 16 21 10 66 15 155 16 70 1 121 4 115 6 -34 12 -3
21 110 32 67 7 145 15 172 19 l50 7 3 48 c2 26 7 47 13 47 5 0 49 -13 97 -29z
m-654 9 c-10 -10 -102 -26 -236 -39 -88 -9 -133 -25 -123 -42 4 -5 21 -9 38
-10 21 -1 7 -6 -38 -15 -47 -10 -99 -12 -159 -8 -63 4 -87 3 -82 -5 5 -7 -7
-11 -36 -11 -31 0 -39 -3 -28 -10 11 -7 5 -10 -25 -11 -34 -2 -30 -3 20 -9 33
-4 90 -3 128 2 37 5 73 8 80 5 19 -6 -180 -30 -203 -24 -11 3 -20 1 -20 -4 0
-5 -8 -9 -17 -9 -14 0 -15 2 -5 9 21 13 -54 24 -77 11 -11 -5 -48 -10 -83 -9
-77 1 -43 16 40 18 60 1 64 21 4 22 -30 0 -33 2 -17 9 12 5 -1 6 -35 3 -66 -7
-78 -13 -25 -13 51 0 42 -6 -20 -15 -27 -3 -51 -9 -52 -13 -2 -4 -27 -6 -55
-5 -41 1 -46 0 -23 -6 27 -6 25 -8 -25 -14 -30 -4 -80 -7 -110 -7 -52 -1 -54
-2 -35 -16 19 -15 17 -15 -24 -10 -25 3 -47 10 -50 14 -3 5 -44 9 -91 10 -55
0 -79 -2 -70 -8 11 -7 6 -10 -20 -11 -31 -1 -32 -2 -10 -8 14 -4 41 -4 60 0
19 5 64 4 100 -2 66 -10 90 -19 52 -19 -11 0 -28 -3 -38 -7 -13 -5 -15 -3 -9
7 6 10 4 12 -10 6 -16 -6 -134 -25 -159 -26 -4 0 -6 6 -3 13 3 9 -8 11 -42 9
-35 -2 -43 -1 -31 8 11 8 3 10 -35 5 -27 -3 -61 -6 -75 -6 -14 -1 -77 -8 -140
-17 -63 -9 -171 -17 -240 -17 -117 0 -127 2 -150 23 -13 12 -30 20 -37 18 -18
-7 -16 9 2 24 8 7 15 9 15 4 0 -4 5 -3 12 4 7 7 23 12 37 12 21 0 23 -2 11
-10 -12 -8 -12 -10 -1 -10 8 0 19 -7 25 -15 8 -11 32 -15 89 -16 43 -1 81 1
84 5 3 3 6 19 5 34 0 17 5 29 12 29 8 0 11 -9 8 -24 -4 -22 -1 -23 47 -23 30
0 51 4 51 11 0 7 -17 10 -45 7 -25 -2 -45 -2 -45 -1 0 22 16 28 68 25 31 -2
61 -8 66 -13 12 -11 153 -11 179 0 17 6 16 8 -8 19 -15 7 -24 8 -20 2 3 -5 1
-10 -4 -10 -6 0 -11 7 -11 15 0 17 45 21 55 5 12 -19 40 -28 60 -19 18 9 18 9
-3 5 -15 -3 -22 0 -19 7 2 8 21 11 48 9 88 -6 196 -5 235 3 33 6 36 9 19 15
-13 6 4 9 50 10 134 2 542 50 529 63 -4 4 -18 7 -31 7 -12 0 -23 5 -23 10 0
13 11 13 80 -2 44 -9 86 -8 186 1 71 7 164 16 207 21 43 4 83 12 90 19 6 6 20
11 32 10 20 0 20 0 0 -10 -23 -10 46 -3 105 11 50 11 55 11 44 0z m-4779 -405
c55 -118 60 -138 46 -184 -13 -45 -48 -84 -68 -77 -7 3 -13 1 -13 -3 0 -5 -9
-7 -20 -4 -11 3 -20 10 -20 15 0 5 -5 6 -10 3 -17 -10 -40 15 -40 44 0 14 -9
44 -19 66 -18 40 -18 70 0 59 5 -3 9 7 9 21 0 15 4 24 10 20 6 -3 10 1 10 10
0 9 16 33 34 53 19 20 32 39 29 42 -3 3 -8 -1 -10 -8 -4 -10 -8 -10 -19 -1
-20 17 -17 39 9 61 l22 20 9 -34 c5 -18 23 -64 41 -103z m6612 -461 c7 -22
-66 -41 -251 -64 -167 -22 -192 -28 -160 -41 16 -6 14 -8 -9 -8 -17 -1 -26 -5
-22 -11 5 -7 -9 -10 -42 -7 -26 3 -64 2 -83 -1 l-35 -6 35 -7 c32 -6 33 -7 13
-14 -13 -4 -23 -14 -23 -21 0 -8 -8 -14 -17 -14 -16 0 -16 2 -3 11 12 8 10 9
-10 5 -14 -3 -41 -6 -60 -7 -32 -1 -33 -2 -10 -9 20 -6 17 -7 -17 -7 -23 1
-39 5 -37 9 3 4 -2 8 -10 8 -9 0 -16 -3 -16 -8 0 -4 -18 -8 -39 -8 -21 -1 -56
-5 -77 -9 -22 -4 -36 -4 -33 -1 10 10 149 36 197 37 26 0 65 4 87 9 36 8 34 9
-22 6 -35 -1 -63 1 -63 6 0 4 15 8 33 9 17 0 41 4 52 9 16 7 11 9 -22 9 -37 1
-70 16 -40 19 7 0 32 6 57 11 64 15 190 29 184 20 -2 -4 -41 -10 -86 -15 -60
-5 -75 -9 -53 -14 30 -6 83 3 140 22 56 18 160 36 190 32 23 -3 25 -2 11 4
-19 8 -18 9 5 15 13 4 31 7 39 7 13 0 13 -1 0 -11 -11 -7 3 -8 45 -3 62 7 85
14 45 14 -23 0 -23 0 -4 20 14 14 30 19 63 17 25 -1 46 -7 48 -13z m163 -284
c5 0 10 -12 12 -27 2 -14 9 -28 16 -31 8 -2 12 12 14 50 l1 53 6 -45 c6 -37 8
-40 13 -20 5 23 5 22 7 -7 0 -17 -3 -35 -9 -38 -5 -3 -10 -12 -10 -18 0 -8 3
-8 9 1 5 8 10 -17 14 -65 3 -42 2 -80 -3 -83 -9 -5 -7 -56 3 -80 4 -8 9 -42
11 -75 3 -33 5 -62 6 -65 0 -3 7 4 15 14 10 13 15 15 15 6 0 -7 -8 -22 -17
-33 -17 -19 -17 -20 0 -14 15 5 17 0 17 -39 0 -30 -4 -43 -11 -38 -7 4 -10 -6
-8 -29 2 -20 0 -39 -4 -43 -4 -4 -7 8 -8 27 0 19 -5 43 -10 54 -6 14 -8 -5 -4
-59 4 -68 3 -77 -11 -72 -13 5 -14 -7 -8 -105 4 -79 3 -118 -6 -133 -9 -18 -9
-30 4 -61 9 -20 16 -46 16 -56 0 -11 6 -19 13 -19 9 0 9 -2 0 -8 -7 -5 -15
-30 -18 -58 -4 -37 -3 -44 5 -29 8 16 9 14 4 -12 -8 -44 -8 -153 0 -194 l6
-34 -12 29 c-13 27 -13 26 -11 -25 1 -30 2 -58 3 -62 0 -5 4 -5 10 -2 6 4 8
-31 4 -102 -7 -115 -14 -148 -14 -67 0 35 -3 45 -10 34 -8 -12 -10 -9 -10 12
0 15 5 30 11 33 6 4 7 14 3 24 -12 28 -16 212 -4 225 5 7 7 16 3 19 -17 17
-23 2 -24 -60 -1 -38 -4 -58 -6 -45 -2 12 -9 22 -14 22 -9 0 -4 229 7 282 4
20 1 28 -15 33 -12 3 -21 11 -21 17 0 7 4 7 13 -1 19 -15 27 -4 27 38 0 28 -3
32 -10 21 -14 -20 -11 127 2 154 7 13 6 21 -2 26 -16 10 -9 66 8 62 8 -1 11 2
7 8 -3 6 -11 8 -16 5 -5 -4 -10 13 -11 37 l-1 43 -4 -38 c-2 -20 -8 -35 -13
-32 -4 3 -11 -22 -15 -56 -4 -33 -10 -58 -13 -55 -3 3 -11 -2 -18 -12 -12 -15
-14 -10 -15 38 -1 30 -2 82 -1 115 0 33 2 197 3 364 1 168 5 316 9 330 6 18 9
4 9 -47 1 -46 5 -71 11 -67 6 3 10 23 11 43 0 30 2 33 9 17 6 -15 9 -6 11 35
1 38 3 45 6 23 2 -18 8 -33 13 -33z m-1882 -7 c-36 -9 -16 -23 35 -24 59 -1
38 -11 -48 -23 -38 -5 -47 -4 -35 5 13 9 12 10 -3 5 -10 -3 -28 -6 -40 -7 -13
-1 -5 -5 17 -10 36 -9 164 6 235 27 15 5 22 3 18 -3 -3 -5 -48 -17 -99 -26
-243 -43 -383 -63 -408 -60 -8 2 -24 -2 -35 -7 -27 -12 -135 -19 -135 -8 0 4
19 8 43 8 23 0 49 5 57 11 11 8 8 9 -15 5 -16 -3 -36 -2 -43 3 -9 5 0 10 29
14 23 3 45 10 48 16 9 13 168 54 181 46 6 -4 10 -1 10 6 0 8 21 10 69 7 38 -2
67 0 65 4 -4 6 26 15 56 15 9 1 9 -1 -2 -4z m1305 -90 c-17 -2 -34 -11 -37
-20 -5 -13 -4 -14 8 -4 8 7 20 10 25 6 6 -3 20 -1 32 5 19 11 20 10 14 -12 -4
-15 -3 -19 3 -10 5 8 23 15 41 16 24 2 31 -2 31 -16 0 -10 -6 -18 -13 -18 -7
0 -22 -8 -33 -18 -10 -10 -27 -21 -37 -25 -10 -4 -15 -11 -12 -17 4 -6 -5 -10
-19 -10 -14 0 -26 -4 -26 -10 0 -11 63 -1 68 12 2 4 13 8 24 8 32 0 -1 -26
-44 -34 -20 -3 -41 -12 -46 -19 -6 -7 -36 -14 -66 -15 -31 -1 -67 -7 -82 -12
-25 -10 -25 -11 -10 -35 15 -22 14 -24 -5 -30 -11 -4 -23 -4 -26 -1 -4 3 2 6
13 6 18 1 18 1 2 11 -14 8 -16 18 -12 47 4 20 7 42 7 49 0 6 7 8 16 5 10 -4
11 -7 3 -10 -20 -6 -13 -20 8 -15 11 3 20 10 20 17 0 6 11 24 25 40 14 16 25
24 25 18 0 -23 18 -12 25 15 4 17 9 23 14 15 6 -9 16 -9 47 3 23 9 28 13 12
10 -17 -3 -32 1 -43 12 -16 16 -16 17 1 30 10 7 32 12 48 11 l31 -1 -32 -4z
m-458 -72 c-5 -16 -2 -18 15 -14 13 3 20 1 20 -9 0 -10 -11 -13 -40 -10 -22 2
-40 0 -40 -6 0 -5 -33 -26 -72 -45 -74 -37 -140 -90 -171 -139 -11 -17 -17
-48 -17 -82 0 -52 -1 -55 -31 -65 -38 -13 -39 -13 -39 -2 0 5 11 12 25 15 14
4 25 11 25 16 0 6 -11 8 -25 5 -14 -3 -36 -7 -50 -10 -14 -3 -25 -1 -25 5 0 5
10 10 23 10 12 0 29 5 37 11 13 9 12 10 -2 5 -10 -3 -18 -1 -18 4 0 6 -7 10
-15 10 -8 0 -15 -5 -15 -11 0 -7 -10 -9 -25 -7 -13 3 -22 2 -20 -3 3 -4 -12
-10 -32 -14 -21 -3 -58 -17 -83 -30 -51 -27 -50 -31 6 -12 23 8 52 10 69 6
l30 -7 -27 -2 c-16 -1 -31 -3 -35 -5 -5 -1 -25 -5 -45 -9 -21 -5 -38 -14 -38
-21 0 -23 -34 -9 -40 16 -8 33 0 79 14 79 6 0 17 9 24 20 7 11 9 19 5 18 -5
-2 -10 2 -13 7 -3 6 10 11 28 13 32 3 33 4 15 18 -17 14 -16 15 11 9 15 -3 35
-13 44 -21 13 -14 13 -17 1 -26 -11 -7 -9 -8 6 -4 11 2 40 7 65 10 l45 6 -50
-15 c-27 -8 -60 -15 -71 -15 -12 0 -24 -7 -28 -15 -7 -20 27 -20 58 1 14 8 42
17 63 19 21 2 52 7 68 11 l30 8 -40 7 c-22 5 -58 8 -80 9 -26 0 -35 3 -27 9 9
5 -6 12 -45 20 -32 6 -65 16 -73 22 -11 8 -8 9 15 4 66 -16 86 -13 96 13 6 14
7 38 4 54 -6 26 -4 28 22 28 22 0 25 2 13 10 -12 8 -10 10 10 9 29 -1 82 -17
61 -18 -8 -1 -12 -3 -9 -6 9 -9 38 7 32 17 -4 6 2 8 15 3 21 -6 30 8 11 20 -6
4 -8 11 -5 16 4 5 -2 9 -11 9 -25 0 -14 6 25 14 29 5 32 4 21 -9 -11 -13 -8
-15 16 -15 16 0 36 5 44 10 13 8 13 10 1 10 -10 0 -11 3 -5 9 16 16 131 41
178 39 26 0 49 2 53 5 13 14 24 6 18 -12z m643 -153 c-2 -7 -7 -16 -13 -20 -6
-5 -5 -11 3 -16 18 -12 4 -41 -22 -47 -11 -2 -50 -6 -86 -9 -68 -5 -78 -7
-150 -26 -32 -9 -45 -9 -48 -1 -2 6 -13 11 -25 12 -17 0 -13 4 13 14 19 7 45
14 57 14 12 1 23 5 25 11 2 5 50 12 107 15 57 2 106 7 110 10 8 9 -21 25 -32
18 -5 -3 -33 -7 -61 -8 -28 -1 -69 -5 -91 -8 l-40 -6 40 13 c22 8 54 15 70 15
17 1 46 5 65 11 25 7 36 7 42 -3 5 -8 8 -7 8 6 0 9 7 17 15 17 8 0 14 -6 13
-12z m-1390 -211 c-2 -110 -7 -177 -13 -177 -5 0 -11 23 -13 51 -3 43 -5 49
-18 39 -12 -10 -14 -7 -14 18 0 17 -4 34 -10 37 -6 4 -10 -5 -10 -19 0 -15 -5
-25 -12 -23 -8 1 -15 -14 -18 -38 l-5 -40 -8 40 c-18 100 -3 298 19 242 3 -9
12 -17 19 -17 8 0 11 -18 9 -65 -4 -71 13 -91 19 -22 3 34 4 30 6 -23 3 -63 4
-64 12 -25 4 22 8 69 9 105 0 76 9 115 22 102 4 -4 7 -88 6 -185z m1390 79 c1
-25 -2 -48 -8 -51 -5 -3 -10 -15 -10 -25 0 -22 -7 -27 -44 -34 -15 -3 -34 -10
-42 -17 -8 -6 -27 -9 -46 -5 -24 4 -43 0 -67 -15 -18 -11 -50 -22 -69 -25 -20
-2 -40 -10 -44 -17 -6 -9 -10 -8 -18 3 -9 14 -14 7 -11 -13 1 -4 -4 -7 -11 -6
-24 5 -123 -13 -149 -27 -40 -20 -254 -57 -344 -59 -52 -2 -100 -10 -137 -23
-48 -17 -58 -18 -58 -6 0 7 -9 14 -20 14 -10 0 -23 8 -29 17 -8 16 -10 14 -16
-10 -4 -15 -11 -27 -17 -27 -5 0 -6 5 -2 11 4 7 7 24 6 40 0 21 5 29 24 33 31
8 34 51 4 53 -11 1 -20 -2 -20 -8 0 -5 -4 -9 -10 -9 -23 0 -8 28 18 33 100 19
114 27 51 28 -34 0 -39 2 -24 9 11 5 34 9 52 9 17 1 35 6 38 11 8 13 65 13 65
0 0 -6 9 -6 26 1 30 11 46 3 24 -11 -13 -8 -12 -10 3 -10 9 0 17 -3 18 -7 5
-49 3 -63 -9 -63 -7 0 -11 -4 -8 -8 2 -4 24 -9 48 -11 47 -2 79 -21 37 -21
-13 0 -31 -5 -39 -11 -12 -8 -10 -9 10 -5 14 3 35 6 48 6 22 0 22 0 5 27 -10
15 -13 24 -7 21 12 -8 93 10 112 25 8 6 32 20 55 31 31 15 49 34 67 69 18 35
32 50 53 54 15 3 27 12 27 20 0 8 5 11 11 8 5 -4 19 1 29 10 13 12 27 15 54
10 20 -4 36 -11 36 -16 0 -13 73 -11 107 2 15 6 44 13 63 15 l35 4 -35 -14
c-34 -14 -34 -15 -8 -15 15 -1 35 8 45 18 11 12 36 21 63 24 25 2 50 4 56 5 6
1 11 -17 12 -42z m181 -131 c-3 -2 -85 -21 -183 -40 -98 -19 -206 -42 -240
-49 -33 -8 -106 -23 -161 -33 -55 -10 -92 -19 -82 -21 9 -2 53 4 98 13 46 9
109 18 141 18 33 1 51 5 41 9 -16 6 -16 7 2 7 11 1 31 4 44 8 19 5 22 3 16 -8
-7 -12 -6 -12 7 -1 9 8 25 12 35 11 10 -1 25 1 33 4 29 11 70 14 70 6 0 -5 -7
-9 -15 -9 -8 0 -15 -4 -15 -9 0 -12 73 7 81 21 6 9 59 19 59 11 0 -2 -10 -8
-22 -13 -16 -6 -1 -8 52 -6 41 2 68 0 60 -3 -9 -3 -15 -13 -15 -21 1 -8 -3
-20 -7 -26 -5 -7 -7 -18 -6 -25 2 -9 -8 -15 -24 -17 -16 -2 -28 -7 -28 -12 0
-12 -58 -30 -98 -30 -45 0 -38 8 13 15 56 7 55 15 -1 16 -47 1 -48 1 -16 10
17 5 32 12 32 15 0 3 -15 3 -32 0 -20 -4 -12 2 20 13 57 20 75 31 49 31 -9 0
-19 -4 -22 -10 -3 -5 -21 -10 -38 -10 -43 -1 -235 -35 -244 -43 -4 -4 7 -5 23
-3 73 12 178 16 164 6 -8 -5 -44 -10 -80 -11 -62 -2 -63 -2 -20 -9 47 -7 46
-8 -25 -32 -16 -6 -44 -17 -62 -24 -17 -8 -38 -14 -46 -14 -9 0 -17 -4 -19 -8
-3 -9 -169 -45 -176 -38 -2 3 16 10 39 16 24 6 55 15 69 21 24 9 24 9 -5 5
-16 -2 -41 -7 -55 -10 -21 -6 -22 -5 -5 3 12 5 27 16 34 25 12 14 11 16 -5 10
-10 -4 -16 -4 -12 1 4 4 22 11 40 15 l33 8 -30 2 c-26 1 -27 3 -10 10 17 7 15
9 -12 9 -17 1 -35 6 -38 11 -3 6 -13 10 -22 10 -9 0 -13 -3 -10 -7 4 -3 -10
-15 -30 -25 l-38 -18 43 4 c23 2 42 3 42 1 0 -1 -16 -10 -35 -19 -19 -9 -35
-23 -35 -30 0 -17 -30 -30 -31 -13 0 9 -2 9 -6 0 -2 -7 -11 -13 -18 -13 -20 0
-65 -22 -65 -31 0 -4 14 -3 32 2 47 13 45 4 -4 -14 -81 -31 -142 -41 -174 -28
l-29 11 28 -5 c16 -3 56 0 90 7 l62 12 -50 9 c-56 11 -88 11 -190 4 l-70 -5
50 13 c63 17 24 19 -45 3 -39 -9 -48 -14 -34 -19 16 -6 15 -8 -6 -8 -14 0 -34
4 -45 8 -15 6 -11 9 23 14 27 5 42 12 42 22 0 8 14 17 35 21 19 3 35 11 35 16
0 6 7 8 15 5 8 -4 17 -2 20 3 5 9 -23 15 -47 11 -5 0 -8 4 -8 9 0 6 8 10 18
11 93 4 154 12 192 24 l45 15 -50 -5 c-149 -16 -225 -29 -364 -61 -29 -6 -23
-14 21 -25 l33 -8 -37 2 c-20 2 -36 0 -36 -3 2 -18 -4 -23 -11 -11 -6 9 -18
11 -35 7 -23 -6 -25 -9 -13 -21 9 -9 29 -12 58 -10 34 3 29 1 -21 -10 -78 -17
-124 -19 -115 -5 3 6 17 10 31 10 13 0 24 5 24 11 0 8 -14 9 -42 5 -24 -4 -59
-9 -78 -11 l-35 -5 40 14 c73 26 51 22 -305 -54 -107 -22 -237 -48 -289 -56
-85 -13 -150 -33 -112 -34 8 0 11 -3 8 -6 -4 -4 -14 -1 -22 6 -12 10 -21 10
-38 2 -12 -6 -49 -16 -82 -21 l-60 -10 65 4 c36 2 76 7 90 10 22 4 21 3 -5 -9
-16 -9 -44 -15 -60 -16 -31 0 -155 -33 -177 -46 -19 -12 29 -23 77 -17 22 3
63 11 90 18 73 20 165 28 165 16 0 -5 15 -12 33 -14 17 -3 6 -3 -26 -1 -41 3
-56 1 -51 -7 5 -8 -4 -10 -32 -6 -26 4 -32 4 -19 -2 14 -6 4 -9 -35 -8 -69 1
-153 -13 -162 -27 -4 -6 -34 -10 -67 -11 -34 0 -61 -3 -61 -6 0 -15 29 -16 96
-5 39 7 79 9 89 6 17 -6 16 -7 -5 -13 -14 -3 -54 -9 -90 -12 -36 -3 -66 -10
-68 -15 -2 -5 -10 -6 -19 -3 -8 3 -18 2 -22 -3 -6 -10 -122 -37 -128 -30 -2 2
18 9 45 15 27 7 66 18 88 26 l39 14 -35 0 c-68 1 -139 -11 -134 -23 4 -10 -66
-30 -151 -42 -41 -6 46 25 100 36 38 7 38 8 8 9 -17 0 -58 -5 -90 -13 -90 -22
-131 -28 -113 -16 8 5 25 10 37 10 12 0 25 5 28 10 4 7 -9 9 -37 5 l-43 -6 40
15 c22 9 54 16 70 16 30 1 30 1 5 11 -13 6 -35 7 -47 4 -13 -3 -23 -2 -23 2 0
14 143 46 235 53 50 3 107 14 127 23 44 20 52 21 42 5 -5 -8 -2 -9 12 -3 10 4
36 11 57 15 21 4 44 13 50 20 10 10 3 11 -33 6 -25 -4 -63 -10 -85 -12 -22 -3
-45 -10 -52 -15 -6 -6 -31 -9 -55 -7 -36 2 -20 8 92 31 74 15 189 38 255 52
156 32 428 84 530 100 44 7 118 23 165 35 47 12 159 37 250 56 91 18 253 52
360 74 772 163 950 196 929 175z m-1777 -25 c2 -5 2 -34 0 -63 -3 -45 -8 -56
-30 -70 l-27 -17 29 6 30 7 -25 -25 c-13 -13 -31 -23 -39 -21 -8 2 -33 0 -55
-6 -23 -5 -30 -9 -18 -10 20 -1 45 -21 26 -21 -5 0 -18 -6 -29 -14 -18 -14
-17 -15 15 -11 29 4 33 2 28 -15 -4 -17 0 -20 31 -21 34 0 32 -2 -23 -18 -33
-9 -65 -20 -71 -24 -12 -7 -277 -65 -329 -71 -16 -2 -52 -10 -79 -17 -38 -9
-51 -10 -54 -1 -4 14 -51 15 -72 2 -13 -9 -13 -10 0 -10 32 -1 -14 -20 -48
-20 -18 0 -41 -5 -52 -12 -24 -15 -37 -4 -20 17 7 9 21 13 31 10 11 -4 19 -2
19 3 0 10 36 22 85 29 37 4 58 23 26 23 -12 0 -19 4 -16 10 3 6 2 10 -4 10 -5
0 -15 -8 -21 -17 -8 -13 -13 -14 -16 -5 -8 18 -20 15 -50 -13 -15 -14 -34 -25
-43 -24 -13 0 -14 2 -1 6 8 4 20 11 26 17 45 43 114 85 132 81 7 -2 8 -1 2 2
-13 6 -3 23 13 23 7 0 13 -15 13 -35 4 -93 0 -87 41 -83 25 3 39 10 41 20 2
13 -2 15 -19 11 -15 -4 -20 -3 -15 5 10 16 57 15 54 0 -2 -8 6 -12 22 -10 14
1 41 2 60 2 27 0 31 2 20 10 -11 7 -12 10 -2 10 10 0 8 9 -7 36 -26 44 -26 44
2 44 31 0 53 15 37 25 -9 6 -9 10 1 16 10 6 8 9 -8 9 -42 0 -32 18 15 24 26 4
58 13 72 21 l25 15 -30 -6 c-16 -4 -40 -11 -52 -15 -14 -5 -23 -5 -23 1 0 6
-8 10 -17 11 -11 0 -13 3 -5 6 25 10 11 22 -20 16 -22 -4 -29 -3 -24 5 4 7 15
13 24 13 9 1 4 5 -13 9 -26 7 -22 8 25 10 43 2 49 4 26 9 -17 3 -30 13 -32 23
-2 13 8 18 44 23 67 9 73 13 22 15 -36 1 -40 3 -20 9 46 13 106 5 135 -17 33
-26 41 -27 48 -8 3 8 16 20 29 27 21 11 22 11 9 -4 -10 -13 -10 -17 -1 -17 6
0 14 9 17 20 3 11 9 20 14 20 5 0 7 -6 5 -12 -1 -7 -1 -10 1 -5 3 4 12 7 22 7
9 0 26 7 37 15 22 17 51 19 56 5z m343 -89 c-3 -5 7 -11 22 -13 24 -3 28 -8
28 -34 1 -18 6 -39 13 -47 11 -13 5 -18 -40 -35 -44 -16 -80 -20 -128 -12 -3
0 2 5 10 10 13 8 13 11 1 19 -11 7 -8 10 10 16 l24 8 -23 8 c-19 7 -21 11 -10
28 6 11 15 18 19 15 11 -7 39 7 33 17 -3 5 3 6 12 2 11 -4 15 -3 11 4 -4 6 -1
14 5 16 19 8 20 8 13 -2z m-2055 -275 c0 -162 -3 -216 -12 -220 -10 -5 -10 -7
0 -12 6 -3 12 -15 11 -27 0 -21 -1 -21 -9 -2 -8 19 -9 19 -9 -2 -1 -12 5 -24
12 -26 7 -3 5 -6 -5 -6 -16 -1 -18 9 -18 79 0 44 -3 80 -8 80 -4 0 -6 -18 -4
-40 3 -25 0 -40 -7 -40 -8 0 -11 60 -9 203 0 119 4 183 8 157 l7 -45 1 38 c2
41 17 77 32 77 6 0 10 -83 10 -214z m-925 174 c17 0 18 -2 5 -11 -13 -9 -13
-10 2 -6 9 3 45 9 80 12 59 6 62 5 38 -9 l-25 -15 28 -1 c20 0 30 6 34 19 3
12 11 17 20 14 12 -5 12 -7 1 -15 -9 -7 -1 -8 22 -4 l35 5 -34 -18 -34 -18 26
-7 c15 -3 27 -11 27 -16 0 -15 -23 -12 -47 5 -12 8 -54 17 -95 20 -40 3 -90 8
-111 11 -28 3 -36 1 -31 -7 4 -8 3 -9 -5 -5 -6 4 -17 3 -24 -2 -18 -15 -117
-53 -152 -59 -16 -2 -35 -11 -42 -20 -7 -8 -17 -12 -24 -7 -8 5 -10 3 -4 -6 6
-10 4 -12 -9 -7 -10 4 -23 7 -29 7 -6 0 -2 7 9 15 10 8 29 15 41 15 12 0 23 3
25 8 2 4 26 15 53 24 l50 17 -43 -4 c-26 -3 -41 -1 -37 5 3 6 16 10 28 10 12
0 31 7 41 15 11 8 40 15 65 15 25 0 53 5 61 10 11 7 5 9 -20 5 -30 -4 -31 -3
-10 4 14 5 34 8 45 5 11 -2 29 -4 40 -4z m4603 -201 c-10 -7 -11 -12 -1 -28 9
-14 10 -44 6 -103 -6 -66 -9 -77 -15 -53 -4 18 -6 -3 -3 -50 2 -44 0 -96 -4
-115 -6 -23 -9 -28 -10 -13 -1 32 -21 39 -21 8 0 -15 -4 -24 -10 -20 -11 7
-14 423 -4 463 9 34 36 29 28 -5 -4 -16 -7 -30 -6 -33 1 -80 3 -90 17 -90 12
0 13 4 5 19 -13 24 -13 101 -1 101 5 0 12 -8 14 -17 3 -10 5 2 5 27 0 34 -2
40 -8 25 -8 -19 -9 -19 -9 3 -1 12 4 22 9 22 6 0 11 8 12 18 1 9 4 -21 5 -67
3 -61 0 -86 -9 -92z m-3573 61 c-3 -5 2 -11 12 -11 17 -1 17 -2 1 -6 -33 -8
-19 -25 17 -21 39 4 47 -8 13 -22 l-23 -9 23 0 c12 -1 50 10 84 24 72 29 74
30 58 10 -7 -8 -29 -19 -49 -25 -20 -5 -45 -17 -56 -26 -19 -15 -18 -15 14
-10 28 5 32 4 21 -8 -6 -8 -17 -13 -25 -10 -7 3 -16 1 -20 -5 -4 -7 3 -11 17
-11 18 0 15 -4 -17 -19 l-40 -19 31 -1 c18 -1 39 8 53 20 24 23 81 43 81 29 0
-11 -101 -60 -123 -60 -10 0 -17 -4 -17 -9 0 -5 -18 -12 -40 -16 -30 -5 -44
-3 -56 9 -9 9 -11 16 -4 16 16 0 7 59 -10 70 -13 8 -13 11 1 22 25 20 30 46
11 57 -15 9 -15 10 -1 11 9 0 19 7 23 15 3 8 10 15 16 15 6 0 8 -4 5 -10z
m1695 -42 c-46 -13 -61 -28 -29 -29 16 -1 18 -3 7 -6 -9 -2 -27 1 -39 7 -16 9
-20 9 -14 0 5 -8 -4 -10 -32 -5 -28 5 -34 4 -23 -4 13 -9 12 -11 -5 -11 -15
-1 -13 -4 9 -13 28 -12 26 -13 -35 -13 -35 1 -84 -2 -109 -6 -30 -5 -38 -5
-25 1 11 5 15 10 8 10 -19 1 -43 -11 -38 -19 3 -4 -12 -11 -33 -15 -35 -8 -36
-8 -12 -16 l25 -8 -25 2 c-14 1 -23 6 -22 11 2 5 -2 13 -10 18 -10 7 -8 8 5 4
11 -3 16 -2 12 4 -3 6 -18 11 -33 11 l-27 1 30 8 c17 4 24 8 17 9 -7 0 -11 5
-8 9 7 12 66 14 66 2 0 -5 -9 -10 -20 -10 -11 0 -20 -4 -20 -10 0 -5 6 -10 14
-10 8 0 18 5 21 10 3 6 16 10 28 10 22 1 22 1 3 15 -19 14 -18 15 15 15 19 0
50 5 69 11 31 10 169 25 240 27 19 0 17 -2 -10 -10z m-1205 -183 c-144 -37
-361 -86 -445 -100 -52 -8 -135 -24 -185 -36 -49 -11 -108 -24 -130 -29 -22
-5 -60 -12 -85 -16 -25 -3 -109 -21 -186 -40 -78 -19 -151 -34 -162 -34 -11 0
-24 -4 -27 -10 -3 -5 -1 -10 5 -10 7 0 5 -6 -4 -15 -8 -8 -20 -15 -27 -15 -7
0 -9 -3 -6 -6 7 -7 69 15 77 27 7 11 77 15 86 6 4 -4 0 -7 -9 -7 -10 0 -14 -5
-11 -15 4 -8 14 -15 23 -15 12 0 13 2 3 9 -10 6 -8 10 10 14 35 10 50 8 42 -5
-4 -7 -3 -8 5 -4 6 4 9 12 6 17 -4 5 -4 9 -1 9 2 0 13 3 23 6 15 5 16 4 3 -6
-13 -9 -12 -11 5 -7 11 2 19 7 18 13 0 5 24 10 54 11 52 1 62 -9 18 -20 -11
-3 -4 -5 15 -4 26 2 34 6 32 18 -3 18 46 33 73 23 27 -11 16 -21 -45 -44 -33
-12 -60 -26 -60 -31 0 -5 -7 -9 -15 -9 -8 0 -15 7 -15 16 0 13 -7 15 -32 10
-96 -19 -161 -25 -179 -15 -21 11 -43 3 -34 -11 8 -14 -45 -24 -57 -12 -8 8
-15 6 -25 -4 -8 -8 -22 -14 -31 -13 -12 0 -9 3 7 10 13 5 22 12 19 15 -3 2
-17 -1 -31 -7 -26 -12 -26 -12 -7 -29 20 -17 20 -18 -12 -23 -92 -16 -218 -36
-258 -41 l-45 -5 48 12 c27 7 45 16 40 21 -4 5 -3 6 4 2 6 -3 14 -2 18 4 3 5
17 7 31 4 13 -3 30 -2 37 4 7 6 28 12 47 15 25 3 22 4 -12 3 -36 -1 -44 2 -36
12 6 6 28 12 49 12 22 0 39 4 39 9 0 9 -57 8 -110 -4 -33 -7 -34 -6 -15 9 11
8 36 16 55 17 19 0 58 7 85 14 l50 14 -59 -4 c-51 -4 -95 -13 -158 -31 -10 -3
-18 -1 -18 5 0 12 34 22 170 51 52 11 167 35 255 54 88 19 201 42 250 51 50 9
128 25 175 35 47 10 180 38 295 61 116 23 246 50 290 59 93 21 144 24 70 5z
m-2729 -769 c14 18 15 17 8 -11 -8 -36 -6 -98 5 -128 11 -30 2 -109 -12 -100
-10 6 -9 -9 13 -136 6 -35 8 -71 4 -80 -15 -36 -26 -110 -26 -176 0 -38 -2
-61 -5 -51 -4 15 -7 16 -13 5 -5 -7 -6 23 -3 69 4 59 2 82 -7 82 -6 0 -8 -5
-4 -12 5 -7 3 -8 -5 -4 -7 5 -10 14 -7 21 2 7 -2 16 -10 19 -22 8 -29 3 -26
-19 2 -19 2 -19 -9 -2 -6 11 -9 29 -7 42 3 13 1 30 -3 37 -5 8 -9 -15 -10 -57
-1 -60 -2 -65 -9 -35 -5 19 -9 62 -8 95 0 33 -2 114 -5 180 -3 68 -2 103 2 80
7 -34 8 -27 10 42 0 45 -3 85 -9 88 -6 4 -10 50 -9 108 0 56 3 95 6 87 14 -42
17 -43 23 -5 9 44 4 58 -10 35 -7 -11 -10 -5 -10 22 0 20 5 40 10 43 6 3 10 1
10 -5 0 -6 4 -9 9 -5 13 7 17 -61 11 -147 -3 -40 -1 -63 4 -58 8 8 10 22 15
130 5 86 20 -4 21 -119 0 -58 1 -113 2 -121 3 -32 -2 -153 -6 -149 -3 2 -6 30
-7 62 -2 38 -7 57 -15 57 -7 0 -15 6 -17 13 -3 6 -6 3 -6 -8 -1 -11 -4 -31 -8
-44 -4 -17 -3 -22 5 -17 8 5 12 0 12 -13 0 -12 5 -21 10 -21 6 0 10 -31 10
-72 -1 -70 -1 -72 -15 -43 -9 20 -14 24 -14 13 -1 -10 -6 -18 -12 -18 -6 0 -9
-19 -7 -47 3 -50 18 -61 30 -21 3 13 6 19 7 14 1 -5 7 -3 14 3 8 6 16 9 19 6
3 -3 8 36 12 86 4 50 12 99 19 110 9 15 9 21 -1 27 -6 5 -12 19 -12 33 1 13
-2 48 -6 78 -5 43 -4 52 6 46 10 -6 11 -4 4 11 -4 10 -9 64 -10 119 -1 93 -1
95 6 30 l6 -70 4 100 c4 86 5 78 7 -59 3 -145 5 -157 19 -140z m1815 -796 c13
-10 19 -19 13 -20 -7 0 -10 -33 -8 -102 1 -66 0 -87 -4 -58 l-7 45 -9 -75 -9
-75 -8 44 c-13 69 -18 60 -12 -22 4 -46 2 -81 -5 -93 -9 -14 -11 30 -12 179 0
187 1 197 19 197 10 0 29 -9 42 -20z m-1934 -622 c-1 -90 0 -406 2 -703 4
-612 3 -661 -5 -652 -8 8 -17 1441 -9 1485 3 17 8 32 10 32 2 0 3 -73 2 -162z
m182 47 c3 41 4 46 11 25 4 -14 8 -54 8 -90 -1 -53 -2 -59 -8 -30 -5 22 -7 -9
-7 -85 0 -90 2 -109 8 -75 5 30 6 11 3 -55 -12 -264 -12 -300 -4 -250 5 34 6
14 3 -64 -2 -63 -7 -119 -10 -124 -14 -23 -20 25 -17 151 2 123 1 129 -6 52
-4 -47 -9 -128 -9 -180 -1 -55 -5 -89 -10 -82 -4 7 -8 71 -7 142 1 74 -3 122
-7 114 -5 -9 -7 -40 -5 -70 1 -30 0 -54 -4 -54 -5 0 -8 10 -9 23 -1 21 -1 21
-8 -3 -7 -22 -8 -19 -14 20 -4 25 -12 103 -17 173 -5 71 -11 132 -14 135 -3 3
-6 0 -6 -6 0 -7 -5 -12 -11 -12 -7 0 -9 9 -5 24 4 16 1 26 -9 30 -12 4 -15 22
-13 78 l2 73 3 -72 c4 -76 23 -103 23 -33 0 22 5 40 10 40 5 0 9 -3 9 -7 -4
-23 2 -43 12 -40 13 2 19 -52 7 -59 -4 -3 -8 -10 -8 -15 0 -6 4 -8 9 -4 5 3
17 -2 25 -11 15 -14 16 -6 17 88 0 57 4 112 9 123 6 13 9 -27 8 -113 -1 -72 2
-135 5 -139 4 -3 7 47 7 113 0 65 3 171 8 234 7 111 7 113 13 50 6 -65 6 -65
8 -15z m130 -654 c0 -354 -2 -642 -5 -639 -3 3 -7 307 -9 674 -2 368 0 656 5
639 4 -16 8 -320 9 -674z m1331 623 c-25 -7 -55 -14 -68 -14 -14 0 -21 -4 -16
-11 4 -7 0 -9 -14 -5 -11 4 -23 2 -27 -4 -3 -6 -11 -7 -17 -4 -6 4 -8 2 -5 -3
4 -6 -2 -13 -13 -16 -12 -3 -18 -1 -14 5 8 12 -42 2 -96 -18 l-35 -14 35 5
c26 3 18 -2 -30 -20 -95 -36 -41 -25 180 39 199 57 278 75 250 58 -8 -6 -86
-29 -174 -53 -155 -42 -157 -43 -125 -55 19 -7 31 -13 27 -13 -3 -1 -14 -4
-24 -8 -11 -4 -15 -3 -11 4 8 12 -46 28 -61 19 -11 -7 -333 -96 -567 -157
-104 -27 -230 -61 -280 -75 -134 -38 -198 -53 -220 -53 -33 1 68 32 355 109
85 23 156 43 159 45 8 9 -85 1 -96 -8 -7 -5 -16 -6 -21 -3 -6 3 -16 -1 -23
-10 -9 -11 -22 -14 -43 -10 -22 4 -27 3 -16 -4 12 -8 10 -10 -10 -10 -14 -1
-45 -3 -70 -5 l-45 -3 45 14 c43 14 98 29 335 93 61 16 113 27 118 24 19 -12
2 -22 -58 -33 -74 -14 -105 -37 -35 -26 24 4 49 10 55 15 5 4 64 20 129 36 89
21 114 31 100 37 -13 6 -10 7 13 4 18 -3 35 -1 38 4 4 6 -1 7 -11 3 -12 -4
-15 -3 -10 5 4 7 17 12 29 12 17 0 19 3 8 9 -11 7 -10 10 5 14 278 81 330 95
369 95 26 1 24 -1 -15 -14z m-942 -716 c-5 -24 -63 -45 -130 -47 -18 -1 -28
-6 -28 -16 0 -9 -12 -18 -30 -21 -16 -4 -27 -10 -24 -15 3 -5 -1 -9 -10 -9 -8
0 -22 -3 -32 -7 -12 -4 -15 -3 -10 5 5 8 -1 12 -17 12 -23 0 -24 2 -14 25 7
14 17 25 23 25 7 0 25 7 40 15 16 8 37 15 46 15 9 0 20 4 23 10 3 5 31 9 61 9
30 -1 58 1 61 5 11 11 43 6 41 -6z"/>
<path d="M7959 6613 c-1 -4 -1 -19 -1 -33 1 -17 -1 -19 -4 -7 -4 12 -12 16
-25 12 -13 -5 -19 -2 -19 10 0 9 -5 13 -11 9 -6 -3 -9 -14 -6 -24 3 -13 -2
-20 -19 -24 -29 -8 -32 -26 -3 -26 11 0 30 -5 42 -11 11 -7 82 -18 157 -25 74
-7 158 -18 185 -23 28 -6 120 -22 205 -36 85 -14 211 -36 280 -49 240 -46 227
-45 263 -25 17 10 40 21 50 25 19 7 23 24 6 24 -6 0 -22 -9 -36 -20 -31 -24
-46 -24 -138 -5 -38 9 -169 33 -290 55 -347 63 -443 83 -415 91 14 3 30 3 35
-1 6 -4 26 -10 45 -13 19 -3 77 -15 129 -26 52 -12 111 -20 130 -19 l36 1 -32
4 c-31 4 -49 33 -20 33 8 1 7 4 -3 9 -8 5 -85 19 -170 31 -162 23 -174 26
-165 40 8 12 -23 6 -37 -8 -17 -17 -33 -15 -19 2 9 11 8 15 -4 20 -9 3 -13 2
-10 -4 3 -6 -3 -10 -15 -10 -12 0 -19 4 -16 9 10 15 -23 21 -49 9 -32 -15 -32
-24 3 -36 23 -9 24 -11 5 -11 -12 -1 -24 -7 -26 -13 -3 -7 -6 -3 -6 10 -1 12
-5 22 -11 22 -5 0 -7 6 -4 14 3 8 1 17 -5 21 -6 3 -11 3 -12 -2z"/>
<path d="M7630 6416 c-7 -14 -10 -36 -6 -50 5 -21 1 -32 -20 -51 l-27 -25 56
0 c52 0 107 -15 107 -30 0 -9 71 -33 105 -35 70 -4 144 -18 139 -26 -3 -5 -1
-9 5 -9 5 0 11 5 13 11 2 7 17 7 48 0 25 -6 61 -11 80 -11 28 -1 31 -3 15 -10
-19 -7 -19 -8 -2 -15 10 -4 29 -3 43 4 30 13 81 15 86 2 2 -6 48 -6 111 -3 59
4 111 4 116 -1 4 -4 41 -10 82 -12 41 -3 108 -10 149 -15 294 -38 745 -56 790
-31 30 17 49 41 50 61 0 8 -13 1 -31 -19 -35 -38 -25 -38 -274 -6 -66 9 -232
28 -370 43 -232 25 -250 28 -252 47 -1 16 -1 17 3 2 4 -13 15 -17 42 -16 20 1
51 -1 67 -4 75 -17 250 -26 287 -17 41 11 52 30 17 30 -11 0 -17 -4 -14 -10 3
-5 1 -10 -5 -10 -7 0 -10 6 -7 13 4 14 97 15 97 1 0 -5 -18 -15 -41 -23 -22
-7 -39 -14 -37 -16 6 -6 300 -36 305 -31 3 2 -13 10 -36 16 -23 6 -41 15 -41
20 0 13 17 13 25 1 3 -6 18 -6 38 0 44 13 90 12 81 -2 -3 -6 -17 -8 -29 -5
-13 3 -30 3 -38 0 -32 -12 19 -43 82 -50 56 -6 61 -5 87 21 25 25 26 28 10 37
-10 6 -33 8 -52 6 -19 -2 -34 -1 -34 2 0 6 -110 21 -302 41 -57 5 -170 19
-253 29 -235 30 -234 30 -249 14 -11 -11 -26 -12 -73 -3 -83 14 -88 16 -73 34
9 11 8 14 -9 12 -19 -1 -34 -25 -44 -72 -3 -14 -5 -11 -6 9 0 16 -4 27 -7 23
-3 -3 -27 1 -52 9 -26 7 -57 14 -69 14 -29 0 -103 30 -103 41 0 5 17 9 38 9
25 0 33 3 23 9 -11 7 -10 10 5 15 10 3 0 3 -24 0 -28 -3 -41 -1 -37 6 7 12
-32 12 -60 0 -18 -8 -18 -10 3 -14 15 -3 47 -25 42 -29 -3 -2 -18 -7 -35 -11
-22 -5 -26 -4 -15 4 12 8 9 10 -15 10 -62 1 -159 12 -180 20 -12 5 -25 18 -28
30 -5 19 -3 21 26 14 18 -3 37 -10 42 -14 10 -8 103 -5 111 3 8 8 -214 40
-231 33 -9 -3 -22 -21 -31 -41 -14 -34 -15 -34 -33 -16 -19 19 -130 39 -150
26 -6 -3 -11 1 -11 9 0 10 13 16 38 19 l37 4 -41 1 c-34 2 -43 -2 -54 -22z"/>
<path d="M5840 6285 c0 -23 -4 -25 -42 -26 -24 -1 -34 -4 -23 -6 11 -3 22 -9
25 -13 3 -4 73 -10 155 -13 216 -10 216 -10 155 -17 l-55 -7 73 -1 c47 -1 71
2 67 8 -4 6 32 10 102 10 59 0 126 3 147 7 23 3 37 2 33 -3 -6 -11 413 -1 431
10 7 4 12 14 12 22 0 10 -14 14 -57 14 -32 0 -65 5 -73 10 -17 11 -15 11 58
12 28 0 52 4 52 9 0 5 -225 9 -530 9 l-530 0 0 -25z"/>
<path d="M4318 6136 c-10 -7 -18 -18 -18 -24 0 -6 -13 -13 -30 -17 -35 -8 -39
-22 -7 -27 12 -2 20 -6 17 -10 -3 -4 5 -15 18 -23 12 -9 22 -22 23 -28 0 -12
124 -77 146 -77 19 0 143 -51 143 -59 0 -3 21 -18 48 -31 26 -14 51 -31 55
-37 4 -7 16 -13 25 -13 24 -1 188 -140 165 -140 -17 0 115 -58 157 -69 95 -24
158 -34 184 -27 35 9 24 26 -16 26 -41 0 -155 35 -195 60 -33 20 -46 44 -18
34 8 -4 15 -10 15 -15 0 -5 5 -9 11 -9 5 0 7 5 4 10 -3 6 1 10 9 10 9 0 16 -5
16 -11 0 -6 7 -3 16 5 16 16 28 20 53 17 7 -2 10 3 6 9 -4 6 -13 9 -21 6 -8
-3 -13 0 -11 7 1 8 -10 11 -32 9 -19 -1 -42 0 -50 3 -14 5 -14 7 -1 15 8 6 20
10 25 10 6 0 3 -5 -5 -10 -12 -8 -10 -10 8 -10 15 0 22 5 19 13 -3 11 -17 13
-94 16 -13 1 -23 6 -23 11 0 6 11 8 25 4 14 -3 25 -2 25 4 0 11 -58 25 -71 16
-5 -3 -9 -1 -9 3 0 5 -12 14 -27 21 -26 11 -45 22 -83 47 -8 5 -21 10 -29 12
-8 1 -38 18 -68 39 -29 20 -57 33 -61 29 -4 -4 -1 -10 6 -12 7 -3 18 -11 25
-18 8 -7 38 -25 68 -40 81 -41 140 -77 136 -82 -3 -2 -63 28 -133 68 -71 40
-141 79 -156 86 -16 8 -28 17 -28 20 0 14 46 43 69 43 25 1 25 1 6 13 -11 6
-42 22 -70 34 -34 14 -50 27 -50 40 0 10 -9 19 -20 21 -11 2 -45 12 -76 23
-64 22 -97 24 -121 5z"/>
<path d="M7558 6125 c-7 -7 -210 -48 -453 -90 -207 -37 -361 -69 -461 -98 -29
-9 -78 -18 -110 -21 -51 -4 -46 -2 30 13 100 21 144 40 124 53 -16 10 -31 10
-25 1 3 -5 -11 -8 -31 -9 -74 -1 -163 -23 -187 -46 -62 -58 -25 -57 330 12 50
10 178 36 285 59 107 23 240 50 295 61 175 32 229 49 214 65 -3 3 -8 3 -11 0z"/>
<path d="M3890 6085 c-34 -9 -47 -18 -56 -41 -21 -52 -55 -61 -519 -139 -252
-43 -319 -55 -393 -71 l-72 -16 -6 -39 c-4 -21 -10 -36 -15 -33 -5 3 -9 0 -9
-6 0 -6 -4 -8 -10 -5 -5 3 -10 1 -10 -4 0 -6 -10 -11 -22 -12 -13 0 -32 -5
-43 -10 -15 -7 -10 -8 20 -4 35 4 43 1 69 -27 27 -30 33 -32 95 -31 36 1 98 9
136 18 39 9 108 18 155 20 82 3 253 41 200 45 -28 2 106 29 157 32 18 0 30 5
26 11 -3 6 -1 7 5 3 6 -4 19 -2 29 3 28 14 205 43 212 34 11 -15 202 -13 260
2 70 18 85 34 86 92 1 42 4 48 31 60 l29 14 -27 -4 c-17 -3 -28 0 -28 7 0 28
-104 87 -141 80 -13 -2 -18 -1 -10 2 9 5 4 11 -19 20 -38 16 -68 16 -130 -1z"/>
<path d="M8795 6075 c-13 -5 -211 -26 -290 -31 -33 -2 -103 -8 -155 -14 -101
-11 -338 -30 -375 -30 -13 0 -22 -6 -22 -15 0 -8 7 -15 14 -15 8 0 12 4 9 9
-7 10 193 26 224 18 11 -3 23 -1 26 4 3 5 22 8 42 8 l37 -2 -35 -8 c-29 -7
-27 -7 15 -3 28 2 153 11 278 19 214 14 361 30 381 42 26 16 -110 32 -149 18z"/>
<path d="M8845 6025 c-49 -7 -157 -18 -240 -24 -82 -7 -172 -14 -200 -16 -27
-3 -104 -9 -170 -15 -66 -5 -181 -15 -255 -20 -74 -5 -209 -16 -300 -25 -228
-20 -250 -20 -250 5 0 11 6 20 13 21 6 0 20 2 30 4 9 2 17 -1 17 -5 0 -5 -8
-11 -17 -13 -28 -7 78 -8 146 -1 41 5 58 10 49 16 -8 5 -3 6 15 2 15 -3 71 -3
125 2 76 6 90 9 62 15 l-35 6 45 2 c25 2 39 5 31 8 -13 5 -423 -15 -461 -23
-8 -1 -23 -3 -33 -3 -10 -1 -22 -12 -27 -26 -8 -20 -18 -25 -62 -31 -38 -5
-47 -9 -33 -14 20 -7 20 -7 0 -11 -11 -3 21 -10 70 -17 81 -12 106 -12 255 7
92 12 231 22 315 22 82 1 134 5 115 8 -30 6 -24 8 40 14 41 5 138 15 215 23
77 8 185 19 240 25 135 13 344 38 378 45 15 3 27 12 27 20 0 8 -3 13 -7 13 -5
-1 -48 -7 -98 -14z"/>
<path d="M4386 5881 c-9 -10 -14 -25 -10 -35 4 -11 1 -16 -11 -16 -26 0 -8
-17 25 -23 17 -4 30 -13 30 -21 0 -9 8 -20 19 -25 26 -14 63 -81 58 -103 -3
-10 -1 -18 4 -18 6 0 17 -17 25 -37 9 -21 28 -48 42 -60 15 -12 24 -22 20 -23
-14 0 29 -38 51 -45 12 -3 21 -10 21 -14 0 -9 167 -89 214 -102 36 -10 66 -3
66 15 0 8 -18 16 -47 20 -59 8 -137 44 -180 82 -18 16 -47 61 -64 99 -41 88
-65 122 -151 211 -38 39 -70 80 -71 92 -2 27 -18 28 -41 3z"/>
<path d="M4545 5780 c-4 -6 11 -34 33 -63 22 -29 59 -88 83 -131 39 -73 44
-78 53 -57 10 24 34 23 87 -3 24 -12 26 -11 22 5 -3 11 -9 19 -13 19 -4 0 -11
10 -17 23 -16 34 -127 161 -131 149 -2 -8 -12 -8 -29 -1 -31 11 -39 7 -18 -11
8 -7 15 -17 15 -23 0 -6 -11 4 -25 23 -32 44 -32 48 7 44 17 -2 28 -1 24 3 -4
4 -24 8 -44 8 -24 0 -36 5 -34 13 3 15 -5 16 -13 2z"/>
<path d="M4081 5712 l-22 -25 48 6 c41 4 45 3 30 -8 -10 -7 -35 -16 -55 -20
-20 -3 -163 -37 -317 -75 -382 -94 -461 -110 -495 -103 -26 5 -60 -12 -60 -31
0 -2 24 -8 53 -11 56 -7 41 -10 612 130 143 35 289 69 323 74 73 12 92 24 92
57 0 18 -4 22 -17 17 -10 -4 -20 -9 -23 -12 -7 -8 -67 -41 -74 -41 -3 0 -6 5
-6 12 0 6 -8 20 -17 31 -17 20 -17 20 2 13 40 -15 75 -18 75 -8 0 15 -30 23
-82 21 -34 -2 -50 -8 -67 -27z"/>
<path d="M3518 5470 c-10 -6 -18 -17 -18 -24 0 -8 -10 -20 -22 -28 -22 -15
-22 -15 -3 -25 20 -11 71 -16 285 -29 125 -8 197 -21 125 -24 -22 -1 -49 -6
-60 -11 -14 -6 -3 -8 35 -4 30 4 59 10 65 16 5 5 36 8 70 7 l60 -1 -50 -7 -50
-7 57 -1 c31 -1 58 2 60 6 2 4 50 5 108 1 108 -8 166 -4 176 12 3 5 2 9 -3 8
-4 -1 -15 0 -23 4 -8 3 -22 8 -30 10 -8 3 1 6 21 6 44 1 63 19 46 42 -10 13
-59 19 -262 32 -363 25 -566 30 -587 17z"/>
</g>
</svg>
