<?xml version="1.0" standalone="no"?>
<!DOCTYPE svg PUBLIC "-//W3C//DTD SVG 20010904//EN"
 "http://www.w3.org/TR/2001/REC-SVG-20010904/DTD/svg10.dtd">
<svg version="1.0" xmlns="http://www.w3.org/2000/svg"
 width="512.000000pt" height="512.000000pt" viewBox="0 0 512.000000 512.000000"
 preserveAspectRatio="xMidYMid meet">
<metadata>
Created by potrace 1.16, written by Peter Selinger 2001-2019
</metadata>
<g transform="translate(0.000000,512.000000) scale(0.100000,-0.100000)"
fill="#000000" stroke="none">
<path d="M0 2560 l0 -2560 2560 0 2560 0 0 2560 0 2560 -2560 0 -2560 0 0
-2560z m3715 2012 c33 -22 152 -96 265 -167 445 -278 426 -264 474 -345 19
-30 87 -145 151 -255 65 -110 156 -263 202 -340 46 -76 83 -145 83 -152 0 -10
-80 -118 -100 -133 -3 -3 -51 -59 -106 -124 -54 -66 -141 -169 -192 -230 -50
-61 -129 -156 -174 -211 -46 -55 -91 -109 -101 -120 -11 -11 -47 -54 -80 -95
-34 -41 -88 -106 -122 -145 -80 -93 -78 -90 -95 -111 -62 -78 -155 -191 -164
-199 -6 -5 -27 -30 -46 -55 -19 -25 -40 -49 -46 -55 -6 -5 -66 -77 -135 -160
-68 -82 -126 -152 -129 -155 -3 -3 -30 -34 -59 -70 -30 -36 -60 -69 -66 -75
-5 -5 -26 -30 -45 -55 -19 -25 -37 -47 -40 -50 -3 -3 -27 -32 -55 -65 -27 -33
-52 -62 -55 -65 -3 -3 -50 -59 -105 -125 -55 -66 -102 -122 -105 -125 -7 -6
-219 -261 -270 -325 -19 -24 -37 -44 -40 -44 -8 0 -85 103 -82 111 1 5 -2 7
-7 5 -8 -2 -90 93 -220 253 -20 24 -54 65 -76 90 -23 25 -58 66 -78 92 -21 26
-43 53 -50 60 -7 7 -35 40 -62 73 -28 33 -52 62 -55 65 -3 3 -21 25 -40 50
-19 25 -40 50 -45 55 -6 6 -36 39 -66 75 -29 36 -56 67 -59 70 -3 3 -46 54
-95 115 -50 60 -97 117 -105 126 -22 22 -94 109 -121 144 -13 17 -29 35 -35
40 -6 6 -51 60 -100 120 -49 61 -91 112 -94 115 -3 3 -30 34 -60 70 -30 35
-65 76 -77 90 -32 38 -103 123 -213 255 -55 66 -141 170 -192 231 -51 61 -138
164 -193 230 -55 65 -105 125 -112 132 -7 7 -29 34 -50 60 -21 26 -42 50 -46
53 -5 3 32 73 80 155 49 82 143 239 208 349 181 308 182 309 207 330 24 20 59
44 158 107 53 33 418 262 510 319 25 16 50 33 55 38 6 6 404 10 1110 11 l1100
0 60 -38z"/>
</g>
</svg>
