<?xml version="1.0" standalone="no"?>
<!DOCTYPE svg PUBLIC "-//W3C//DTD SVG 20010904//EN"
 "http://www.w3.org/TR/2001/REC-SVG-20010904/DTD/svg10.dtd">
<svg version="1.0" xmlns="http://www.w3.org/2000/svg"
 width="554.000000pt" height="554.000000pt" viewBox="0 0 554.000000 554.000000"
 preserveAspectRatio="xMidYMid meet">
<metadata>
Created by potrace 1.16, written by Peter Selinger 2001-2019
</metadata>
<g transform="translate(0.000000,554.000000) scale(0.100000,-0.100000)"
fill="#000000" stroke="none">
<path d="M0 2770 l0 -2770 2770 0 2770 0 0 2770 0 2770 -2770 0 -2770 0 0
-2770z m3869 1516 c-2 -3 -49 -11 -104 -20 -130 -20 -337 -53 -450 -73 -49 -8
-98 -15 -107 -16 -9 -1 -15 -4 -13 -7 2 -3 -21 -5 -50 -6 -29 0 -59 -5 -67
-11 -28 -22 -77 -32 -106 -22 -19 6 -36 6 -53 -1 -21 -9 -20 -10 11 -5 19 3
29 2 21 -1 -11 -5 -11 -8 0 -15 10 -6 5 -9 -15 -9 -27 0 -28 -1 -21 -37 6 -35
26 -57 50 -58 6 0 17 -14 25 -32 8 -17 23 -34 33 -37 14 -3 17 -10 12 -25 -5
-16 -3 -19 9 -15 16 6 40 -28 28 -41 -4 -5 1 -5 11 -2 10 4 16 3 12 -3 -6 -10
3 -21 85 -109 28 -30 49 -60 46 -67 -6 -16 20 -38 33 -29 6 3 8 0 5 -8 -3 -8
3 -20 12 -28 15 -12 17 -12 9 0 -5 10 -4 12 3 7 7 -4 12 -13 12 -19 0 -17 87
-111 92 -101 3 5 4 4 2 -3 -3 -14 72 -84 81 -75 4 4 5 0 3 -8 -2 -8 3 -14 10
-12 8 1 11 -1 8 -6 -2 -4 26 -40 62 -79 250 -267 292 -313 292 -323 0 -18 -26
-11 -50 15 -13 14 -31 25 -40 25 -9 0 -29 13 -45 30 -15 16 -44 35 -63 41 -25
8 -33 16 -29 29 3 13 0 17 -9 13 -8 -3 -14 -9 -14 -14 0 -5 -18 -9 -40 -9 -22
0 -40 -4 -40 -8 0 -10 -180 -32 -256 -32 -27 0 -54 -4 -60 -9 -12 -13 -969
-27 -962 -15 4 5 -13 7 -38 5 -36 -2 -44 0 -44 14 0 13 -11 16 -62 15 -35 -1
-88 2 -118 7 -45 7 -61 5 -88 -10 -19 -9 -39 -17 -45 -16 -26 3 -37 -2 -37
-15 0 -8 -15 -25 -32 -37 -18 -13 -35 -26 -38 -29 -9 -12 -60 -21 -60 -11 0 6
18 29 41 53 23 24 55 59 71 78 46 53 338 359 376 393 23 22 31 36 26 51 -4 16
-3 18 5 6 8 -12 13 -12 31 5 11 10 19 24 16 31 -3 9 1 11 12 7 9 -3 14 -3 10
2 -4 4 6 18 22 30 16 12 27 25 24 28 -3 3 -1 14 6 24 11 17 11 17 6 -1 -6 -16
-4 -17 9 -6 8 7 12 17 8 24 -3 6 -2 8 2 3 11 -9 45 21 45 40 0 8 5 11 12 7 7
-5 9 -2 5 8 -3 10 0 15 11 14 9 0 18 6 18 14 4 43 5 45 13 27 6 -16 10 -15 34
12 15 17 23 31 18 31 -6 0 -15 -8 -21 -17 -8 -12 -10 -13 -7 -3 2 8 14 20 27
27 42 21 80 63 73 80 -5 12 -2 15 9 10 17 -6 72 46 60 58 -4 4 0 5 8 3 8 -2
14 3 12 10 -1 8 2 11 7 8 5 -3 25 11 45 31 43 44 41 46 -74 62 -47 7 -124 19
-171 28 -48 8 -95 13 -105 10 -11 -3 -4 -5 16 -6 21 -1 30 -5 25 -10 -6 -6
-28 -6 -55 -1 -67 12 -325 -13 -349 -34 -9 -9 -28 -16 -41 -16 -13 0 -32 -8
-42 -17 -11 -10 -39 -18 -66 -19 -97 -5 -182 -37 -182 -67 0 -10 -4 -16 -9
-13 -12 8 -21 -18 -21 -60 0 -19 -4 -34 -10 -34 -6 0 -10 -59 -10 -156 0 -85
-4 -153 -8 -150 -5 3 -12 108 -16 233 -3 125 -9 283 -13 351 l-6 122 1148 0
c632 0 1146 -2 1144 -4z"/>
</g>
</svg>
