<?xml version="1.0" standalone="no"?>
<!DOCTYPE svg PUBLIC "-//W3C//DTD SVG 20010904//EN"
 "http://www.w3.org/TR/2001/REC-SVG-20010904/DTD/svg10.dtd">
<svg version="1.0" xmlns="http://www.w3.org/2000/svg"
 width="1024.000000pt" height="1024.000000pt" viewBox="0 0 1024.000000 1024.000000"
 preserveAspectRatio="xMidYMid meet">
<metadata>
Created by potrace 1.16, written by Peter Selinger 2001-2019
</metadata>
<g transform="translate(0.000000,1024.000000) scale(0.100000,-0.100000)"
fill="#000000" stroke="none">
<path d="M0 5120 l0 -5120 5120 0 5120 0 0 5120 0 5120 -5120 0 -5120 0 0
-5120z m5106 4953 c-8 -16 -31 -41 -52 -58 -21 -16 -45 -37 -54 -45 -9 -8 -25
-20 -36 -27 -10 -6 -18 -16 -16 -23 1 -6 -2 -9 -8 -5 -9 6 -222 -146 -214
-154 8 -9 -48 -42 -63 -37 -9 4 -26 -1 -39 -9 -17 -11 -51 -16 -115 -16 -50
-1 -87 -4 -82 -8 6 -3 14 -17 18 -30 4 -14 16 -33 26 -44 10 -11 15 -25 12
-31 -4 -6 -47 -69 -96 -141 -87 -127 -172 -225 -212 -247 -24 -14 -18 -5 47
62 50 53 112 133 187 241 l52 77 -15 37 c-9 20 -29 54 -46 75 -16 21 -30 40
-30 42 0 3 54 8 121 11 139 7 188 24 279 99 30 25 107 83 170 130 63 47 124
95 134 107 11 11 25 21 33 21 11 0 11 -5 -1 -27z m13 -86 c-1 -12 3 -47 9 -77
13 -64 12 -172 -3 -182 -5 -4 -18 -8 -28 -8 -14 0 -16 4 -8 19 9 15 7 20 -10
24 -16 4 -19 11 -14 29 6 20 2 18 -27 -12 -45 -47 -80 -97 -71 -103 5 -2 3 -2
-4 -1 -6 2 -17 -4 -24 -12 -7 -9 -52 -43 -101 -76 -102 -70 -158 -130 -217
-232 -58 -102 -66 -153 -36 -239 54 -157 165 -291 292 -354 65 -32 77 -35 124
-29 72 10 87 20 94 64 10 60 15 70 24 52 5 -8 12 -37 15 -63 6 -37 11 -47 22
-43 8 3 30 -2 49 -11 34 -16 39 -16 92 2 144 49 264 176 333 352 22 56 40 107
40 115 0 24 -70 149 -117 211 -50 65 -100 113 -167 162 -47 34 -70 55 -61 55
15 0 154 -112 201 -162 54 -57 127 -160 138 -194 8 -25 46 -63 46 -46 0 7 -4
12 -9 12 -8 0 -31 51 -31 68 0 7 44 -42 70 -77 l22 -32 -26 7 c-14 3 -26 2
-26 -3 0 -17 51 -8 62 10 7 13 5 25 -6 42 -23 34 -20 42 7 18 12 -12 41 -32
64 -45 53 -29 56 -41 10 -49 -20 -3 -44 -12 -53 -20 -14 -11 -16 -11 -10 0 7
11 0 12 -35 6 -24 -4 -49 -12 -55 -18 -14 -14 -48 -116 -41 -123 7 -7 30 58
28 76 -2 11 0 12 9 4 9 -9 9 -17 -1 -35 -11 -21 -7 -19 25 9 20 17 42 32 49
32 6 0 -5 -13 -25 -30 -42 -35 -122 -141 -168 -223 -18 -31 -42 -64 -53 -72
-12 -8 -16 -15 -9 -15 6 0 29 24 51 53 22 28 50 63 61 77 21 24 21 23 -1 -15
-59 -105 -97 -137 -267 -225 -93 -48 -111 -62 -140 -105 -52 -80 -65 -96 -71
-89 -3 3 -11 -15 -16 -40 l-10 -47 -50 87 c-63 110 -98 143 -214 207 -126 69
-199 138 -266 251 -30 50 -65 107 -79 126 -31 41 -97 84 -157 101 -24 7 -47
15 -51 18 -11 10 24 45 90 90 73 49 107 93 169 214 26 52 62 106 86 129 39 37
212 158 226 158 4 0 13 9 21 20 8 11 20 20 26 20 10 0 53 43 147 148 20 24 37
50 37 58 0 8 5 12 11 9 5 -4 9 -17 8 -28z m-715 -388 c16 -40 16 -41 -14 -97
-48 -88 -46 -87 -155 -106 -84 -15 -148 -29 -325 -72 -8 -2 -34 -10 -58 -19
-51 -18 -62 -14 -62 26 0 41 -15 36 -45 -15 -33 -57 -53 -75 -65 -57 -6 11
-10 9 -19 -7 -6 -12 -47 -34 -105 -57 -94 -36 -96 -36 -131 -19 -20 9 -51 35
-70 57 l-35 41 0 -73 c0 -40 -5 -81 -11 -92 -11 -21 -101 -69 -129 -69 -8 0
-21 -9 -28 -21 -7 -11 -28 -27 -46 -34 -19 -8 -47 -25 -62 -38 -16 -14 -52
-36 -81 -51 -49 -24 -208 -130 -245 -164 -16 -14 -18 -14 -18 1 0 10 -5 17
-11 17 -5 0 -7 4 -4 10 4 6 -1 7 -12 3 -14 -5 -15 -3 -7 7 14 14 57 4 48 -12
-4 -7 -2 -8 4 -4 19 12 14 36 -5 29 -17 -6 -17 -5 0 15 18 20 18 20 -2 15 -13
-3 -21 -1 -21 6 0 7 -5 9 -11 5 -8 -4 -7 -9 2 -15 7 -4 10 -11 6 -15 -4 -4
-12 -3 -18 3 -6 6 -18 9 -25 6 -10 -4 -12 0 -8 13 4 11 4 16 -1 12 -4 -4 -13
-4 -20 2 -7 6 -32 -3 -74 -30 -80 -49 -96 -64 -59 -58 15 3 27 2 26 -1 -2 -21
8 -31 55 -56 28 -16 85 -52 126 -82 43 -31 81 -51 90 -48 9 2 23 0 31 -6 12
-8 9 -9 -9 -4 -32 10 -19 -9 20 -29 23 -12 36 -13 51 -5 24 13 35 5 19 -14 -9
-12 -6 -18 16 -33 16 -10 36 -17 46 -17 9 1 17 -1 17 -5 0 -13 54 -40 70 -35
12 4 12 3 1 -5 -10 -7 -10 -11 -1 -17 6 -4 17 -2 23 4 18 18 29 13 17 -9 -8
-15 -6 -21 10 -30 23 -12 37 -6 109 45 105 76 313 187 451 242 63 25 126 51
140 59 69 38 482 164 540 164 47 0 4 -19 -135 -59 -77 -22 -178 -54 -225 -71
-47 -17 -93 -34 -102 -37 -24 -7 -22 -27 5 -59 22 -25 24 -25 40 -10 9 10 17
14 17 9 0 -4 -12 -19 -26 -32 -24 -23 -25 -28 -18 -95 4 -39 4 -68 0 -65 -3 3
-9 35 -12 70 -7 85 -21 126 -49 145 -24 16 -64 11 -76 -8 -7 -10 -136 -68
-152 -68 -13 0 -156 -70 -200 -97 -21 -13 -42 -21 -46 -18 -5 2 -11 -2 -15
-10 -3 -8 -12 -15 -21 -15 -8 0 -15 -4 -15 -8 0 -5 -36 -30 -80 -56 -44 -26
-80 -51 -80 -54 0 -13 149 -132 165 -132 8 0 15 -4 15 -10 0 -5 4 -10 9 -10
11 0 37 64 46 114 13 66 17 30 6 -46 -8 -51 -17 -78 -31 -90 -23 -19 -26 -33
-5 -25 8 4 17 1 21 -5 4 -7 3 -8 -4 -4 -7 4 -12 3 -12 -2 0 -14 80 -102 94
-102 15 0 212 -198 204 -205 -15 -15 -281 245 -345 336 -17 23 -48 49 -78 64
-27 13 -66 34 -85 47 l-35 22 30 -34 30 -33 -35 19 c-21 12 -35 28 -35 40 0
28 -15 47 -60 74 -83 50 -252 161 -313 206 -75 54 -193 128 -279 174 -35 18
-60 36 -57 41 2 4 11 6 19 3 8 -3 41 17 77 46 114 96 375 264 588 380 324 176
835 353 1195 415 49 8 94 20 99 25 17 17 23 12 40 -31z m1601 -18 c215 -45
304 -68 490 -128 119 -38 315 -111 328 -122 13 -12 -23 -97 -52 -125 -27 -26
-31 -27 -72 -16 -24 6 -98 33 -164 59 -115 46 -176 65 -420 130 -78 21 -100
30 -75 30 26 1 31 4 20 11 -9 6 -10 10 -3 10 8 0 11 15 9 48 -2 26 -4 48 -5
50 0 1 -1 5 -1 9 1 7 -173 53 -202 53 -10 0 -18 5 -18 10 0 14 9 13 165 -19z
m-870 -74 c10 -49 12 -53 48 -61 29 -8 40 -7 46 3 6 9 11 10 15 2 9 -13 -9
-47 -31 -59 -15 -9 -14 -15 6 -70 l23 -60 -21 -40 c-11 -21 -32 -53 -46 -70
-18 -21 -25 -41 -24 -68 l1 -39 8 33 c4 18 18 44 31 58 52 55 161 82 205 49
18 -14 17 -14 -12 -15 -39 0 -94 -18 -117 -38 -17 -15 -17 -16 0 -26 15 -9 13
-11 -16 -16 -33 -5 -35 -8 -46 -60 -20 -101 -61 -134 -163 -133 -69 1 -87 9
-58 27 56 33 71 54 71 99 0 58 -17 77 -69 77 -81 0 -136 78 -112 160 9 32 10
33 14 10 2 -14 9 -31 14 -38 8 -10 6 -11 -8 -5 -17 6 -17 5 -5 -10 9 -11 28
-17 55 -17 67 0 125 50 126 109 0 29 -46 81 -71 81 -20 0 -33 31 -25 58 5 16
14 18 60 14 49 -4 54 -2 59 19 4 13 7 36 7 50 0 27 9 43 19 33 3 -3 11 -29 16
-57z m2100 -386 c33 -18 76 -43 95 -55 80 -51 396 -260 405 -269 20 -17 -51
18 -95 48 -25 17 -82 55 -128 84 -83 52 -83 52 -110 35 -17 -11 -22 -19 -13
-22 7 -2 18 1 24 7 6 6 15 11 20 11 5 0 -2 -9 -16 -20 -20 -16 -31 -18 -51
-10 -14 5 -26 15 -26 22 0 10 2 10 8 1 5 -8 13 -6 29 7 17 13 19 20 10 31 -10
11 -9 11 6 0 9 -8 20 -12 22 -9 8 8 -159 107 -185 110 -13 2 -33 13 -46 26
-37 35 -47 25 -11 -12 18 -19 35 -29 38 -23 4 5 12 6 18 3 6 -4 9 -11 6 -16
-3 -5 8 -15 24 -23 17 -8 31 -11 33 -6 2 4 10 4 18 -1 13 -8 12 -10 -2 -10
-10 0 -18 -4 -18 -10 0 -9 8 -12 55 -14 11 -1 21 -9 23 -20 3 -16 0 -18 -22
-12 -21 5 -24 3 -19 -10 5 -14 3 -15 -14 -6 -11 6 -26 19 -34 28 -9 12 -9 15
-1 10 14 -8 15 -5 6 18 -11 28 -34 18 -34 -15 0 -20 4 -29 12 -27 7 3 18 -1
25 -8 15 -15 6 -47 -11 -37 -6 3 -8 2 -4 -2 5 -5 20 -10 34 -11 25 -3 25 -2 8
12 -18 14 -18 15 1 12 24 -4 33 -37 13 -50 -10 -8 -9 -9 5 -4 12 4 17 0 17
-12 0 -15 2 -15 10 -2 13 20 13 33 0 25 -5 -3 -10 -2 -10 4 0 5 5 13 10 16 6
3 10 1 10 -4 0 -6 7 -11 16 -11 8 0 13 -4 10 -9 -3 -4 5 -13 18 -19 19 -8 23
-17 20 -41 -3 -22 1 -31 15 -36 9 -3 31 -20 47 -37 l29 -32 -30 19 c-16 10
-66 44 -110 75 -44 32 -134 88 -200 125 -66 38 -124 75 -128 82 -4 7 -27 16
-50 20 -22 3 -51 16 -63 29 -25 24 -69 156 -60 179 3 8 1 15 -4 15 -6 0 -10 8
-10 19 0 16 24 7 153 -58 83 -42 179 -92 212 -110z m-580 -68 c-4 -38 -10 -70
-14 -73 -3 -3 -14 -21 -25 -40 -10 -19 -25 -40 -32 -46 -14 -11 -8 -54 7 -54
5 0 9 -5 9 -12 0 -6 -9 -3 -20 7 -20 18 -20 17 -20 -9 0 -15 4 -25 9 -21 5 3
11 2 13 -2 2 -5 -21 -32 -51 -62 l-53 -53 6 38 c4 24 1 58 -8 89 -9 27 -14 50
-13 51 1 1 21 11 45 23 37 19 41 24 32 41 -9 16 -6 22 18 34 34 18 52 43 77
109 10 26 20 47 23 47 2 0 1 -30 -3 -67z m-3067 -3 c7 -12 18 -17 29 -14 13 4
14 3 5 -3 -9 -7 -6 -19 17 -50 16 -23 34 -44 40 -48 6 -3 11 -15 11 -26 0 -12
5 -17 10 -14 6 4 22 -1 35 -9 28 -19 32 -51 10 -80 -8 -11 -15 -36 -15 -57 0
-20 -7 -42 -15 -49 -13 -10 -15 -9 -15 9 0 11 -5 20 -11 19 -6 -2 -14 3 -17
11 -3 8 0 11 7 7 20 -13 12 3 -16 29 -16 14 -36 24 -45 21 -11 -2 -15 1 -11
10 3 8 11 14 17 14 7 0 21 6 32 14 19 14 18 15 -7 43 -25 26 -69 102 -97 166
-10 24 -9 27 6 27 9 0 23 -9 30 -20z m4402 -241 c-14 -12 -74 -46 -135 -76
-60 -30 -177 -97 -260 -149 -82 -52 -220 -136 -305 -187 -121 -72 -156 -97
-158 -115 -2 -15 -8 -22 -18 -18 -7 3 -13 0 -11 -6 1 -6 -4 -13 -12 -16 -9 -3
-11 0 -6 9 5 8 6 12 2 9 -3 -3 -29 -25 -59 -50 -29 -25 -134 -124 -233 -220
-280 -272 -305 -295 -305 -281 0 16 224 244 302 308 32 25 61 55 64 67 4 11
14 26 23 33 13 10 13 14 3 21 -7 5 -15 29 -17 53 l-4 44 20 -27 c11 -16 24
-28 28 -28 18 0 175 124 162 128 -11 4 -11 6 0 12 10 7 10 11 -1 25 -12 15
-11 15 12 5 22 -10 31 -8 69 16 24 15 45 31 47 35 2 4 10 5 19 2 11 -4 14 -2
9 5 -4 7 -1 12 9 12 9 0 46 20 83 44 167 108 491 294 515 295 4 0 22 8 39 17
29 15 125 52 138 53 3 0 -6 -9 -20 -20z m-6352 -188 c9 -5 78 -14 152 -20 134
-12 279 -43 388 -82 83 -31 89 -40 43 -65 l-38 -20 5 21 c3 19 -5 25 -75 48
-99 32 -205 52 -361 68 -100 10 -125 15 -132 30 -17 30 -12 36 18 20z m2864
-17 c45 -23 199 -156 258 -222 28 -31 60 -76 71 -100 23 -49 69 -249 69 -298
0 -47 14 -77 44 -93 30 -17 34 -31 8 -31 -45 0 -99 112 -87 182 5 29 3 38 -7
38 -10 0 -18 24 -27 75 -15 92 -64 192 -126 260 -33 36 -44 44 -40 28 5 -18 2
-23 -14 -23 -13 0 -32 19 -56 55 -48 72 -83 100 -150 121 -30 10 -55 22 -55
27 0 13 75 0 112 -19z m1258 -10 c-60 -27 -126 -85 -141 -123 -7 -17 -15 -22
-29 -18 -22 6 -80 -48 -128 -119 -31 -46 -72 -176 -72 -231 0 -30 -4 -41 -13
-37 -9 3 -13 -9 -13 -48 0 -52 -21 -105 -60 -153 -15 -20 -16 -19 -55 24 -21
24 -39 48 -39 53 0 5 12 -4 26 -21 49 -59 81 -32 90 75 9 127 43 251 87 321
34 54 230 239 291 274 28 16 65 29 81 28 27 0 24 -3 -25 -25z m2870 17 c0 -14
-53 -28 -150 -41 -150 -19 -248 -40 -361 -75 -61 -19 -117 -35 -125 -35 -29 0
-12 16 49 44 98 45 206 69 452 100 132 17 135 18 135 7z m-3933 -248 c10 -16
20 -30 23 -33 3 -3 6 -31 6 -62 1 -43 -2 -58 -12 -58 -8 0 -14 -4 -14 -10 0
-5 3 -10 8 -10 4 0 8 -24 8 -52 1 -29 3 -64 5 -78 4 -23 1 -25 -43 -28 -46 -3
-47 -3 -53 31 -4 22 -2 44 6 58 7 13 12 28 11 32 -1 4 3 17 9 29 13 24 18 103
8 133 -20 64 -20 75 1 75 11 0 27 -12 37 -27z m2157 -70 c8 -29 11 -53 7 -53
-5 0 -12 19 -16 43 l-7 42 -17 -65 c-20 -76 -41 -120 -86 -175 -18 -22 -43
-69 -56 -105 -22 -61 -44 -89 -114 -147 -15 -13 -35 -23 -45 -23 -10 0 -34
-18 -54 -40 -32 -36 -36 -45 -31 -78 5 -30 4 -33 -5 -19 -21 33 -41 89 -30 82
12 -7 69 51 70 70 0 11 64 65 76 65 4 0 1 -8 -7 -18 -8 -10 3 0 24 23 20 22
49 60 64 85 15 25 52 83 84 130 64 95 94 157 104 213 9 46 18 39 39 -30z
m-3271 -273 c49 -70 94 -122 137 -156 35 -28 72 -69 83 -89 14 -29 21 -35 28
-24 7 11 9 9 9 -6 0 -11 -12 -38 -26 -60 l-25 -40 5 52 5 52 -102 88 c-81 70
-109 102 -137 154 -19 36 -45 79 -57 96 -27 36 -77 145 -87 188 -4 17 -9 39
-12 50 -3 11 20 -29 50 -90 31 -60 89 -157 129 -215z m718 9 c63 -38 149 -125
149 -151 0 -17 -17 -4 -51 41 -49 64 -66 63 -30 -1 33 -59 36 -68 21 -68 -5 0
-20 17 -34 38 -13 20 -48 62 -78 92 -48 49 -99 115 -122 160 -5 8 11 -4 34
-28 23 -23 73 -61 111 -83z m819 100 c7 -11 15 -91 19 -178 5 -89 13 -167 20
-180 12 -21 11 -22 -8 -16 -14 4 -23 0 -32 -17 -11 -21 -11 -22 4 -10 13 11
21 7 59 -35 79 -87 119 -126 124 -120 7 6 -25 57 -45 73 -12 9 -12 12 1 16 22
9 59 -54 67 -117 7 -47 5 -60 -10 -79 -10 -13 -15 -26 -11 -30 3 -4 2 -10 -3
-14 -6 -4 -16 -20 -23 -37 l-13 -30 25 30 c14 17 24 38 22 47 -2 10 0 21 5 24
5 3 9 -4 9 -15 0 -21 0 -21 21 0 20 20 23 20 31 5 7 -13 1 -30 -23 -67 -31
-49 -35 -74 -7 -46 7 8 23 19 35 26 12 6 35 39 51 74 16 34 36 68 45 75 13 11
16 7 23 -30 9 -56 6 -108 -8 -126 -10 -12 -13 -11 -18 2 -3 11 -20 -10 -49
-64 -43 -76 -94 -141 -78 -97 6 15 4 16 -13 7 -11 -6 -26 -20 -33 -30 -17 -28
-25 -25 -19 6 l5 26 -28 -28 c-19 -19 -29 -23 -35 -15 -5 10 -11 9 -22 -3 -9
-8 -18 -12 -22 -9 -3 4 -6 0 -6 -8 -1 -23 -40 34 -40 58 0 16 -5 21 -20 18
-14 -3 -20 2 -20 13 -1 22 -30 62 -30 41 0 -8 4 -28 9 -46 7 -24 6 -35 -5 -44
-8 -6 -18 -9 -21 -5 -4 4 -12 -3 -18 -14 -11 -20 -12 -19 -53 16 -43 36 -50
37 -32 4 9 -16 7 -18 -18 -15 -15 2 -30 4 -34 4 -5 1 -17 10 -29 22 -28 28
-34 18 -8 -14 11 -15 16 -27 11 -27 -14 0 -44 49 -37 60 8 13 -30 62 -39 52
-4 -3 -4 1 -1 10 4 9 -1 29 -10 45 -14 23 -15 24 -12 6 6 -26 -1 -28 -28 -9
-49 33 -92 38 -170 20 -91 -22 -112 -14 -162 62 -21 32 -58 68 -99 95 -76 52
-102 88 -140 194 -33 93 -81 167 -114 175 -32 8 -38 30 -8 30 32 0 86 -46 138
-118 42 -58 128 -129 173 -144 22 -8 22 -8 2 8 -20 16 -20 16 2 9 50 -14 103
-14 103 1 0 16 11 18 26 5 17 -16 62 -22 67 -8 3 8 7 5 12 -7 10 -22 -4 -47
-33 -62 -20 -10 -20 -11 9 -38 16 -15 29 -22 29 -16 0 10 3 10 15 0 8 -7 12
-16 9 -21 -3 -5 -1 -9 4 -9 18 0 21 27 6 56 -21 40 -14 67 9 33 10 -15 20 -35
22 -45 2 -11 8 -32 13 -49 8 -26 10 -27 15 -10 9 32 3 60 -20 89 -19 23 -22
56 -6 56 8 0 31 -27 52 -60 25 -42 32 -28 29 60 -3 60 -2 65 17 61 19 -3 19
-2 1 17 -10 12 -15 26 -11 31 10 17 124 90 127 82 2 -4 17 -17 35 -29 l32 -23
11 40 c6 22 15 43 20 46 6 3 15 15 21 27 8 15 8 19 0 14 -6 -4 -11 -3 -11 2 0
6 6 12 14 15 8 3 22 26 31 51 10 25 22 46 26 46 5 0 12 18 15 41 4 26 10 36
15 28 5 -9 12 3 20 34 6 26 13 47 15 47 2 0 8 -9 14 -21z m942 -16 c-11 -15
-50 -57 -86 -92 -36 -35 -73 -80 -82 -101 -9 -20 -32 -49 -50 -64 l-34 -27 10
27 c6 15 8 29 5 32 -3 3 -5 1 -5 -4 0 -5 -24 -9 -52 -9 -29 0 -70 -3 -91 -7
-28 -5 -37 -4 -34 5 2 7 21 13 43 15 84 5 104 13 141 53 21 22 67 60 103 84
36 24 83 62 104 84 44 45 59 47 28 4z m-2104 -217 c34 -33 51 -82 52 -144 0
-36 -37 -132 -51 -132 -23 0 -28 -41 -14 -121 17 -98 20 -173 5 -164 -5 3 -10
0 -10 -8 0 -19 -31 -79 -37 -73 -3 3 2 17 11 30 19 30 20 90 1 131 -13 30 -13
30 -15 5 -1 -14 -4 -19 -7 -12 -3 7 -2 20 2 30 4 9 7 55 5 101 -2 81 -1 84 19
78 20 -5 21 -1 21 74 0 134 -38 206 -160 303 -27 21 -14 17 55 -19 50 -26 105
-61 123 -79z m2527 115 c-6 -5 -30 -22 -54 -40 -57 -40 -95 -93 -126 -175 -38
-100 -33 -186 11 -186 22 0 23 -3 18 -42 -3 -24 -1 -76 3 -115 10 -82 3 -110
-21 -78 -15 20 -15 20 -16 -4 0 -35 37 -108 83 -163 21 -27 34 -48 28 -48 -19
0 -42 -47 -46 -94 -3 -38 0 -48 17 -61 l22 -15 -33 -45 c-18 -26 -31 -48 -29
-51 3 -2 -10 -21 -29 -40 -19 -20 -32 -42 -29 -49 2 -7 -4 -15 -14 -18 -11 -3
-28 -19 -38 -36 -22 -36 -116 -105 -157 -115 -16 -4 -40 -15 -54 -25 -18 -13
-38 -17 -65 -13 -29 3 -41 0 -48 -12 -8 -13 -18 -16 -51 -11 -31 5 -58 0 -107
-18 -99 -38 -130 -38 -171 1 -19 17 -37 32 -42 32 -13 0 -40 67 -34 84 11 28
70 19 153 -23 43 -22 80 -39 81 -37 1 1 -4 20 -12 41 -8 22 -14 52 -15 68 0
27 0 27 72 27 l72 0 -32 33 c-18 18 -32 37 -32 42 0 11 157 85 178 85 32 0 6
18 -46 33 -62 17 -132 62 -158 102 -9 14 -19 45 -21 69 l-5 43 58 29 c33 15
72 37 88 48 19 12 47 20 77 21 27 1 52 4 55 8 4 4 16 7 27 7 17 0 18 -2 6 -16
-12 -14 -11 -16 6 -12 15 2 19 10 17 28 -3 29 13 58 25 46 4 -5 2 -11 -4 -13
-10 -3 -10 -10 -2 -24 5 -11 7 -24 4 -29 -3 -6 1 -10 10 -10 9 0 13 5 10 10
-3 6 -1 10 4 10 6 0 11 -5 11 -11 0 -6 7 -8 16 -5 9 4 23 1 30 -5 11 -9 14 -6
14 18 0 26 -3 29 -31 27 -22 -2 -29 2 -25 12 3 8 1 14 -4 14 -5 0 -10 -8 -13
-17 -2 -10 -4 -1 -3 19 0 23 3 33 8 25 5 -8 8 -6 9 8 l0 20 9 -20 c6 -13 9
-15 9 -5 1 13 3 13 10 1 7 -11 10 -10 14 5 3 13 5 9 6 -11 1 -23 4 -27 11 -15
8 13 14 10 39 -17 17 -19 24 -34 17 -36 -6 -2 4 -4 22 -3 38 1 38 3 12 59 -10
23 -19 60 -18 82 1 22 -2 51 -6 65 -5 18 -4 20 2 6 12 -27 20 -10 28 58 5 43
4 56 -6 56 -7 0 -11 3 -7 6 3 4 -5 28 -18 55 -29 55 -31 92 -11 168 16 59 32
81 91 121 72 49 184 103 150 71z m-381 -220 c-24 -48 -102 -123 -166 -159 -32
-18 -96 -43 -144 -57 -81 -24 -88 -24 -114 -8 -25 14 -27 20 -23 57 4 42 30
125 43 139 3 4 5 -7 3 -25 -3 -25 -2 -29 6 -18 6 9 11 10 11 3 0 -6 3 -19 6
-27 5 -12 2 -15 -12 -10 -16 5 -16 4 -4 -5 8 -6 23 -8 33 -5 9 3 17 1 17 -5 0
-6 4 -11 10 -11 5 0 7 7 4 15 -4 8 -2 15 4 15 6 0 9 -11 7 -25 -1 -14 2 -25 6
-25 5 0 9 7 9 15 0 8 7 15 15 15 8 0 15 -7 15 -16 0 -8 4 -13 9 -9 5 3 12 1
16 -5 3 -5 11 -10 16 -10 6 0 3 7 -6 16 -9 9 -14 18 -12 20 7 7 37 -7 37 -17
0 -18 97 52 160 115 36 35 66 63 68 62 1 -2 -5 -17 -14 -35z m-4698 -91 c8 0
13 -4 10 -8 -2 -4 3 -8 12 -9 35 -2 77 -14 80 -23 2 -5 10 -6 19 -3 13 5 14 3
3 -18 -7 -13 -30 -46 -50 -74 -20 -27 -58 -90 -85 -140 -26 -49 -63 -110 -81
-135 -17 -25 -48 -79 -68 -121 -55 -115 -97 -151 -202 -170 -75 -14 -95 -6
-59 23 27 21 75 113 75 143 0 8 16 50 35 94 19 43 35 86 35 94 0 9 5 28 11 44
7 20 12 24 18 14 6 -9 24 17 58 81 27 51 71 126 96 166 43 66 49 71 63 57 8
-8 22 -15 30 -15z m3006 -513 c70 -35 83 -46 86 -69 5 -42 -31 -101 -75 -123
-21 -11 -40 -23 -43 -26 -9 -11 -49 -29 -64 -29 -8 0 -27 -5 -43 -11 -28 -11
-27 -11 36 -35 35 -13 79 -34 98 -45 l35 -22 -38 -38 -37 -38 68 -3 c85 -4 96
-16 67 -76 -23 -48 -15 -53 41 -28 115 53 164 59 185 26 18 -29 -6 -71 -62
-110 -55 -37 -89 -38 -171 -6 -52 22 -66 24 -102 14 -36 -9 -45 -7 -70 11 -24
18 -34 20 -57 11 -34 -13 -37 -13 -34 0 2 6 -28 24 -67 41 -38 17 -86 46 -105
65 -20 19 -41 34 -47 34 -7 0 -15 5 -19 12 -4 7 -3 8 4 4 19 -12 14 6 -10 31
-12 13 -31 23 -42 23 -15 0 -17 3 -8 9 11 6 3 24 -33 77 -26 38 -54 77 -63 87
-10 11 -12 21 -7 25 6 4 18 21 28 39 16 30 16 35 2 70 -9 21 -22 43 -30 49
-13 10 -10 17 20 50 23 25 35 33 35 22 0 -9 -4 -20 -10 -23 -5 -3 -10 -13 -10
-21 0 -8 4 -13 8 -10 4 2 9 -34 10 -82 2 -48 7 -91 12 -96 6 -6 7 4 4 26 -4
19 -1 45 5 56 7 13 7 23 1 27 -13 8 -1 35 16 35 8 0 14 -5 14 -12 0 -6 2 -9 5
-6 3 3 0 18 -7 32 -10 23 -9 29 3 36 20 13 53 -29 35 -45 -8 -6 -10 -20 -5
-40 6 -28 7 -29 14 -8 4 12 12 24 19 26 6 2 3 3 -6 2 -23 -4 -23 1 2 27 10 12
16 26 13 32 -4 6 -8 6 -11 -2 -4 -14 -22 -6 -22 9 0 6 5 7 10 4 6 -3 10 -2 10
3 0 6 9 8 20 5 26 -7 25 4 -2 28 -13 10 -18 18 -11 19 6 0 20 -11 31 -24 23
-30 64 -42 89 -26 16 10 16 10 -4 5 -28 -8 -65 3 -61 17 2 6 28 11 59 11 29
-1 57 4 60 9 4 6 15 8 25 6 18 -5 18 -5 -1 -13 -31 -14 -47 -32 -34 -41 6 -3
14 -2 18 3 3 6 17 14 30 18 18 5 22 4 16 -5 -5 -8 -4 -11 3 -6 6 4 8 14 5 24
-5 14 -3 15 8 5 19 -19 34 -16 18 3 -12 15 -11 16 11 9 23 -7 24 -7 10 11 -9
12 -5 11 12 -4 14 -13 64 -42 110 -65z m754 -122 c17 -40 18 -72 1 -35 -11 24
-11 23 -15 -19 -3 -45 -22 -70 -52 -71 -16 0 -53 -49 -68 -90 -21 -57 -23
-117 -6 -161 27 -71 39 -78 63 -38 12 19 21 43 21 53 0 39 9 9 19 -66 12 -86
27 -118 53 -118 21 0 21 3 7 53 -9 32 -7 45 12 83 12 25 25 68 29 97 6 41 8
45 8 17 2 -80 -18 -290 -33 -350 -9 -36 -21 -82 -26 -104 -13 -49 -32 -35 -36
26 -5 70 -43 134 -43 72 0 -14 -4 -44 -9 -67 -6 -23 -13 -55 -16 -71 -6 -27
-7 -28 -20 -10 -10 15 -43 146 -56 221 -1 5 -5 -18 -9 -51 -4 -32 -12 -61 -17
-65 -6 -3 -13 -13 -16 -21 -4 -8 -6 23 -4 68 2 68 0 79 -9 57 -10 -26 -11 -26
-33 -8 -21 17 -22 22 -13 73 12 65 9 75 -9 26 -19 -53 -30 -44 -12 10 19 55
13 143 -13 181 -15 24 -15 25 0 20 26 -10 19 8 -9 23 -29 16 -32 27 -8 32 9 2
-31 2 -90 2 -117 -2 -127 -6 -153 -61 -9 -18 -19 -32 -21 -29 -2 2 5 22 16 45
28 54 27 66 -11 94 -39 29 -61 37 -153 52 -54 10 -61 13 -32 14 20 0 36 5 35
10 -2 5 6 17 18 27 11 11 25 28 31 38 6 11 19 21 29 22 17 2 16 0 -3 -16 -28
-23 -29 -30 -2 -23 12 3 22 17 26 33 4 24 11 29 44 32 l38 3 22 -57 c28 -75
66 -108 122 -108 57 0 145 25 179 50 33 25 39 25 32 3 -4 -12 1 -9 15 7 11 14
21 29 21 33 0 5 4 6 8 3 4 -2 9 5 9 16 2 26 39 66 67 71 49 10 57 7 72 -28z
m-3345 -7 c-5 -13 -66 -135 -135 -273 -69 -137 -126 -254 -126 -258 0 -15 -81
-179 -86 -174 -14 14 174 437 277 625 47 85 92 137 70 80z m1439 -6 c0 -4 -24
-15 -52 -24 -29 -10 -129 -45 -223 -78 -93 -34 -197 -69 -230 -79 -75 -22 -88
-27 -153 -58 -30 -13 -70 -31 -90 -38 -21 -7 -75 -29 -120 -49 -87 -37 -107
-43 -97 -26 3 6 14 10 24 10 9 0 26 7 37 16 18 14 18 15 -4 4 -13 -7 -26 -9
-29 -6 -9 9 290 137 329 141 36 3 29 15 -25 41 -59 27 -91 54 -66 54 8 0 39
-16 69 -35 65 -42 82 -43 163 -9 34 15 139 53 232 85 157 53 235 70 235 51z
m2447 -127 c-25 -9 -66 -36 -87 -57 -23 -23 -35 -26 -101 -28 -116 -3 -128 -1
-151 23 l-23 22 45 6 c34 5 53 2 77 -11 26 -15 32 -16 37 -4 4 10 -3 14 -22
15 -26 1 -25 1 11 18 21 10 52 31 69 47 32 28 23 11 -16 -33 -32 -37 -8 -26
27 12 17 19 38 35 44 35 7 0 13 7 13 15 0 7 8 18 17 24 15 8 21 2 40 -37 12
-25 21 -46 20 -47z m-4709 31 c15 -8 40 -28 56 -45 l29 -30 -26 -58 c-14 -32
-33 -92 -43 -133 -9 -41 -27 -88 -39 -105 -12 -16 -30 -61 -40 -100 -10 -38
-33 -110 -50 -160 -26 -72 -90 -318 -110 -421 -3 -11 -16 -33 -30 -50 -17 -19
-23 -22 -19 -10 5 13 4 17 -4 12 -7 -4 -12 -2 -12 4 0 6 -12 0 -27 -14 -31
-29 -44 -26 -35 7 5 20 4 21 -11 8 -9 -7 -17 -20 -17 -27 0 -23 -24 -94 -32
-94 -9 0 -6 13 33 205 37 176 109 435 121 435 5 0 18 -5 28 -10 15 -8 22 -6
31 12 15 28 12 85 -6 111 -17 25 0 89 75 276 90 226 80 212 128 187z m492 -49
c0 -10 -12 -34 -26 -52 -32 -42 -27 -63 29 -117 l42 -41 -30 7 c-16 3 -55 9
-86 12 l-56 6 -16 -41 c-12 -28 -23 -41 -36 -41 -18 0 -19 2 -4 31 20 39 11
94 -19 126 -12 13 -52 38 -88 56 -84 41 -54 48 55 12 42 -14 92 -25 110 -25
42 0 82 37 91 86 6 34 8 36 20 19 8 -10 14 -27 14 -38z m240 -363 c-6 -14 -10
-27 -10 -29 0 -2 19 7 43 20 23 12 55 26 71 29 27 7 25 4 -15 -26 -24 -19 -66
-47 -94 -62 -27 -16 -67 -42 -87 -58 -21 -16 -73 -52 -115 -80 -43 -28 -87
-58 -98 -68 -11 -10 -31 -21 -44 -25 -27 -8 32 46 130 120 29 22 89 77 133
121 45 45 84 82 88 83 4 0 3 -11 -2 -25z m5786 -463 c-3 -4 21 -5 53 -3 37 3
61 0 65 -7 5 -7 -6 -11 -31 -12 -43 -1 -87 -16 -123 -41 -22 -16 -23 -19 -10
-57 11 -35 11 -48 -4 -96 -14 -44 -16 -62 -7 -87 23 -65 -3 -15 -56 108 -57
133 -75 193 -54 180 6 -4 8 -12 5 -18 -5 -7 -2 -8 6 -3 7 4 16 2 21 -6 6 -10
10 -7 18 13 14 37 36 49 27 14 -8 -31 1 -32 32 -6 20 16 22 25 17 52 l-7 33
26 -28 c14 -16 24 -32 22 -36z m749 -31 c35 -95 75 -221 75 -236 0 -8 -4 -12
-10 -9 -5 3 -10 1 -10 -4 0 -6 6 -11 13 -11 6 -1 -19 -30 -57 -65 -52 -48 -73
-62 -82 -54 -7 6 -10 17 -7 24 2 8 0 37 -6 65 -11 52 -2 122 21 164 17 33 38
110 38 145 0 42 4 39 25 -19z m930 -28 c-100 -71 -139 -89 -307 -145 -139 -47
-216 -86 -311 -161 -130 -102 -163 -123 -207 -130 -24 -4 -45 -5 -47 -2 -3 3
22 18 55 35 33 17 86 53 118 81 121 106 221 159 431 229 81 27 173 61 203 75
54 24 86 34 65 18z m40 -142 c0 -58 -4 -101 -10 -102 -5 -2 -11 11 -13 27 -7
80 -9 81 -57 28 -25 -26 -47 -58 -51 -70 -4 -14 -15 -23 -32 -25 -17 -2 -27
-9 -26 -18 1 -9 -9 -15 -25 -16 -61 -3 -177 -47 -149 -56 7 -3 22 0 33 5 11 6
28 14 38 19 10 5 32 6 48 3 16 -4 29 -2 29 3 0 10 78 5 125 -8 24 -6 15 -8
-40 -9 -74 -1 -193 -29 -254 -60 -42 -22 -167 -148 -203 -206 -13 -22 -40 -79
-58 -126 -36 -90 -45 -99 -118 -114 -18 -4 -30 -10 -27 -15 7 -11 65 -18 65
-8 0 4 10 8 22 8 12 0 18 -3 15 -7 -4 -3 -3 -11 2 -17 14 -18 22 -48 11 -41
-6 3 -10 1 -10 -5 0 -6 6 -13 14 -16 11 -4 31 -44 21 -44 -1 0 -15 18 -30 41
-33 47 -63 64 -124 73 -24 3 -55 13 -67 21 -17 11 -30 12 -49 5 -15 -6 -25 -6
-23 -2 5 14 101 96 140 120 34 21 50 47 64 104 3 15 23 46 45 70 21 24 37 48
34 55 -2 8 2 10 13 6 9 -3 14 -3 10 1 -11 13 130 133 195 164 34 17 89 35 122
42 114 21 136 34 201 116 32 42 71 91 86 108 15 17 28 34 28 39 0 4 1 7 3 7 1
0 2 -45 2 -100z m-3503 46 c34 -33 54 -65 81 -135 32 -80 65 -131 83 -131 3 0
3 8 -1 19 -3 10 1 23 8 30 12 9 17 5 27 -21 29 -78 27 -76 40 -43 20 53 31
128 25 185 -6 54 -5 54 10 28 8 -15 19 -60 23 -100 7 -70 8 -72 22 -48 11 18
14 52 13 120 l-2 95 24 -55 c20 -48 28 -56 59 -64 20 -5 36 -15 36 -22 0 -6 6
-14 14 -17 11 -4 13 -26 11 -97 -2 -51 -6 -94 -9 -97 -10 -10 -18 69 -12 120
6 49 5 54 -16 63 -43 18 -67 6 -79 -39 -7 -23 -16 -46 -21 -51 -4 -6 -8 -24
-8 -41 0 -17 -5 -36 -12 -43 -9 -9 -9 -12 0 -12 7 0 12 -11 12 -25 0 -14 -5
-25 -10 -25 -7 0 -7 -7 0 -20 6 -11 8 -25 5 -30 -3 -5 4 -14 15 -20 18 -10 19
-14 8 -28 -10 -12 -10 -14 0 -8 6 4 12 4 12 -1 0 -4 11 -9 25 -9 14 -1 25 2
25 8 0 5 4 7 9 3 6 -3 8 -14 6 -25 -2 -11 2 -20 8 -20 7 0 6 -4 -3 -10 -14 -9
-12 -12 6 -9 4 0 11 -5 15 -13 6 -8 9 -1 9 22 1 60 16 12 29 -90 7 -52 11
-131 9 -174 -3 -78 -2 -80 22 -86 22 -5 17 -9 -35 -25 -49 -16 -60 -24 -58
-40 8 -66 25 -89 42 -56 6 11 21 26 33 32 22 12 22 12 4 -16 -17 -26 -18 -52
-15 -361 l4 -334 28 0 c16 0 42 9 57 20 18 13 31 17 35 10 10 -16 -101 -63
-133 -56 -44 10 -92 16 -92 12 0 -2 16 -11 35 -20 19 -9 35 -23 35 -31 0 -7 5
-15 12 -17 8 -3 2 -13 -15 -28 -15 -13 -27 -31 -27 -39 0 -10 3 -12 8 -5 10
15 93 34 149 34 47 -1 47 -1 23 -15 -14 -8 -34 -15 -45 -16 -11 -1 -2 -5 20
-9 34 -7 32 -7 -15 -4 -83 5 -88 -1 -91 -131 -3 -122 0 -162 10 -147 6 10 10
4 15 -18 3 -18 3 -36 0 -41 -3 -5 47 -7 123 -3 124 6 130 5 196 -21 47 -19 72
-24 79 -17 7 7 3 12 -11 17 -29 9 -27 25 3 23 14 -1 22 -6 19 -12 -4 -5 9 -7
33 -3 37 6 38 5 19 -9 l-20 -16 20 5 c11 3 46 8 78 12 36 4 60 12 64 21 7 18
23 18 23 0 0 -16 -21 -26 -55 -26 -13 0 -27 -4 -30 -10 -3 -5 -14 -10 -24 -10
-10 0 -30 -11 -46 -24 -28 -24 -28 -24 -6 -35 26 -15 26 -26 1 -51 -19 -19
-20 -29 -14 -108 6 -74 4 -90 -10 -101 -23 -19 -20 -40 4 -34 11 3 20 9 20 14
0 5 6 9 13 9 8 0 27 12 43 26 16 14 45 36 64 48 43 29 120 103 120 116 0 5 5
10 11 10 9 0 -22 -53 -41 -70 -3 -3 -18 -23 -35 -45 -16 -22 -38 -48 -49 -57
-12 -10 -30 -26 -41 -36 -11 -10 -37 -29 -57 -41 -38 -23 -49 -41 -25 -41 22
0 121 31 142 44 11 7 35 16 53 19 86 17 269 108 256 128 -3 5 2 9 10 9 10 0
16 9 16 23 0 13 7 32 15 43 17 23 19 15 5 -22 -9 -23 -8 -25 4 -15 7 6 19 25
26 41 15 37 27 38 42 5 6 -14 15 -25 19 -25 15 0 39 32 39 51 0 10 4 19 9 19
5 0 7 -8 4 -19 -9 -34 24 -31 84 8 87 57 139 118 158 188 36 136 61 180 115
208 46 24 47 18 2 -20 -44 -38 -53 -61 -73 -175 -18 -99 -60 -159 -181 -257
-38 -29 -68 -59 -68 -66 0 -18 -149 -190 -204 -235 -59 -49 -145 -93 -251
-130 -74 -25 -80 -29 -83 -57 -5 -42 -20 -57 -52 -50 -18 4 -76 -10 -176 -43
-82 -28 -169 -53 -194 -57 -109 -18 -244 -84 -234 -116 3 -12 -30 -24 -163
-62 -93 -26 -182 -47 -200 -47 -17 0 -67 -7 -110 -15 -43 -9 -96 -18 -118 -20
-106 -12 -131 -18 -149 -33 -11 -10 -16 -11 -12 -4 5 9 -4 12 -33 12 -23 0
-41 -4 -41 -9 0 -5 10 -7 23 -4 17 4 19 3 7 -6 -8 -5 -25 -8 -37 -4 -19 4 -23
1 -23 -16 0 -20 5 -21 90 -21 50 0 90 -4 90 -8 0 -10 -72 -36 -98 -35 -9 1
-34 -3 -54 -8 -38 -10 -38 -10 -38 -62 l0 -52 103 -1 c56 -1 150 -3 208 -5
104 -3 109 -2 171 29 35 18 82 49 104 69 75 67 174 135 174 119 0 -2 -21 -18
-47 -35 -27 -17 -64 -46 -83 -64 -42 -40 -124 -97 -140 -97 -6 0 -9 -4 -6 -9
3 -4 -12 -14 -34 -21 -37 -12 -259 -9 -360 5 -34 4 -34 4 -5 -5 17 -5 51 -14
78 -21 26 -6 47 -16 47 -21 0 -6 -8 -7 -17 -3 -10 4 -51 12 -91 19 -42 6 -70
15 -65 20 4 5 3 6 -4 2 -7 -4 -13 -12 -13 -17 0 -6 -7 -17 -15 -25 -8 -9 -15
-19 -15 -24 0 -24 159 -27 378 -5 84 9 157 13 162 10 21 -13 8 -20 -38 -19
-26 1 -93 -5 -147 -13 -60 -8 -151 -13 -228 -11 -101 3 -126 1 -123 -9 3 -7 2
-13 -3 -13 -5 0 -11 17 -14 37 -5 27 -2 42 11 57 12 14 14 20 5 23 -10 4 -13
105 -13 461 l0 457 202 4 c190 3 211 6 331 36 71 19 131 36 135 39 3 3 0 23
-6 45 -7 21 -12 63 -12 94 0 30 -6 67 -14 82 -19 37 -8 63 45 104 24 18 45 40
47 48 2 8 -7 28 -21 46 -13 18 -28 43 -32 56 -11 36 -7 1139 5 1186 5 22 10
106 10 186 l0 147 -43 91 c-82 172 -182 285 -309 349 -54 27 -54 27 -42 57 7
17 13 45 14 63 0 24 9 43 33 66 17 18 35 34 38 35 3 0 26 -19 51 -43z m-4684
-28 c17 -35 39 -72 49 -83 10 -11 33 -42 52 -69 33 -47 33 -48 10 -44 -18 2
-33 -7 -58 -34 -18 -21 -37 -36 -41 -33 -9 6 -56 145 -63 185 -3 15 -5 8 -6
-17 0 -24 -5 -43 -11 -43 -5 0 -14 -10 -20 -22 -10 -21 -10 -21 3 -5 8 9 20
17 27 17 7 0 -46 -56 -117 -124 -130 -125 -301 -328 -295 -349 2 -7 0 -9 -4
-5 -4 4 -19 -1 -33 -11 -42 -29 -63 -35 -123 -36 -32 -1 -58 0 -58 2 0 1 12 9
28 17 29 16 162 140 162 152 0 4 -26 -18 -58 -48 -60 -57 -143 -118 -161 -118
-22 0 -10 16 33 43 69 43 212 170 306 271 46 50 139 145 206 212 107 105 122
125 129 162 4 23 8 42 10 42 1 0 16 -28 33 -62z m3118 -28 c-9 -68 2 -144 23
-157 15 -9 17 -4 18 51 1 34 8 76 15 93 12 29 13 24 14 -65 0 -83 3 -102 22
-134 21 -33 23 -45 17 -105 -5 -51 -15 -1123 -15 -1593 0 -25 3 -136 7 -246 7
-182 10 -204 28 -225 11 -12 92 -58 180 -101 88 -43 171 -85 185 -92 14 -8 62
-16 107 -18 46 -3 86 -8 90 -12 4 -4 -4 -17 -18 -29 -42 -36 -43 -41 -49 -232
l-3 -80 -6 57 c-5 48 -8 56 -21 48 -11 -7 -11 -10 -2 -10 23 0 10 -55 -13 -57
-16 -1 -16 -1 -2 3 14 5 26 34 13 34 -2 0 -12 3 -22 7 -12 4 -15 3 -10 -5 8
-14 -10 -52 -26 -52 -6 0 -4 8 5 18 10 10 14 21 11 24 -3 4 -1 16 6 27 8 16 8
21 -2 21 -10 0 -9 3 1 9 8 5 15 25 15 45 1 20 4 36 9 36 4 0 7 -5 7 -11 0 -5
5 -7 10 -4 18 11 10 26 -12 23 -15 -2 -23 -10 -24 -24 -1 -11 -9 -32 -18 -45
-9 -14 -13 -29 -9 -33 4 -4 0 -4 -9 -1 -11 4 -18 0 -23 -14 -3 -12 -10 -21
-15 -21 -5 0 -31 -20 -57 -45 -37 -35 -53 -45 -70 -40 -13 3 -23 1 -23 -4 0
-5 -24 -8 -52 -7 -44 1 -53 4 -52 18 1 10 -3 15 -8 12 -5 -4 -7 -15 -5 -26 4
-16 3 -17 -9 -7 -8 6 -14 18 -14 26 0 17 -29 59 -92 134 -45 53 -60 77 -40 65
5 -3 -2 17 -15 44 -22 45 -27 50 -56 49 -21 -1 -25 -3 -12 -6 20 -5 44 -33 57
-66 4 -10 4 -16 0 -13 -5 3 -28 -15 -52 -39 l-43 -44 24 -30 c26 -32 34 -36
92 -47 25 -4 37 -3 37 5 0 6 -6 13 -12 15 -112 32 -123 43 -79 86 l29 29 38
-46 c64 -76 81 -106 79 -138 -3 -47 -6 -52 -15 -25 l-8 25 -1 -25 c-1 -14 -10
-44 -20 -67 -16 -35 -26 -43 -55 -49 -20 -3 -47 -4 -61 -2 -19 4 -25 1 -25
-12 0 -20 27 -30 88 -30 31 0 42 -4 42 -15 0 -8 -4 -16 -10 -16 -20 -3 -25 -4
-37 -12 -7 -4 -22 -3 -33 3 -17 9 -20 7 -26 -14 -3 -14 -3 -29 0 -35 3 -5 0
-16 -8 -24 -8 -8 -12 -17 -9 -21 4 -3 0 -6 -8 -6 -13 0 -14 17 -11 98 2 53 4
102 4 108 1 12 9 11 73 0 43 -8 54 3 60 60 l5 49 -13 -50 -13 -50 -7 38 c-5
20 -10 37 -12 37 -2 0 -12 3 -22 6 -17 5 -17 5 0 -6 24 -15 21 -37 -5 -43 -15
-4 -30 1 -43 13 -28 26 -38 25 -24 -2 l12 -23 -20 20 c-11 11 -19 23 -17 26 6
11 -54 19 -137 19 l-79 0 0 184 0 183 46 7 c26 3 60 6 75 6 16 0 29 5 29 10 0
6 -13 10 -28 10 -16 0 -37 6 -47 14 -18 13 -11 14 62 13 44 -1 76 1 70 5 -8 5
-8 8 2 8 10 0 8 6 -8 21 -12 12 -20 27 -17 34 3 9 -6 16 -27 21 -18 4 -34 8
-37 9 -33 9 -92 15 -170 18 -130 4 -120 33 13 36 29 1 46 5 42 11 -4 6 34 9
104 7 122 -2 125 1 58 59 -19 16 -39 39 -46 52 -11 21 -10 24 10 29 21 6 21 7
-11 18 l-35 12 39 17 c36 15 38 18 32 47 -3 17 -6 63 -6 101 0 58 -3 69 -15
64 -17 -6 -21 9 -5 19 13 8 13 126 0 159 -9 25 -13 26 -90 26 -44 0 -80 -4
-80 -8 0 -5 -13 -7 -30 -4 -32 5 -41 21 -12 23 9 1 33 3 52 5 19 2 72 6 118 9
l82 7 0 59 c0 37 -4 59 -11 59 -8 0 -9 4 0 13 13 16 5 28 -13 21 -16 -6 -41
22 -27 30 14 9 2 249 -13 258 -7 5 -4 8 7 8 23 0 22 36 -1 49 -13 7 -23 6 -30
-1 -7 -7 -15 -9 -18 -5 -4 4 9 13 28 21 l35 15 -4 98 c-7 166 -7 168 -62 163
-14 -1 -21 2 -17 9 11 18 65 12 88 -9 12 -10 25 -17 31 -13 5 3 13 0 17 -7 6
-9 12 -10 26 -1 11 6 13 11 7 11 -7 0 -13 7 -13 15 0 8 -8 15 -17 15 -12 0 -8
7 14 23 25 18 29 26 21 40 -5 10 -13 15 -19 12 -5 -4 -9 5 -9 19 0 41 -18 40
-22 -1 -3 -35 -6 -39 -41 -47 -30 -8 -50 -6 -93 9 -60 20 -83 39 -37 30 28 -5
28 -5 3 5 -14 6 -43 11 -65 12 -22 0 -68 9 -103 20 -41 13 -76 18 -105 14
l-42 -6 35 16 c29 14 55 15 155 10 66 -4 135 -9 153 -11 35 -3 44 14 12 22
-11 3 -20 9 -20 14 0 5 -6 9 -12 9 -23 0 -133 57 -152 79 -33 36 4 26 123 -34
106 -54 169 -75 104 -35 -18 11 -33 24 -33 28 0 5 -13 22 -30 38 -29 29 -42
57 -16 35 32 -27 46 111 20 200 -3 11 3 19 17 22 19 5 21 11 15 49 -3 24 -2
59 3 78 l8 35 13 -33 c9 -25 15 -30 21 -21 4 8 16 14 26 14 16 0 18 8 15 73
-3 43 0 72 6 72 27 0 30 -109 6 -171 -14 -34 -15 -49 -5 -91 6 -27 11 -86 11
-131 0 -45 5 -89 11 -97 9 -12 10 -11 6 8 -3 12 -1 22 4 22 5 0 9 -7 9 -15 0
-8 5 -15 11 -15 6 0 7 8 3 23 -4 12 -8 43 -8 70 1 45 -9 61 -19 35 -3 -8 -6
-8 -6 -2 -2 19 47 64 69 64 12 0 18 4 15 10 -3 5 0 7 8 4 8 -3 14 2 14 11 0 8
-9 15 -20 15 -13 0 -17 5 -13 16 9 24 -4 64 -23 65 -14 1 -14 2 1 6 12 3 17
15 16 44 0 21 -4 39 -9 39 -5 0 -9 7 -9 16 0 8 4 13 9 10 5 -3 12 1 15 10 5
12 2 15 -9 10 -10 -4 -19 2 -25 17 -5 13 -9 16 -10 7 0 -11 -6 -8 -20 9 -11
13 -20 27 -20 32 0 15 30 10 36 -6 4 -8 15 -15 25 -15 10 0 19 -5 19 -11 0 -5
-4 -7 -10 -4 -5 3 -10 1 -10 -4 0 -19 28 -12 33 9 5 21 -14 43 -35 39 -17 -4
-58 19 -58 31 0 6 17 10 38 10 36 0 38 1 60 60 13 33 26 60 29 60 3 0 3 -22
-1 -50z m854 -77 c25 -24 55 -53 68 -66 l23 -24 61 59 c75 72 95 76 36 6 -57
-67 -68 -88 -68 -132 0 -52 -18 -45 -75 32 -27 36 -53 64 -56 62 -8 -7 -38 19
-51 44 -9 18 -7 18 17 -4 l27 -25 -26 49 c-14 27 -26 63 -25 80 l1 31 11 -35
c6 -19 32 -54 57 -77z m1995 27 c21 -13 51 -23 67 -23 21 0 33 -8 49 -34 16
-25 27 -33 50 -33 17 0 38 -4 47 -9 9 -4 34 -11 55 -15 35 -7 37 -5 37 19 0
28 18 32 53 13 12 -7 42 -15 67 -18 33 -4 46 -10 48 -23 5 -23 -26 -46 -52
-41 -11 2 -54 8 -96 14 -171 23 -391 144 -390 214 1 17 3 15 14 -10 8 -17 31
-41 51 -54z m-330 3 c14 -38 32 -73 39 -78 22 -17 29 -52 11 -59 -8 -3 -15
-13 -15 -22 0 -28 -57 -137 -95 -181 -19 -23 -60 -53 -89 -67 -61 -29 -127
-97 -184 -191 -66 -109 -89 -106 -73 9 17 119 14 165 -15 226 -14 30 -31 58
-38 62 -8 4 -11 18 -9 33 3 13 9 23 13 20 4 -3 14 3 21 12 13 14 15 13 20 -18
6 -31 7 -30 9 16 2 45 3 47 10 20 4 -16 8 -58 9 -92 1 -56 3 -63 21 -63 11 0
20 -4 20 -10 0 -5 -7 -10 -15 -10 -12 0 -15 -18 -14 -107 l1 -108 15 51 c11
37 22 56 41 65 38 20 132 118 127 132 -3 7 -1 32 4 57 5 25 9 35 10 23 1 -12
6 -25 12 -29 9 -5 11 11 7 60 -5 58 -4 64 8 49 7 -10 14 -28 14 -40 0 -12 11
-34 25 -49 14 -15 25 -22 25 -16 0 6 -5 14 -11 18 -6 3 -8 20 -5 38 5 28 0 39
-39 85 -61 72 -57 77 10 11 l55 -54 1 49 c1 75 17 104 19 35 2 -59 9 -112 16
-119 9 -10 14 10 24 100 9 94 5 165 -11 175 -9 5 -13 34 -5 34 2 0 16 -30 31
-67z m-5935 -37 c0 -7 -21 -21 -46 -31 -35 -13 -55 -31 -90 -79 -45 -61 -411
-436 -426 -436 -17 0 -4 15 110 129 126 126 250 262 297 326 43 59 102 104
138 105 9 0 17 -6 17 -14z m8370 -228 c33 -37 37 -48 15 -48 -9 0 -18 -12 -21
-30 -4 -17 -11 -27 -17 -23 -6 4 -8 0 -4 -10 5 -13 10 -223 7 -309 0 -21 -30
-24 -48 -6 -7 7 -12 8 -12 2 0 -5 -52 -9 -124 -8 -97 1 -126 -2 -130 -12 -3
-8 -15 -14 -27 -14 -20 0 -21 -2 -7 -17 33 -38 29 -46 -5 -13 -56 53 -47 113
27 171 l28 22 -3 -34 c-4 -68 -10 -65 119 -68 94 -1 121 1 131 13 10 12 16
175 11 315 0 9 -9 12 -30 9 -16 -3 -30 -2 -30 0 0 8 75 90 83 91 4 1 21 -14
37 -31z m-7832 -8 c28 -13 52 -28 52 -34 0 -6 12 -28 26 -49 21 -31 24 -45 19
-77 -6 -34 -12 -41 -60 -64 -59 -28 -70 -45 -55 -96 13 -44 13 -47 -2 -32 -15
15 -32 16 -22 1 3 -6 -6 -3 -20 7 -26 17 -28 16 -48 -4 -13 -13 -22 -38 -26
-70 -4 -44 -1 -54 21 -76 20 -19 36 -26 67 -26 35 0 40 3 40 23 0 13 -7 46
-15 73 -18 58 -17 57 -6 49 16 -9 44 -108 43 -149 -2 -42 -18 -70 -35 -59 -5
3 -7 1 -3 -5 10 -16 -15 -27 -25 -11 -8 12 -10 12 -18 0 -5 -8 -11 -9 -15 -3
-10 16 -47 2 -44 -17 2 -9 7 -19 11 -22 15 -11 20 -78 7 -94 -11 -14 -16 -10
-34 31 -14 35 -17 49 -8 52 7 2 12 13 12 24 0 11 -5 18 -12 15 -7 -2 -19 3
-26 12 -11 14 -11 14 -6 -2 5 -14 2 -16 -12 -10 -20 7 -34 22 -34 36 0 5 5 5
12 1 8 -5 9 -2 5 10 -4 10 -7 22 -7 27 0 5 -6 9 -14 9 -8 0 -18 9 -21 21 -8
25 -43 39 -101 39 -41 0 -57 11 -34 25 6 4 8 11 4 16 -3 5 -8 21 -10 35 -3 15
-6 29 -6 33 -1 3 2 25 6 48 6 35 4 49 -14 77 -32 53 -35 106 -8 146 31 45 95
90 155 106 68 20 194 12 261 -16z m3851 -83 l0 -84 -50 -49 c-78 -76 -89 -104
-68 -176 11 -42 29 -53 22 -14 -3 14 2 35 12 48 l17 23 -7 -32 c-5 -26 -3 -33
9 -33 9 0 16 -6 16 -14 0 -29 73 -36 102 -9 10 9 18 22 18 29 0 7 8 10 19 7
22 -6 49 28 62 80 l9 32 -4 -36 c-4 -35 -94 -208 -108 -209 -5 0 -8 7 -8 15 0
21 -78 20 -108 -1 -13 -9 -25 -14 -26 -13 -2 2 -18 30 -35 61 -41 73 -50 148
-24 198 l19 35 -57 55 c-49 47 -57 59 -52 82 l5 27 62 -51 c33 -27 65 -54 70
-59 5 -5 3 -15 -5 -26 -11 -15 -10 -15 9 1 18 15 21 26 17 48 -5 22 -3 28 10
28 12 0 15 -5 11 -17 -3 -10 5 -4 19 12 26 30 27 47 10 103 -6 18 -4 22 13 22
20 0 21 -6 21 -83z m-339 -117 c-6 -23 -9 -48 -6 -56 3 -9 -1 -14 -12 -14 -25
0 -78 -35 -97 -64 -13 -20 -14 -32 -6 -61 11 -40 -2 -85 -24 -85 -14 0 -45 58
-45 83 0 48 91 177 126 177 6 0 25 15 41 33 15 19 29 33 31 31 2 -1 -2 -21 -8
-44z m4851 -161 c-6 -20 -17 -73 -25 -117 -23 -131 -80 -234 -202 -361 -100
-106 -174 -198 -196 -246 -6 -14 -14 -25 -17 -25 -5 0 -41 64 -79 142 -2 3 12
9 30 13 90 20 162 65 253 159 135 140 172 210 210 406 21 107 27 123 33 90 2
-13 -1 -41 -7 -61z m-4811 30 c0 8 8 3 20 -12 11 -14 20 -30 20 -35 0 -6 10
-8 23 -4 19 5 20 3 9 -10 -11 -14 -3 -24 55 -76 37 -34 79 -79 93 -102 l25
-40 11 32 c11 33 38 57 50 46 11 -11 -5 -57 -27 -79 -14 -14 -17 -24 -10 -37
9 -16 10 -15 16 3 8 22 116 128 123 120 3 -2 -11 -24 -30 -47 -64 -80 -80
-109 -94 -170 -8 -34 -13 -67 -11 -73 3 -6 -13 -19 -35 -30 -22 -10 -50 -32
-63 -47 -13 -15 -26 -28 -29 -28 -12 0 10 39 61 107 29 39 53 80 53 91 0 18
-46 90 -79 123 -113 114 -162 170 -156 179 4 6 -5 26 -19 45 -14 18 -26 40
-26 47 0 9 3 9 10 -2 8 -12 10 -12 10 -1z m-1893 -430 c-55 -42 -76 -125 -52
-207 17 -57 73 -137 96 -137 8 0 47 -27 87 -59 122 -97 199 -245 170 -328 -12
-33 -21 -39 -108 -68 -36 -12 -71 -29 -77 -37 -7 -9 -16 -14 -19 -10 -11 11
-34 -21 -28 -37 5 -12 1 -16 -16 -14 -33 4 -64 -79 -55 -149 8 -64 42 -134 74
-150 13 -6 28 -17 32 -25 7 -10 9 -10 9 2 1 8 8 2 17 -15 15 -29 101 -115 115
-115 4 0 0 12 -8 28 -7 15 -14 33 -14 40 0 6 -5 12 -11 12 -5 0 -8 4 -5 8 3 5
-6 25 -19 45 -27 39 -31 67 -13 85 21 21 31 13 25 -23 -7 -45 24 -118 70 -163
37 -37 201 -118 391 -193 84 -33 82 -33 82 -16 0 7 -28 27 -61 43 -37 17 -55
30 -45 32 9 2 22 -1 29 -6 7 -5 25 -12 42 -16 30 -8 108 -59 158 -105 25 -23
27 -23 27 -5 0 16 -56 64 -75 64 -13 0 -153 116 -176 146 -29 38 -108 104
-125 104 -11 0 -115 51 -148 72 -113 73 -165 109 -176 123 -12 15 -11 16 16 9
26 -7 28 -6 15 9 -8 10 -9 17 -3 17 6 0 19 -11 29 -25 24 -35 159 -123 264
-173 64 -31 102 -58 162 -116 42 -41 77 -79 77 -83 0 -7 69 -73 77 -73 3 0 0
7 -7 15 -22 27 -3 28 36 1 20 -14 41 -23 46 -20 5 3 8 -69 7 -166 -2 -152 -4
-170 -18 -164 -29 12 -185 63 -243 79 -31 9 -98 41 -150 72 -114 68 -249 136
-303 153 -55 17 -168 93 -185 124 -7 15 -17 26 -21 26 -5 0 -7 14 -5 32 3 22
-2 36 -13 45 -12 10 -13 12 -2 13 12 0 12 3 -1 18 -27 31 -89 173 -101 228 -8
40 -8 74 1 134 13 95 35 129 126 206 116 97 152 185 99 238 -14 14 -32 26 -39
26 -7 0 -16 5 -20 11 -5 9 1 10 22 5 25 -7 21 0 -33 49 -79 71 -113 139 -113
224 0 88 30 149 85 171 32 14 32 11 2 -11z m4533 -237 c0 -4 -12 -53 -26 -107
-43 -167 -73 -245 -191 -492 -17 -37 -32 -55 -49 -59 -33 -8 -38 -2 -16 22 53
58 142 226 142 269 0 13 4 27 10 30 12 7 87 243 96 303 4 26 12 42 20 42 8 0
14 -4 14 -8z m1070 -139 c-5 -32 -21 -101 -35 -153 -30 -111 -31 -110 68 -130
78 -15 91 -19 84 -26 -3 -3 -35 2 -71 11 -101 26 -103 25 -141 -85 -70 -198
-114 -301 -209 -478 -103 -195 -252 -437 -317 -514 -34 -40 -37 -48 -21 -48
11 0 25 -7 32 -15 11 -13 5 -15 -41 -15 -58 0 -275 -30 -404 -55 -112 -21
-245 -31 -245 -17 0 14 20 19 105 27 39 4 129 17 200 30 72 13 170 28 219 34
50 6 93 14 96 18 17 20 223 347 266 423 66 117 176 351 234 495 57 144 89 246
130 420 42 177 40 172 52 152 5 -11 5 -39 -2 -74z m-614 -109 c70 -56 160
-147 188 -189 32 -49 33 -88 2 -141 -51 -89 -132 -154 -255 -204 -83 -34 -111
-39 -91 -15 7 8 18 15 24 15 6 1 25 12 41 26 l30 25 -48 -21 c-57 -24 -58 -24
-54 -7 1 7 -6 11 -18 10 -21 -3 -9 4 110 57 132 59 175 108 175 200 0 76 -34
143 -109 218 -68 67 -64 66 -216 48 -50 -6 -50 -6 10 9 33 8 72 14 88 15 15 0
27 5 27 11 0 13 35 -8 96 -57z m-7097 -161 c17 -73 34 -139 37 -147 5 -12 -1
-16 -24 -16 -26 0 -29 3 -24 27 5 25 6 25 13 8 8 -20 8 -20 8 0 0 11 -6 28
-14 38 -7 11 -11 26 -8 34 3 8 2 18 -3 22 -16 10 -34 60 -34 91 0 16 -5 32
-10 35 -6 4 -7 11 -4 17 7 11 -26 4 -64 -14 -18 -10 -22 -19 -21 -57 1 -25 6
-51 11 -58 5 -6 8 -17 7 -25 -3 -25 1 -38 12 -38 7 0 9 11 6 30 -6 25 -3 30
13 30 13 0 20 -7 20 -20 0 -18 5 -21 28 -19 4 0 6 8 4 17 -2 14 -1 15 7 2 7
-9 6 -19 -1 -27 -6 -7 -8 -23 -5 -35 5 -21 4 -21 -6 -5 -32 50 -36 53 -47 37
-14 -22 -12 -34 4 -21 9 7 17 8 20 3 3 -6 -1 -12 -9 -16 -17 -6 -19 -34 -5
-56 8 -11 9 -8 6 13 -3 19 -1 27 7 24 7 -2 12 -10 12 -17 0 -7 9 -16 20 -20
19 -7 18 -8 -6 -18 -61 -24 -59 -26 -95 103 -18 66 -33 132 -34 146 0 28 9 33
93 59 20 6 37 17 37 23 1 30 20 -29 49 -150z m4130 -13 c35 -57 44 -62 36 -22
-4 22 -4 24 4 7 5 -11 10 -15 10 -10 1 6 6 3 11 -5 5 -8 7 -23 4 -34 -4 -12
-2 -16 5 -12 6 4 11 2 11 -4 0 -6 4 -9 8 -6 4 2 37 8 72 11 36 4 70 10 75 15
6 4 35 10 65 13 38 4 46 3 25 -2 -21 -6 -24 -9 -10 -10 15 -1 9 -8 -23 -27
-24 -14 -50 -23 -59 -20 -13 5 -14 4 -4 -8 10 -12 9 -17 -8 -28 -12 -7 -21
-23 -21 -35 0 -14 -6 -23 -16 -23 -8 0 -12 -5 -9 -11 10 -15 84 -3 109 18 21
18 21 18 3 -3 -17 -21 -17 -21 11 -27 38 -8 138 16 162 38 11 10 20 13 20 7 0
-27 -181 -87 -292 -97 -37 -4 -70 -10 -73 -15 -3 -4 -68 -9 -144 -9 -175 -2
-277 -13 -320 -35 -18 -10 -37 -16 -43 -14 -5 2 7 13 28 23 22 11 41 23 42 28
2 4 10 7 18 7 8 0 14 6 14 14 0 8 6 17 13 19 6 3 -1 6 -18 7 l-30 1 25 17 c13
9 33 25 43 35 10 10 48 32 85 48 37 17 75 35 84 40 10 5 24 9 32 9 23 0 64 21
70 35 2 7 -9 34 -25 59 -16 26 -29 49 -29 51 0 13 11 0 39 -45z m-3090 -258
c107 -249 189 -406 334 -632 111 -173 139 -221 132 -229 -8 -7 -27 18 -118
154 -158 237 -201 310 -273 462 -65 137 -117 269 -138 350 -22 83 -5 55 63
-105z m5441 -112 c-21 -46 -51 -69 -88 -71 -12 0 -11 -3 6 -9 28 -12 30 -34 2
-25 -14 4 -20 2 -20 -9 0 -10 6 -13 15 -10 8 4 15 1 15 -5 0 -6 -4 -11 -10
-11 -5 0 -10 -7 -10 -16 0 -30 -20 -2 -21 29 0 27 -2 29 -9 12 -7 -16 -9 -17
-9 -3 -1 9 -13 26 -27 37 -30 23 -49 28 -37 9 4 -7 -5 -5 -20 4 -41 27 -117
50 -143 44 -13 -4 -24 -2 -24 4 0 9 13 13 70 24 14 2 -9 3 -50 1 -50 -3 -67
-1 -50 4 14 5 41 10 60 11 29 1 32 3 15 10 -41 17 39 11 119 -10 42 -11 82
-17 88 -14 7 4 8 3 4 -4 -4 -7 3 -14 18 -18 47 -11 70 -1 95 45 32 58 40 34
11 -29z m1447 -379 l32 -25 -91 -88 c-50 -48 -95 -88 -100 -88 -4 0 29 36 74
80 45 44 86 80 92 80 6 0 6 3 1 9 -6 5 -41 11 -79 13 -51 3 -70 8 -78 21 -5 9
-14 17 -20 17 -8 0 -9 -32 -6 -102 3 -57 2 -89 -2 -73 -4 17 -28 90 -54 164
-25 74 -46 135 -46 137 0 1 22 -21 50 -49 61 -64 65 -56 7 15 -92 113 -86 114
54 13 73 -54 148 -110 166 -124z m-3665 75 c11 -15 13 -27 7 -37 -14 -22 -11
-42 6 -35 9 3 15 0 15 -10 0 -8 -4 -12 -10 -9 -5 3 -10 -3 -10 -15 0 -12 5
-18 10 -15 13 8 12 5 -1 -34 -6 -17 -16 -31 -22 -31 -7 0 -5 -6 4 -13 17 -14
24 -142 8 -152 -5 -4 -9 1 -9 9 0 9 -4 16 -10 16 -6 0 -6 -9 0 -26 6 -14 10
-39 10 -55 0 -17 4 -28 9 -24 6 3 6 -6 1 -25 -5 -16 -6 -30 -2 -30 4 0 6 -26
6 -58 -3 -81 -5 -254 -4 -272 3 -40 -9 -207 -15 -223 -4 -10 -1 -24 6 -34 12
-14 12 -16 0 -8 -11 6 -13 4 -8 -8 9 -24 -20 -22 -32 2 -6 10 -17 21 -26 25
-12 4 -14 2 -6 -13 24 -43 101 -67 129 -39 7 7 12 9 12 5 0 -4 -14 -16 -32
-27 l-32 -19 25 -10 c19 -8 8 -10 -51 -10 -43 0 -69 3 -62 8 10 6 9 15 -8 44
-25 42 -18 47 19 15 25 -23 25 -22 -2 10 -25 31 -25 34 -9 51 9 10 20 16 25
14 17 -10 5 38 -13 49 -23 15 -26 28 -6 28 11 0 13 7 9 23 -8 26 -9 74 -13
342 -2 110 -7 208 -12 218 -5 9 -6 17 -2 17 4 0 16 -8 27 -17 16 -15 15 -9 -6
28 -15 25 -27 51 -27 57 0 17 20 15 44 -5 20 -18 20 -17 6 2 -8 11 -22 25 -30
31 -26 21 -11 248 19 271 24 18 44 15 63 -11z m-162 -679 c0 -349 3 -456 13
-466 10 -10 7 -12 -13 -9 l-25 3 -3 463 c-2 406 0 462 13 462 13 0 15 -56 15
-453z m-1739 310 c4 -5 11 -7 17 -3 6 3 14 2 17 -4 4 -6 30 -21 58 -34 29 -13
66 -36 82 -52 17 -17 39 -36 49 -44 17 -14 18 -13 12 8 -7 22 -6 22 13 10 23
-14 27 -24 11 -30 -7 -2 -6 -17 3 -43 8 -22 14 -62 15 -90 0 -27 5 -51 11 -53
6 -2 11 -11 11 -20 0 -15 -2 -15 -11 -2 -9 12 -10 12 -5 -3 3 -10 6 -26 7 -35
0 -14 2 -13 9 3 8 18 9 17 9 -7 1 -24 5 -28 31 -28 17 0 30 -5 30 -11 0 -6
-15 -9 -37 -7 -49 4 -69 34 -89 133 -17 84 -42 144 -73 173 -48 46 -99 84
-136 101 -11 5 -36 21 -55 36 -30 23 -31 26 -10 20 14 -4 28 -12 31 -18z
m-530 -137 c96 -17 190 -34 209 -37 19 -4 27 -8 18 -10 -9 -2 -113 10 -230 27
-256 38 -354 37 -488 -5 -165 -52 -273 -131 -407 -297 -87 -108 -148 -179
-128 -149 6 9 19 32 29 51 31 57 125 178 190 245 98 101 194 156 337 195 100
27 242 21 470 -20z m3871 -86 c-14 -10 -22 -25 -22 -45 0 -28 2 -30 33 -24 17
3 55 1 82 -4 l50 -9 -65 -1 c-56 -1 -68 -4 -80 -23 -65 -99 -191 -152 -277
-116 -27 11 -25 12 33 19 33 4 88 20 121 34 50 22 60 32 59 50 -1 22 -15 23
-41 4 -41 -30 -296 -75 -280 -49 3 6 24 10 47 10 86 0 258 59 258 89 0 18 44
65 70 74 29 11 34 7 12 -9z m-2170 -17 c-48 -51 -58 -126 -27 -187 20 -38 49
-57 100 -64 35 -6 37 -5 15 5 -14 6 -35 15 -47 20 -15 5 -23 17 -23 31 1 21 2
22 14 6 9 -12 27 -18 54 -18 55 0 72 8 71 34 -1 16 -2 17 -6 4 -6 -22 -45 -20
-90 5 -18 10 -36 17 -40 17 -5 0 -9 22 -11 49 -3 43 0 52 21 65 29 20 93 34
84 18 -4 -6 0 -8 11 -5 10 2 29 -5 43 -15 21 -18 24 -28 24 -89 0 -37 -4 -79
-8 -93 -6 -20 0 -16 34 20 40 44 41 47 37 102 -3 37 -11 64 -23 78 -10 11 -16
22 -13 25 7 7 46 -50 54 -79 3 -14 10 -26 14 -26 13 0 -37 -131 -58 -152 -11
-11 -31 -21 -45 -21 -14 -1 -23 -5 -20 -9 10 -17 -67 -7 -125 16 -36 14 -62
20 -62 14 0 -6 -9 -3 -20 7 -29 26 -43 83 -36 146 7 75 8 79 17 79 4 0 11 9
14 20 5 14 15 20 37 20 l31 0 -21 -23z m3636 -35 c2 -7 0 -12 -6 -12 -5 0 -14
-12 -21 -27 -12 -26 -10 -30 31 -66 l43 -39 -60 33 c-33 18 -66 40 -73 48 -11
14 -12 14 -7 0 5 -13 -5 -16 -56 -17 -105 -3 -227 -22 -287 -44 -94 -35 -161
-126 -227 -311 -28 -77 -28 -77 -59 -72 -17 4 -43 2 -58 -4 -25 -9 -27 -13
-18 -36 5 -14 6 -25 1 -25 -5 0 -12 18 -16 40 -6 38 -4 44 33 84 46 50 70 94
100 181 31 92 48 225 28 226 -6 0 0 5 14 10 13 5 48 7 76 3 29 -3 57 -3 63 1
6 3 44 8 84 11 39 2 126 10 192 17 150 15 217 15 223 -1z m-5443 -7 c120 -15
195 -27 292 -46 l52 -10 0 -83 c-1 -67 4 -95 26 -150 15 -37 25 -69 22 -72 -2
-2 -18 24 -36 60 -22 46 -31 79 -32 119 -2 75 18 67 -264 97 -213 23 -284 21
-372 -9 -38 -13 -53 -14 -53 -6 0 7 -9 20 -19 30 -19 16 -20 16 -18 -4 1 -12
5 -21 9 -21 4 0 8 -7 8 -16 0 -8 -4 -13 -9 -10 -5 4 -11 2 -13 -2 -1 -4 -24
-22 -49 -40 -64 -43 -166 -147 -189 -191 -10 -21 -26 -44 -36 -52 -15 -12 -16
-12 -9 0 5 9 4 12 -3 7 -5 -3 -13 0 -16 6 -3 7 -3 3 0 -9 4 -17 1 -23 -10 -23
-9 0 -16 -7 -16 -16 0 -9 5 -12 12 -8 7 4 8 3 4 -4 -11 -19 -44 -14 -71 10
-25 22 -35 45 -13 32 7 -4 8 -3 4 5 -5 7 8 29 31 55 21 24 60 69 86 100 61 71
231 214 277 234 79 33 225 39 405 17z m4665 -31 c0 -43 -43 -199 -71 -260 -20
-41 -139 -164 -159 -164 -15 0 -12 -19 5 -36 29 -30 14 -33 -30 -6 -24 15 -44
29 -44 32 -1 3 16 17 37 31 63 45 127 105 156 148 37 52 93 270 73 283 -8 5
-4 8 11 8 19 0 22 -5 22 -36z m-4410 -97 c0 -1 -44 -47 -98 -102 -88 -91 -102
-111 -158 -225 -34 -69 -72 -148 -84 -176 -20 -48 -25 -53 -73 -67 -74 -22
-103 -27 -110 -21 -8 8 23 39 48 48 16 6 17 9 5 16 -24 15 -4 22 22 8 12 -7
26 -16 29 -21 3 -4 14 1 25 10 21 20 78 122 72 128 -6 6 -60 -31 -60 -41 0 -5
-6 -20 -11 -32 -9 -20 -12 -21 -17 -8 -5 15 -7 15 -25 0 -14 -11 -15 -14 -4
-11 9 3 16 -1 16 -8 0 -10 -7 -11 -24 -4 -14 5 -33 5 -49 -1 -35 -14 -41 -12
-19 4 18 13 18 14 -8 9 -25 -5 -100 -69 -139 -120 -27 -35 -72 -108 -67 -109
7 -2 -23 -34 -32 -34 -5 0 11 40 35 88 43 85 146 341 146 362 0 5 5 10 11 10
11 0 7 -56 -6 -81 -3 -8 0 -6 8 3 8 10 18 14 22 10 5 -4 5 -1 1 6 -11 19 12
14 24 -5 8 -14 9 -12 4 12 -3 17 -7 36 -10 43 -2 7 5 12 18 12 20 0 20 1 5 18
-10 10 -17 22 -17 25 0 4 -11 25 -25 47 -31 49 -31 54 -2 67 18 8 241 70 457
127 52 13 90 19 90 13z m808 -40 c12 -13 19 -26 16 -30 -11 -10 26 -58 38 -51
7 5 3 14 -12 26 -12 10 -20 21 -17 24 5 5 38 -19 138 -101 9 -7 26 -16 38 -20
19 -6 21 -14 21 -78 0 -50 -3 -67 -10 -57 -8 12 -10 12 -11 -5 0 -14 -2 -16
-6 -5 -4 8 -15 21 -25 30 -17 13 -18 21 -10 50 l10 35 1 -37 c1 -29 4 -36 16
-32 11 5 12 11 5 24 -6 10 -10 30 -10 45 0 15 -4 24 -10 20 -5 -3 -10 -3 -10
2 0 4 -17 19 -37 33 -20 14 -42 31 -49 38 -9 8 -15 9 -20 1 -3 -6 10 -27 30
-48 27 -27 36 -45 36 -70 l0 -33 -26 32 c-18 21 -32 29 -44 25 -12 -4 -20 0
-24 12 -3 10 -4 -28 -2 -83 4 -94 16 -144 34 -144 9 0 34 60 42 99 8 41 25 24
24 -24 0 -35 -6 -51 -29 -75 -26 -27 -64 -41 -65 -22 -1 4 -5 27 -10 52 -5 25
-14 91 -19 147 -12 125 -29 193 -42 172 -10 -17 -11 -3 -3 40 8 37 14 38 42 8z
m2608 -4 c10 -16 6 -18 -32 -20 -24 -1 -80 -18 -124 -38 -45 -19 -85 -35 -90
-35 -5 0 -21 -5 -37 -12 -15 -6 -33 -10 -39 -9 -6 1 -18 -9 -27 -22 -16 -25
-84 -63 -94 -53 -4 3 -1 6 5 6 7 0 12 5 12 10 0 15 -101 1 -121 -17 -17 -14
-53 -8 -44 8 6 8 53 23 105 33 14 2 52 12 85 21 33 10 68 18 78 18 9 1 17 4
17 8 0 4 12 10 26 13 15 4 24 9 22 12 -8 7 -424 -114 -463 -135 -19 -10 -31
-22 -27 -26 4 -5 2 -5 -4 -2 -12 7 -63 -7 -106 -30 -28 -14 -39 -4 -15 15 38
31 170 84 302 120 83 23 238 66 345 96 107 30 200 55 205 55 6 1 15 -7 21 -16z
m1624 -23 c0 -5 7 -10 15 -10 21 0 69 -33 73 -50 2 -7 15 -25 29 -38 14 -12
23 -26 19 -29 -3 -3 -15 2 -26 12 -21 19 -29 8 -8 -13 8 -8 8 -15 -1 -26 -14
-17 0 -29 24 -20 9 4 14 13 11 21 -3 8 -1 11 4 8 18 -11 11 -31 -14 -43 -37
-17 -55 -51 -59 -112 -2 -30 -2 -49 0 -42 4 10 8 8 18 -5 11 -15 9 -20 -16
-35 -29 -17 -29 -20 -23 -71 11 -85 18 -97 59 -97 22 0 43 8 56 21 l20 20 25
-26 c27 -30 29 -36 12 -53 -8 -8 -15 -9 -25 -1 -10 9 -13 8 -13 -5 0 -8 -15
-23 -32 -32 -38 -20 -100 -36 -93 -24 3 4 -2 10 -10 14 -8 3 -15 13 -15 23 0
16 -2 16 -11 3 -8 -11 -9 -8 -5 15 6 28 5 29 -9 11 -14 -19 -15 -19 -15 6 0
39 -39 43 -135 13 -44 -14 -83 -25 -87 -25 -5 0 -8 13 -8 29 0 16 -9 48 -20
72 -11 24 -20 60 -20 80 0 21 -9 47 -20 62 -11 14 -20 30 -20 36 0 6 -4 11 -9
11 -5 0 -14 22 -20 49 -14 67 2 104 74 169 41 38 73 57 118 71 66 21 157 27
157 11z m-3267 -246 c2 -14 2 -44 0 -68 -5 -41 -7 -43 -32 -36 -14 3 -57 21
-96 40 -38 19 -74 35 -80 36 -5 1 -23 9 -40 18 l-30 16 40 1 c22 0 49 4 60 9
11 5 54 9 96 9 74 1 77 0 82 -25z m344 -156 l-2 -61 -80 -3 c-44 -1 -126 -5
-182 -9 -109 -7 -194 2 -158 16 20 8 20 8 0 8 -11 0 -29 -4 -40 -9 -18 -8 -18
-9 -2 -9 11 -1 33 -7 50 -15 18 -8 82 -20 142 -26 167 -17 255 -36 282 -62 13
-12 23 -26 23 -32 0 -5 -6 -2 -12 7 -17 22 -61 37 -107 37 -55 0 -295 38 -342
54 -21 8 -39 9 -39 4 0 -5 -15 -8 -32 -6 -18 2 -32 8 -31 13 3 17 -97 46 -177
51 -41 3 -77 8 -79 10 -2 2 32 4 77 4 45 0 82 3 82 8 0 4 20 7 45 7 44 0 56 7
34 21 -8 4 -7 9 2 15 11 7 9 9 -5 9 -11 0 -17 3 -13 6 9 10 137 -16 180 -36
34 -17 37 -17 37 -2 0 12 4 9 13 -8 12 -25 15 -25 144 -28 148 -3 157 0 168
68 10 59 23 40 22 -32z m2013 -51 c0 -7 -12 -22 -27 -34 -45 -32 -317 -169
-453 -227 -84 -36 -129 -60 -136 -75 l-11 -22 -16 23 c-12 18 -18 20 -25 10
-12 -18 -284 -95 -447 -126 -77 -15 -159 -31 -183 -37 -34 -7 -49 -6 -75 8
l-32 18 80 6 c85 7 237 38 346 70 37 10 120 33 185 49 66 17 142 41 169 55 28
14 100 45 160 70 61 25 187 85 280 134 94 49 173 89 178 90 4 1 7 -5 7 -12z
m-3171 -227 c67 -27 127 -50 136 -50 20 0 19 -8 -10 -71 -21 -48 -23 -50 -19
-19 3 19 8 41 10 48 2 7 -4 15 -14 19 -126 44 -438 190 -524 246 -92 58 -47
45 127 -38 96 -47 228 -107 294 -135z m1284 -26 c3 -3 -11 -22 -31 -41 -38
-35 -158 -97 -269 -139 -36 -14 -82 -33 -104 -44 -39 -20 -39 -20 -156 1 -236
41 -563 137 -563 165 0 7 6 11 13 9 271 -93 573 -163 663 -152 39 4 408 179
420 199 6 10 18 10 27 2z m75 -287 l7 -57 54 41 c29 22 55 38 58 35 3 -3 1
-19 -5 -35 l-11 -31 49 0 c60 0 70 -13 36 -49 -14 -15 -23 -30 -19 -34 11 -12
-11 -7 -37 8 -14 8 -41 14 -60 15 -29 0 -39 -6 -57 -33 -33 -48 -31 -77 6 -77
16 0 45 -7 65 -15 42 -18 118 -83 111 -95 -3 -5 -1 -11 5 -15 5 -3 15 -16 21
-28 l10 -22 -19 22 c-10 11 -43 36 -73 55 -136 85 -224 75 -370 -42 -67 -53
-85 -52 -50 2 46 76 140 137 209 138 33 0 33 1 27 33 -10 48 -32 77 -59 77
-39 0 -138 -57 -196 -112 -71 -68 -103 -133 -104 -214 -1 -54 5 -72 44 -149
77 -153 180 -235 305 -243 157 -10 276 74 373 263 58 114 47 208 -35 315 l-35
45 44 -46 c53 -56 97 -172 88 -229 -9 -54 -98 -198 -162 -263 -67 -68 -137
-103 -224 -112 -59 -7 -67 -5 -136 30 -40 20 -82 44 -93 53 -27 24 -96 101
-120 136 -11 16 -28 37 -37 47 -35 37 -52 85 -57 164 l-6 80 -75 -66 c-41 -36
-75 -70 -74 -75 1 -5 -12 -17 -28 -27 -26 -15 -35 -16 -66 -6 -57 18 -57 19 3
55 55 34 115 80 199 155 l40 37 -27 41 c-28 43 -26 51 7 26 36 -27 64 -18 129
43 35 33 72 64 83 70 15 9 17 13 7 23 -20 20 -15 31 7 19 27 -14 100 14 82 32
-7 7 -12 16 -12 20 0 15 21 8 56 -18 39 -30 59 -27 68 10 23 93 42 94 54 3z
m1357 -76 c61 -22 150 -58 188 -74 27 -12 36 -27 16 -27 -16 0 -49 -44 -86
-114 -18 -34 -32 -54 -33 -45 0 25 28 88 58 128 19 26 21 31 7 20 -38 -30 -48
-34 -36 -11 6 11 14 22 18 24 5 3 1 3 -7 0 -8 -2 -21 -5 -27 -5 -7 0 -13 -7
-14 -16 0 -10 -2 -12 -6 -3 -9 22 -23 13 -24 -15 -1 -20 -4 -15 -10 16 -5 25
-6 47 -4 50 3 2 5 -3 5 -12 0 -10 8 -17 18 -16 10 0 12 3 5 6 -7 2 -13 11 -13
19 0 8 -6 14 -14 14 -7 0 -25 9 -40 21 -28 22 -32 19 -15 -13 6 -11 13 -32 15
-46 15 -92 28 -139 43 -156 9 -10 12 -17 6 -14 -5 2 -30 14 -55 25 -50 23
-141 34 -147 17 -2 -5 20 -18 49 -27 66 -22 201 -90 206 -105 2 -6 -21 2 -50
18 -29 15 -88 43 -131 60 -43 18 -81 38 -83 44 -3 7 18 57 46 111 27 55 50
110 50 122 0 28 2 28 65 4z m-1311 -215 c44 -18 116 -109 115 -144 0 -16 -3
-21 -6 -12 -16 40 -66 99 -98 114 -117 56 -236 -20 -279 -175 l-14 -54 -1 42
c-2 88 62 198 133 229 41 17 108 18 150 0z m3 -108 c30 -34 36 -63 18 -91 -8
-13 -12 -27 -9 -30 4 -4 -2 -9 -12 -13 -10 -3 -29 -10 -41 -16 -29 -14 -69 -3
-100 28 -20 20 -24 32 -19 57 14 75 117 115 163 65z m1561 -130 c9 -9 -10 -23
-81 -61 -133 -72 -191 -94 -370 -138 -211 -53 -235 -45 -32 10 167 45 220 67
370 150 101 57 97 55 113 39z"/>
<path d="M6235 3569 c3 -4 -10 -5 -29 -2 -42 7 -133 -22 -158 -50 -18 -19 -25
-67 -10 -67 4 0 7 -12 8 -27 0 -16 1 -53 2 -84 l2 -56 63 -23 c70 -25 92 -40
60 -40 -12 0 -25 -5 -29 -12 -5 -8 5 -9 34 -5 23 3 44 2 46 -2 7 -11 -33 -43
-44 -36 -6 4 -10 2 -10 -3 0 -5 -21 -8 -47 -7 -46 2 -46 2 -8 -4 l39 -6 -59
-33 c-33 -18 -49 -30 -35 -26 22 6 169 82 211 109 9 6 34 38 57 72 27 40 62
75 97 98 40 27 55 43 55 59 0 31 -60 91 -118 116 -51 23 -135 42 -127 29z"/>
<path d="M7150 3354 c-52 -24 -287 -115 -427 -164 -64 -23 -101 -50 -69 -50
27 0 208 49 266 72 30 12 92 44 138 70 46 26 86 48 88 48 3 0 22 11 42 25 46
32 33 31 -38 -1z"/>
<path d="M7235 3351 c-6 -5 -100 -55 -210 -111 -110 -56 -202 -104 -204 -106
-12 -12 145 13 207 32 15 5 15 4 2 -5 -8 -6 -12 -11 -8 -11 28 0 166 83 188
114 14 20 50 87 50 93 0 7 -17 2 -25 -6z"/>
<path d="M6570 3059 c-89 -24 -173 -67 -226 -116 -35 -32 -37 -36 -20 -45 18
-10 84 4 111 23 6 3 69 30 140 58 153 60 160 64 152 85 -9 22 -63 20 -157 -5z"/>
<path d="M942 5287 c-41 -42 -44 -96 -7 -132 26 -27 58 -31 118 -14 47 13 66
42 69 103 2 62 -15 76 -92 76 -50 0 -59 -3 -88 -33z"/>
<path d="M3123 4259 c12 -36 -30 -95 -113 -159 -103 -80 -101 -87 11 -39 47
20 75 27 77 20 6 -19 30 -12 52 17 19 23 21 36 17 81 -4 38 -13 61 -28 75 -15
15 -20 16 -16 5z"/>
<path d="M7670 2284 c-77 -33 -96 -76 -66 -149 28 -65 106 -76 161 -22 18 17
41 37 52 43 30 18 29 75 -2 113 -22 26 -34 31 -68 31 -23 -1 -58 -8 -77 -16z"/>
</g>
</svg>
