<?xml version="1.0" standalone="no"?>
<!DOCTYPE svg PUBLIC "-//W3C//DTD SVG 20010904//EN"
 "http://www.w3.org/TR/2001/REC-SVG-20010904/DTD/svg10.dtd">
<svg version="1.0" xmlns="http://www.w3.org/2000/svg"
 width="853.000000pt" height="1280.000000pt" viewBox="0 0 853.000000 1280.000000"
 preserveAspectRatio="xMidYMid meet">
<metadata>
Created by potrace 1.16, written by Peter Selinger 2001-2019
</metadata>
<g transform="translate(0.000000,1280.000000) scale(0.100000,-0.100000)"
fill="#000000" stroke="none">
<path d="M0 6400 l0 -6400 4265 0 4265 0 0 6400 0 6400 -4265 0 -4265 0 0
-6400z m6485 2755 c37 -5 53 -16 79 -53 81 -119 49 -201 -73 -187 -30 3 -59 9
-65 13 -6 5 -38 17 -71 28 -33 10 -62 21 -65 24 -3 3 -16 6 -30 7 -14 1 -45 4
-70 8 -119 17 -291 0 -251 -25 9 -5 6 -9 -9 -13 -16 -4 -20 -2 -16 9 8 21 1
18 -39 -17 -35 -31 -49 -34 -19 -5 14 15 14 16 0 16 -9 0 -16 -5 -16 -11 0 -5
-5 -7 -11 -3 -8 4 -9 0 -4 -15 6 -19 -8 -31 -18 -13 -2 4 -2 2 -1 -5 2 -7 -1
-15 -6 -18 -6 -4 -10 -1 -10 4 0 6 -9 3 -19 -6 -40 -37 -50 -43 -64 -37 -8 3
-18 1 -22 -5 -3 -6 1 -11 11 -11 14 0 14 -3 4 -15 -8 -10 -16 -12 -19 -6 -4 6
-12 6 -20 2 -7 -5 -11 -13 -7 -19 3 -6 2 -13 -4 -17 -5 -3 -10 0 -10 7 -1 7
-7 -2 -15 -19 -8 -18 -19 -33 -25 -33 -5 0 -10 -7 -10 -15 0 -9 11 -4 30 17
17 17 30 25 30 17 0 -8 -15 -24 -33 -37 -17 -13 -41 -29 -52 -37 -16 -12 -17
-16 -7 -23 10 -7 8 -11 -10 -16 -12 -4 -18 -10 -11 -12 8 -4 7 -10 -5 -23 -9
-10 -22 -26 -29 -37 -10 -17 -11 -17 -6 6 3 14 3 22 -1 19 -4 -4 -8 -21 -11
-38 -2 -18 -11 -43 -20 -57 -8 -13 -12 -24 -8 -24 5 0 2 -4 -6 -9 -13 -8 -13
-12 0 -28 13 -16 13 -17 -3 -4 -16 12 -18 11 -18 -2 0 -8 6 -17 13 -20 9 -3 8
-9 -4 -23 -25 -31 -39 -72 -46 -135 -3 -32 -10 -59 -14 -59 -5 0 -9 -17 -10
-37 l-1 -38 -9 45 c-6 29 -5 46 1 48 6 2 8 8 5 12 -6 10 51 212 72 252 7 15
14 31 14 35 5 33 68 169 121 258 76 130 188 223 315 262 69 21 285 25 324 6
23 -11 71 -26 167 -52 23 -7 42 -16 42 -20 0 -5 16 -16 36 -26 98 -46 173 32
112 118 -22 31 -86 67 -118 67 -28 0 -81 -28 -101 -53 -11 -13 -22 -18 -34
-13 -14 5 -11 12 21 42 46 41 93 66 114 58 8 -3 24 -7 35 -9z m839 -367 c-3
-5 -16 -8 -27 -7 -12 2 -62 -3 -112 -9 -134 -18 -253 -32 -395 -48 -30 -3 -68
-9 -85 -14 -16 -4 -49 -11 -71 -14 -37 -5 -44 -3 -58 19 -9 13 -16 26 -16 28
0 3 48 4 108 3 129 -1 232 5 232 14 0 3 29 6 65 5 80 -2 299 22 303 33 1 5 16
7 32 4 16 -2 27 -9 24 -14z m106 -217 c-15 -9 -83 -20 -155 -27 -22 -2 -74 -8
-115 -13 -41 -6 -118 -15 -170 -21 -52 -5 -108 -12 -125 -15 -24 -4 -26 -3
-10 4 11 5 15 10 9 10 -18 1 -218 -29 -234 -35 -18 -7 -127 -20 -295 -34 -66
-5 -136 -14 -155 -20 -22 -6 -38 -6 -44 0 -18 18 7 29 74 35 36 3 103 10 148
15 46 6 92 8 102 5 10 -3 21 -1 25 5 4 6 22 8 43 5 27 -4 32 -3 17 4 -15 7 -8
9 30 8 28 0 95 5 150 12 55 8 132 15 170 17 39 1 106 7 150 13 44 6 114 14
156 17 42 3 101 9 130 14 77 11 118 11 99 1z m-2205 -143 c-22 -5 -52 -11 -67
-15 -16 -3 -28 -9 -28 -14 0 -5 -8 -9 -17 -9 -16 0 -16 2 -3 11 11 7 -3 8 -49
4 -43 -4 -74 -13 -95 -28 -40 -28 -66 -55 -66 -67 0 -5 -8 -6 -17 -3 -12 5
-15 2 -10 -10 4 -11 -1 -18 -14 -22 -17 -6 -24 -17 -20 -38 1 -5 -2 -6 -7 -3
-11 7 -41 -28 -39 -46 1 -7 -2 -13 -8 -13 -5 0 -8 5 -7 10 2 6 4 26 4 45 0 19
9 47 19 61 23 33 25 46 2 28 -14 -12 -14 -10 2 14 39 61 210 103 420 104 l40
1 -40 -10z m-575 -198 c-8 -5 -26 -10 -40 -11 l-25 -1 25 -7 c23 -7 22 -8 -12
-12 -21 -3 -38 -1 -38 3 0 4 -19 7 -42 7 l-43 -2 35 -7 c26 -6 19 -7 -25 -4
-44 2 -55 1 -40 -6 16 -8 13 -9 -15 -5 -19 2 -62 0 -95 -6 -88 -14 -116 -19
-155 -24 -19 -2 -51 -7 -70 -10 -19 -3 -61 -9 -93 -13 -32 -5 -63 -15 -68 -23
-8 -12 -10 -12 -18 0 -7 12 -14 12 -38 2 -16 -6 -52 -14 -79 -16 -27 -2 -56
-5 -64 -8 -21 -7 -181 -30 -207 -29 -13 0 -21 -3 -18 -7 2 -4 -17 -8 -43 -10
-26 -1 -76 -9 -112 -18 -42 -10 -65 -12 -68 -5 -4 12 -44 3 -54 -12 -5 -8 -8
-7 -8 1 0 8 -9 9 -32 2 -18 -5 -52 -10 -75 -10 -24 -1 -43 -5 -43 -10 0 -5
-21 -9 -47 -9 -27 0 -57 -7 -67 -15 -11 -8 -31 -15 -44 -15 -40 0 -8 27 46 39
186 39 595 97 613 85 5 -3 9 0 9 7 0 7 11 10 29 7 17 -2 28 -1 25 4 -3 4 17 5
43 3 37 -4 43 -3 28 5 -18 9 -18 10 4 6 14 -3 30 -1 35 3 16 12 97 21 90 10
-3 -5 0 -9 5 -9 6 0 11 4 11 9 0 12 135 37 335 61 94 12 206 27 250 35 74 13
123 19 185 23 20 1 22 0 10 -8z m3010 -1540 c0 -5 -8 -10 -17 -11 -10 0 -27
-2 -38 -5 -11 -2 -58 -9 -105 -15 -47 -6 -139 -23 -205 -39 -141 -33 -187 -41
-275 -45 -68 -4 -303 -45 -402 -71 -31 -8 -61 -13 -65 -12 -8 3 -104 -13 -233
-38 -84 -16 -514 -84 -532 -84 -37 0 20 13 202 45 113 19 228 40 255 45 124
24 364 67 615 110 30 5 93 16 140 24 47 8 110 17 140 20 70 6 204 31 219 40
13 9 223 37 229 32 2 -2 15 0 30 4 37 11 42 11 42 0z m-2531 -434 c-2 -3 -70
-16 -150 -30 -80 -14 -166 -29 -190 -35 -100 -23 -524 -102 -649 -121 -74 -12
-189 -32 -255 -46 -66 -14 -160 -32 -210 -39 -49 -8 -139 -24 -200 -35 -256
-48 -355 -59 -355 -41 0 6 19 11 48 12 54 0 82 4 172 19 73 13 396 73 510 95
101 20 361 64 435 75 77 11 434 77 500 92 59 13 302 56 329 57 11 1 17 -1 15
-3z"/>
</g>
</svg>
