<?xml version="1.0" standalone="no"?>
<!DOCTYPE svg PUBLIC "-//W3C//DTD SVG 20010904//EN"
 "http://www.w3.org/TR/2001/REC-SVG-20010904/DTD/svg10.dtd">
<svg version="1.0" xmlns="http://www.w3.org/2000/svg"
 width="1200.000000pt" height="1200.000000pt" viewBox="0 0 1200.000000 1200.000000"
 preserveAspectRatio="xMidYMid meet">
<metadata>
Created by potrace 1.16, written by Peter Selinger 2001-2019
</metadata>
<g transform="translate(0.000000,1200.000000) scale(0.100000,-0.100000)"
fill="#000000" stroke="none">
<path d="M0 6000 l0 -6000 6000 0 6000 0 0 6000 0 6000 -6000 0 -6000 0 0
-6000z m1439 4615 c11 -60 21 -139 21 -175 0 -36 7 -99 15 -140 9 -41 18 -91
22 -110 3 -19 11 -39 17 -43 6 -5 -4 -6 -23 -3 -18 3 -70 6 -114 6 l-80 0 7
38 c63 369 99 553 107 544 3 -4 16 -56 28 -117z m9090 43 c7 -40 23 -129 36
-198 13 -69 31 -165 40 -213 9 -49 15 -90 13 -92 -10 -8 -178 -13 -183 -4 -4
5 -14 5 -26 -1 -25 -14 -25 -10 5 136 14 66 36 182 51 259 34 185 34 185 44
185 4 0 13 -33 20 -72z m-9001 -683 c3 -38 2 -39 -12 -20 -15 19 -17 19 -20
-7 0 -7 -17 -15 -36 -18 -29 -5 -38 -1 -52 20 -14 20 -18 21 -18 8 0 -10 6
-18 13 -19 30 -2 -43 -17 -90 -18 -58 -1 -58 0 -47 69 l6 35 126 -5 127 -5 3
-40z m9112 38 c0 -10 3 -35 6 -56 l7 -37 -137 1 -136 1 0 27 c-1 25 -1 25 -15
7 -18 -24 -19 -19 -4 23 6 17 16 32 22 32 7 1 64 5 127 9 63 3 118 7 123 8 4
1 7 -6 7 -15z m-9240 -148 c10 9 23 14 29 11 5 -3 12 0 15 6 3 7 3 3 0 -9 -3
-13 -1 -23 5 -23 5 0 12 -10 14 -22 3 -17 5 -14 6 10 1 21 6 32 16 32 8 0 15
5 15 10 0 6 4 10 9 10 5 0 3 -17 -5 -37 -7 -21 -13 -75 -14 -120 l0 -81 -31 5
c-21 3 -29 1 -24 -6 3 -6 1 -11 -4 -11 -6 0 -11 5 -11 11 0 6 -16 10 -37 8
-73 -4 -93 0 -93 19 0 9 9 23 20 30 25 15 27 76 5 129 -20 47 -19 49 10 16 14
-15 24 -23 23 -18 -1 6 2 21 6 35 l9 25 9 -24 c8 -23 9 -23 28 -6z m9160 -15
c0 -5 -9 -14 -20 -20 -11 -6 -18 -15 -14 -21 7 -11 46 -1 56 15 4 6 8 -16 8
-48 0 -41 5 -65 16 -77 23 -26 12 -46 -25 -43 -17 1 -28 -2 -25 -7 11 -19 -52
-9 -66 10 -7 11 -18 18 -22 15 -5 -3 -4 -12 3 -20 9 -11 8 -14 -4 -14 -35 0
-47 12 -47 49 0 28 3 33 11 21 8 -12 10 -9 6 13 -2 15 0 30 5 33 6 4 5 10 -3
15 -12 7 -12 9 0 9 8 0 20 -8 27 -17 17 -22 19 -1 3 29 -8 15 -8 22 1 28 7 5
10 15 7 24 -5 13 1 16 38 16 25 0 45 -4 45 -10z m-8782 -121 c26 -6 115 -31
197 -54 83 -23 175 -48 205 -55 30 -7 67 -18 82 -26 14 -8 47 -14 73 -14 50 0
167 -27 282 -66 94 -31 457 -95 768 -135 44 -5 87 -12 95 -14 8 -3 80 -12 160
-21 80 -8 174 -20 210 -24 36 -5 160 -16 275 -24 116 -8 260 -20 320 -25 61
-6 184 -15 275 -21 218 -14 335 -27 388 -46 31 -10 84 -14 185 -13 78 0 150
-2 160 -6 10 -4 27 -1 40 8 21 14 24 13 35 -3 7 -12 29 -21 58 -26 41 -6 49
-4 70 19 23 25 25 25 151 22 70 -3 142 -5 158 -6 25 -2 188 -2 375 0 19 0 150
1 290 1 396 1 964 27 1205 55 116 14 273 29 350 35 119 9 323 39 375 55 8 3
105 18 215 34 561 82 818 139 1385 306 41 12 85 25 96 29 20 6 24 -1 49 -69
15 -41 34 -80 42 -86 9 -8 12 -22 8 -41 -4 -15 -1 -44 6 -65 6 -20 13 -62 14
-92 1 -31 7 -69 13 -84 7 -16 12 -34 12 -41 0 -7 3 -15 6 -19 3 -3 7 -29 8
-59 1 -39 -3 -57 -16 -70 -10 -10 -18 -22 -18 -27 0 -5 -9 -11 -20 -14 -13 -3
-20 0 -20 9 0 8 -4 14 -10 14 -5 0 -10 10 -11 23 0 22 -29 -55 -29 -80 0 -20
28 -15 50 7 11 11 33 20 50 20 27 0 30 -3 30 -31 0 -33 -12 -47 -64 -75 -22
-12 -30 -13 -36 -4 -6 9 -10 7 -14 -7 -4 -11 -36 -34 -79 -54 -105 -51 -433
-230 -572 -312 -66 -39 -142 -83 -170 -98 -27 -14 -79 -41 -115 -60 -36 -19
-90 -45 -120 -58 -30 -12 -68 -29 -85 -36 -162 -71 -548 -206 -860 -300 -66
-20 -144 -45 -173 -57 -29 -11 -74 -26 -99 -32 -30 -8 -47 -18 -49 -29 -1 -9
4 -17 12 -17 7 0 11 6 8 14 -4 11 0 13 14 9 11 -2 23 0 26 6 4 6 14 11 22 11
8 0 12 -4 9 -10 -3 -5 -4 -10 -2 -10 7 0 138 40 157 47 8 3 20 7 25 8 6 1 12
3 15 4 3 2 14 4 25 6 68 12 350 99 370 115 6 5 39 13 75 19 36 7 79 14 95 17
l30 5 -30 -21 c-51 -36 -289 -140 -445 -195 -52 -19 -127 -45 -167 -60 -122
-43 -374 -107 -462 -117 -46 -5 -93 -14 -104 -20 -11 -6 -48 -12 -81 -15 -50
-3 -96 -7 -126 -12 -3 -1 -95 -3 -205 -6 -110 -2 -213 -6 -230 -8 -16 -2 -37
3 -46 10 -23 20 -32 -7 -23 -73 4 -38 3 -52 -8 -56 -19 -7 -312 -3 -325 5 -6
4 -82 9 -169 12 -250 8 -343 15 -419 32 -38 8 -95 17 -125 20 -30 3 -59 8 -65
13 -9 7 -31 9 -152 11 -24 0 -45 5 -49 10 -3 5 -15 3 -27 -6 -14 -10 -46 -15
-95 -15 l-74 0 5 55 c2 31 1 58 -4 61 -5 3 -9 -17 -9 -44 0 -28 -6 -54 -12
-60 -9 -7 -57 -4 -153 8 -335 43 -667 115 -1045 227 -85 25 -317 87 -515 139
-447 115 -576 153 -835 244 -113 39 -243 84 -290 100 -120 40 -180 69 -180 85
0 18 27 19 101 4 30 -6 65 -12 79 -15 45 -8 374 -116 414 -135 45 -22 46 -22
46 -11 0 16 -224 109 -340 142 -73 21 -99 29 -227 70 -34 11 -73 20 -87 20
-14 0 -28 5 -31 10 -4 6 -11 8 -16 5 -5 -4 -9 -1 -9 4 0 6 -13 11 -30 11 -59
0 -195 62 -324 147 -28 19 -62 36 -76 40 -35 8 -80 42 -80 58 0 8 -6 12 -14 9
-15 -6 -213 110 -257 149 -39 35 -54 66 -35 73 17 7 255 -108 289 -140 13 -12
41 -22 61 -24 21 -2 47 -12 59 -22 20 -19 62 -34 277 -100 58 -18 112 -39 121
-47 13 -11 18 -11 21 -2 3 9 9 9 25 0 12 -6 29 -8 37 -5 10 4 16 1 16 -8 0 -9
11 -13 35 -12 19 1 35 -2 35 -7 0 -5 11 -9 24 -9 14 0 37 -5 51 -10 19 -7 26
-7 23 0 -3 11 -121 56 -168 65 -14 2 -26 9 -28 15 -2 5 -15 10 -28 10 -13 0
-24 5 -24 12 0 8 -3 9 -11 1 -9 -9 -30 -7 -107 11 -57 13 -81 23 -232 95 -30
14 -66 26 -78 25 -13 -1 -35 9 -49 22 -14 13 -30 24 -35 24 -5 0 -46 22 -91
49 -45 27 -111 64 -147 83 -59 31 -65 37 -68 68 -4 43 15 104 40 126 19 18 24
44 9 44 -5 0 -17 -7 -25 -16 -15 -14 -16 -13 -16 6 0 15 5 20 14 17 22 -9 28
22 10 53 -16 26 -16 31 -1 69 10 23 17 66 17 95 0 30 4 56 9 58 5 2 25 37 46
78 20 41 42 81 47 88 13 15 45 15 106 1z m-608 -89 c0 -12 -28 -20 -72 -20
-35 0 -39 -2 -32 -17 10 -23 17 -100 12 -139 l-3 -29 -23 25 c-13 14 -21 18
-17 9 5 -14 -2 -17 -42 -17 -26 0 -67 -3 -90 -6 l-43 -6 0 90 0 90 84 0 c58 0
85 4 89 13 5 13 137 20 137 7z m9737 -5 c6 -10 32 -15 93 -17 l85 -3 3 -87 3
-88 -66 0 c-36 0 -83 6 -106 13 l-40 12 5 78 5 77 -64 0 c-60 0 -75 6 -58 23
3 4 35 7 69 7 45 0 65 -4 71 -15z m-9441 -11 c16 -4 23 -16 27 -47 8 -55 -5
-113 -24 -108 -33 8 -45 8 -55 -1 -8 -5 -14 -3 -18 8 -5 12 -9 14 -20 5 -11
-9 -15 -8 -20 5 -3 9 -12 14 -19 11 -27 -10 -45 18 -48 76 l-4 57 80 0 c44 0
90 -3 101 -6z m9068 -6 c11 11 66 9 67 -3 7 -48 8 -106 3 -133 -4 -28 -7 -31
-24 -22 -16 9 -20 7 -20 -5 0 -9 -12 -18 -30 -21 -16 -4 -30 -12 -31 -18 0 -6
-4 -1 -9 11 -12 30 -39 19 -47 -19 -12 -60 -26 -8 -27 99 l-1 108 45 5 c25 3
50 2 56 -2 6 -4 14 -4 18 0z m-8939 -789 c113 -58 195 -112 195 -128 0 -11 3
-10 13 3 12 16 15 16 28 4 8 -8 22 -17 32 -21 32 -12 17 -137 -18 -137 -8 0
-15 5 -15 10 0 6 -11 15 -25 20 -14 5 -25 13 -25 17 0 5 -15 14 -32 22 -74 32
-181 131 -211 194 -10 20 -22 37 -27 37 -6 0 -10 5 -10 10 0 16 10 13 95 -31z
m8808 -49 c-2 -9 -18 -24 -34 -34 -16 -9 -29 -21 -29 -27 0 -5 -7 -9 -15 -9
-7 0 -18 -7 -23 -16 -6 -11 -11 -13 -16 -5 -5 7 -15 1 -31 -17 -13 -15 -36
-34 -52 -42 -15 -8 -49 -29 -76 -47 -26 -18 -50 -33 -54 -33 -3 0 -14 -6 -22
-14 -17 -15 -45 -31 -196 -111 -128 -68 -128 -68 -153 -90 -13 -11 -27 -19
-30 -18 -10 3 -176 -80 -180 -89 -2 -5 -12 -8 -23 -8 -10 0 -19 -5 -19 -11 0
-6 -6 -9 -14 -6 -8 3 -17 0 -19 -8 -3 -7 -21 -16 -39 -20 -18 -4 -41 -17 -51
-29 -15 -16 -20 -18 -27 -7 -4 8 -4 24 0 35 5 12 11 29 14 40 6 17 8 17 24 3
16 -15 19 -13 41 19 13 18 30 34 38 34 7 0 23 9 35 20 11 10 37 26 57 36 20 9
52 31 71 50 19 19 100 77 180 129 80 52 150 98 156 102 30 22 78 48 124 67 8
3 33 17 55 31 22 14 47 28 55 31 15 6 22 9 98 52 39 22 42 22 42 5 0 -10 -4
-33 -9 -51 -6 -20 -6 -30 0 -27 5 4 12 24 15 45 11 67 79 109 100 61 6 -13 9
-32 7 -41z m-9260 -480 c-1 -80 -5 -160 -9 -177 -3 -19 -2 -33 3 -33 12 0 4
-58 -9 -66 -7 -4 -8 6 -3 27 4 19 4 30 -1 26 -20 -19 -30 81 -22 223 4 80 8
185 8 233 0 49 3 94 7 100 13 20 28 -178 26 -333z m1314 16 c21 -8 79 -26 128
-41 50 -14 135 -42 190 -60 55 -19 147 -48 205 -65 58 -18 116 -36 130 -41 14
-5 55 -16 92 -24 37 -8 80 -20 95 -26 16 -6 73 -19 128 -30 90 -18 256 -61
295 -76 8 -4 25 -8 37 -9 11 -1 70 -17 130 -35 59 -17 149 -42 198 -55 50 -13
128 -37 175 -53 105 -36 306 -98 340 -105 14 -3 45 -10 70 -15 25 -6 61 -13
80 -16 19 -3 41 -9 48 -13 15 -10 7 -38 -13 -46 -14 -5 -151 38 -170 54 -7 5
-15 7 -18 4 -3 -4 -14 -3 -24 2 -20 8 -22 9 -103 19 -54 6 -169 35 -305 75
-76 22 -310 85 -580 155 -93 24 -228 60 -300 80 -71 20 -141 39 -155 41 -14 3
-33 12 -42 21 -11 10 -18 12 -18 4 0 -7 -6 -8 -17 -2 -10 5 -36 13 -58 19 -22
5 -80 22 -130 36 -49 15 -108 31 -130 36 -22 5 -59 18 -82 29 -23 12 -46 21
-52 21 -8 0 -52 20 -91 42 -8 4 -22 11 -30 14 -8 3 -22 10 -30 15 -8 5 -23 12
-32 15 -18 6 -24 25 -11 37 8 9 7 9 50 -7z m8678 -130 c21 -28 65 -80 97 -115
55 -60 71 -91 48 -91 -5 0 -10 6 -10 13 0 7 -9 18 -21 25 -12 7 -18 16 -15 19
3 4 -15 29 -42 58 -26 28 -55 61 -65 73 -14 19 -21 21 -38 11 -21 -11 -21 -16
-15 -107 4 -53 10 -100 13 -105 3 -4 18 -5 33 -2 17 4 37 1 50 -7 18 -11 23
-10 35 6 13 17 19 18 49 9 26 -8 36 -8 39 1 2 6 8 8 12 4 4 -4 -2 -19 -14 -34
-11 -15 -21 -35 -21 -45 0 -38 -11 -48 -43 -42 -18 4 -38 12 -45 20 -7 7 -17
13 -20 13 -4 0 -15 12 -25 28 l-18 27 5 -26 c4 -17 1 -26 -7 -26 -7 0 -24 -3
-39 -6 -22 -6 -30 -3 -39 14 -15 29 -31 293 -18 298 6 1 2 9 -8 17 -17 13 -17
13 3 14 11 0 29 9 40 19 17 17 20 17 29 4 6 -8 28 -38 50 -67z m-1938 -75 c11
-17 9 -21 -7 -26 -11 -4 -20 -11 -20 -16 0 -5 -5 -9 -11 -9 -5 0 -34 -11 -62
-24 -99 -45 -227 -96 -242 -96 -8 0 -15 -4 -15 -9 0 -5 -13 -12 -30 -16 -16
-4 -32 -11 -35 -16 -4 -5 -15 -9 -26 -9 -10 0 -19 -4 -19 -10 0 -5 -7 -10 -16
-10 -8 0 -36 -9 -62 -19 -61 -25 -233 -82 -249 -84 -7 0 -13 -4 -13 -8 0 -4
-8 -7 -19 -6 -10 0 -43 -6 -72 -15 -54 -17 -196 -56 -234 -65 -11 -2 -27 -6
-35 -8 -8 -2 -36 -7 -62 -11 -27 -3 -48 -9 -48 -13 0 -3 -19 -7 -43 -8 -23 -2
-43 -7 -45 -12 -2 -5 -11 -7 -22 -4 -10 3 -35 -3 -55 -13 -25 -11 -64 -18
-118 -18 -45 -1 -89 -6 -97 -11 -16 -10 -75 -14 -245 -17 -134 -3 -195 4 -195
20 0 7 5 10 10 7 6 -4 17 -2 25 5 7 6 56 18 107 26 139 22 139 22 152 33 6 6
32 8 56 5 64 -7 129 -5 148 5 10 5 60 11 113 14 53 2 105 9 115 15 10 5 51 12
89 16 39 4 93 13 120 21 28 8 88 24 135 36 80 22 232 78 485 181 61 25 146 53
190 62 44 10 96 26 116 37 20 10 44 19 53 19 17 0 22 2 101 42 62 32 67 32 82
9z m-7718 -161 c11 -134 7 -170 -20 -170 -11 0 -19 7 -19 15 0 15 -26 20 -54
9 -20 -8 -21 -24 -1 -24 8 0 15 -5 15 -11 0 -6 -6 -9 -14 -6 -10 4 -16 -3 -18
-21 l-4 -27 -8 30 c-4 17 -14 43 -21 60 -11 23 -11 31 -2 37 9 6 9 8 0 8 -23
0 -37 95 -24 163 3 19 19 4 26 -25 7 -29 9 -30 12 -10 3 12 9 22 14 22 5 0 9
9 9 20 0 27 15 25 39 -6 14 -18 21 -21 21 -12 0 9 7 21 15 28 11 9 13 16 5 24
-5 5 -10 17 -10 25 0 14 2 14 15 0 10 -10 18 -51 24 -129z m9100 95 c1 12 4
16 11 9 5 -5 10 -165 12 -396 l3 -386 -48 -11 c-55 -13 -80 1 -70 38 3 11 2
29 -2 38 -6 17 -7 17 -20 -1 -15 -20 -11 -41 6 -31 15 10 -2 -59 -19 -72 -41
-33 -43 -23 -40 186 2 114 7 197 12 194 5 -4 7 14 4 40 -4 29 -2 44 4 41 6 -4
9 -42 7 -88 -4 -125 0 -165 12 -144 5 10 12 37 13 60 2 25 9 42 15 41 16 -4
14 8 -6 30 -10 11 -12 17 -5 13 6 -4 12 -2 12 3 0 6 -7 11 -15 11 -8 0 -15 5
-15 10 0 6 4 10 9 10 5 0 9 12 9 26 0 15 4 29 11 33 17 11 0 111 -20 111 -5 0
-9 -9 -9 -19 0 -11 -4 -23 -10 -26 -5 -3 -11 -18 -11 -33 -1 -17 -4 -11 -9 18
-4 24 -5 62 -3 85 2 22 3 78 3 123 -1 56 3 82 10 77 5 -3 10 -13 10 -21 0 -8
4 -14 9 -14 4 0 5 -17 1 -38 -7 -40 -1 -72 15 -75 6 -1 9 -8 9 -14 -1 -7 2
-10 7 -7 5 3 9 12 9 20 0 8 5 12 10 9 6 -3 10 2 10 12 0 14 2 15 9 5 6 -11 10
-10 15 4 9 23 -11 44 -24 24 -7 -11 -11 -8 -21 13 -10 22 -10 30 0 40 9 9 14
9 22 -3 9 -13 10 -12 5 2 -4 13 2 20 19 24 17 4 25 13 26 28 0 20 1 20 9 1 8
-19 9 -19 9 0z m-8119 -75 c-8 -5 -11 -10 -7 -10 4 0 3 -9 -3 -20 -14 -26 0
-26 34 1 l26 20 -2 -25 c-1 -14 -5 -26 -8 -26 -3 0 -24 -16 -46 -36 -21 -20
-73 -59 -114 -87 -41 -28 -77 -53 -80 -57 -17 -24 -643 -459 -652 -454 -7 4
-8 2 -4 -4 3 -6 -3 -16 -14 -22 -13 -7 -20 -7 -20 0 0 5 6 10 13 11 8 0 8 2
-2 6 -11 5 -11 7 0 14 11 6 9 13 -9 30 -13 11 -21 27 -18 34 3 8 10 31 15 52
8 27 20 43 43 56 18 11 119 79 224 153 105 74 194 134 197 134 4 0 3 -8 0 -17
-5 -14 3 -12 39 9 34 21 48 24 56 16 18 -18 15 -27 -20 -58 -26 -25 -28 -28
-10 -23 12 3 25 9 28 14 3 5 14 9 26 9 14 0 18 5 14 16 -3 9 -2 12 5 8 16 -10
49 30 38 47 -16 26 -1 82 28 106 16 12 23 22 18 23 -6 0 -17 -6 -25 -12 -12
-11 -12 -10 -1 5 17 21 35 22 56 1 9 -9 19 -13 23 -10 3 4 2 10 -4 14 -6 4
-13 15 -17 24 -4 13 -2 15 10 11 10 -4 14 -2 10 4 -4 6 0 14 9 17 12 5 15 2
10 -10 -4 -10 -2 -14 6 -11 7 2 12 12 12 21 -2 16 -1 16 16 1 12 -11 20 -13
25 -5 7 11 62 38 80 39 6 0 3 -4 -5 -9z m7012 -65 c15 -2 25 1 22 6 -9 15 13
10 30 -6 8 -8 23 -15 34 -15 11 0 28 -11 38 -25 10 -14 24 -25 30 -25 6 0 19
-9 29 -20 10 -11 24 -20 32 -20 8 0 11 -4 8 -10 -3 -5 4 -10 16 -10 18 0 19 2
9 15 -7 8 -29 25 -49 37 -20 12 -47 33 -61 47 l-25 24 30 -18 c17 -10 66 -46
110 -79 44 -34 107 -79 140 -101 33 -22 116 -81 184 -133 88 -67 126 -91 134
-83 8 8 7 11 -3 11 -13 0 -13 2 -1 9 12 8 12 12 -2 26 -23 22 -21 28 3 13 13
-9 20 -24 20 -45 0 -29 7 -37 63 -73 34 -22 57 -40 51 -40 -6 0 -23 9 -36 20
-14 11 -37 24 -51 29 -21 8 -25 7 -20 -4 3 -9 -1 -15 -8 -15 -8 0 2 -14 21
-31 19 -17 29 -28 22 -24 -6 3 -20 -2 -30 -11 -16 -17 -16 -17 5 -12 17 4 20
2 16 -10 -5 -11 -3 -13 7 -7 8 5 11 4 6 -3 -7 -11 -31 -6 -53 11 -7 5 -13 7
-13 4 0 -7 85 -67 95 -67 3 0 3 5 0 10 -3 6 1 10 10 10 11 0 15 -5 11 -15 -5
-15 3 -18 34 -16 11 0 11 -1 2 -5 -10 -5 -9 -11 5 -27 21 -24 22 -24 -100 51
-52 31 -85 58 -81 64 4 7 2 8 -5 4 -15 -9 -73 32 -65 46 4 7 2 8 -4 4 -13 -8
-180 100 -370 238 -28 21 -49 42 -46 47 3 5 0 9 -6 9 -6 0 -9 4 -5 10 3 5 14
2 25 -7 15 -13 17 -19 7 -26 -7 -5 -4 -6 10 -2 12 3 31 1 43 -5 11 -6 20 -7
20 -3 -1 13 -73 55 -97 57 -11 0 -19 5 -16 9 3 5 -4 15 -16 23 -12 8 -21 22
-21 30 0 8 -5 14 -11 14 -5 0 -7 5 -3 12 5 7 3 8 -5 4 -15 -9 -51 21 -51 42 0
15 -28 41 -45 42 -5 0 1 -7 13 -16 12 -8 22 -20 22 -25 0 -6 -14 -1 -30 11
-17 12 -27 26 -24 32 5 7 0 9 -14 6 -13 -4 -26 0 -34 10 -11 13 -11 14 1 7 8
-4 27 -9 43 -10z m115 -469 c5 -5 1 -7 -9 -3 -10 4 -18 3 -18 -2 0 -12 39 -58
40 -47 0 5 7 3 15 -4 9 -7 19 -10 23 -6 4 4 -3 15 -14 25 -18 14 -19 20 -9 34
15 21 29 22 21 2 -3 -8 3 -19 14 -25 10 -5 26 -17 35 -26 9 -9 19 -13 22 -10
4 4 -3 13 -15 22 -12 8 -22 20 -22 27 0 8 3 8 12 -1 15 -15 32 -16 23 -2 -11
18 3 11 90 -45 47 -30 85 -50 85 -44 0 6 -9 13 -19 16 -11 3 -21 13 -24 23 -4
16 -2 16 24 3 16 -8 31 -18 34 -24 4 -5 15 -9 26 -9 10 0 19 -4 19 -9 0 -6 14
-18 30 -28 17 -9 33 -26 36 -36 3 -11 12 -16 20 -13 8 3 14 1 14 -3 0 -5 -5
-11 -11 -13 -9 -3 -9 -10 0 -26 7 -13 17 -20 24 -16 7 4 9 4 5 -1 -4 -4 -3
-14 3 -22 14 -16 5 -17 -22 -3 -13 8 -19 7 -19 0 0 -6 7 -13 16 -17 8 -3 13
-11 10 -19 -3 -7 0 -15 7 -18 9 -5 9 -7 0 -12 -7 -3 -13 -17 -13 -31 0 -18 -4
-24 -15 -19 -18 6 -18 5 -5 -28 5 -14 14 -26 20 -26 6 0 9 4 6 9 -4 5 -2 20 3
33 l10 23 2 -25 c6 -65 4 -86 -8 -98 -7 -7 -13 -19 -13 -27 0 -7 -9 -15 -21
-18 -13 -3 -19 -12 -17 -24 2 -12 -3 -18 -17 -18 -13 0 -21 8 -23 23 -3 17
-10 22 -35 23 -18 0 -26 3 -19 6 22 9 13 21 -25 34 -21 7 -41 13 -45 14 -3 0
-10 4 -15 9 -5 5 -3 6 5 2 17 -10 15 4 -4 25 -9 10 -22 15 -30 12 -9 -3 -14 2
-14 17 0 15 -5 20 -14 17 -8 -3 -21 4 -29 16 -8 12 -25 32 -36 45 -12 12 -17
22 -12 22 5 0 19 -12 30 -26 12 -15 21 -22 21 -17 0 10 -43 51 -119 116 -33
27 -58 36 -45 16 4 -7 -2 -7 -17 1 -34 18 -38 24 -9 15 22 -7 23 -6 12 7 -18
23 -52 30 -45 10 4 -10 2 -13 -6 -8 -6 4 -9 16 -6 27 4 10 2 19 -4 19 -15 0
-62 50 -56 60 3 5 0 12 -6 16 -8 4 -9 3 -5 -4 11 -19 1 -14 -19 8 -18 20 -18
21 0 14 13 -5 16 -4 10 5 -6 10 -2 11 15 6 19 -6 22 -4 16 10 -4 12 0 18 14
22 11 3 20 10 20 15 0 6 9 8 20 5 11 -3 18 -2 15 3 -7 11 52 7 62 -4z m1008
-337 c-3 -29 -8 -56 -11 -60 -3 -5 0 -9 6 -9 6 0 8 -5 4 -11 -5 -8 3 -10 25
-7 30 4 31 3 31 -33 0 -38 -16 -54 -45 -43 -9 4 -15 0 -15 -9 0 -19 47 -50 55
-37 3 6 1 10 -4 10 -6 0 -11 5 -11 10 0 19 49 10 64 -12 9 -12 16 -17 16 -11
0 7 -4 15 -10 18 -5 3 -10 14 -10 23 0 13 2 13 15 -4 20 -26 19 -40 -7 -64
-18 -17 -19 -20 -5 -20 24 0 21 -8 -13 -40 l-31 -29 -20 32 c-11 18 -18 40
-15 49 4 18 -19 32 -36 22 -7 -5 -9 2 -6 20 3 14 3 26 1 26 -3 0 -36 -9 -74
-21 -85 -26 -101 -18 -98 47 3 42 3 42 46 49 29 4 41 10 36 18 -7 12 -5 86 4
100 3 4 12 2 21 -5 12 -10 16 -10 19 0 7 20 23 3 23 -24 0 -14 4 -22 10 -19 6
3 7 17 4 30 -5 22 11 54 28 55 4 0 5 -23 3 -51z m-9165 -110 c0 -4 9 -5 20 -2
15 4 19 2 14 -10 -3 -8 2 -30 11 -47 14 -27 15 -34 3 -41 -10 -7 -10 -9 0 -9
7 0 10 -5 6 -12 -4 -6 -7 -27 -6 -47 l2 -36 -25 29 c-14 16 -28 27 -31 24 -12
-12 -17 -118 -5 -118 6 0 11 -11 11 -25 0 -15 -6 -25 -14 -25 -18 0 -27 26
-20 56 4 14 2 24 -4 24 -6 0 -13 13 -17 29 -6 29 -35 64 -35 43 0 -6 5 -14 10
-17 6 -3 10 -12 9 -18 0 -9 -2 -9 -6 0 -3 8 -14 11 -29 7 l-24 -6 0 88 c0 49
5 96 10 104 6 10 10 11 10 3 0 -7 9 -13 21 -13 14 0 19 5 16 14 -5 12 3 15 34
13 21 -1 39 -4 39 -8z m9767 -46 c-4 -32 -11 -155 -17 -273 -14 -265 -19 -320
-31 -320 -6 0 -8 106 -7 273 3 253 4 272 21 269 25 -4 23 38 -3 45 -26 7 -25
17 2 43 35 32 41 25 35 -37z m-7846 -96 c-7 -7 -7 -15 1 -25 10 -11 7 -18 -15
-34 -32 -23 -35 -38 -6 -38 11 0 18 -4 14 -10 -3 -5 -12 -7 -19 -4 -9 3 -17
-3 -21 -16 -5 -16 -10 -18 -20 -10 -10 8 -15 8 -21 -1 -4 -7 -3 -14 3 -16 13
-5 -49 -73 -66 -73 -6 0 -11 9 -11 20 0 12 -7 20 -17 20 -14 0 -14 2 2 20 10
11 15 20 10 20 -4 0 -1 8 6 17 10 11 10 14 2 9 -9 -5 -13 0 -13 14 0 13 -4 18
-11 14 -6 -3 -9 -14 -6 -24 3 -12 -2 -20 -14 -23 -14 -4 -19 0 -19 16 1 29 24
58 58 73 15 7 20 13 12 13 -13 1 -13 2 0 11 26 17 31 11 25 -24 -7 -37 1 -76
15 -76 5 0 12 20 16 45 3 25 11 45 16 45 6 0 5 6 -2 15 -8 10 -9 15 -2 15 6 0
9 8 5 18 -4 11 0 10 11 -6 10 -12 15 -30 11 -41 -8 -26 5 -32 35 -15 25 13 25
13 3 14 -27 0 -28 3 -7 35 9 13 13 28 10 34 -3 5 0 11 6 14 16 5 23 -32 9 -46z
m6905 -322 c-3 -8 2 -19 10 -25 20 -18 17 -30 -7 -30 -18 0 -19 -2 -9 -15 9
-10 9 -15 1 -15 -6 0 -11 -9 -11 -19 0 -11 -6 -22 -12 -24 -7 -3 -1 -6 13 -6
15 -1 32 -8 39 -16 14 -16 46 -20 52 -6 2 5 10 2 18 -7 13 -14 12 -15 -4 -9
-15 6 -17 3 -13 -13 3 -13 1 -18 -6 -13 -6 4 -8 0 -4 -10 4 -11 -1 -22 -13
-29 -11 -7 -20 -18 -20 -24 0 -6 -12 -16 -26 -22 -34 -16 -68 1 -59 29 4 13 2
19 -8 19 -9 0 -17 -5 -19 -12 -5 -14 -28 -2 -28 15 0 9 2 9 8 0 5 -8 13 -6 29
7 l22 18 -21 6 c-13 3 -33 3 -45 0 -14 -4 -23 -2 -23 5 0 6 3 10 8 10 4 -1 21
-1 37 0 22 1 26 4 16 10 -8 5 -20 7 -27 4 -8 -3 -20 2 -29 10 -20 20 -19 27 3
28 10 0 12 3 5 6 -39 15 20 39 60 24 34 -13 43 -1 15 20 -19 15 -20 19 -9 33
12 14 10 16 -10 16 -21 0 -20 2 9 17 19 9 36 22 39 30 3 7 9 10 15 7 5 -3 7
-12 4 -19z m-8771 -15 c12 -23 12 -30 3 -30 -9 0 -9 -3 2 -11 11 -8 12 -12 3
-16 -8 -3 -13 -23 -12 -56 1 -45 2 -48 9 -22 8 31 14 -143 15 -410 0 -151 -15
-667 -20 -694 -14 -74 -24 -312 -25 -643 -1 -98 -3 -116 -16 -111 -10 4 -13 0
-8 -13 5 -17 4 -17 -5 -3 -6 9 -12 25 -14 35 -4 28 -17 45 -28 38 -5 -3 -7 -9
-4 -14 3 -5 1 -11 -5 -15 -5 -3 -10 0 -11 7 0 7 -4 3 -10 -10 -5 -13 -5 -31
-1 -40 13 -26 14 -100 2 -107 -7 -4 -11 -32 -10 -69 1 -33 2 -69 1 -79 -1 -25
-21 -11 -22 16 -1 12 -7 -2 -14 -32 -11 -45 -11 -56 0 -67 13 -13 35 -118 35
-167 0 -17 5 -27 15 -27 17 0 55 -35 55 -51 0 -6 -7 -3 -16 5 -20 21 -30 21
-13 0 10 -13 10 -17 -2 -24 -10 -7 -16 -4 -21 8 -6 16 -7 16 -7 0 -1 -9 7 -22
17 -27 12 -7 13 -10 3 -11 -10 0 -12 -9 -8 -37 4 -20 10 -39 15 -42 17 -12 40
-78 46 -131 22 -199 25 -245 13 -253 -9 -7 -9 -10 1 -14 17 -7 15 -23 -3 -23
-8 0 -15 -4 -15 -10 0 -5 7 -7 15 -4 10 4 15 0 16 -12 0 -11 2 -34 3 -51 3
-24 0 -33 -11 -33 -8 0 -11 -5 -8 -11 4 -6 14 -8 23 -4 19 7 49 -24 44 -48 -3
-13 -10 -15 -28 -11 -14 4 -24 2 -24 -5 0 -6 7 -11 15 -11 9 0 15 -9 15 -22 0
-19 -2 -20 -10 -8 -8 13 -10 12 -10 -2 0 -16 17 -23 43 -19 11 2 8 -24 -4 -36
-9 -9 -8 -33 2 -95 7 -46 12 -89 11 -95 -2 -7 2 -13 9 -13 8 0 8 -4 -1 -15 -6
-8 -9 -18 -6 -23 3 -5 7 -38 10 -73 3 -35 8 -71 11 -81 4 -10 1 -17 -9 -20
-14 -3 -14 -6 -1 -32 18 -33 19 -39 5 -31 -13 8 -13 -1 2 -25 10 -16 10 -23
-4 -36 -15 -15 -16 -15 -16 7 -1 24 -27 256 -56 499 -9 69 -27 179 -40 245
-14 66 -34 197 -45 290 -29 246 -43 335 -53 341 -5 3 -22 2 -39 -1 l-30 -7 2
-181 c1 -100 0 -279 -2 -398 -4 -188 4 -448 10 -349 2 19 5 28 8 20 3 -8 10
-26 15 -40 7 -19 11 -21 18 -10 7 12 10 11 16 -4 4 -11 2 -21 -7 -27 -11 -7
-11 -9 4 -9 10 0 17 8 17 20 0 24 15 27 24 4 8 -20 8 -39 0 -31 -12 11 -32
-20 -31 -46 2 -18 8 -27 20 -27 9 0 17 -4 17 -10 0 -5 -7 -10 -15 -10 -19 0
-19 -9 2 -32 12 -14 14 -21 5 -30 -8 -8 -8 -15 -1 -24 7 -8 7 -14 0 -18 -6 -4
-15 3 -21 14 -6 11 -15 20 -21 20 -6 0 -2 -16 10 -36 25 -42 26 -60 6 -80 -8
-9 -15 -30 -16 -47 0 -26 -2 -28 -8 -12 -5 11 -6 25 -4 32 3 6 0 20 -6 30 -12
20 -14 13 -13 -45 1 -42 -9 -34 -18 15 -7 35 -8 33 -9 -22 -1 -33 -6 -67 -12
-75 -7 -11 -9 261 -5 915 6 944 13 1272 42 1900 9 193 20 496 23 675 4 179 9
305 11 280 12 -180 11 -173 25 -105 7 33 13 52 14 43 0 -10 6 -18 11 -18 6 0
10 -19 10 -42 0 -29 3 -38 9 -29 5 7 14 10 20 7 7 -5 11 7 11 37 0 24 3 47 7
50 10 11 12 56 2 62 -5 4 -9 -1 -9 -9 0 -9 -4 -16 -10 -16 -6 0 -10 30 -10 69
0 39 5 73 10 76 6 4 10 -11 10 -36 0 -59 16 -37 23 31 5 37 3 50 -3 40 -7 -11
-9 -6 -6 18 1 19 9 38 17 42 11 7 10 10 -4 16 -9 3 -14 10 -11 15 11 18 34 8
49 -21z m9104 -497 c0 -126 10 -435 22 -688 17 -373 22 -632 24 -1370 3 -685
1 -913 -8 -924 -9 -12 -9 -13 0 -7 10 5 13 -20 13 -111 1 -65 2 -131 2 -148 4
-75 -3 -166 -12 -160 -5 3 -10 -1 -10 -10 0 -9 5 -13 10 -10 6 3 10 -3 10 -14
0 -33 -30 -26 -31 7 -1 19 -3 22 -6 8 -3 -10 -14 -28 -25 -40 l-21 -21 6 23
c3 12 1 20 -4 16 -5 -3 -9 2 -9 11 0 13 -2 14 -14 3 -8 -7 -14 -15 -13 -18 0
-3 -5 -18 -11 -33 -7 -16 -12 -40 -12 -53 0 -14 -4 -22 -10 -19 -6 4 -7 -5 -4
-23 4 -22 2 -31 -11 -36 -25 -9 -34 3 -13 18 13 9 15 20 9 52 -4 22 -11 46
-15 52 -4 7 -2 12 3 12 6 0 11 -5 11 -12 0 -18 20 5 24 28 14 74 17 136 7 129
-6 -3 -9 -10 -6 -15 3 -5 0 -12 -5 -15 -6 -4 -15 -18 -21 -32 -5 -13 -13 -22
-18 -19 -11 7 -13 591 -2 636 5 19 9 27 10 18 1 -10 6 -18 12 -18 8 0 9 -4 0
-13 -6 -8 -8 -16 -5 -20 3 -3 6 -47 5 -97 0 -50 4 -101 9 -113 9 -19 10 -17 8
13 -2 71 2 111 12 105 6 -3 10 1 10 9 0 18 16 21 25 6 3 -5 11 -10 16 -10 6 0
7 5 4 10 -3 6 -2 10 4 10 5 0 12 17 14 38 l4 37 1 -42 c2 -42 22 -63 22 -24 0
11 4 22 8 25 5 3 9 45 10 93 2 81 1 86 -12 58 -7 -16 -11 -36 -8 -42 2 -7 -1
-13 -7 -13 -6 0 -11 6 -11 13 0 6 -3 23 -7 36 -4 15 -2 22 4 18 16 -10 35 67
24 96 -7 18 -7 27 2 31 7 4 3 5 -9 2 -17 -3 -21 2 -22 25 0 16 -8 36 -16 45
-18 17 -21 28 -6 19 6 -3 10 1 10 10 0 9 5 13 10 10 6 -3 10 4 11 17 0 23 0
23 11 -2 8 -19 12 -21 16 -10 3 8 10 18 16 23 8 5 7 10 -3 16 -7 5 -10 14 -7
20 4 6 0 11 -8 11 -9 0 -16 5 -16 10 0 6 7 10 15 10 8 0 15 4 15 10 0 5 -7 7
-15 4 -11 -5 -13 1 -8 30 3 22 2 36 -5 36 -6 0 -13 8 -16 18 -3 9 -4 3 -2 -15
1 -18 -1 -30 -6 -27 -4 3 -8 12 -8 20 0 8 -9 14 -20 14 -17 0 -19 -5 -13 -32
3 -18 10 -40 14 -49 9 -18 3 -29 -18 -29 -18 0 -34 43 -20 52 7 4 7 18 -1 45
-10 33 -9 47 5 84 10 24 20 46 23 49 7 7 7 170 -1 170 -4 0 -7 6 -6 13 0 6 -1
33 -1 60 -2 54 -22 65 -22 11 0 -19 -4 -33 -8 -30 -14 8 -1 70 17 84 9 7 16
18 16 24 0 6 10 17 23 26 21 14 22 13 21 -14 0 -25 -1 -26 -9 -9 -8 18 -9 17
-9 -7 -1 -20 3 -26 13 -22 17 6 24 120 15 224 l-6 65 -3 -65 c-1 -36 -2 -81
-1 -101 2 -23 -3 -40 -14 -49 -15 -13 -17 -9 -15 36 2 66 1 71 -10 54 -8 -13
-11 -11 -16 7 -4 13 -10 20 -15 17 -5 -3 -9 14 -9 37 l0 41 18 -23 c23 -27 50
-33 48 -10 0 9 -5 19 -11 23 -5 4 0 17 14 32 13 14 21 32 18 43 -4 15 -5 14
-6 -4 0 -13 -4 -23 -7 -23 -11 0 -34 28 -25 32 14 5 0 65 -21 87 -10 12 -16
26 -13 31 3 6 2 10 -3 10 -14 0 -20 203 -7 212 6 5 5 12 -3 20 -6 6 -12 21
-12 33 1 20 1 20 16 0 8 -11 14 -33 13 -50 -2 -59 1 -86 11 -80 6 3 11 18 11
33 2 24 2 24 6 5 2 -13 9 -23 15 -23 6 0 8 11 6 25 -6 31 7 33 18 3 6 -18 8
-13 11 25 4 51 -9 80 -32 71 -17 -7 -45 113 -32 139 4 10 6 26 2 35 -5 14 -7
14 -23 -2 -12 -12 -14 -19 -5 -24 8 -5 9 -19 4 -45 -5 -21 -5 -37 0 -37 5 0 9
-9 9 -21 0 -30 -34 -20 -39 11 -1 14 -12 37 -23 53 -11 15 -17 34 -14 42 2 7
1 15 -4 17 -15 5 -18 147 -4 152 14 5 13 22 -5 166 -16 123 -14 242 4 266 8
10 15 37 16 59 l2 40 6 -42 c9 -51 17 -61 34 -43 9 10 9 11 0 6 -8 -4 -13 -1
-13 8 0 9 5 16 10 16 12 0 9 37 -3 58 -5 7 -4 12 2 12 6 0 13 -12 17 -27 10
-49 12 -49 13 -2 1 31 -4 49 -13 52 -7 3 -17 27 -21 53 -6 42 -8 46 -18 29 -6
-11 -17 -26 -24 -34 -18 -18 -8 -28 12 -11 12 10 15 10 15 -4 0 -9 -5 -16 -11
-16 -6 0 -8 -9 -4 -20 4 -14 2 -20 -8 -20 -11 0 -13 -12 -9 -52 2 -29 2 -51
-1 -48 -11 10 -16 199 -5 206 7 4 6 9 -3 15 -10 6 -12 36 -11 120 2 62 4 115
6 117 3 2 10 -9 18 -24 17 -36 38 -43 38 -12 0 17 3 19 9 9 13 -21 51 22 51
59 0 17 5 30 10 30 6 0 10 -8 10 -17 0 -15 2 -16 10 -3 5 8 10 25 10 38 0 12
4 22 9 22 6 0 10 -95 10 -227z m548 -72 c8 -18 32 -101 54 -184 22 -83 47
-160 57 -172 33 -38 87 -171 72 -180 -5 -3 5 -34 21 -70 33 -74 35 -85 14 -85
-8 0 -15 9 -15 20 0 11 -11 49 -25 85 -13 36 -19 65 -14 65 6 0 9 6 6 13 -2 6
-10 11 -16 9 -6 -1 -11 4 -12 10 0 7 -4 5 -8 -6 -6 -15 -10 -9 -23 30 -12 37
-13 52 -4 63 8 11 8 13 -1 8 -8 -5 -14 2 -18 20 -11 55 -24 101 -78 258 -31
88 -56 157 -57 153 -5 -17 -8 -24 -19 -53 -16 -41 -134 -275 -125 -250 67 204
112 309 136 318 19 6 39 -13 55 -52z m-8187 -391 c0 -5 -6 -11 -12 -14 -10 -5
-10 -7 0 -12 14 -7 17 -54 2 -54 -5 0 -8 -21 -5 -47 2 -27 4 -58 5 -70 0 -16
6 -23 19 -23 12 0 21 -8 24 -22 3 -14 5 -7 6 17 2 22 5 34 8 26 4 -10 9 -8 20
10 8 13 12 16 9 7 -3 -10 2 -30 10 -45 10 -19 14 -54 12 -109 -1 -44 2 -85 6
-92 4 -7 1 -12 -7 -12 -11 0 -14 -15 -14 -64 0 -36 4 -63 9 -60 4 3 8 -2 8
-10 0 -21 -10 -20 -26 2 -12 16 -13 15 -14 -6 0 -13 4 -20 10 -17 6 3 10 1 10
-5 0 -6 5 -8 11 -4 8 5 10 -19 7 -86 -2 -51 -1 -84 3 -74 5 11 7 -5 7 -41 -1
-52 -2 -55 -8 -25 l-7 35 -3 -30 c-1 -16 -1 -42 0 -57 1 -14 -4 -29 -10 -33
-9 -6 -9 -10 1 -16 12 -7 12 -11 1 -17 -7 -5 -12 -13 -11 -18 4 -26 -3 -42
-22 -47 -13 -3 -18 -10 -14 -17 4 -6 -2 -20 -14 -31 -22 -21 -20 -39 5 -39 8
0 14 8 15 18 0 14 2 14 7 2 4 -8 18 -17 32 -18 42 -6 36 -12 -13 -12 -37 0
-45 -3 -41 -15 7 -17 3 -18 -20 -9 -9 3 -13 10 -10 15 3 5 -4 9 -15 9 -12 0
-21 -4 -21 -9 0 -5 -9 -11 -20 -14 -11 -3 -20 -1 -20 4 0 5 4 9 9 9 5 0 13 10
16 21 5 16 9 18 15 9 4 -7 13 -9 19 -6 14 9 15 56 1 56 -5 0 -10 -7 -10 -15 0
-8 -5 -15 -11 -15 -8 0 -10 111 -5 418 8 555 14 672 32 665 8 -3 14 -9 14 -13z
m7862 -290 c5 0 40 -18 77 -40 75 -45 81 -46 229 -35 106 8 131 0 73 -25 -16
-6 -37 -20 -47 -31 -15 -17 -15 -19 -1 -19 9 0 19 5 22 10 4 6 12 4 21 -5 9
-8 22 -15 30 -15 17 0 17 -8 3 -64 -10 -41 -13 -44 -60 -54 -27 -6 -55 -9 -64
-6 -11 5 -14 2 -9 -10 4 -10 13 -15 20 -12 8 3 14 -1 14 -9 0 -7 -9 -17 -20
-20 -25 -8 -27 -27 -2 -24 53 5 72 -1 78 -27 8 -30 -11 -78 -27 -68 -12 7 -29
-13 -29 -35 0 -7 6 -11 13 -8 8 3 20 1 28 -4 11 -7 11 -9 0 -9 -9 0 -11 -8 -7
-25 5 -19 3 -23 -9 -19 -8 4 -15 11 -15 18 0 6 -7 3 -15 -8 -9 -12 -11 -25 -6
-35 5 -9 6 -22 4 -28 -8 -22 -32 12 -26 36 4 16 1 21 -13 21 -12 0 -15 3 -7 8
6 4 10 26 9 49 -1 23 2 40 6 37 4 -3 8 0 8 5 0 11 -13 15 -37 12 -7 -1 -10 5
-7 13 3 8 12 12 20 9 8 -3 14 -1 14 5 0 6 -6 13 -12 15 -7 3 -4 6 6 6 20 1 20
1 0 19 -11 10 -41 25 -67 32 -26 8 -47 18 -47 22 0 4 -6 8 -14 8 -7 0 -19 6
-25 14 -17 20 3 30 22 12 8 -9 24 -12 36 -9 17 4 20 2 15 -11 -4 -11 -1 -16
10 -16 9 0 16 7 16 16 0 12 7 15 25 12 14 -3 25 -2 25 3 0 4 -18 10 -40 14
-22 4 -42 11 -45 16 -3 4 -19 6 -34 3 -22 -5 -182 36 -209 52 -11 7 12 64 25
64 11 0 10 6 -6 26 -23 29 -29 84 -9 84 6 0 9 3 5 6 -3 4 4 15 16 24 12 10 24
14 25 9 2 -5 8 -9 14 -9z m-9049 -142 c-13 -6 -23 -15 -23 -20 0 -4 -6 -8 -14
-8 -8 0 -17 -8 -21 -19 -3 -10 -14 -26 -25 -36 -22 -20 -26 -55 -10 -86 13
-23 94 -64 110 -54 6 4 9 1 8 -7 -2 -8 7 -13 22 -14 14 -1 36 -6 48 -13 29
-15 61 -20 194 -28 62 -3 105 -10 102 -15 -4 -6 13 -7 41 -2 38 5 47 4 43 -7
-4 -10 -20 -13 -66 -11 -41 3 -62 0 -62 -7 0 -7 -10 -9 -22 -6 -13 3 -57 7
-99 8 -42 2 -81 7 -88 11 -7 4 -17 4 -24 -1 -16 -13 -163 9 -179 26 -11 10 -8
11 15 6 15 -4 27 -5 27 -1 0 10 -58 36 -63 28 -2 -4 -2 -1 0 7 2 8 -2 11 -12
8 -8 -4 -17 -1 -21 5 -5 7 -2 8 6 3 10 -6 12 -4 7 7 -3 9 -1 20 5 26 8 8 6 16
-6 27 -9 9 -16 22 -16 30 0 7 -7 15 -15 19 -10 4 -15 -1 -15 -14 0 -11 3 -19
8 -17 4 1 8 -2 10 -8 2 -5 -1 -11 -7 -13 -5 -2 -14 14 -20 34 -8 30 -7 43 4
60 13 20 146 93 170 93 6 0 0 -5 -12 -11z m2323 -58 c8 0 12 5 9 10 -5 7 102
10 339 8 190 -2 346 0 346 3 0 8 178 4 186 -4 4 -4 -3 -7 -16 -7 -19 0 -20 -2
-10 -15 7 -8 16 -12 21 -9 5 3 9 -1 9 -9 0 -17 -24 -25 -65 -22 -17 1 -280 3
-585 5 -305 2 -538 5 -517 7 27 3 37 8 34 18 -4 9 1 11 14 8 13 -4 19 0 19 11
0 9 5 16 10 16 6 0 10 -4 10 -10 0 -5 25 -9 55 -8 30 1 55 6 55 11 0 5 5 5 13
-1 8 -7 18 -6 32 4 18 13 20 13 23 0 2 -9 10 -16 18 -16z m2692 19 c48 1 71
-2 67 -9 -8 -13 1 -13 24 2 22 14 81 -6 81 -27 0 -8 8 -11 19 -8 10 3 22 0 25
-6 5 -8 -91 -11 -336 -9 -189 1 -324 3 -300 5 23 2 42 8 42 13 0 13 -93 0
-102 -14 -4 -6 -9 -4 -14 7 -3 9 -15 17 -25 17 -26 0 -24 17 4 23 12 3 77 4
145 2 79 -3 122 -1 122 6 0 6 30 8 88 3 48 -3 120 -5 160 -5z m1647 -9 c-17
-7 -14 -9 13 -9 19 -1 32 4 32 12 0 8 3 9 8 1 4 -6 22 -11 39 -12 40 -1 56 -9
46 -25 -3 -7 3 -4 14 6 21 18 63 23 63 7 0 -5 -5 -10 -11 -10 -5 0 -7 -4 -4
-10 8 -12 5 -12 -470 -11 -475 1 -708 4 -629 8 51 3 63 7 67 23 3 11 1 20 -4
20 -5 0 -9 -4 -9 -10 0 -5 -9 -10 -20 -10 -34 0 -22 17 16 25 20 3 166 5 325
4 159 -1 291 0 293 2 2 2 60 2 128 0 77 -2 116 -6 103 -11z m-5890 -50 c4 -6
11 -8 16 -5 12 8 11 -1 -1 -46 -11 -38 -45 -68 -90 -81 -20 -6 -18 -6 10 -4
19 1 41 5 49 7 8 2 17 -4 19 -14 3 -15 -2 -17 -47 -12 -47 4 -66 -5 -41 -20 6
-3 10 -12 10 -18 0 -7 -14 3 -30 21 -19 20 -30 27 -30 17 0 -10 -11 -15 -32
-16 -18 -1 -25 -3 -15 -6 9 -2 17 -8 17 -13 0 -5 8 -11 18 -13 9 -3 -3 -5 -28
-6 -28 0 -40 2 -32 8 11 7 10 10 -3 15 -26 10 -35 7 -35 -9 0 -8 5 -15 11 -15
5 0 7 -4 4 -10 -10 -16 -34 -12 -52 10 -10 11 -29 21 -43 21 -26 1 -19 4 43
14 24 4 37 11 37 22 0 13 9 15 53 11 28 -3 46 -3 40 -1 -23 8 -14 18 18 19 45
2 74 21 88 61 10 27 15 32 22 22 6 -9 7 -2 3 19 -6 31 7 45 21 22z m2547 -134
c1 -50 3 -100 4 -111 1 -11 2 -48 3 -82 1 -59 3 -63 24 -63 23 0 47 -17 47
-33 0 -4 -4 -5 -10 -2 -5 3 -10 1 -10 -6 0 -8 -4 -8 -13 -1 -17 15 -32 2 -34
-28 -4 -77 -3 -188 3 -207 4 -16 2 -23 -7 -24 -8 -1 -162 -3 -344 -4 -181 -2
-337 -4 -345 -5 -16 -2 -23 -40 -8 -40 4 0 8 -4 8 -10 0 -16 -40 -11 -47 6 -3
8 -12 13 -20 10 -9 -4 -19 5 -27 24 -7 17 -15 27 -19 23 -4 -3 -7 6 -7 21 0
25 3 27 24 22 14 -3 172 -7 353 -7 l328 -2 5 84 c3 46 3 182 0 302 l-5 218 30
8 c60 15 65 8 67 -93z m6312 -101 c2 -82 -2 -211 -10 -285 -7 -74 -13 -144
-14 -155 -1 -12 -5 -6 -10 15 -5 19 -6 38 -4 42 3 5 0 8 -7 8 -7 0 -9 10 -5
30 3 17 1 30 -4 30 -6 0 -10 7 -10 15 0 8 7 15 15 15 19 0 20 16 2 27 -20 12
-41 152 -27 187 5 15 8 32 5 36 -8 12 17 50 32 50 6 0 14 -8 17 -17 3 -10 4
34 2 97 -3 84 -1 107 6 85 5 -16 11 -97 12 -180z m-576 173 c2 7 10 12 18 12
25 0 84 -44 84 -62 0 -10 5 -18 10 -18 13 0 13 -57 -2 -119 -12 -52 -46 -88
-73 -77 -8 3 -16 0 -19 -7 -3 -8 -7 -9 -13 -2 -4 6 -21 12 -38 14 -34 3 -45 9
-45 20 0 10 81 8 98 -3 8 -5 12 0 12 13 0 11 9 25 20 31 14 8 19 19 17 48 -3
49 -22 48 -62 -4 -17 -22 -36 -39 -43 -36 -7 2 -12 -1 -12 -7 0 -6 -6 -8 -14
-5 -20 8 -27 44 -10 51 8 3 14 9 14 14 0 8 20 36 49 66 7 7 10 17 7 21 -4 3
-11 0 -17 -8 -8 -13 -11 -13 -23 3 -7 9 -17 17 -22 17 -15 0 -35 38 -24 45 6
3 10 0 10 -7 0 -8 5 -6 11 5 10 17 12 17 37 1 18 -12 27 -13 30 -6z m-355 -25
c3 -5 1 -17 -3 -28 -4 -11 -4 -33 1 -50 12 -46 17 -185 7 -191 -5 -3 -1 -12 9
-20 16 -12 16 -15 3 -23 -15 -11 -20 -117 -8 -193 4 -21 2 -40 -3 -43 -12 -8
-12 -75 0 -75 5 0 4 -11 -2 -24 -17 -35 -21 -24 -23 52 -3 175 -15 508 -19
520 -2 6 0 12 5 12 5 0 6 16 3 35 -4 28 -2 35 10 35 9 0 18 -3 20 -7z m-4528
-34 c4 -10 3 -23 0 -29 -3 -5 0 -10 7 -11 7 0 4 -4 -7 -9 -17 -7 -16 -9 10 -9
43 -2 12 -20 -35 -22 -29 0 -31 -2 -15 -9 15 -6 6 -9 -34 -9 -46 -1 -52 -3
-41 -16 11 -13 8 -15 -13 -15 -14 0 -32 7 -41 15 -8 8 -30 14 -48 14 -27 -1
-29 -3 -8 -6 51 -9 46 -25 -7 -21 -50 4 -87 18 -46 18 11 0 20 7 20 15 0 9
-10 15 -24 15 -14 0 -23 6 -23 15 0 12 17 15 96 15 l96 0 -4 25 c-6 30 6 42
47 47 43 5 64 -2 70 -23z m1933 -103 c27 -29 44 -136 21 -136 -11 0 -11 -2 1
-10 9 -6 10 -10 3 -10 -12 0 -29 -63 -24 -89 1 -9 -3 -12 -13 -8 -10 4 -13 1
-9 -9 3 -9 12 -13 21 -9 8 3 21 -3 28 -14 8 -11 32 -22 54 -26 88 -15 32 -25
-136 -25 -149 0 -175 2 -171 14 3 8 1 17 -6 20 -7 2 38 5 98 6 61 1 104 4 97
7 -6 2 -10 9 -6 14 3 5 1 9 -5 9 -5 0 -11 -6 -14 -12 -3 -9 -11 -5 -24 11 -18
22 -20 37 -17 120 2 53 6 113 9 134 6 34 10 37 38 37 21 0 40 -9 55 -24z
m-2428 -71 c7 -9 10 -18 6 -22 -3 -3 -6 -1 -6 5 0 6 -6 10 -12 8 -7 -3 -25 -7
-39 -10 -28 -6 -34 -32 -12 -54 10 -10 21 -11 45 -3 90 27 221 39 276 26 25
-6 30 -36 8 -54 -10 -9 -20 -9 -40 0 -14 7 -26 16 -26 20 0 4 -6 9 -14 12 -11
4 -13 -1 -10 -23 8 -45 -42 -62 -80 -28 -10 9 -25 14 -32 11 -12 -4 -11 -8 3
-18 15 -12 15 -13 -5 -19 -12 -4 -22 -14 -22 -22 0 -8 -9 -14 -21 -14 -11 0
-17 -4 -14 -10 3 -6 -1 -7 -9 -4 -19 7 -19 9 -5 35 10 19 9 19 -10 9 -12 -6
-21 -15 -21 -20 0 -6 -4 -10 -10 -10 -5 0 -7 7 -4 15 4 8 1 21 -5 29 -6 7 -8
16 -4 19 3 4 1 7 -5 7 -20 0 -42 -31 -42 -59 0 -40 -21 -55 -54 -40 -14 7 -26
17 -26 23 -1 28 -20 -23 -20 -53 0 -33 0 -33 25 -17 30 20 35 20 35 1 0 -14 3
-14 25 1 14 9 29 12 37 8 20 -13 155 -5 191 10 20 9 25 15 15 15 -10 1 -18 6
-18 11 0 10 2 11 35 15 11 1 31 6 45 10 21 7 23 6 12 -7 -10 -13 -9 -16 9 -21
16 -4 19 -2 15 10 -4 10 -2 13 8 10 7 -3 25 1 40 8 31 16 116 15 116 -1 0 -6
11 -16 24 -22 19 -9 25 -8 30 4 3 8 3 21 0 29 -8 19 1 19 32 -1 23 -16 24 -16
18 2 -4 11 -4 16 1 12 4 -4 21 0 36 9 16 9 31 14 35 11 10 -11 -7 -68 -21 -68
-7 0 -15 -6 -18 -12 -3 -9 -10 -7 -21 7 -17 19 -17 19 -4 -5 7 -14 11 -28 10
-32 -1 -5 17 -7 40 -6 37 1 39 2 11 5 -36 5 -43 18 -15 27 20 7 44 54 35 69
-3 5 0 7 8 5 8 -3 13 -12 11 -22 -2 -12 5 -16 28 -16 16 0 30 -4 30 -10 0 -5
-4 -10 -9 -10 -5 0 -8 -8 -7 -17 1 -12 -8 -19 -24 -22 l-25 -4 25 -8 c14 -4
-45 -7 -130 -7 -89 1 -136 4 -110 7 l45 7 -57 4 c-44 4 -54 2 -46 -7 13 -16
-4 -17 -19 -2 -6 6 -38 9 -77 7 -36 -1 -66 0 -66 3 0 3 -7 6 -15 6 -8 0 -15
-4 -15 -9 0 -4 -22 -8 -49 -8 -28 0 -53 -5 -57 -12 -4 -7 -3 -8 5 -4 6 4 19 2
28 -6 14 -11 16 -11 9 0 -6 11 0 13 30 11 22 -2 42 -8 46 -14 5 -6 8 -5 8 3 0
8 5 10 12 6 7 -4 32 -7 57 -6 60 3 830 7 828 5 -1 0 -27 -6 -57 -11 -30 -6
-64 -14 -75 -17 -16 -6 -17 -5 -5 4 12 9 7 11 -20 6 -121 -19 -927 -20 -1000
-1 -14 3 -50 7 -80 7 -46 1 -110 20 -110 33 0 2 20 1 45 -2 40 -4 45 -2 45 16
0 13 -9 22 -26 26 -20 5 -25 12 -22 34 3 24 7 27 44 28 48 1 70 12 56 26 -6 6
-8 18 -4 27 7 18 63 71 76 71 4 0 5 8 2 17 -4 9 -1 20 6 25 22 13 75 9 88 -7z
m-3597 -3 c-7 -5 47 -9 120 -9 72 -1 159 -2 192 -3 33 -1 75 1 93 4 27 4 33 2
28 -9 -4 -12 -2 -13 15 -2 17 10 22 9 32 -4 7 -9 19 -19 27 -22 8 -4 -1 -5
-20 -3 -19 3 -29 2 -22 -1 6 -2 10 -9 6 -14 -3 -5 7 -9 23 -10 25 0 26 -1 8
-9 -13 -6 -15 -9 -5 -9 13 -1 13 -2 0 -11 -12 -7 -12 -10 -1 -10 7 0 11 -6 7
-15 -4 -10 4 -17 26 -23 17 -4 33 -14 36 -22 3 -13 2 -13 -6 -1 -10 15 -42 9
-42 -8 0 -5 9 -12 20 -16 19 -6 19 -7 0 -40 -10 -18 -16 -36 -13 -39 7 -7 -16
-68 -31 -81 -19 -17 -36 -99 -23 -107 8 -5 5 -9 -8 -14 -11 -4 -25 -15 -32
-23 -10 -13 -12 -13 -13 -2 0 8 8 20 18 27 16 13 16 13 0 14 -10 0 -18 5 -18
11 0 7 -11 9 -29 6 -17 -4 -36 0 -48 8 -11 8 -23 12 -26 8 -4 -3 -13 0 -21 6
-8 7 -20 10 -27 6 -6 -4 -15 -1 -20 6 -6 10 -9 11 -9 1 0 -10 -4 -10 -20 0
-11 7 -20 18 -20 25 0 7 -6 13 -14 13 -8 0 -17 6 -19 13 -3 6 -6 2 -6 -9 -1
-12 6 -27 14 -34 8 -7 15 -19 15 -26 0 -8 7 -14 15 -14 12 0 15 -13 14 -57 -1
-32 -3 -50 -6 -40 -8 32 -33 19 -33 -18 0 -49 -29 -37 -31 14 -2 30 -3 31 -6
9 -2 -16 -8 -28 -13 -28 -5 0 -7 -7 -3 -16 4 -12 2 -15 -8 -12 -18 6 -21 68
-3 68 8 0 14 9 14 21 0 16 -4 20 -17 14 -14 -5 -15 -4 -6 6 9 9 15 9 26 0 11
-9 21 -9 43 0 l29 12 -32 9 c-18 5 -33 14 -33 21 -1 15 -46 67 -58 67 -5 0
-15 -7 -22 -15 -10 -12 -16 -13 -24 -5 -8 8 -7 13 4 20 12 7 13 13 3 28 -7 12
-8 24 -2 33 11 17 12 49 2 49 -11 0 -33 -51 -27 -61 3 -5 1 -9 -5 -9 -5 0 -12
6 -14 13 -3 6 -6 2 -6 -10 -1 -22 -31 -34 -31 -13 0 6 -7 10 -15 10 -18 0 -20
21 -3 38 9 9 7 13 -5 18 -12 4 -15 14 -11 37 3 24 2 27 -4 12 -7 -15 -10 -4
-14 45 -3 36 -1 73 4 82 7 14 5 16 -8 11 -12 -4 -15 -2 -10 8 3 8 9 22 12 32
4 10 13 16 20 13 8 -3 14 -1 14 5 0 6 7 8 16 5 11 -4 15 -2 11 8 -4 9 1 17 11
19 28 8 38 7 25 -1z m4230 -1 c14 -6 28 -19 32 -30 3 -12 13 -21 20 -21 8 0
25 -5 39 -11 21 -10 24 -16 19 -43 -3 -17 -12 -34 -19 -38 -7 -5 -10 -17 -7
-28 3 -11 10 -17 15 -14 5 3 7 13 3 23 -5 12 -3 13 6 4 13 -13 39 -7 57 15 18
23 15 35 -8 29 -11 -3 -18 -1 -14 4 3 5 -2 9 -11 9 -26 0 16 39 55 50 57 16
113 -27 90 -70 -14 -27 -13 -28 25 -36 29 -5 35 -11 35 -31 0 -16 -4 -22 -12
-17 -7 5 -8 3 -3 -6 4 -7 2 -16 -5 -20 -15 -9 -60 11 -60 28 0 6 -9 12 -20 12
-11 0 -20 6 -21 13 0 6 -5 1 -11 -13 -6 -15 -12 -20 -15 -12 -7 18 -21 15 -34
-9 -9 -17 -8 -23 2 -30 11 -7 11 -9 1 -9 -7 0 -17 11 -22 25 -5 14 -16 25 -25
25 -18 0 -19 -5 -5 -31 9 -16 7 -19 -14 -19 -17 0 -24 4 -20 13 3 8 -3 13 -15
13 -16 0 -17 -4 -10 -23 10 -26 7 -28 -20 -11 -18 11 -18 48 0 48 5 0 6 7 3
15 -4 9 0 15 7 15 10 1 9 5 -4 14 -10 8 -15 20 -11 29 4 11 -2 18 -19 22 -14
4 -28 13 -31 21 -6 17 -33 19 -38 3 -3 -8 -15 -6 -38 7 -32 17 -33 19 -12 22
24 4 31 22 7 22 -21 0 -19 27 3 39 22 13 73 14 105 2z m389 -53 c14 -13 28
-31 31 -40 6 -18 37 -26 37 -10 0 4 15 14 34 20 29 11 41 10 70 -2 20 -8 36
-22 36 -31 0 -9 5 -13 10 -10 18 11 40 -3 34 -20 -4 -8 -11 -14 -18 -13 -6 1
-22 -4 -35 -11 -23 -13 -23 -12 -17 13 4 18 2 26 -7 26 -22 0 -26 -10 -17 -40
7 -25 6 -28 -11 -27 -19 1 -28 27 -9 27 7 0 7 6 1 19 -6 10 -7 21 -4 25 3 3
-1 6 -10 6 -11 0 -23 -16 -33 -41 l-17 -40 -26 25 -27 26 1 -35 c2 -33 1 -34
-16 -19 -10 9 -25 14 -34 11 -8 -4 -15 -2 -15 3 0 6 6 10 13 10 9 0 8 3 -2 9
-11 7 -9 10 8 16 31 9 27 41 -6 49 -16 3 -39 15 -52 26 -19 17 -21 23 -11 35
18 22 63 18 92 -7z m3258 -135 c0 -23 -5 -45 -10 -48 -7 -4 -7 -11 -2 -18 5
-7 12 -117 16 -245 7 -232 10 -260 30 -274 6 -4 66 -8 133 -8 117 0 123 -1
134 -22 21 -39 41 -49 88 -42 25 3 67 14 93 25 27 10 57 19 68 19 25 0 50 -39
57 -89 l5 -40 -48 -14 c-27 -8 -87 -23 -133 -33 -68 -15 -88 -24 -104 -46 -12
-16 -27 -28 -34 -28 -19 0 -16 -8 15 -35 31 -28 60 -31 88 -10 18 14 18 14
-11 15 -23 0 -27 3 -15 10 12 8 12 10 -5 10 -11 1 2 8 28 17 31 11 44 19 35
24 -8 5 -4 11 15 18 16 6 34 11 40 11 7 0 24 6 39 14 25 13 28 13 42 -10 18
-26 21 -80 7 -89 -5 -3 -12 3 -14 12 -3 12 -5 9 -6 -8 -1 -30 14 -39 65 -39
l34 0 0 -55 c0 -58 -2 -60 -55 -69 -24 -5 -36 1 -67 31 -20 20 -35 40 -32 45
13 21 -13 4 -57 -37 -39 -37 -55 -45 -86 -45 -29 0 -34 3 -25 12 7 7 12 19 12
27 0 12 -3 12 -12 3 -17 -17 -38 -15 -38 4 0 8 -4 12 -10 9 -5 -3 -10 2 -10
13 0 10 -3 22 -7 26 -4 3 -8 17 -10 29 -6 41 -13 49 -34 44 -17 -4 -18 -3 -8
9 9 11 8 18 -5 32 -9 10 -16 25 -16 34 0 12 -9 15 -40 12 -39 -2 -39 -2 -38
34 1 53 -3 79 -9 65 -3 -10 -8 -9 -20 3 -19 19 -30 10 -13 -11 16 -19 6 -32
-13 -16 -9 7 -12 22 -9 38 3 18 1 24 -7 19 -6 -4 -10 -13 -9 -19 1 -7 -3 -22
-10 -34 -7 -13 -9 -23 -5 -24 4 0 -1 -4 -12 -9 -28 -12 -83 -12 -106 0 -16 9
-19 7 -19 -14 0 -14 -5 -28 -10 -31 -6 -4 -8 -10 -5 -15 3 -5 1 -11 -5 -15 -6
-4 -8 -9 -6 -13 2 -4 -6 -7 -17 -7 -12 -1 -36 -4 -53 -7 -29 -6 -32 -4 -41 25
-5 18 -15 31 -22 29 -7 -1 -10 2 -6 8 3 6 10 8 15 5 5 -3 11 -1 15 5 3 5 -2
10 -12 10 -15 0 -14 2 5 16 29 20 28 44 -1 44 -16 0 -30 -12 -47 -40 -14 -22
-28 -40 -32 -40 -14 0 -2 40 19 62 11 13 18 29 16 36 -6 14 8 16 25 2 8 -6 8
-5 -1 5 -7 9 -21 12 -35 8 -18 -4 -21 -8 -10 -15 10 -8 10 -9 -2 -5 -8 2 -14
10 -12 16 3 15 -15 14 -20 -1 -3 -9 -6 -9 -11 -1 -8 13 52 75 65 67 15 -9 8
-24 -10 -24 -10 0 -19 -7 -19 -15 0 -19 7 -19 37 2 31 21 40 34 33 46 -3 5 5
3 18 -4 23 -12 23 -11 9 6 -13 17 -13 18 1 13 9 -4 22 -1 28 5 23 23 19 -1 -5
-35 -29 -41 -26 -54 15 -63 16 -3 37 -15 47 -26 24 -26 34 -24 34 9 0 33 30
81 62 98 13 8 17 13 10 14 -7 0 -22 -5 -33 -11 -37 -19 -57 -19 -52 1 7 27
106 43 116 18 3 -8 6 -6 6 5 1 9 -4 17 -10 17 -5 0 -8 4 -5 9 3 4 1 23 -5 42
-6 19 -12 50 -14 70 -2 20 -8 46 -14 58 -8 14 -8 21 -1 21 15 0 12 29 -5 47
-8 8 -13 19 -10 24 4 5 1 9 -4 9 -6 0 -11 4 -11 10 0 5 7 7 16 3 13 -5 15 -2
10 14 -5 17 -3 20 17 16 22 -4 24 -1 25 39 0 29 -2 37 -7 24 -13 -33 -21 6
-10 50 11 51 11 56 -2 48 -8 -4 -9 1 -4 17 4 13 12 26 16 27 5 2 9 27 9 55 0
37 3 48 10 37 5 -8 10 -34 10 -57z m-2259 -44 c53 -8 73 -8 84 1 8 7 20 10 27
7 9 -3 6 -7 -7 -13 -11 -4 -24 -13 -28 -21 -4 -7 -18 -13 -30 -13 -44 0 -67
-4 -67 -12 0 -3 -16 -4 -36 -1 -19 3 -53 0 -74 -7 -32 -11 -45 -10 -72 1 -18
7 -39 14 -47 16 -18 2 -36 21 -28 29 23 23 170 30 278 13z m-471 -8 c0 -6 3
-10 8 -10 19 3 22 -3 12 -21 -6 -11 -19 -20 -28 -20 -10 0 -27 -7 -38 -15 -27
-18 -160 -33 -150 -17 4 7 3 12 -2 12 -16 0 -22 41 -6 47 8 3 11 10 7 16 -3 5
-2 8 3 5 5 -3 17 -3 27 1 32 12 167 13 167 2z m945 -41 l60 -7 -55 -3 c-50 -3
-51 -4 -15 -7 81 -8 51 -18 -53 -17 l-107 1 99 -6 c112 -7 139 -24 52 -35 -90
-10 -266 13 -266 35 0 5 24 9 53 9 28 0 58 4 66 9 8 5 -4 7 -32 4 -51 -6 -97
2 -97 17 0 12 204 12 295 0z m-985 -141 c52 -7 138 -13 190 -13 100 -1 136
-17 61 -27 -25 -3 -47 -11 -49 -18 -3 -9 -38 -10 -140 -4 -199 12 -696 8 -718
-6 -24 -13 -56 -12 373 -11 219 0 344 -3 348 -9 3 -6 -4 -13 -17 -15 -43 -9
-158 -12 -158 -4 0 4 -9 8 -20 8 -11 0 -18 -6 -16 -12 1 -7 1 -10 -1 -5 -7 11
-33 9 -33 -3 0 -5 -5 -10 -11 -10 -5 0 -7 5 -4 10 4 6 -13 10 -43 10 -71 0
-112 -10 -112 -27 0 -13 -4 -13 -26 2 -19 12 -37 15 -63 11 -20 -4 -48 -7 -63
-7 -16 0 -28 -5 -28 -12 0 -8 -4 -7 -11 3 -9 12 -10 11 -6 -8 3 -12 1 -20 -4
-16 -5 3 -9 14 -9 25 0 19 -5 20 -82 15 -46 -3 -90 -5 -98 -6 -8 0 -30 2 -49
6 -23 4 -36 2 -41 -7 -6 -9 -12 -10 -22 -2 -18 14 -57 23 -63 14 -2 -4 -25 -9
-50 -9 -29 -2 -44 2 -40 8 8 14 -5 13 -53 -4 -23 -8 -44 -11 -47 -6 -3 4 1 11
7 14 21 9 -475 -1 -497 -10 -17 -6 -18 -5 -8 7 10 12 -16 14 -188 14 -109 0
-199 -3 -199 -7 0 -5 -7 -8 -15 -8 -8 0 -15 5 -15 10 0 6 -17 10 -38 10 -28 0
-42 -6 -56 -25 -10 -13 -23 -22 -28 -19 -6 4 -7 -2 -3 -16 5 -17 4 -21 -5 -15
-9 5 -11 4 -6 -3 11 -18 24 -14 31 8 3 11 11 20 16 20 6 0 7 -10 4 -22 -12
-39 -23 -44 -54 -27 -27 16 -29 15 -41 -2 -13 -17 -15 -17 -41 2 -23 16 -28
17 -33 4 -3 -8 -14 -15 -25 -15 -11 0 -23 -4 -26 -10 -10 -17 -25 -11 -25 10
0 11 6 20 14 20 8 0 17 7 20 16 3 8 2 12 -3 9 -5 -3 -12 -1 -16 5 -3 5 -1 10
4 10 6 0 14 0 19 0 4 0 7 -7 7 -15 0 -24 19 -18 25 7 8 33 -21 44 -110 42 -41
-2 -108 -3 -147 -4 -65 -1 -73 -4 -73 -21 0 -10 5 -19 11 -19 5 0 8 4 4 9 -9
15 26 20 70 11 33 -6 35 -8 12 -9 -18 -1 -27 -6 -25 -13 7 -19 -24 -48 -50
-48 -18 0 -23 4 -18 15 14 38 -52 24 -86 -19 -10 -11 -18 -16 -18 -9 0 6 -25
17 -55 23 -30 6 -61 18 -69 26 -8 8 -20 14 -26 14 -6 0 -8 5 -5 10 3 6 1 10
-4 10 -14 0 -14 -13 1 -28 9 -9 9 -12 -3 -13 -9 0 -6 -4 6 -9 18 -8 17 -9 -8
-9 -16 -1 -39 10 -57 25 -29 27 -32 48 -5 37 8 -3 15 0 15 6 0 6 9 11 21 11
11 0 17 5 14 10 -3 6 -15 10 -26 10 -29 0 -24 35 10 59 31 22 61 28 61 11 0
-6 17 -10 38 -10 20 0 64 -3 97 -8 33 -5 98 -15 145 -22 91 -13 819 -18 840
-5 6 4 44 9 86 12 59 5 77 10 85 25 5 10 14 16 18 14 4 -3 37 -6 72 -6 114 -2
187 -11 193 -26 3 -7 0 -11 -7 -9 -7 2 -28 0 -47 -4 -25 -6 9 -9 117 -10 149
-1 151 -1 146 20 -8 31 12 39 107 40 47 0 150 6 230 13 207 17 605 20 720 5z
m1130 -49 c0 -5 5 -10 11 -10 5 0 7 5 4 10 -4 6 23 10 74 10 65 0 79 -3 75
-14 -13 -33 35 -44 198 -48 87 -2 158 -6 158 -10 0 -5 7 -8 15 -8 21 0 19 -8
-12 -41 -24 -25 -35 -29 -78 -28 l-50 2 40 7 40 7 -47 2 c-26 0 -50 -3 -53 -9
-3 -5 -16 -10 -28 -9 -16 0 -18 2 -7 7 17 8 19 20 7 39 -5 7 1 13 15 16 13 2
-20 4 -72 5 -52 1 -113 -4 -135 -9 -22 -6 -56 -14 -75 -19 -19 -4 -29 -8 -21
-9 8 0 11 -4 7 -8 -4 -4 -22 -6 -41 -5 -35 3 -56 -12 -30 -22 8 -3 15 -1 15 4
0 6 7 10 15 10 8 0 15 -5 15 -12 0 -9 3 -9 12 0 17 17 29 15 22 -3 -8 -20 -78
-20 -98 0 -11 11 -21 13 -40 5 -26 -9 -38 3 -13 13 6 3 0 6 -15 6 -19 1 -28
-4 -28 -14 0 -8 -7 -15 -16 -15 -8 0 -13 4 -10 9 3 4 -6 13 -19 19 -16 8 -25
8 -25 1 0 -5 6 -12 14 -15 19 -7 28 -32 15 -39 -5 -4 -8 -1 -7 7 2 9 -8 12
-37 10 -28 -2 -36 0 -26 7 12 8 12 12 2 25 -8 9 -10 16 -5 16 4 0 -1 6 -12 14
-17 13 -14 14 36 11 30 -2 74 -8 98 -13 31 -7 41 -7 33 1 -6 6 -11 16 -11 21
0 6 5 5 12 -2 16 -16 33 -15 19 1 -9 11 -69 13 -308 11 -350 -3 -345 -3 -359
-15 -6 -5 -19 -7 -27 -3 -14 5 -14 8 -2 20 9 10 39 14 100 14 47 0 94 4 104
10 20 10 35 11 231 8 134 -2 304 17 294 34 -3 4 2 8 10 8 9 0 16 -4 16 -10z
m-6388 -184 c2 -21 7 -26 20 -23 13 4 18 -1 18 -13 0 -11 4 -21 9 -25 25 -15
-14 -188 -51 -230 -12 -13 -10 -27 3 -20 23 15 68 100 58 111 -6 8 -5 14 5 17
23 9 28 -8 11 -39 -8 -16 -15 -40 -15 -54 0 -24 0 -24 14 -5 19 28 30 96 17
104 -7 5 -7 17 -2 36 5 17 10 22 10 13 1 -10 6 -18 12 -18 7 0 8 11 4 30 -4
19 -3 30 4 30 6 0 11 -9 11 -20 0 -11 5 -20 11 -20 5 0 8 -4 5 -9 -4 -5 0 -11
6 -14 9 -3 7 -11 -8 -28 -22 -26 -51 -115 -40 -126 3 -4 13 2 20 13 18 24 26
17 19 -19 -4 -22 -8 -25 -19 -16 -9 8 -14 8 -14 1 0 -6 5 -14 10 -17 13 -8 13
-45 0 -45 -6 0 -8 -10 -4 -24 3 -15 1 -25 -9 -29 -8 -3 -18 -22 -22 -43 -5
-28 -9 -34 -16 -23 -7 11 -9 9 -9 -8 0 -13 0 -26 1 -30 0 -3 -6 -10 -15 -15
-9 -5 -16 -18 -16 -29 0 -20 -19 -59 -34 -70 -4 -4 -3 -10 3 -14 9 -5 9 -10 0
-21 -6 -8 -8 -14 -5 -14 4 0 1 -6 -6 -14 -9 -10 -17 -11 -25 -4 -10 8 -13 3
-13 -20 0 -22 -6 -31 -21 -35 -20 -5 -21 -3 -15 39 6 50 -8 53 -19 4 -4 -17
-10 -28 -15 -25 -5 3 -11 -3 -13 -12 -3 -10 -5 -1 -6 20 -1 22 3 36 9 32 5 -3
12 7 15 22 3 15 10 47 15 71 14 58 13 69 -2 54 -6 -6 -17 -40 -24 -74 l-12
-63 -3 63 c-1 34 -3 77 -4 95 -2 35 34 197 61 267 9 25 20 84 23 132 5 60 13
93 24 106 10 11 17 35 17 57 0 44 18 37 22 -9z m7756 24 c35 0 42 -3 42 -20 0
-21 15 -27 25 -10 3 6 1 10 -4 10 -6 0 -11 4 -11 9 0 10 52 13 83 4 9 -2 17
-13 17 -24 0 -17 -16 -24 -42 -20 -5 0 -30 2 -57 3 -29 1 -47 6 -44 12 4 6 -1
6 -13 1 -34 -14 -74 -18 -74 -6 0 6 12 11 27 11 14 0 24 2 21 5 -9 9 -198 13
-192 4 3 -5 -5 -5 -18 0 -13 5 -73 12 -133 16 -61 4 -111 8 -113 10 -2 1 97 1
220 -1 123 -2 242 -4 266 -4z m-3740 -120 c6 0 9 7 6 15 -6 16 21 22 30 7 3
-5 18 -7 34 -4 16 2 43 -3 61 -12 32 -17 45 -5 14 13 -15 9 -16 10 -2 11 9 0
19 -3 22 -6 4 -4 32 -8 63 -10 61 -2 134 -31 134 -52 0 -14 -13 -9 -43 16 -13
12 -20 13 -29 4 -7 -7 -20 -12 -30 -12 -10 0 -18 -5 -18 -11 0 -6 9 -8 23 -3
29 9 44 12 34 7 -4 -3 -5 -8 -2 -12 2 -5 -13 -7 -35 -6 -22 1 -40 -2 -40 -6 0
-5 31 -9 69 -9 61 0 70 3 76 20 3 11 12 20 18 20 7 0 6 4 -3 10 -13 8 -13 10
2 10 9 0 24 3 34 7 11 4 15 3 11 -4 -4 -6 2 -13 13 -16 11 -3 20 -1 20 4 0 5
-5 9 -11 9 -5 0 -7 5 -4 11 5 7 13 5 24 -5 19 -17 36 -22 27 -8 -8 13 183 13
207 1 l20 -11 -22 -17 c-20 -16 -19 -16 38 -16 33 0 57 3 55 7 -3 5 0 8 5 8
16 0 9 24 -9 32 -12 5 -11 7 3 7 10 1 25 -6 33 -14 12 -12 12 -15 2 -16 -7 0
-4 -4 7 -9 11 -4 24 -4 29 0 5 5 15 6 22 3 8 -3 14 0 14 7 0 8 12 10 40 5 38
-6 57 6 28 18 -7 3 -3 6 10 6 15 1 26 -7 34 -23 13 -30 33 -39 56 -27 21 10
55 6 60 -8 2 -5 10 -7 18 -4 7 3 11 9 8 14 -3 5 4 9 16 9 12 0 19 -4 16 -8 -3
-5 16 -9 41 -10 26 0 42 3 37 6 -5 4 -10 13 -11 19 -4 18 47 7 134 -28 76 -31
131 -41 81 -15 -15 8 -40 17 -57 21 -17 4 -31 13 -31 21 0 8 -7 14 -15 14 -8
0 -15 5 -15 11 0 6 7 9 15 6 8 -4 17 -2 20 3 12 19 26 10 21 -12 -3 -13 -3
-17 0 -10 4 8 10 9 17 4 21 -16 58 -21 84 -11 14 5 31 5 40 0 14 -8 14 -10 -5
-22 -31 -20 -27 -30 9 -22 20 4 34 1 39 -7 6 -9 13 -9 28 -1 16 8 21 7 26 -4
4 -11 15 -13 38 -9 22 4 29 3 20 -4 -11 -7 -10 -10 3 -16 31 -11 55 -7 49 9
-5 11 1 15 20 15 17 0 26 -5 26 -16 0 -8 4 -13 9 -9 5 3 12 1 16 -5 3 -5 16
-11 28 -11 16 -1 14 -3 -8 -8 l-30 -6 30 -12 c17 -6 39 -15 50 -19 17 -6 14
-8 -15 -14 -34 -6 -34 -6 -10 -15 14 -5 29 -8 34 -6 16 4 88 -11 81 -17 -9 -9
-95 -13 -95 -5 0 5 -20 8 -44 8 -24 0 -43 2 -41 5 2 3 -17 6 -42 7 -46 2 -78
21 -88 54 -4 11 -10 19 -15 19 -12 0 -1 -30 18 -53 19 -22 113 -51 215 -66 27
-4 52 -13 56 -20 5 -8 18 -10 34 -5 34 8 80 -3 75 -18 -5 -14 -59 -16 -173 -6
-49 5 -105 9 -122 10 -18 1 -33 5 -33 10 0 5 -7 2 -16 -6 -10 -11 -36 -17 -77
-18 -51 -1 -54 -2 -17 -5 25 -2 61 -6 80 -9 30 -6 32 -8 15 -15 -12 -5 -1 -5
28 -2 31 4 47 2 47 -5 0 -21 -34 -30 -100 -27 -36 2 -172 4 -303 5 -133 1
-235 5 -232 10 3 5 -14 11 -37 13 -37 3 -35 4 17 6 43 2 54 5 40 11 -11 4 -40
6 -65 4 -29 -2 -38 -1 -25 4 59 24 89 41 70 42 -11 0 -34 -4 -52 -9 -17 -5
-48 -6 -67 -1 -20 4 -34 4 -31 0 3 -5 -8 -5 -24 0 -17 5 -44 6 -61 4 -17 -3
-30 -1 -30 5 0 6 6 12 13 13 6 0 17 2 22 2 6 1 16 5 23 9 6 5 17 5 22 2 14 -9
50 4 50 17 0 6 -3 9 -6 5 -4 -3 -21 -1 -38 6 -17 7 -40 12 -51 11 -97 -11
-132 -19 -147 -32 -27 -23 -12 -32 50 -32 49 -1 54 -2 37 -13 -11 -6 -31 -12
-45 -13 -14 -1 -56 -9 -95 -18 -66 -16 -137 -16 -200 0 -19 5 -23 9 -15 19 8
10 6 15 -9 20 -22 7 -61 -10 -61 -25 0 -6 -7 -10 -16 -10 -14 0 -14 1 0 16 9
8 16 20 16 25 0 6 5 7 12 3 8 -5 9 -2 5 9 -4 11 -1 17 8 17 8 0 15 4 15 8 0
16 -25 32 -49 31 -15 -1 -19 -3 -10 -6 11 -2 15 -11 12 -22 -3 -13 -11 -17
-24 -14 -10 3 -40 2 -66 -2 l-48 -8 29 -12 c20 -8 25 -14 15 -18 -9 -4 -7 -6
6 -6 11 -1 27 -6 35 -12 11 -7 6 -9 -20 -7 -24 2 -34 -1 -32 -9 1 -7 -7 -13
-18 -13 -20 0 -20 1 -4 25 9 14 12 25 6 25 -5 0 -12 -7 -16 -15 -3 -10 -20
-15 -48 -16 -24 0 -36 -3 -28 -6 8 -4 21 -12 28 -20 11 -11 10 -13 -7 -13 -11
0 -23 5 -26 10 -3 6 -16 10 -28 9 -20 -1 -20 -2 3 -9 22 -7 21 -8 -12 -9 -24
-1 -38 4 -38 12 0 9 -2 9 -9 -1 -10 -16 -256 -15 -285 2 -14 8 -20 8 -23 -1
-3 -7 -9 -13 -14 -13 -15 0 2 29 19 33 10 2 -10 3 -43 0 -43 -2 -54 -1 -40 6
14 7 -28 10 -130 10 -82 1 -157 6 -165 11 -11 7 -7 10 18 10 21 0 32 5 32 15
0 11 8 13 30 9 19 -4 30 -2 30 5 0 7 -25 11 -70 11 -60 0 -70 -3 -71 -17 -1
-17 -2 -17 -6 0 -5 19 -29 22 -67 7 -16 -6 -27 -6 -31 0 -4 6 -16 11 -28 11
-14 1 -9 4 13 9 l35 7 -45 3 c-42 3 -41 4 20 10 43 4 52 7 28 8 -33 2 -38 5
-36 25 1 16 14 29 40 42 47 23 49 39 5 32 -19 -3 -40 -1 -48 4 -11 7 -9 9 9 9
12 0 22 5 22 10 0 6 18 10 40 10 22 0 40 5 40 10 0 15 -31 25 -39 13 -9 -15
-71 -27 -71 -14 0 6 6 11 14 11 8 0 16 5 18 12 2 6 20 12 40 12 20 1 35 -1 32
-5 -2 -4 3 -10 12 -13 23 -9 57 12 50 31 -5 12 -1 14 21 8 15 -3 30 -11 34
-16 6 -11 74 -7 86 4 13 14 25 7 13 -8 -7 -9 -29 -15 -54 -15 -22 0 -66 -7
-96 -16 -30 -9 -71 -19 -90 -24 -22 -5 -27 -8 -13 -9 12 0 23 -6 25 -12 3 -8
15 -9 37 -4 21 4 29 10 22 15 -8 4 -3 11 16 18 49 19 89 23 131 14 48 -11 170
-1 180 15 4 6 20 15 35 18 15 4 27 13 27 21 0 8 9 14 20 14 11 0 20 -4 20 -10
0 -5 5 -10 11 -10 6 0 9 7 5 15 -6 15 7 19 53 15 16 -1 21 2 16 12 -3 7 0 5 8
-4 8 -10 19 -18 25 -18z m-2988 -95 c19 0 90 -40 96 -54 17 -41 21 -93 8 -98
-8 -3 -14 -13 -14 -22 0 -14 2 -14 10 -1 7 11 10 11 10 2 0 -7 5 -10 10 -7 7
4 9 -2 5 -18 -4 -14 -2 -28 4 -31 6 -4 11 -20 11 -36 0 -21 -5 -29 -17 -29
-10 1 -42 -4 -71 -9 l-53 -9 2 31 c2 17 0 50 -5 74 -5 29 -4 47 4 57 7 8 10
15 6 15 -28 0 -43 25 -42 69 1 23 6 35 14 34 6 -2 12 3 12 10 0 7 -6 19 -12
26 -11 11 -10 12 2 5 8 -5 17 -9 20 -9z m135 4 c-4 -6 -1 -9 6 -8 8 2 25 -3
39 -11 14 -7 26 -13 28 -12 8 6 42 1 39 -5 -3 -5 20 -8 50 -8 48 0 59 -4 91
-34 20 -19 32 -36 26 -38 -17 -6 -5 -41 17 -48 12 -4 16 -12 12 -23 -5 -11 -8
-12 -11 -4 -3 10 -7 10 -18 1 -10 -8 -17 -7 -29 5 -21 20 -34 20 -42 0 -5 -13
-9 -12 -27 5 -12 12 -36 24 -54 27 -18 4 -29 11 -25 17 4 6 0 8 -8 5 -8 -3
-22 5 -32 18 -10 13 -13 24 -7 24 21 0 9 28 -15 32 -26 6 -43 -6 -25 -17 5 -3
10 -14 10 -23 0 -12 -4 -10 -17 8 -9 14 -23 29 -30 33 -20 12 -4 29 20 21 21
-6 21 -6 3 8 -16 13 -16 38 0 38 3 0 2 -5 -1 -11z m517 -150 c6 -22 14 -39 17
-39 4 0 8 -12 9 -27 1 -16 7 -29 12 -31 6 -2 10 -10 10 -17 0 -7 6 -16 13 -18
6 -3 3 -6 -8 -6 -25 -1 -65 45 -59 67 5 14 3 14 -6 -1 -20 -31 12 -83 56 -92
44 -8 88 -38 103 -71 9 -20 8 -26 -3 -30 -14 -5 -43 -12 -60 -13 -4 -1 -5 -12
-2 -26 5 -18 2 -25 -8 -25 -8 0 -19 -8 -25 -17 -5 -10 -13 -14 -17 -10 -5 4
-3 17 4 27 11 17 10 20 -8 20 -11 0 -19 -4 -17 -9 3 -13 -43 -51 -63 -51 -9 0
-21 -5 -27 -11 -6 -6 -21 -8 -33 -4 -17 5 -20 12 -16 31 7 25 -17 46 -41 37
-19 -7 -16 15 8 65 15 31 32 48 55 58 35 15 41 28 24 54 -7 11 -10 11 -10 2 0
-7 -5 -10 -10 -7 -8 5 -7 12 1 22 10 12 10 16 -2 24 -12 7 -12 9 1 9 13 0 13
1 0 10 -13 8 -11 12 9 26 21 15 21 18 7 26 -17 10 -22 38 -7 38 22 0 39 -13
34 -26 -3 -8 0 -14 6 -14 6 0 11 5 11 11 0 5 5 7 10 4 15 -9 12 7 -5 29 -20
27 -19 35 5 29 12 -3 24 -20 32 -44z m403 11 c3 -11 4 -29 0 -40 -3 -11 -4
-24 -1 -28 3 -5 45 2 93 14 115 31 159 32 167 2 3 -13 6 -31 6 -41 0 -17 -2
-17 -22 -3 -20 14 -24 14 -43 -4 -23 -21 -122 -66 -145 -66 -31 2 -48 -29 -43
-76 7 -65 -9 -91 -53 -84 -37 6 -74 26 -74 39 0 5 -7 6 -16 3 -18 -7 -84 19
-84 33 0 6 -11 27 -25 47 -31 45 -34 73 -5 44 12 -12 33 -20 55 -20 29 0 36
-4 41 -25 7 -27 18 -32 30 -14 3 6 0 15 -7 20 -23 15 9 29 65 29 34 0 56 6 70
19 12 10 58 33 103 51 46 18 80 36 77 41 -3 5 7 9 23 10 15 0 22 3 15 6 -36
14 -216 -42 -190 -59 7 -4 -1 -5 -18 -2 -26 5 -32 2 -37 -15 -6 -23 -45 -36
-82 -27 -18 5 -27 15 -32 36 -6 35 -23 30 -23 -6 0 -18 -5 -24 -17 -22 -10 2
-22 8 -26 13 -6 6 -10 5 -14 -4 -5 -11 -7 -11 -14 0 -7 12 -9 11 -9 -1 0 -24
-48 38 -55 72 -7 32 5 48 36 48 9 0 22 6 28 14 9 11 39 15 116 15 95 1 104 -1
110 -19z m984 -34 c0 -26 -2 -28 -9 -11 -7 16 -9 17 -9 3 -1 -9 4 -20 9 -23 6
-3 10 -15 10 -26 0 -10 5 -19 10 -19 6 0 10 -7 10 -16 0 -8 3 -13 8 -11 4 3 7
-31 8 -74 0 -57 -3 -79 -12 -79 -22 0 -25 -18 -10 -49 14 -25 14 -30 1 -35 -8
-3 -14 -16 -14 -28 l2 -23 4 23 c2 12 11 22 20 22 11 0 14 -6 9 -24 -3 -14 -1
-28 5 -32 11 -7 7 -230 -5 -241 -3 -3 -16 19 -30 48 -17 36 -25 47 -26 32 0
-17 -4 -21 -16 -16 -14 5 -16 1 -12 -25 2 -17 0 -34 -6 -37 -7 -3 -7 -7 2 -11
6 -3 9 -11 6 -16 -4 -7 -2 -8 4 -4 7 4 10 21 6 42 -3 22 -1 34 6 34 7 0 10 -7
6 -15 -3 -8 -2 -15 2 -15 4 0 5 -25 4 -55 -3 -43 -1 -55 10 -53 7 2 16 8 20
13 5 6 8 3 8 -7 0 -9 6 -19 13 -21 9 -4 9 -8 -2 -15 -18 -13 -21 -72 -3 -72 6
0 12 -4 12 -10 0 -5 -3 -10 -7 -10 -10 0 -53 42 -53 51 0 19 -51 58 -67 52
-12 -5 -14 -3 -8 7 5 9 4 11 -3 6 -7 -4 -9 -20 -5 -39 5 -27 3 -30 -8 -19 -17
16 -22 83 -9 118 9 22 8 25 -5 20 -12 -4 -15 4 -14 47 1 29 3 43 6 32 3 -11 9
-24 14 -29 14 -16 11 16 -6 48 -8 15 -15 37 -15 47 0 10 -4 21 -10 24 -5 3
-10 41 -10 83 0 51 3 72 10 62 8 -12 10 -12 15 2 4 9 5 22 4 29 -1 8 0 21 4
29 3 8 8 33 12 54 4 26 9 35 15 27 5 -9 9 -10 14 -2 4 6 0 14 -8 17 -9 3 -16
14 -17 23 0 9 -5 3 -11 -13 -8 -21 -13 -25 -19 -15 -6 10 -9 5 -10 -16 l-1
-30 -9 35 c-9 36 -10 170 -1 204 5 18 6 18 18 1 10 -13 10 -23 3 -38 -7 -12
-7 -22 -2 -26 6 -3 13 -13 17 -21 3 -8 4 1 1 20 -4 31 -3 33 9 18 19 -26 36
-22 36 7 0 14 5 25 10 25 6 0 9 -5 8 -12 -2 -6 5 -14 15 -16 15 -3 18 0 12 17
-9 28 2 58 20 58 10 0 15 -10 14 -31z m4278 -46 c43 -6 89 -15 103 -20 41 -14
91 -20 85 -11 -3 6 6 6 22 1 34 -11 221 -52 248 -55 113 -12 165 -28 133 -40
-9 -4 -26 -1 -37 5 -12 6 -26 8 -31 5 -5 -3 -28 -1 -52 5 -24 6 -54 13 -68 16
-14 2 -34 6 -45 9 -11 2 -48 8 -82 14 -34 5 -67 12 -72 16 -6 3 -25 7 -43 9
-18 2 -62 7 -98 11 -36 4 -72 11 -80 14 -8 4 -44 6 -80 5 -104 -3 -100 12 7
25 6 0 47 -4 90 -9z m634 -10 c21 0 28 4 23 12 -5 8 -2 9 12 3 10 -4 28 -8 39
-8 31 -1 119 -67 106 -80 -8 -8 -15 -7 -23 1 -7 7 -25 12 -40 12 -16 0 -28 6
-28 13 0 6 -5 4 -11 -6 -6 -11 -18 -15 -32 -12 -12 3 -42 7 -67 9 -72 6 -108
17 -125 36 -12 13 -13 18 -3 17 45 -2 78 4 73 13 -4 7 3 7 20 0 15 -6 40 -10
56 -10z m-5455 -81 c43 -11 44 -12 28 -30 -16 -18 -16 -19 19 -19 35 0 37 -2
37 -31 0 -22 -5 -32 -20 -36 -19 -5 -18 -6 3 -35 15 -21 18 -32 10 -35 -7 -2
-9 -11 -6 -19 3 -8 -5 -17 -21 -24 -16 -6 -26 -17 -26 -30 0 -13 -7 -20 -20
-20 -12 0 -20 -7 -20 -16 0 -13 -11 -15 -63 -13 -35 1 -68 -1 -74 -4 -6 -4
-11 -1 -10 6 1 45 -4 51 -18 20 -11 -27 -20 -33 -45 -33 -20 0 -30 5 -30 15 0
8 -9 24 -20 35 -30 30 -25 40 20 40 22 0 40 4 40 10 0 5 12 16 26 23 26 13 26
14 5 20 -11 3 -21 2 -21 -2 0 -4 -9 -7 -20 -8 -11 -1 -20 1 -20 5 0 8 67 53
76 51 4 0 11 5 15 13 7 10 9 8 9 -7 1 -19 1 -19 11 -1 7 10 7 21 2 25 -12 9
-33 59 -33 81 0 16 9 20 58 23 31 2 58 4 60 5 2 1 23 -3 48 -9z m3770 -56 l17
-38 6 30 c7 33 15 26 26 -22 3 -18 11 -33 16 -33 5 0 9 -5 9 -11 0 -5 -4 -7
-10 -4 -5 3 -10 -3 -10 -14 0 -12 3 -21 8 -21 11 0 31 -49 22 -55 -4 -2 -4
-23 0 -45 4 -23 3 -43 -2 -46 -14 -9 -17 -3 -27 57 -8 44 -8 36 -4 -45 5 -75
3 -97 -6 -92 -6 4 -9 16 -6 27 5 15 1 19 -15 19 -19 0 -20 -5 -19 -57 1 -32 0
-62 -2 -68 -5 -16 12 -94 22 -101 5 -3 9 -12 9 -20 0 -8 -4 -12 -10 -9 -5 3
-10 -1 -10 -9 0 -9 5 -16 10 -16 6 0 10 -7 10 -15 0 -8 -3 -14 -7 -14 -24 4
-31 -5 -31 -41 -1 -23 -8 -47 -17 -56 -15 -15 -16 -13 -15 27 1 24 -1 170 -5
323 -6 213 -4 292 5 332 7 30 15 54 16 54 2 0 11 -17 20 -37z m-4818 -50 c18
-34 23 -92 11 -115 l-12 -22 -17 22 -18 22 -6 -26 c-4 -14 -4 -29 0 -35 9 -16
-16 -39 -45 -40 l-26 0 25 -10 c14 -6 41 -8 60 -6 58 8 73 -3 75 -56 2 -26 -1
-47 -6 -47 -5 0 -6 8 -3 18 4 9 -3 2 -15 -15 -11 -18 -26 -33 -32 -33 -6 0
-19 -10 -28 -22 -29 -34 -118 -29 -228 15 -48 19 -110 40 -138 46 -27 7 -58
19 -67 28 -10 8 -28 16 -42 16 -14 0 -35 10 -47 23 -18 19 -20 30 -14 61 8 45
37 89 64 96 10 2 70 -13 132 -34 127 -44 122 -43 114 -29 -3 6 4 10 16 10 20
0 21 3 14 55 -7 61 -17 54 104 80 84 19 119 18 129 -2z m5964 -12 c15 -1 17
-8 11 -48 -3 -27 -10 -49 -14 -51 -5 -2 -2 -10 6 -18 11 -12 12 -20 5 -35 -9
-15 -17 -18 -43 -12 -18 3 -45 6 -61 5 -18 -1 -37 6 -48 18 -17 18 -16 19 18
30 23 8 34 17 30 26 -3 7 3 18 12 23 14 8 14 10 2 11 -12 0 -13 2 -1 9 9 6 10
11 3 15 -23 14 -1 36 31 32 18 -2 40 -4 49 -5z m-5260 -58 c20 -25 22 -86 3
-122 -13 -25 -22 -31 -49 -31 -25 0 -35 6 -44 25 -16 35 -15 68 2 110 12 29
20 35 44 35 16 0 36 -8 44 -17z m-1305 -213 c4 -15 14 -20 38 -20 52 0 126
-17 180 -41 28 -12 53 -22 58 -21 4 1 7 -11 7 -27 0 -21 -8 -35 -27 -48 -36
-25 -113 -54 -124 -47 -5 3 -17 0 -28 -6 -11 -5 -22 -6 -25 -2 -5 9 -7 9 -244
-9 -209 -16 -417 -2 -520 37 -51 19 -72 31 -70 42 10 52 157 84 381 83 160 -1
329 13 355 29 14 8 12 9 -10 10 -33 0 -44 15 -21 29 28 16 44 13 50 -9z m371
-120 c41 0 92 -27 92 -49 0 -25 1 -25 -50 -5 -46 19 -68 11 -24 -8 16 -6 41
-20 55 -30 14 -9 29 -15 32 -12 3 3 8 1 12 -5 4 -7 -3 -11 -16 -11 -12 0 -30
-7 -39 -15 -28 -26 -133 16 -115 46 3 4 1 10 -5 14 -5 3 -10 0 -11 -7 0 -7 -5
-2 -10 11 -11 28 7 59 25 41 5 -5 16 -10 23 -10 23 0 14 18 -17 37 -38 22 -40
37 -2 17 15 -7 37 -14 50 -14z m-1173 -430 c-6 -9 14 -14 43 -11 10 2 11 -2 2
-18 -12 -24 2 -28 20 -6 23 28 32 16 26 -32 -3 -27 -3 -41 1 -33 3 8 12 21 20
28 7 7 13 20 13 28 0 8 7 14 16 14 11 0 14 -5 10 -17 -6 -16 -6 -16 12 0 25
23 36 21 29 -3 -4 -16 -2 -18 13 -10 27 14 43 12 37 -4 -4 -9 2 -16 15 -19 20
-6 20 -6 1 -39 -19 -32 -21 -33 -83 -31 -44 1 -68 6 -75 17 -9 12 -13 12 -21
1 -8 -12 -15 -12 -44 2 -19 9 -39 15 -45 15 -5 -1 -10 12 -10 28 0 17 3 30 8
30 4 0 7 7 7 15 0 8 -5 15 -10 15 -7 0 -7 6 0 20 6 11 13 20 16 20 3 0 2 -4
-1 -10z m548 -210 c4 -3 8 -28 9 -54 1 -68 -21 -86 -107 -86 -36 0 -65 3 -65
8 0 4 21 7 46 6 38 0 47 3 53 20 5 11 6 28 3 38 -5 21 -40 24 -48 4 -3 -8 -12
-12 -20 -9 -17 6 -43 -24 -44 -50 0 -15 -7 -18 -32 -15 -27 2 -32 7 -30 23 2
11 7 22 12 25 4 3 10 15 14 26 9 29 35 51 82 68 38 14 110 12 127 -4z m7032
-100 c21 0 64 -48 67 -75 2 -23 -2 -29 -25 -36 -16 -4 -25 -4 -21 2 3 5 -6 5
-20 -1 -28 -10 -81 3 -106 27 -13 13 -13 16 3 27 9 8 15 20 12 27 -6 17 32 38
60 33 11 -2 25 -4 30 -4z m-7573 -49 c-11 -8 -3 -81 9 -81 5 0 14 10 18 23 8
19 10 20 16 5 9 -22 25 -24 25 -3 0 8 5 15 10 15 13 0 13 -16 0 -41 -9 -16 -8
-19 9 -16 10 2 27 9 37 17 11 9 15 10 10 3 -4 -7 -3 -13 3 -13 5 0 11 6 14 13
3 9 7 9 18 0 8 -6 37 -12 64 -14 61 -3 98 -29 105 -72 4 -23 10 -31 22 -29 12
2 16 -6 17 -30 0 -18 1 -44 2 -58 3 -54 -1 -70 -18 -69 -11 0 -13 3 -5 6 6 2
12 12 11 21 0 11 -2 12 -6 4 -2 -6 -9 -10 -14 -6 -5 3 -9 -6 -9 -20 0 -19 -7
-27 -25 -32 -14 -3 -25 -12 -25 -20 0 -8 6 -11 15 -8 8 4 16 2 16 -2 9 -69 8
-72 -21 -54 -11 7 -17 5 -22 -8 -6 -14 -7 -14 -7 4 -1 31 -12 36 -29 13 -11
-15 -22 -20 -41 -16 -33 7 -56 -6 -48 -25 3 -8 1 -21 -4 -29 -7 -11 -9 -11 -9
3 0 10 -20 27 -50 42 -27 14 -50 23 -50 21 0 -17 26 -55 36 -51 6 2 11 -3 10
-12 0 -9 12 -22 27 -30 l28 -14 -36 -19 -37 -20 -25 26 c-14 14 -29 25 -33 25
-4 0 -26 25 -49 56 -38 51 -42 62 -42 113 0 31 1 63 3 71 4 25 -14 174 -22
185 -10 12 6 55 20 55 5 0 10 15 10 34 0 19 4 37 9 40 5 4 7 -13 5 -36 -2 -24
-1 -35 2 -25 3 9 10 17 15 17 6 0 7 4 4 10 -10 16 14 50 31 43 9 -3 11 -9 6
-12z m9568 -148 c0 -92 0 -93 -29 -108 -17 -8 -42 -26 -57 -40 -15 -14 -36
-25 -48 -24 -21 0 -21 1 -1 10 18 8 17 9 -5 5 -14 -2 -33 -7 -42 -11 -14 -6
-18 -2 -19 16 -2 24 -2 24 -6 2 -3 -14 -12 -23 -23 -23 -23 0 -75 49 -63 60 4
4 40 10 78 14 72 5 170 30 192 48 7 6 9 15 5 22 -4 6 -7 44 -7 84 0 60 2 69
13 55 7 -11 12 -51 12 -110z m-8963 70 c2 -6 -2 -13 -9 -16 -7 -2 -5 -3 4 -2
10 2 21 -1 24 -6 3 -6 12 -6 22 0 22 12 52 -4 52 -28 0 -14 5 -18 20 -14 18 5
24 15 21 36 -3 18 28 5 35 -15 8 -22 8 -22 15 7 l7 30 1 -32 c1 -45 2 -47 10
-58 12 -17 13 -168 1 -160 -5 3 -10 -1 -10 -9 0 -9 5 -16 10 -16 6 0 10 -4 10
-10 0 -5 -7 -10 -15 -10 -8 0 -15 9 -15 21 0 11 -5 17 -10 14 -8 -5 -8 -65 0
-100 1 -5 2 -20 1 -32 -2 -32 -34 -19 -49 20 l-12 32 -16 -23 c-8 -12 -13 -26
-10 -31 4 -5 -1 -8 -11 -7 -22 3 -29 46 -7 46 12 0 10 5 -7 19 -19 16 -25 17
-27 5 -2 -8 -8 -11 -14 -7 -8 4 -9 0 -4 -13 18 -42 18 -54 1 -60 -9 -4 -21 -2
-28 5 -8 8 -8 11 1 11 7 0 3 9 -9 21 -11 11 -22 19 -23 17 -2 -1 -8 -12 -14
-23 -10 -17 -11 -17 -12 -3 0 9 -4 19 -9 22 -4 3 -6 -7 -4 -22 3 -26 3 -26 -8
-5 -7 13 -20 25 -30 28 -11 4 -19 15 -18 28 0 21 1 21 9 2 9 -20 9 -20 9 0 1
12 6 26 12 32 8 8 8 13 0 17 -6 4 -11 2 -11 -3 0 -19 -27 -12 -33 8 -3 14 -1
18 10 14 13 -5 13 -3 3 17 -13 25 -9 31 38 50 27 11 35 11 42 1 5 -9 7 -5 7
10 0 18 -5 24 -23 25 -15 1 -21 -3 -17 -12 8 -21 -7 -17 -28 8 -11 11 -19 33
-18 47 0 18 3 21 7 11 11 -24 42 -24 42 0 0 12 5 18 10 15 6 -3 10 3 10 15 0
12 -4 18 -11 15 -34 -21 -104 -8 -72 14 5 3 12 14 16 24 3 9 15 17 26 17 11 0
23 5 26 11 4 6 13 8 21 5 7 -3 16 -1 20 5 8 13 36 8 41 -8z m418 7 c3 -5 2
-10 -3 -10 -15 0 -25 -51 -13 -63 13 -13 14 -176 1 -197 -7 -12 -10 -11 -16 5
-4 11 -18 31 -30 43 -19 20 -21 27 -11 43 9 15 8 22 -6 36 -16 16 -17 16 -17
-1 0 -10 -8 -25 -17 -32 -17 -13 -17 -13 0 -14 13 0 17 -8 16 -32 -2 -31 -2
-31 -6 -5 -2 15 -11 27 -19 27 -24 0 -16 47 12 69 15 12 22 21 16 21 -5 0 -9
11 -8 25 1 28 18 29 22 1 3 -22 12 -31 21 -22 4 4 1 11 -7 17 -12 7 -11 10 8
15 12 4 22 13 22 21 0 10 -6 12 -21 8 -15 -5 -20 -3 -17 6 3 8 15 15 27 17 15
2 21 9 17 18 -6 16 19 20 29 4z m6291 -21 c29 -13 46 -30 53 -49 10 -32 2 -34
-42 -15 -24 10 -96 0 -132 -19 -59 -31 -88 -10 -60 44 31 59 106 76 181 39z
m-273 -75 c21 -4 37 -12 37 -20 0 -8 6 -11 15 -8 17 7 54 -32 55 -56 0 -13 1
-13 10 0 8 12 10 9 10 -12 0 -35 -10 -59 -22 -52 -5 3 -20 -4 -33 -16 -20 -19
-27 -21 -39 -11 -8 7 -20 10 -26 6 -18 -11 -76 15 -90 40 -7 14 -10 28 -7 31
4 4 -2 19 -13 34 -26 37 -26 39 13 55 37 17 40 17 90 9z m1792 -100 c24 -28
40 -32 26 -6 -9 16 -5 18 37 18 50 -1 70 -15 68 -50 -1 -16 -8 -21 -28 -21
-14 0 -29 -3 -33 -6 -8 -9 -123 -1 -155 10 -14 5 -44 14 -67 20 -41 11 -59 31
-28 31 8 0 15 4 15 9 0 16 -21 24 -32 13 -5 -5 -19 -7 -30 -4 -43 11 7 18 105
14 93 -3 104 -5 122 -28z m-1385 -20 c28 -26 50 -53 50 -60 0 -8 9 -14 19 -14
14 0 19 -6 18 -20 -2 -24 -13 -26 -25 -3 -13 22 -112 27 -112 6 0 -8 10 -18
23 -23 17 -7 18 -9 5 -9 -10 -1 -18 -5 -18 -9 0 -17 -77 -6 -110 15 -25 17
-30 23 -16 23 13 0 16 4 10 13 -12 16 -12 57 0 56 5 0 17 12 27 27 18 28 40
42 67 43 7 1 35 -20 62 -45z m1550 17 c0 -8 98 -6 107 3 3 2 18 0 34 -4 18 -5
27 -5 24 1 -4 5 1 9 9 9 8 0 18 -4 21 -10 3 -5 17 -10 29 -10 13 0 29 -6 35
-14 10 -12 6 -17 -21 -29 -39 -17 -226 -21 -245 -5 -15 12 -17 68 -3 68 6 0
10 -4 10 -9z m357 -291 c-2 -86 -5 -113 -17 -120 -11 -8 -12 -12 -3 -18 6 -4
11 -22 11 -40 -1 -26 -5 -32 -22 -31 -12 0 -16 3 -10 5 15 6 5 64 -12 64 -7 0
-18 8 -23 18 -6 9 -11 12 -11 6 0 -22 -28 -23 -33 -3 -4 15 -2 19 8 15 9 -3
12 0 8 11 -4 10 7 27 31 49 26 24 36 40 31 53 -3 10 1 24 10 31 12 10 13 15 4
21 -7 4 -9 14 -6 24 4 9 11 13 17 10 5 -3 10 -1 10 4 0 6 2 11 4 11 3 0 4 -50
3 -110z m-244 46 c-5 -8 -3 -8 8 0 8 6 22 9 32 5 17 -6 16 -9 -8 -35 -22 -24
-23 -27 -5 -21 23 7 27 -10 7 -34 -7 -9 -18 -33 -24 -54 -10 -32 -9 -36 2 -27
9 8 15 8 20 0 3 -5 2 -10 -4 -10 -14 0 8 -60 25 -67 17 -6 18 -29 2 -39 -7 -5
-9 -2 -5 9 3 8 0 20 -7 27 -17 14 -69 -8 -62 -26 3 -7 -2 -18 -9 -24 -12 -10
-17 -7 -25 16 -5 16 -17 42 -25 58 -9 16 -13 31 -10 34 3 3 5 -1 5 -9 1 -9 5
-7 13 6 12 21 14 26 16 51 0 8 5 13 10 10 16 -10 20 48 5 65 -8 9 -12 22 -10
30 25 70 26 71 41 59 8 -7 12 -17 8 -24z"/>
<path d="M1824 8988 c6 -10 16 -16 23 -14 6 3 13 1 15 -4 5 -13 146 -75 228
-99 105 -32 188 -60 236 -82 41 -18 54 -23 209 -79 50 -17 104 -38 120 -45 17
-7 41 -16 55 -19 14 -2 70 -20 125 -40 55 -19 180 -60 278 -92 120 -39 181
-64 188 -76 10 -18 53 -25 62 -10 2 4 2 1 0 -7 -2 -9 3 -12 16 -8 11 3 21 2
23 -2 7 -17 228 -65 228 -50 0 5 19 1 42 -7 23 -8 54 -16 68 -18 14 -2 38 -8
53 -15 16 -6 32 -9 37 -6 5 3 62 -6 127 -19 65 -14 152 -30 193 -36 41 -6 129
-20 195 -31 66 -10 221 -30 345 -44 124 -14 261 -30 305 -36 44 -7 98 -14 120
-17 22 -2 43 -9 47 -15 4 -7 11 -7 21 1 12 10 18 10 28 0 8 -8 25 -14 39 -15
58 -3 120 -16 120 -25 0 -5 5 -6 10 -3 6 3 10 1 10 -5 0 -6 4 -9 9 -5 12 7 30
-24 28 -45 -2 -25 14 -100 22 -100 4 0 9 26 10 58 1 31 6 59 12 60 5 2 9 10 9
18 0 11 4 12 16 6 9 -5 25 -7 36 -4 22 5 81 -54 71 -72 -3 -6 -3 -8 2 -4 4 4
14 0 21 -10 12 -16 13 -16 15 3 0 11 1 34 0 50 l-1 30 14 -35 c8 -19 15 -45
15 -58 1 -13 4 -21 9 -18 12 7 105 -13 112 -24 8 -12 40 -2 40 12 0 5 8 7 18
4 9 -3 32 -2 50 3 20 6 30 6 27 0 -14 -22 30 -6 69 26 24 19 54 36 68 37 16 1
24 7 21 14 -3 8 2 11 16 7 12 -3 21 -9 21 -14 0 -5 5 -9 11 -9 7 0 18 -8 25
-17 13 -17 15 -17 24 -1 8 13 17 15 39 8 16 -4 32 -6 35 -2 3 3 6 0 6 -7 0 -8
7 -10 20 -6 11 4 20 2 20 -4 0 -6 19 -11 41 -11 28 0 46 -6 55 -17 7 -10 14
-13 14 -7 0 9 41 27 52 23 2 0 15 4 29 9 24 10 27 7 39 -23 7 -19 20 -37 27
-39 8 -3 12 -2 9 3 -3 4 5 19 17 32 19 20 22 21 25 6 5 -24 22 -21 22 3 0 16
7 20 33 21 81 3 93 4 105 12 7 5 14 3 18 -7 6 -16 68 -12 92 7 22 17 62 -37
62 -85 0 -52 6 -46 13 12 3 24 10 46 16 48 7 2 21 14 32 26 l20 21 19 -25 c19
-25 20 -25 20 -3 0 34 17 37 34 6 8 -15 15 -23 16 -16 0 6 9 15 20 18 11 4 17
11 14 17 -5 8 -1 9 10 5 13 -5 17 -3 13 6 -3 8 0 14 6 15 7 0 26 4 42 7 17 4
53 7 81 8 28 1 57 7 65 13 8 6 46 12 84 12 39 1 85 6 103 11 18 6 45 6 61 1
25 -7 29 -6 24 8 -4 9 -2 13 5 8 6 -3 13 -2 16 3 3 5 15 7 26 4 11 -3 26 -1
33 5 7 6 30 13 50 15 20 2 43 9 50 15 8 7 17 8 23 3 5 -5 38 3 79 20 80 33
164 39 189 13 14 -14 15 -12 10 14 -5 25 -2 30 17 35 13 4 28 2 33 -3 14 -14
26 -12 26 3 0 7 13 18 30 24 l30 11 -16 -30 c-14 -28 -14 -30 3 -26 10 2 17
12 17 21 -2 15 5 17 40 13 22 -2 35 -2 28 1 -9 3 -6 11 9 24 25 22 32 24 138
39 41 6 80 15 86 20 7 6 15 7 18 3 4 -3 15 1 25 10 10 9 34 20 53 23 19 4 36
10 39 15 3 4 19 8 35 10 17 2 35 7 42 12 7 5 17 6 23 2 5 -3 10 -2 10 3 0 6 8
8 19 5 10 -3 22 0 25 6 4 6 15 11 24 11 9 0 51 14 92 31 179 73 310 120 320
114 5 -3 10 -2 10 2 0 5 16 17 36 28 30 16 37 17 45 4 6 -9 9 -10 9 -2 0 7 15
19 33 27 17 8 95 43 172 79 335 155 434 200 493 224 35 14 61 27 60 29 -16 15
-644 -195 -767 -256 -24 -12 -55 -22 -70 -23 -14 -1 -30 -7 -36 -13 -12 -12
-98 -46 -175 -69 -30 -9 -73 -23 -95 -30 -22 -8 -58 -17 -80 -20 -22 -3 -58
-12 -80 -20 -37 -13 -256 -62 -315 -70 -61 -9 -166 -40 -176 -52 -6 -7 -27
-13 -46 -13 -18 0 -61 -8 -93 -17 -33 -9 -76 -18 -95 -19 -77 -4 -178 -17
-240 -31 -36 -8 -92 -19 -125 -23 -33 -4 -78 -13 -100 -19 -22 -6 -65 -13 -95
-16 -30 -3 -71 -11 -90 -17 -44 -14 -120 -17 -120 -5 0 5 -6 5 -13 -1 -7 -6
-22 -11 -32 -11 -11 1 -46 0 -77 -1 -40 -2 -65 2 -83 14 -15 10 -25 12 -25 6
0 -7 -11 -10 -24 -8 -13 1 -31 -3 -39 -11 -22 -17 -64 -7 -88 22 -16 19 -18
20 -19 4 0 -21 -42 -40 -52 -23 -5 7 -8 4 -8 -7 0 -16 -8 -17 -80 -11 -71 5
-79 4 -74 -10 3 -9 3 -16 0 -16 -11 0 -76 74 -76 87 0 7 -5 13 -11 13 -5 0 -8
-4 -5 -9 3 -4 -7 -6 -22 -4 -25 4 -25 3 -9 -10 24 -20 22 -30 -4 -17 -16 9
-28 8 -53 -4 -18 -8 -45 -14 -62 -12 -16 2 -35 4 -41 5 -7 0 -13 13 -13 28 l0
27 -16 -22 c-10 -14 -26 -22 -44 -22 -16 0 -32 -5 -35 -11 -5 -6 -22 -8 -46
-4 -22 4 -45 3 -52 -2 -16 -13 -57 -14 -57 -2 0 5 -14 3 -32 -4 -18 -7 -48
-12 -65 -11 -18 1 -43 2 -55 3 -16 1 -34 18 -57 51 -35 51 -56 65 -84 55 -8
-4 -18 -2 -22 4 -9 16 -38 14 -32 -3 4 -10 -3 -12 -26 -10 l-31 4 30 -32 c16
-17 24 -28 17 -24 -6 3 -27 -1 -46 -10 -47 -23 -70 -14 -57 22 6 15 8 36 4 47
-6 19 -7 20 -19 3 -9 -11 -15 -13 -20 -6 -3 5 -11 8 -16 5 -5 -4 -9 -1 -9 4 0
25 -18 8 -33 -29 -8 -22 -20 -40 -25 -40 -12 0 -27 101 -19 130 3 11 1 23 -4
26 -5 3 -9 -17 -9 -45 0 -32 -6 -55 -16 -65 -8 -9 -13 -16 -9 -16 3 0 1 -9 -5
-20 -12 -23 -66 -28 -72 -8 -3 9 -9 8 -22 -5 -22 -21 -42 -22 -50 -1 -3 9 -7
52 -7 97 l-2 82 -7 -65 c-8 -70 -17 -101 -34 -112 -6 -5 -36 -6 -66 -3 -30 3
-109 7 -175 9 -66 3 -142 9 -170 15 -27 6 -102 15 -165 21 -102 9 -164 22
-315 62 -60 16 -229 38 -320 42 -44 1 -93 8 -108 14 -16 7 -40 12 -55 12 -15
0 -62 7 -105 15 -43 8 -97 17 -120 19 -23 3 -64 10 -92 16 -27 5 -70 12 -94
15 -24 3 -62 10 -85 16 -22 6 -48 12 -56 13 -8 1 -34 12 -58 25 -24 12 -51 21
-60 19 -9 -3 -36 4 -58 13 -31 13 -45 14 -53 6 -8 -8 -14 -8 -23 1 -7 7 -27
12 -45 12 -19 0 -48 7 -64 16 -17 8 -58 20 -92 25 -33 6 -65 13 -71 17 -17 10
-109 41 -124 42 -8 0 -80 25 -161 55 -85 32 -155 53 -164 49 -9 -3 -17 -2 -17
4 0 12 -66 38 -130 51 -93 20 -204 57 -278 93 -13 7 -39 11 -58 11 -19 -1 -37
3 -40 8 -3 5 -13 9 -23 9 -9 0 -23 6 -29 13 -7 6 -23 12 -36 12 -20 1 -22 -2
-12 -17z"/>
<path d="M5860 8853 c0 -7 -9 -13 -20 -13 -12 0 -20 -6 -19 -12 3 -25 -1 -39
-10 -33 -5 3 -12 1 -16 -5 -8 -13 -45 -13 -45 1 0 5 -4 7 -10 4 -10 -6 -13 3
-11 45 0 14 -2 19 -5 13 -3 -7 -12 -13 -20 -13 -8 0 -14 -6 -14 -13 0 -14 -31
-47 -43 -47 -3 0 -7 12 -9 28 l-4 27 -11 -26 c-7 -15 -15 -29 -20 -31 -4 -3
-3 -3 4 -2 6 2 13 -1 15 -5 2 -5 77 -11 167 -15 l163 -7 -6 38 c-11 58 -16 73
-29 74 -7 0 -22 2 -34 3 -14 2 -23 -3 -23 -11z"/>
<path d="M5275 7881 c45 -20 131 -51 142 -51 6 0 14 -12 17 -26 7 -25 8 -25
20 -9 10 14 28 18 70 19 31 1 56 -2 56 -6 0 -4 9 -10 20 -13 13 -4 20 -16 21
-33 0 -27 0 -27 11 -4 14 27 32 28 50 3 9 -13 19 -17 28 -11 7 4 19 6 26 3 6
-2 15 0 18 6 9 13 46 -8 46 -26 0 -15 16 -17 24 -4 4 5 34 3 72 -6 60 -14 67
-14 84 2 25 22 17 39 -29 60 -34 15 -55 18 -148 24 -12 0 -28 7 -35 15 -9 8
-33 13 -62 12 -36 -1 -51 3 -61 17 -11 15 -13 16 -18 2 -4 -10 -20 -15 -48
-15 -43 0 -119 19 -119 29 0 4 -19 7 -42 7 -24 0 -70 3 -103 7 -38 5 -53 4
-40 -2z"/>
<path d="M2120 3068 c-25 -5 -62 -10 -84 -12 -21 -2 -43 -9 -49 -15 -6 -6 -22
-11 -36 -12 -22 0 -20 -3 14 -17 33 -13 85 -16 310 -16 299 -1 405 9 405 35 0
24 -54 31 -271 34 -126 2 -232 5 -236 7 -5 3 -28 0 -53 -4z"/>
</g>
</svg>
