<?xml version="1.0" standalone="no"?>
<!DOCTYPE svg PUBLIC "-//W3C//DTD SVG 20010904//EN"
 "http://www.w3.org/TR/2001/REC-SVG-20010904/DTD/svg10.dtd">
<svg version="1.0" xmlns="http://www.w3.org/2000/svg"
 width="1280.000000pt" height="853.000000pt" viewBox="0 0 1280.000000 853.000000"
 preserveAspectRatio="xMidYMid meet">
<metadata>
Created by potrace 1.16, written by Peter Selinger 2001-2019
</metadata>
<g transform="translate(0.000000,853.000000) scale(0.100000,-0.100000)"
fill="#000000" stroke="none">
<path d="M0 4265 l0 -4265 6400 0 6400 0 0 4265 0 4265 -6400 0 -6400 0 0
-4265z m6056 2306 c-3 -4 -47 -11 -98 -15 -51 -4 -120 -11 -153 -16 -34 -6
-103 -14 -155 -20 -52 -5 -133 -14 -180 -20 -305 -36 -437 -49 -525 -54 l-100
-5 100 14 c106 14 192 24 475 55 96 11 211 24 255 30 44 6 145 17 225 24 80 8
149 14 153 15 5 0 6 -3 3 -8z m3031 -742 c-21 -5 -92 -16 -158 -24 -66 -8
-124 -17 -128 -20 -5 -2 -53 -9 -107 -15 -55 -6 -193 -24 -308 -41 -115 -16
-211 -28 -213 -25 -9 9 208 46 267 46 18 0 29 4 25 10 -3 6 -4 10 -1 10 2 0
40 7 83 15 95 18 122 18 68 -1 l-40 -14 50 5 c28 3 111 14 185 25 279 40 360
49 277 29z m1323 -80 c0 -11 -56 -22 -125 -25 -72 -2 -255 -32 -270 -43 -17
-13 -95 -30 -95 -20 0 10 -105 2 -135 -11 -11 -5 -58 -14 -105 -21 -47 -6 -87
-16 -90 -20 -4 -5 -22 -10 -42 -11 -20 -2 -34 -6 -32 -9 2 -4 -3 -9 -11 -13
-8 -3 -15 -1 -15 4 0 6 -7 10 -16 10 -9 0 -12 -5 -8 -12 5 -8 2 -9 -9 -5 -10
3 -17 3 -17 -2 0 -9 -37 -8 -46 2 -4 4 -18 7 -31 7 -13 0 -23 4 -23 9 0 6 8 9
18 9 9 -1 42 6 72 14 30 9 71 16 90 16 19 1 62 6 95 12 177 31 235 40 263 40
21 0 32 5 32 14 0 10 20 16 73 21 115 10 157 16 237 30 81 14 190 16 190 4z
m-1214 -128 c-3 -5 -18 -11 -33 -14 -16 -3 -64 -13 -108 -22 -44 -9 -106 -21
-137 -27 -32 -6 -63 -17 -70 -26 -11 -13 -9 -14 12 -8 14 4 41 11 60 16 19 4
52 13 73 18 27 7 37 7 37 -1 0 -8 3 -8 8 -2 4 6 18 11 32 12 55 3 119 16 115
23 -7 11 84 32 98 23 7 -5 -8 -12 -38 -20 l-50 -12 70 4 70 5 -50 -17 c-36
-12 -44 -18 -30 -21 11 -2 25 -9 32 -14 7 -5 22 -7 35 -3 15 5 19 4 13 -2 -11
-11 -85 -33 -106 -33 -8 1 2 9 21 20 l35 18 -35 -3 c-49 -5 -134 -28 -141 -39
-4 -5 -11 -6 -17 -2 -6 3 -13 2 -17 -4 -3 -5 -16 -10 -28 -10 -18 0 -19 2 -7
10 8 5 11 10 5 11 -5 0 4 7 20 14 26 12 27 14 8 15 -12 0 -32 -4 -45 -9 -51
-21 -64 -24 -85 -22 -14 2 -23 -3 -23 -11 0 -10 -2 -10 -9 1 -7 11 -18 11 -57
3 -27 -6 -67 -14 -89 -18 -22 -4 -42 -8 -45 -9 -3 0 -14 -6 -26 -12 -11 -7
-33 -14 -47 -17 -15 -2 -31 -7 -37 -11 -5 -3 -10 -2 -10 3 0 5 15 14 33 20
l32 10 -30 1 c-16 0 -61 -4 -100 -10 -38 -6 -97 -15 -130 -19 -33 -5 -82 -13
-110 -19 -67 -15 -195 -24 -195 -14 0 13 68 31 165 43 50 7 94 16 99 20 5 5
15 6 23 3 8 -3 31 -1 51 5 99 28 112 30 112 19 0 -9 2 -9 8 -1 4 6 23 14 42
17 19 4 94 20 165 37 103 23 386 82 428 89 5 0 6 -3 3 -8z m-1106 -239 c0 -12
-3 -13 -12 -4 -7 7 -16 8 -22 3 -6 -5 -24 -11 -41 -13 -22 -2 -29 -8 -27 -20
2 -11 -3 -18 -13 -18 -10 0 -13 5 -9 11 5 8 -3 10 -27 6 -19 -3 -106 -15 -194
-27 -88 -12 -216 -32 -285 -45 -69 -14 -168 -29 -220 -35 -52 -6 -142 -19
-200 -29 -58 -11 -136 -24 -175 -30 -38 -6 -135 -23 -215 -37 -80 -14 -163
-28 -185 -31 -22 -3 -42 -9 -45 -13 -3 -4 -21 -10 -40 -14 l-35 -6 30 14 c40
19 21 19 -61 1 -36 -9 -69 -14 -71 -11 -3 3 5 7 18 10 83 19 233 47 349 66 74
11 162 25 195 30 33 6 137 21 230 35 94 14 215 33 270 41 55 8 141 24 190 34
50 11 128 25 175 30 47 6 121 19 165 30 100 24 238 48 248 43 4 -2 7 -12 7
-21z"/>
</g>
</svg>
