<?xml version="1.0" standalone="no"?>
<!DOCTYPE svg PUBLIC "-//W3C//DTD SVG 20010904//EN"
 "http://www.w3.org/TR/2001/REC-SVG-20010904/DTD/svg10.dtd">
<svg version="1.0" xmlns="http://www.w3.org/2000/svg"
 width="853.000000pt" height="1280.000000pt" viewBox="0 0 853.000000 1280.000000"
 preserveAspectRatio="xMidYMid meet">
<metadata>
Created by potrace 1.16, written by Peter Selinger 2001-2019
</metadata>
<g transform="translate(0.000000,1280.000000) scale(0.100000,-0.100000)"
fill="#000000" stroke="none">
<path d="M0 6400 l0 -6400 4265 0 4265 0 0 6400 0 6400 -4265 0 -4265 0 0
-6400z m1920 5255 c105 -7 175 -6 270 4 123 14 327 14 335 1 3 -5 0 -10 -7
-11 -7 0 -2 -5 12 -11 14 -6 92 -11 177 -12 83 -1 153 -3 156 -6 2 -3 7 -14
11 -25 4 -15 -9 -36 -52 -82 -75 -82 -112 -128 -112 -141 0 -5 -7 -15 -15 -22
-12 -10 -23 -9 -57 2 -83 29 -85 29 -60 17 12 -7 22 -15 22 -19 0 -4 18 -10
40 -14 23 -3 39 -10 37 -14 -3 -4 -1 -16 4 -27 7 -19 8 -19 8 3 1 12 5 22 10
22 5 0 12 9 16 20 7 22 72 119 90 135 6 6 29 31 49 57 30 38 37 54 34 78 -3
16 -1 30 4 30 4 0 8 -7 8 -15 0 -8 5 -15 11 -15 6 0 9 7 5 15 -4 12 0 14 17
10 12 -3 51 -10 87 -15 36 -5 90 -14 120 -20 30 -7 71 -12 90 -12 19 0 38 -4
41 -10 4 -5 9 -2 12 7 5 10 3 14 -5 9 -7 -5 -8 -3 -3 6 6 10 12 7 25 -10 13
-17 24 -22 43 -18 15 3 24 1 21 -3 -3 -5 2 -9 11 -9 8 0 18 6 20 13 6 15 260
13 319 -4 33 -9 37 -14 33 -35 -2 -13 -1 -24 3 -24 7 0 44 -67 45 -82 1 -18
15 -17 24 1 8 13 17 18 28 14 12 -5 15 -2 10 10 -4 11 -1 17 8 17 8 0 15 -4
15 -10 0 -5 6 -10 13 -10 6 1 1 10 -13 22 l-25 21 25 -9 c14 -5 72 -8 128 -6
l104 3 31 -33 c18 -18 34 -32 37 -30 3 2 8 -7 12 -20 5 -17 7 -13 5 15 -3 36
-2 37 30 37 18 0 33 -3 33 -7 0 -5 25 -8 55 -8 30 0 55 2 55 3 0 2 -7 16 -16
32 -12 19 -31 31 -65 40 -27 8 -49 17 -49 22 0 12 25 10 56 -7 16 -8 36 -15
45 -15 9 0 33 -11 53 -25 29 -19 38 -22 42 -11 3 8 13 12 23 9 10 -2 24 1 32
9 17 16 24 17 155 25 92 5 102 4 120 -14 40 -42 151 -104 183 -102 10 0 11 2
4 6 -7 2 -13 13 -13 23 0 11 -11 27 -24 37 l-24 18 97 22 c81 19 102 20 136
11 22 -7 43 -16 46 -21 4 -5 9 -5 13 1 4 6 14 8 22 5 13 -5 13 -7 2 -15 -8 -6
-5 -7 12 -3 14 3 69 11 123 18 86 12 99 12 107 -2 6 -12 11 -13 23 -3 10 9 17
10 22 2 3 -5 -1 -10 -9 -10 -9 0 -16 -7 -16 -16 0 -11 -5 -14 -16 -10 -10 4
-23 -3 -35 -18 -11 -14 -28 -28 -39 -31 -11 -4 -20 -11 -20 -17 0 -6 -7 -20
-17 -30 -15 -17 -15 -18 0 -18 19 0 23 -15 6 -26 -7 -4 -8 -9 0 -17 7 -7 5
-14 -6 -22 -13 -10 -13 -14 -3 -20 9 -6 11 -4 5 5 -5 8 -4 11 3 6 6 -4 9 -13
6 -20 -3 -7 6 -27 20 -44 15 -16 26 -33 26 -38 0 -4 -14 11 -32 34 -43 56 -55
54 -17 -3 25 -37 28 -48 19 -67 -10 -21 -10 -21 3 -5 11 13 17 15 25 5 14 -18
3 -78 -13 -72 -7 3 -15 -7 -18 -25 -7 -32 -37 -44 -37 -16 0 20 -16 19 -24 -1
-3 -8 -10 -12 -16 -9 -5 3 -10 -1 -10 -9 0 -20 -25 -20 -76 -3 -22 8 -54 17
-71 20 -28 6 -33 4 -33 -13 0 -13 -5 -18 -15 -14 -8 4 -15 1 -15 -5 0 -6 -16
-25 -35 -42 -19 -18 -37 -40 -40 -50 -7 -21 -27 -27 -22 -7 1 7 -7 12 -19 13
-11 0 -28 6 -37 14 -22 18 -27 3 -24 -66 1 -28 -1 -49 -5 -47 -4 3 -16 -4 -27
-15 -14 -14 -16 -22 -8 -30 6 -6 8 -13 5 -17 -4 -3 -22 16 -42 43 -34 45 -45
70 -28 60 7 -5 6 143 -2 226 -3 26 -1 47 3 47 9 0 -4 99 -19 143 -5 15 -15 76
-21 134 l-12 107 -26 -56 c-16 -33 -31 -53 -38 -51 -9 3 -13 -6 -13 -26 0 -19
-6 -34 -15 -37 -11 -5 -12 -11 -4 -25 9 -18 5 -23 -15 -20 -5 1 -6 -7 -3 -19
3 -11 -1 -23 -8 -28 -16 -8 -27 -82 -13 -82 5 0 6 -21 3 -47 -5 -37 -4 -45 5
-33 9 12 10 9 6 -13 -8 -32 18 -84 46 -93 10 -3 18 -10 18 -15 0 -6 6 -7 13
-3 6 4 9 3 4 -1 -4 -5 3 -20 15 -34 l23 -25 -30 21 c-17 12 -52 44 -78 72 -38
40 -47 57 -47 86 0 20 -7 52 -15 72 -8 19 -15 50 -16 67 -1 30 -1 30 -9 6 l-8
-25 -2 25 c-1 14 -2 28 -2 32 1 3 -5 11 -13 18 -11 10 -12 4 0 -40 7 -28 19
-57 25 -65 14 -17 -3 -27 -77 -46 -41 -10 -69 -10 -125 -2 -47 7 -123 8 -213
3 -90 -5 -141 -4 -144 2 -2 5 -9 -1 -15 -14 -6 -12 -17 -23 -23 -23 -6 0 -15
-3 -19 -7 -13 -13 22 -9 51 6 36 19 152 29 191 17 21 -6 35 -6 42 1 7 7 36 8
79 4 100 -10 179 -7 225 10 22 8 42 14 43 14 2 0 5 -21 7 -47 3 -27 8 -57 13
-67 6 -14 5 -17 -3 -12 -8 5 -10 1 -5 -11 5 -15 3 -16 -8 -5 -7 6 -26 12 -41
12 -22 0 -28 5 -28 23 0 16 -3 18 -9 8 -5 -7 -14 -10 -20 -7 -6 4 -8 12 -5 18
5 7 -2 9 -19 6 -19 -4 -27 0 -30 14 -3 10 -10 18 -16 18 -6 0 -7 -8 -4 -17 6
-15 4 -16 -9 -5 -8 7 -22 10 -31 6 -8 -3 -18 -1 -21 4 -3 5 -19 8 -36 6 -17
-2 -30 1 -30 7 0 6 -7 8 -16 5 -8 -3 -12 -2 -9 4 3 6 0 10 -8 10 -22 0 -29
-28 -9 -32 14 -3 9 -11 -20 -39 -21 -20 -38 -42 -38 -50 0 -8 -7 -23 -15 -33
-14 -19 -15 -19 -15 -2 0 15 -3 16 -14 7 -10 -9 -16 -8 -26 4 -18 22 -33 18
-20 -5 6 -12 7 -20 1 -20 -5 0 -12 6 -15 13 -4 6 -4 2 -2 -10 3 -17 -2 -23
-25 -28 -16 -4 -29 -11 -29 -16 0 -6 9 -7 21 -4 15 5 19 4 15 -4 -4 -6 -15
-11 -24 -12 -11 0 -12 -3 -4 -6 16 -6 16 -26 0 -20 -7 2 -18 -5 -25 -17 -12
-20 -12 -20 -13 -1 0 15 -3 16 -12 7 -24 -24 -26 -11 -5 33 12 25 28 45 35 45
6 0 12 5 12 10 0 6 7 10 15 10 8 0 15 7 15 17 0 15 -2 15 -19 -1 -12 -11 -21
-14 -26 -7 -3 6 -21 10 -40 8 -34 -2 -34 -2 -14 -23 23 -24 26 -59 5 -51 -10
4 -13 1 -9 -9 3 -7 0 -14 -6 -14 -6 0 -11 7 -11 15 0 8 -7 15 -15 15 -8 0 -15
5 -15 11 0 6 -10 8 -22 5 -13 -3 -18 -3 -11 0 8 3 -1 19 -25 43 -54 54 -87 95
-84 104 1 4 -11 7 -28 7 -16 0 -30 4 -30 10 0 13 -60 37 -115 45 -25 4 -48 12
-52 18 -4 7 7 8 33 3 21 -4 57 -10 79 -12 22 -3 86 -14 141 -25 56 -10 110
-19 120 -18 11 0 -42 13 -116 28 -114 23 -135 30 -132 45 4 24 -20 76 -35 76
-7 0 -13 -7 -13 -15 0 -8 4 -15 9 -15 5 0 7 -10 4 -22 -4 -19 -3 -20 6 -8 9
12 11 11 11 -9 0 -22 -3 -23 -37 -17 -21 3 -48 6 -61 6 -12 0 -30 9 -39 20
-10 11 -22 20 -27 20 -6 0 5 -15 23 -34 36 -37 40 -52 47 -166 5 -82 4 -86
-43 -119 -26 -18 -36 -20 -50 -11 -16 10 -16 11 -1 6 9 -3 27 4 40 14 19 16
20 19 6 20 -10 0 -18 -5 -18 -11 0 -5 -4 -8 -8 -5 -4 3 -7 32 -5 65 1 33 -2
63 -7 66 -6 3 -10 15 -10 26 0 11 -4 18 -9 15 -11 -7 -18 9 -26 65 -7 52 -13
82 -15 89 -5 11 -7 26 -8 51 -1 14 -11 37 -23 50 -11 13 -18 32 -15 42 2 11 2
16 -1 13 -6 -6 -50 62 -73 113 -15 33 -25 18 -11 -16 12 -29 10 -120 -3 -141
-4 -7 -12 -10 -17 -7 -5 4 -11 0 -14 -7 -3 -8 -16 -15 -29 -16 -43 -3 -73 -20
-97 -53 l-23 -32 23 6 c19 5 20 3 10 -9 -11 -13 -8 -14 16 -8 20 5 26 4 21 -5
-5 -7 2 -11 20 -11 22 0 25 -2 14 -15 -10 -13 -9 -15 9 -15 12 0 20 -4 17 -8
-3 -5 -19 -8 -36 -7 -16 1 -30 -2 -30 -7 0 -4 7 -8 15 -8 8 0 15 -4 15 -10 0
-5 5 -10 11 -10 8 0 8 4 -1 14 -9 12 -8 15 9 13 16 -1 19 -6 15 -20 -4 -11 -2
-17 3 -14 6 4 15 -5 22 -19 16 -35 14 -43 -9 -39 -17 3 -19 1 -10 -15 6 -11
17 -17 25 -14 12 5 15 -3 15 -35 0 -33 6 -47 35 -76 20 -19 31 -35 26 -35 -22
0 -78 70 -116 143 -22 42 -43 77 -47 77 -5 0 -8 5 -8 11 0 5 5 7 10 4 6 -3 10
-1 10 5 0 7 -8 9 -22 5 -17 -6 -20 -4 -14 10 8 21 -1 55 -15 55 -6 0 -7 -9 -4
-20 3 -11 7 -53 7 -92 0 -40 5 -76 9 -79 5 -3 10 -24 12 -46 1 -23 5 -39 8
-37 9 5 20 -26 13 -37 -3 -5 -9 -7 -13 -5 -4 3 -7 -7 -6 -22 1 -26 -1 -27 -37
-24 -29 3 -38 1 -38 -12 0 -9 -6 -13 -14 -10 -8 3 -23 -4 -34 -16 -19 -20 -28
-22 -99 -17 -43 2 -88 8 -101 12 -19 6 -21 5 -15 -11 5 -14 3 -16 -11 -11 -10
4 -22 7 -28 7 -6 0 -8 7 -4 15 3 9 0 15 -9 15 -7 0 -15 -7 -17 -16 -2 -13 -13
-7 -45 24 -32 31 -49 40 -73 40 -18 -1 -36 5 -41 13 -6 10 -7 6 -5 -12 1 -13
6 -31 10 -38 5 -8 0 -18 -13 -27 -12 -9 -19 -20 -16 -25 4 -5 -9 -8 -29 -7
-24 2 -35 7 -31 16 2 6 0 12 -6 12 -6 0 -7 5 -4 10 9 15 -2 12 -19 -6 -9 -8
-24 -14 -34 -11 -13 3 -12 6 10 15 28 12 44 30 34 39 -3 4 -15 -2 -26 -12 -11
-10 -20 -14 -20 -9 0 5 -5 2 -10 -6 -11 -17 -101 -22 -98 -5 3 21 -14 64 -28
69 -18 7 -18 -8 1 -24 21 -17 14 -33 -19 -47 -38 -17 -46 -16 -46 4 0 14 -2
15 -12 4 -10 -11 -10 -14 0 -18 6 -3 12 -11 12 -20 0 -11 -7 -13 -30 -8 -17 4
-30 2 -30 -3 0 -5 -9 -12 -21 -15 -15 -4 -23 0 -26 14 -5 20 -15 24 -26 12 -4
-3 -2 -12 4 -19 8 -10 4 -11 -23 -2 -18 6 -41 15 -50 19 -11 6 -18 5 -18 -1 0
-5 -7 -10 -15 -10 -9 0 -12 6 -9 15 8 19 -1 19 -32 -1 -22 -15 -24 -15 -18 0
7 19 -12 46 -33 46 -9 0 -13 -9 -11 -27 l3 -28 -84 2 c-53 1 -87 6 -91 14 -4
6 -13 8 -19 5 -6 -4 -11 -3 -11 2 0 14 -48 43 -76 46 -13 2 -27 6 -31 9 -10
11 -61 8 -68 -3 -3 -6 -18 -7 -32 -4 -19 5 -24 3 -21 -7 7 -20 -41 -43 -59
-28 -17 14 -31 3 -16 -12 12 -12 6 -42 -7 -34 -5 3 -6 -3 -3 -14 7 -26 -23
-34 -53 -15 -13 9 -24 20 -24 25 0 5 -7 9 -15 9 -7 0 -18 7 -22 15 -8 13 -11
13 -28 1 -20 -15 -20 -15 0 -30 l20 -15 -20 -1 c-17 0 -18 -2 -5 -11 12 -9 12
-10 -3 -5 -10 3 -24 6 -30 6 -8 0 -7 3 2 9 9 6 10 10 2 16 -7 4 -18 1 -26 -5
-8 -7 -16 -9 -16 -4 -1 5 -2 14 -4 19 -1 6 -3 19 -4 30 -2 11 -5 15 -7 9 -3
-7 -14 -9 -26 -6 -15 4 -19 2 -13 -7 5 -9 2 -12 -11 -9 -11 2 -18 10 -16 17 2
8 -4 10 -18 6 -25 -8 -90 40 -90 66 0 11 -4 19 -8 19 -4 0 -13 19 -19 42 -11
42 -9 53 22 133 7 18 6 18 -17 -3 l-26 -24 -3 51 c-2 27 -1 114 3 193 7 151
32 275 69 334 18 30 25 64 13 64 -17 0 -46 -56 -63 -125 -4 -17 -13 -39 -18
-50 -12 -22 -37 -332 -38 -462 0 -97 -14 -124 -17 -32 -6 239 14 438 58 559
40 111 48 120 103 120 25 0 57 -3 70 -7 l24 -6 -24 -18 -24 -18 25 3 c14 1 36
8 49 15 13 7 72 24 130 37 100 22 120 23 356 18 138 -3 275 -7 305 -9z m-1100
-100 c-26 -69 -52 -241 -65 -444 -9 -124 -17 -226 -19 -228 -6 -7 -15 182 -11
246 l4 66 -14 -55 c-14 -49 -28 -144 -29 -192 0 -10 -4 -18 -9 -18 -5 0 -7 8
-5 18 3 12 -3 22 -18 29 -24 11 -34 1 -13 -13 7 -4 7 -10 1 -16 -10 -10 -79
16 -116 44 -17 13 -17 16 -2 30 14 14 14 17 0 22 -12 4 -15 18 -13 54 1 26 0
53 -4 59 -10 16 6 53 39 92 26 31 26 33 6 27 -16 -6 -22 -3 -22 8 0 9 5 16 11
16 6 0 9 7 5 15 -3 9 1 15 11 15 13 0 13 3 3 15 -10 12 -9 15 6 16 11 0 14 3
7 6 -26 10 -12 22 42 38 30 8 55 20 55 25 0 6 14 10 30 10 17 0 30 4 30 9 0
10 -50 2 -67 -11 -8 -6 -19 -6 -30 1 -17 9 -17 10 2 17 11 4 42 15 68 26 26
10 50 18 53 18 3 0 3 -35 0 -77 -5 -71 -4 -74 5 -28 17 83 49 185 59 185 6 0
6 -10 0 -25z m5697 -47 c33 -32 47 -62 18 -38 -8 7 -15 9 -15 4 0 -5 -5 -2
-10 6 -5 8 -10 11 -10 5 0 -12 15 -37 21 -35 2 1 12 -2 22 -5 27 -11 20 -48
-16 -91 -19 -21 -36 -46 -39 -55 -7 -17 -77 -55 -93 -50 -5 1 -7 -1 -3 -5 8
-7 -34 -70 -62 -91 -8 -6 -30 -14 -48 -18 -18 -3 -30 -10 -27 -14 7 -12 -73
-83 -85 -76 -6 4 -10 1 -10 -4 0 -6 -8 -11 -17 -11 -15 0 -16 -2 -3 -10 8 -5
10 -10 5 -10 -20 0 -53 30 -59 54 -4 18 -11 23 -22 19 -13 -5 -13 -7 -2 -15
10 -7 10 -9 -2 -7 -8 1 -22 1 -30 0 -13 -1 -13 -2 0 -11 10 -7 11 -10 2 -10
-10 0 -9 -5 2 -22 8 -13 17 -62 21 -110 6 -78 5 -90 -13 -113 l-20 -25 0 36
c0 20 -5 41 -11 47 -6 6 -11 25 -11 42 0 17 -4 35 -9 41 -10 10 -20 134 -11
134 3 0 11 -5 18 -12 9 -9 12 -9 12 0 0 7 8 12 18 12 16 1 16 2 -1 15 -11 7
-25 11 -32 9 -7 -3 -16 0 -21 7 -5 9 -2 10 9 6 9 -3 19 -2 22 3 4 6 0 10 -7
10 -8 0 -19 23 -27 56 -7 31 -15 63 -18 70 -4 10 0 12 11 8 9 -3 16 -1 16 5 0
6 -6 11 -13 11 -14 0 -37 87 -37 142 0 28 -3 36 -14 32 -8 -3 -12 -12 -9 -20
3 -9 -5 -18 -22 -24 -23 -9 -30 -7 -41 7 -7 10 -8 20 -3 21 5 2 9 11 9 20 0
15 -2 15 -10 2 -8 -12 -10 -11 -10 8 0 12 5 22 12 22 9 0 9 3 0 12 -23 23 -11
29 51 23 34 -3 78 -6 98 -7 31 -1 36 -4 32 -22 -4 -19 -3 -19 7 -3 6 9 15 15
21 12 5 -3 6 1 3 10 -5 13 0 16 34 14 30 -2 39 -6 34 -17 -3 -10 0 -13 9 -10
13 4 44 -18 44 -31 0 -3 4 -12 8 -18 10 -16 1 -33 -17 -33 -11 0 -11 -10 -5
-47 16 -83 18 -87 38 -69 10 9 28 16 40 16 15 0 20 4 14 13 -11 17 -33 79 -33
95 0 6 9 12 21 12 19 0 19 1 5 16 -16 16 -22 45 -8 43 30 -5 55 4 59 20 5 22
28 27 128 29 54 2 62 -1 92 -30z m675 23 c-8 -5 1 -8 25 -8 33 -1 35 0 13 7
-19 6 -12 8 30 8 39 1 49 -2 35 -8 -17 -7 -14 -9 14 -9 20 -1 39 -8 47 -18 12
-16 15 -16 24 -3 7 12 10 8 9 -15 0 -16 -3 -24 -6 -17 -5 13 -24 17 -22 5 3
-20 -2 -27 -10 -14 -8 12 -12 12 -25 2 -14 -12 -16 -10 -17 10 0 22 -2 21 -12
-7 -7 -17 -18 -29 -24 -27 -7 3 -13 0 -13 -6 0 -6 5 -11 10 -11 14 0 12 -27
-2 -33 -8 -4 -6 -6 5 -7 9 -2 22 -4 27 -5 6 -1 13 -3 18 -4 4 -1 0 -6 -8 -11
-10 -6 -11 -10 -2 -10 6 0 12 -7 12 -15 0 -21 20 -19 20 3 1 9 8 28 16 42 8
14 13 17 10 8 -4 -13 0 -18 13 -18 14 0 18 5 14 20 -3 11 0 20 6 20 6 0 11 -6
11 -14 0 -28 -12 -46 -32 -46 -15 0 -18 -4 -14 -17 4 -10 4 -14 0 -10 -4 4
-13 -6 -20 -23 -8 -18 -20 -30 -31 -30 -15 0 -16 2 -3 10 11 7 11 10 2 10 -7
0 -17 -10 -23 -22 l-10 -23 5 23 c3 18 0 22 -20 22 -16 0 -24 6 -24 18 0 9 -6
24 -13 33 -14 18 -88 49 -117 49 -11 0 -20 7 -20 15 0 8 -3 15 -6 15 -11 0
-34 -29 -34 -44 0 -8 -5 -18 -12 -22 -7 -5 -9 0 -6 14 4 15 2 19 -8 15 -9 -3
-14 2 -14 13 -1 17 -3 17 -19 -3 -11 -13 -29 -23 -40 -23 -12 0 -21 -5 -21
-10 0 -6 -7 -10 -16 -8 -10 2 -19 -3 -22 -11 -3 -9 1 -11 17 -6 11 3 21 2 21
-3 0 -5 -9 -12 -20 -15 -14 -3 -20 -14 -21 -34 -2 -24 -2 -25 -6 -5 -4 22 -28
26 -28 5 0 -6 -3 -15 -7 -19 -5 -4 -8 -2 -8 5 0 8 -8 11 -20 8 -11 -3 -20 -1
-20 5 0 6 -11 7 -26 4 -16 -4 -32 -2 -42 6 -13 11 -15 10 -10 -9 5 -18 2 -21
-19 -17 -17 3 -24 1 -20 -8 2 -7 12 -12 22 -11 12 1 14 -2 6 -10 -14 -14 -31
2 -45 45 -8 22 -20 34 -39 39 -36 10 -69 49 -55 67 13 15 -7 96 -28 113 -8 6
-14 15 -14 19 0 7 387 7 395 -1 2 -3 11 -20 20 -39 l16 -35 -6 37 c-7 48 -15
46 210 56 24 1 35 -2 27 -7z m-1604 -25 c19 -23 86 -45 98 -33 10 9 54 -40 54
-61 0 -11 8 -23 17 -26 12 -5 14 -9 5 -18 -9 -9 -15 -7 -27 8 -14 18 -14 18
-15 -4 0 -16 -4 -21 -12 -16 -9 5 -8 2 1 -9 8 -10 11 -20 8 -24 -4 -3 -1 -15
5 -27 l11 -21 -23 20 c-12 11 -29 34 -36 50 -8 17 -13 23 -14 13 0 -9 10 -34
22 -54 12 -21 17 -35 11 -31 -6 4 -13 0 -17 -8 -3 -8 -1 -15 5 -15 6 0 6 -6
-1 -19 -7 -14 -6 -27 5 -47 8 -16 13 -29 11 -31 -1 -2 -29 4 -61 12 -77 20
-80 13 -5 -11 62 -20 86 -40 28 -23 -39 11 -47 11 -31 1 22 -14 20 -72 -3 -72
-10 0 -14 -6 -10 -15 3 -8 1 -15 -4 -15 -6 0 -10 9 -10 20 0 16 -4 18 -22 11
-13 -5 -24 -13 -24 -20 -1 -6 -2 -15 -3 -20 0 -5 -16 -9 -33 -9 -49 1 -122 88
-74 88 15 0 26 21 26 50 0 9 10 25 23 34 14 11 16 15 5 12 -15 -4 -15 -1 -4
32 12 32 25 102 42 220 3 18 9 30 15 27 5 -4 9 0 9 7 1 8 6 6 15 -6 17 -23 20
-4 4 25 -6 12 -17 18 -25 15 -8 -3 -14 -1 -14 4 0 18 26 10 48 -14z m-4734
-83 c-3 -21 -11 -90 -19 -153 -14 -116 -30 -180 -45 -180 -5 0 -11 -24 -13
-52 -3 -29 -3 15 -1 97 3 142 20 266 45 343 l11 34 13 -26 c8 -14 11 -42 9
-63z m-402 -103 c-9 -41 -7 -199 3 -252 5 -26 4 -38 -4 -38 -19 0 -12 -16 12
-27 29 -14 274 -173 265 -173 -14 0 -184 93 -204 111 -11 10 -26 19 -32 19 -7
0 -12 3 -12 8 0 4 -14 15 -31 24 -23 13 -29 23 -24 37 3 11 1 22 -5 26 -5 3
-10 13 -10 21 0 8 3 13 8 11 4 -3 6 56 4 130 -3 105 -1 138 10 144 20 13 28
-3 20 -41z m6147 -6 c29 -15 51 -34 51 -43 0 -9 3 -26 6 -38 4 -14 2 -23 -5
-23 -7 0 -9 5 -6 10 3 6 1 10 -4 10 -14 0 -14 -17 -1 -25 5 -3 7 -12 4 -20 -5
-11 -11 -12 -25 -4 -17 9 -19 7 -17 -22 3 -26 -1 -32 -20 -35 -17 -3 -25 3
-33 22 -5 15 -8 29 -5 31 3 3 -4 20 -14 38 -14 24 -16 35 -7 38 21 7 0 19 -22
12 -25 -7 -26 -18 -7 -38 18 -18 16 -39 -7 -61 -16 -16 -17 -16 -17 4 0 16 -4
20 -15 16 -8 -3 -15 -4 -15 -2 0 3 -3 12 -7 22 -5 13 -3 16 10 11 10 -4 14 -2
11 7 -3 7 8 26 23 42 15 16 26 33 25 38 -2 5 4 6 13 2 9 -3 13 -2 10 4 -7 11
2 30 15 30 4 0 31 -12 59 -26z m-177 -109 c-11 -24 -19 -31 -25 -22 -5 7 -6 2
-3 -15 5 -21 3 -26 -8 -22 -12 4 -14 0 -10 -21 2 -14 1 -31 -3 -38 -4 -7 -8
-21 -8 -32 0 -11 -4 -26 -9 -34 -7 -11 -4 -13 12 -9 12 4 22 2 22 -3 0 -5 -6
-9 -13 -9 -21 0 -130 39 -141 50 -12 12 35 60 84 85 19 10 38 24 43 31 14 25
59 74 67 74 4 0 0 -16 -8 -35z m-5116 -1062 c17 -23 18 -50 2 -56 -7 -3 -3 -6
9 -6 12 -1 24 -9 28 -21 4 -11 11 -17 17 -14 8 5 9 1 5 -10 -4 -9 1 -38 9 -63
13 -37 14 -51 4 -66 -9 -15 -8 -21 5 -31 9 -6 15 -18 13 -25 -2 -7 3 -16 10
-18 6 -3 12 2 12 11 0 9 5 16 11 16 5 0 8 -4 4 -9 -3 -5 8 -3 25 6 22 11 34
12 44 4 7 -6 16 -8 19 -4 9 8 9 4 11 -79 0 -36 -1 -66 -4 -66 -25 2 -40 -5
-40 -18 0 -10 -4 -12 -12 -7 -7 4 -20 8 -28 8 -8 0 -24 18 -35 40 -11 23 -28
53 -38 68 -9 15 -14 27 -10 27 5 0 0 5 -9 11 -10 5 -18 21 -18 34 0 15 -7 26
-20 30 -13 4 -20 14 -18 24 2 10 -2 24 -9 32 -15 18 -21 199 -7 199 4 0 13 -8
20 -17z m5474 -57 c0 -9 7 -12 19 -9 34 9 62 -74 34 -102 -13 -13 -13 -19 -3
-25 7 -4 10 -14 8 -21 -3 -8 -1 -27 4 -44 17 -57 26 -140 16 -152 -5 -7 -10
-44 -10 -82 -1 -75 -15 -101 -60 -108 -20 -3 -21 -1 -13 59 16 115 5 291 -25
408 -22 88 -22 90 5 90 15 0 25 -6 25 -14z m-4228 -25 c-2 -16 1 -38 7 -50 8
-14 8 -21 1 -21 -5 0 -10 -5 -10 -11 0 -6 8 -9 18 -7 10 2 16 11 14 21 -2 11
4 17 15 18 40 1 68 10 76 24 4 9 12 13 17 10 4 -3 27 2 51 10 49 18 109 11
109 -12 0 -12 3 -13 14 -4 17 14 82 9 78 -7 -1 -7 5 -15 14 -19 13 -5 13 -8 2
-15 -9 -7 -2 -8 20 -4 18 3 32 1 32 -4 0 -6 4 -10 9 -10 6 0 9 9 8 20 -1 11
-5 20 -9 20 -4 0 -3 10 3 23 12 26 64 35 73 12 3 -8 12 -15 21 -15 9 0 18 -12
22 -30 3 -16 10 -30 15 -30 5 0 6 10 3 23 -5 18 -4 19 5 7 9 -11 13 -12 17 -2
2 6 10 12 18 12 7 0 18 7 25 15 16 19 41 20 34 1 -3 -7 2 -16 11 -20 9 -3 13
-11 10 -16 -4 -6 -1 -9 7 -8 8 2 14 -8 16 -24 4 -30 23 -36 41 -14 9 11 9 20
2 35 -6 11 -11 23 -11 26 0 12 25 -20 38 -48 8 -20 17 -27 28 -23 9 3 19 6 24
6 4 0 11 19 14 43 9 57 39 62 52 10 11 -43 45 -61 69 -36 9 8 14 20 12 26 -4
12 42 41 51 32 3 -2 0 -11 -7 -19 -10 -12 -4 -15 34 -18 25 -2 45 0 45 3 0 16
46 18 58 2 11 -16 12 -15 12 1 0 15 5 17 31 12 17 -3 40 -6 50 -6 12 0 16 -5
13 -15 -7 -17 11 -21 21 -5 4 6 15 8 26 5 13 -5 19 -2 19 9 0 14 3 14 20 4 16
-10 22 -10 32 5 8 10 23 16 38 15 19 -2 24 1 22 15 -3 15 2 16 24 11 24 -6 26
-5 21 15 -3 11 -1 21 3 21 5 0 10 -9 12 -20 4 -27 22 -27 26 -1 3 17 6 19 23
8 10 -6 19 -17 19 -24 0 -7 5 -13 10 -13 6 0 10 5 10 11 0 8 4 8 14 0 14 -12
27 -2 39 29 4 11 6 9 6 -5 1 -18 7 -20 53 -18 86 4 146 11 159 19 18 11 102 5
110 -7 5 -8 8 -8 13 0 4 6 12 8 18 5 6 -4 17 1 25 11 10 15 16 16 25 7 15 -15
48 -16 48 -2 0 6 7 10 15 10 8 0 15 -4 15 -8 0 -4 28 -8 63 -8 108 -1 187 -22
187 -49 0 -9 5 -13 10 -10 6 3 11 -2 11 -12 1 -10 5 0 9 22 l7 40 2 -37 c1
-40 -29 -102 -55 -112 -8 -3 -12 -10 -9 -16 3 -6 22 8 42 30 22 24 45 40 57
39 19 -1 18 -2 -3 -8 -14 -4 -26 -12 -29 -19 -2 -8 3 -10 15 -6 16 5 16 4 -1
-10 -18 -15 -18 -16 -2 -16 10 0 20 9 23 20 5 19 39 37 50 26 4 -3 -1 -6 -9
-6 -23 0 -53 -49 -39 -63 8 -8 11 -8 11 1 0 7 5 12 11 12 6 0 9 -9 6 -20 -3
-13 0 -20 9 -20 8 0 14 -4 14 -9 0 -17 33 -21 50 -6 19 17 40 20 40 5 0 -5 7
-10 16 -10 8 0 12 4 9 10 -3 5 0 7 8 5 7 -3 13 -18 12 -33 -2 -19 -1 -20 2 -4
2 12 9 22 14 22 16 0 10 18 -8 24 -10 2 -1 3 21 0 21 -2 45 1 53 7 7 7 16 9
20 5 3 -3 1 -6 -5 -6 -22 0 -12 -18 13 -24 14 -4 25 -14 25 -23 0 -15 -2 -15
-18 1 -17 15 -22 15 -48 1 -26 -13 -27 -15 -7 -15 12 0 25 -4 28 -10 4 -6 -5
-10 -19 -10 -16 0 -26 -6 -26 -15 0 -8 6 -15 14 -15 20 0 40 -26 26 -35 -8 -5
-6 -11 5 -18 18 -14 15 -79 -4 -85 -6 -2 -11 -10 -11 -19 0 -10 -6 -13 -22 -8
-21 6 -22 5 -5 -8 15 -13 16 -15 2 -21 -8 -3 -15 -10 -15 -16 0 -6 4 -9 9 -5
6 3 9 -3 8 -13 -1 -13 -7 -18 -19 -14 -13 3 -17 0 -13 -9 3 -8 -8 -28 -23 -44
-16 -17 -27 -35 -25 -42 6 -17 -16 -26 -32 -13 -11 9 -21 9 -44 -1 -17 -8 -25
-16 -20 -20 6 -3 -3 -11 -20 -17 -34 -12 -41 -38 -14 -57 30 -22 9 -45 -44
-46 -44 -1 -46 -1 -20 -11 32 -12 34 -23 6 -39 -15 -8 -24 -8 -32 0 -8 8 -4
11 14 11 18 0 20 3 10 9 -9 6 -22 4 -35 -4 -20 -13 -113 -29 -243 -42 -54 -5
-63 -3 -63 11 0 9 -4 16 -9 16 -24 0 -41 -14 -41 -34 0 -12 -6 -30 -13 -41 -7
-11 -18 -38 -25 -60 -11 -40 -11 -40 -57 -37 -42 4 -45 2 -44 -19 1 -17 3 -19
6 -6 5 18 33 24 33 7 0 -5 10 -8 23 -6 12 2 27 0 33 -5 5 -5 22 -2 37 6 l27
14 0 -40 c0 -21 5 -39 11 -39 6 0 8 9 4 23 -6 18 -5 20 6 10 16 -16 59 -17 59
-3 0 6 -7 13 -15 16 -8 4 -15 12 -15 19 0 7 -5 15 -12 17 -7 3 -5 13 7 31 14
22 20 25 32 15 11 -9 13 -8 11 3 -2 10 6 13 30 11 32 -2 68 19 55 32 -4 3 9 7
28 7 23 1 27 3 14 7 -26 7 102 42 172 47 44 3 52 1 56 -15 3 -11 18 -25 34
-32 15 -7 34 -18 41 -25 16 -15 42 -17 42 -4 0 5 -8 12 -17 14 -14 4 -13 5 4
6 12 0 23 9 26 19 3 14 6 13 15 -8 8 -19 11 -21 11 -7 1 10 5 16 10 12 5 -3
13 0 17 6 4 8 8 8 13 0 4 -5 17 -8 29 -4 12 3 20 9 17 13 -7 11 22 21 40 14 8
-4 15 -15 15 -25 0 -11 -7 -22 -15 -25 -8 -4 -15 -16 -15 -28 0 -14 -20 -44
-50 -74 -27 -28 -50 -56 -50 -61 0 -5 -25 -22 -56 -37 -31 -15 -60 -37 -66
-49 -7 -16 -16 -20 -39 -17 -17 3 -29 0 -29 -7 0 -6 5 -11 10 -11 19 0 10 -16
-9 -17 -14 -1 -21 6 -24 25 -3 21 -4 19 -6 -10 0 -20 -6 -40 -12 -44 -7 -4 -7
-10 -1 -16 7 -7 5 -16 -5 -28 -15 -17 -17 -17 -46 1 -28 17 -33 17 -48 3 -13
-12 -22 -13 -38 -5 -11 6 -32 11 -46 11 -17 0 -25 5 -22 13 2 6 11 11 20 11 9
-1 13 4 10 13 -10 24 -38 10 -42 -22 -3 -30 -4 -30 -16 10 -12 42 -5 65 21 65
24 0 103 62 97 76 -6 17 -53 30 -62 18 -14 -20 -48 -33 -59 -22 -16 16 -34 -2
-29 -28 3 -16 0 -24 -10 -24 -26 0 -52 20 -47 35 7 17 -21 21 -31 5 -3 -5 -1
-10 6 -10 7 0 -1 -14 -19 -31 -31 -30 -62 -35 -70 -11 -2 7 5 12 17 12 14 0
23 8 27 25 9 38 -5 44 -30 13 -18 -24 -29 -28 -69 -28 -35 0 -47 -4 -47 -15 0
-11 11 -15 40 -15 28 0 40 -4 40 -14 0 -11 -14 -16 -47 -18 -41 -3 -48 -6 -51
-25 -2 -13 -8 -23 -13 -23 -5 0 -9 -5 -9 -11 0 -6 9 -8 20 -4 17 5 20 2 21
-27 1 -34 3 -32 13 15 8 35 22 27 28 -15 7 -46 -9 -98 -30 -98 -13 0 -14 -2
-4 -9 21 -13 16 -25 -15 -39 -27 -12 -26 -12 19 -10 26 1 50 -1 54 -5 4 -4
-76 -7 -177 -7 -124 0 -207 -5 -254 -15 -97 -20 -238 -20 -271 1 -21 15 -24
15 -18 1 3 -8 12 -18 20 -21 8 -3 14 -18 14 -32 0 -29 10 -27 14 3 3 15 11 17
50 15 25 -2 92 3 149 12 90 14 635 31 585 19 -21 -5 -24 -41 -4 -49 8 -3 13
-12 12 -19 -3 -21 -16 -31 -16 -12 0 10 -5 14 -15 11 -11 -5 -12 -10 -4 -26 6
-11 9 -30 7 -42 -4 -19 -1 -21 25 -18 27 4 29 6 13 17 -16 12 -16 14 3 20 14
4 21 15 21 31 0 14 4 22 10 19 13 -8 13 18 1 30 -19 19 33 50 89 53 63 4 120
-5 120 -19 0 -6 -4 -8 -9 -5 -5 4 -8 -2 -6 -11 2 -10 6 -41 9 -69 5 -49 4 -52
-17 -46 -12 3 -19 2 -16 -1 3 -4 14 -8 25 -10 36 -5 44 -16 34 -43 -6 -14 -8
-29 -5 -34 5 -9 -9 -26 -48 -57 -13 -10 -28 -32 -34 -48 -6 -19 -35 -50 -79
-83 -38 -29 -71 -57 -72 -63 -3 -6 -10 -5 -20 3 -14 10 -15 10 -6 -1 14 -15 6
-53 -9 -44 -6 4 -8 0 -4 -10 7 -18 -24 -42 -38 -29 -5 4 -5 1 -1 -6 5 -9 1
-15 -13 -19 -12 -3 -21 -11 -21 -18 0 -8 -11 -22 -25 -33 -14 -11 -24 -26 -23
-32 4 -16 -33 -22 -49 -8 -10 8 -12 7 -7 -6 3 -9 15 -16 25 -16 12 0 16 -5 13
-15 -5 -11 -11 -12 -25 -4 -16 8 -19 6 -19 -16 0 -14 4 -25 10 -25 5 0 6 7 3
17 -4 11 -3 14 5 9 7 -4 12 -18 12 -32 0 -14 -4 -23 -9 -20 -15 10 -40 -5 -34
-20 3 -8 1 -14 -5 -14 -5 0 -12 -9 -15 -20 -5 -20 -27 -28 -27 -10 0 6 -4 10
-10 10 -5 0 -10 -7 -10 -15 0 -8 5 -15 11 -15 8 0 8 -5 -1 -15 -7 -8 -17 -12
-23 -8 -19 11 -67 11 -61 -1 3 -6 -2 -2 -12 9 -14 17 -16 17 -11 3 8 -23 -9
-23 -22 -1 -5 10 -13 15 -17 10 -4 -4 1 -16 11 -27 16 -17 16 -20 3 -15 -21 8
-28 27 -21 54 6 23 23 29 24 9 0 -8 3 -7 6 2 4 8 13 20 22 27 14 11 14 12 -4
13 -18 1 -19 1 -2 11 19 11 24 31 6 27 -6 -2 -18 8 -27 22 -9 13 -11 21 -4 16
7 -4 12 -1 12 8 0 9 -4 16 -10 16 -5 0 -10 7 -10 15 0 24 -19 17 -26 -10 -6
-26 -18 -32 -29 -15 -3 6 -11 10 -16 10 -6 0 -7 -4 -4 -10 6 -9 -8 -14 -27
-11 -5 0 -8 -4 -8 -10 0 -7 -12 -23 -27 -36 -21 -20 -23 -27 -12 -34 11 -6 9
-8 -6 -9 -62 -1 -110 2 -115 8 -3 4 -23 7 -44 7 -23 0 -41 5 -43 13 -3 6 0 12
7 12 6 0 8 -4 5 -10 -10 -16 51 -12 65 5 8 9 8 15 2 15 -6 0 -18 3 -28 7 -12
4 -15 3 -10 -5 8 -14 5 -15 -18 -6 -9 3 -16 10 -16 16 0 5 5 6 10 3 6 -4 17
-1 25 5 11 9 15 9 15 1 0 -6 5 -11 10 -11 23 0 7 20 -25 31 -27 10 -34 17 -29
32 3 10 0 24 -6 32 -10 12 -10 15 1 15 8 0 0 9 -17 19 -18 11 -34 24 -38 29
-6 10 28 52 56 68 8 5 18 23 22 39 l7 30 -20 -32 c-21 -34 -73 -67 -86 -55 -3
4 -5 3 -3 -3 1 -5 1 -10 -2 -10 -3 -1 -17 -13 -32 -28 -15 -15 -34 -27 -43
-27 -8 0 -15 -4 -15 -9 0 -5 -14 -14 -30 -21 -18 -7 -33 -22 -36 -36 -6 -23
-19 -29 -57 -26 -10 1 -16 -2 -13 -6 9 -15 -69 0 -81 16 -19 23 -16 40 10 66
33 33 64 88 71 127 6 31 5 32 -5 9 -30 -68 -45 -96 -56 -103 -27 -17 -45 -67
-34 -97 9 -28 9 -29 -27 -33 -30 -3 -26 -4 16 -5 45 -2 52 -5 52 -22 0 -14
-12 -26 -37 -38 -21 -9 -39 -20 -41 -24 -2 -5 -11 -8 -20 -9 -10 0 -12 -3 -5
-6 10 -4 107 41 123 57 5 5 34 5 55 1 6 -1 -1 -7 -14 -12 -38 -15 -20 -19 29
-7 33 9 45 9 48 0 2 -7 17 -12 34 -12 26 0 29 -3 23 -22 -5 -17 -4 -19 3 -9
11 15 23 12 60 -15 17 -13 21 -13 17 -3 -4 10 4 15 25 16 28 2 30 0 23 -25
-15 -64 -21 -77 -32 -74 -6 1 -11 -2 -11 -7 0 -5 -10 -12 -22 -14 -18 -3 -17
-5 7 -6 27 -1 23 -5 -33 -30 -34 -15 -60 -30 -57 -33 6 -6 58 11 91 30 20 10
23 9 28 -13 4 -14 11 -25 17 -25 6 0 8 3 6 8 -3 4 -1 17 4 30 6 16 16 22 40
22 28 0 99 44 120 73 11 15 105 13 123 -2 13 -11 14 -16 4 -22 -8 -6 -2 -9 18
-9 33 0 44 -13 44 -53 0 -18 2 -19 10 -7 9 13 10 13 10 -1 0 -8 5 -20 12 -27
7 -7 11 -34 9 -66 -2 -43 1 -56 15 -64 21 -12 10 -32 -19 -33 -20 0 -21 -1 -3
-8 14 -5 16 -10 8 -15 -7 -4 -17 -4 -24 0 -7 4 -25 9 -41 11 -27 3 -29 1 -23
-23 6 -24 6 -25 -9 -10 -25 24 -133 12 -161 -19 -25 -27 -39 -22 -23 7 6 11 8
22 6 25 -6 5 -28 -32 -26 -44 1 -4 1 -17 0 -28 -2 -18 -3 -18 -12 4 -5 13 -7
33 -4 45 3 12 2 15 -1 9 -11 -24 -26 -14 -20 12 4 14 2 25 -4 25 -5 0 -10 -7
-10 -16 0 -10 -6 -14 -15 -10 -25 9 -18 -28 8 -39 13 -6 23 -21 25 -35 2 -20
1 -22 -7 -10 -6 8 -11 11 -11 5 -1 -5 -6 1 -11 14 -6 15 -15 21 -24 17 -8 -3
-14 -2 -12 2 6 19 -20 12 -31 -9 l-14 -24 6 28 c5 20 3 27 -9 27 -8 0 -16 8
-16 18 -1 16 -2 16 -6 0 -2 -10 -11 -18 -19 -18 -8 0 -14 -8 -14 -17 0 -14 -2
-15 -9 -4 -6 9 -11 10 -15 2 -10 -15 -46 -14 -47 2 -2 18 -16 -43 -18 -75 -1
-21 3 -25 19 -21 11 3 20 9 20 15 0 5 10 -1 22 -12 13 -12 24 -16 26 -10 2 5
10 10 18 10 8 0 11 6 7 18 -5 14 -3 15 7 5 11 -10 10 -16 -5 -33 -25 -28 -11
-38 24 -17 16 9 36 17 45 17 23 0 20 -21 -4 -27 -11 -3 -20 -9 -20 -14 0 -16
34 -9 60 11 20 16 22 20 8 20 -24 0 -23 16 2 23 11 3 20 1 20 -5 0 -5 4 -7 9
-4 5 3 12 -2 16 -11 3 -10 1 -19 -4 -21 -6 -2 -11 -13 -11 -25 0 -13 3 -17 8
-11 5 8 15 8 31 3 19 -7 21 -12 12 -23 -9 -10 -9 -16 -1 -21 6 -4 8 -14 5 -24
-9 -22 -13 -42 -14 -67 -1 -20 -9 -22 -78 -28 -43 -4 -116 -13 -163 -21 -47
-8 -121 -16 -165 -20 -44 -3 -118 -11 -164 -17 -68 -8 -85 -8 -92 3 -11 19 -2
24 16 9 12 -10 15 -10 15 4 0 10 5 14 10 11 6 -3 11 -3 11 2 5 31 8 74 13 191
3 73 7 136 10 140 3 5 0 14 -5 22 -5 9 -6 48 -2 89 5 63 4 73 -9 69 -9 -4 -15
0 -15 8 0 8 7 14 16 14 14 0 14 2 1 10 -25 16 41 12 90 -5 64 -23 150 -19 150
7 0 6 -6 5 -15 -2 -10 -8 -31 -11 -63 -7 -56 7 -195 45 -169 46 18 1 25 21 7
21 -5 0 -10 7 -10 15 0 8 5 15 10 15 6 0 9 19 6 48 -2 26 -4 53 -5 60 -1 7 -6
10 -11 7 -6 -4 -8 -11 -4 -16 3 -6 -2 -9 -12 -7 -13 2 -19 -3 -19 -15 0 -10
-7 -22 -15 -27 -12 -8 -11 -10 7 -10 12 0 25 -4 28 -10 3 -5 1 -10 -4 -10 -6
0 -11 -8 -11 -18 0 -9 -13 -23 -30 -30 -17 -8 -28 -17 -25 -22 3 -5 -30 -11
-72 -15 -120 -9 -125 -12 -33 -15 47 -2 90 -3 97 -3 16 1 9 -107 -9 -118 -7
-5 -8 -9 -2 -9 12 0 13 -94 1 -106 -4 -4 -7 -27 -7 -51 0 -32 4 -43 15 -43 8
0 15 -7 15 -15 0 -8 -6 -12 -12 -10 -7 3 -19 1 -27 -4 -12 -8 -13 -14 -3 -36
16 -35 15 -44 -3 -21 -13 17 -15 18 -15 3 0 -9 -4 -17 -8 -17 -5 0 -14 -10
-20 -22 -6 -13 -11 -17 -11 -10 -1 6 -5 12 -10 12 -11 0 -26 -39 -22 -59 3
-19 -19 -71 -31 -71 -5 0 -17 -9 -26 -20 -12 -15 -37 -23 -87 -29 -38 -5 -86
-12 -105 -16 -29 -4 -31 -4 -12 4 31 14 28 23 -5 10 -43 -16 -205 -3 -220 18
-7 9 -13 13 -13 8 0 -5 7 -16 15 -26 15 -15 13 -17 -22 -24 -20 -4 -54 -15
-75 -26 -20 -10 -44 -19 -52 -19 -9 0 -42 -14 -74 -30 -67 -36 -187 -54 -235
-36 -20 8 -30 8 -35 0 -4 -6 -24 -17 -44 -23 -21 -7 -38 -17 -38 -23 0 -6 -3
-9 -6 -5 -9 9 -64 -21 -98 -54 -17 -16 -37 -29 -45 -29 -13 0 -14 -2 -2 -9 10
-6 27 -1 52 15 21 13 42 24 47 24 4 0 17 7 28 16 12 10 13 14 4 11 -8 -3 -24
-8 -35 -12 -14 -4 -13 -2 4 8 14 8 40 13 58 12 25 -3 37 2 52 21 20 25 45 31
57 13 4 -7 9 -8 13 -1 8 13 121 24 121 12 0 -6 5 -10 10 -10 6 0 10 7 10 15 0
9 9 15 22 15 11 0 44 11 72 23 193 89 240 102 339 93 39 -4 98 -8 130 -8 31 0
57 -4 57 -8 0 -15 53 -16 94 -3 24 8 43 10 49 4 10 -10 87 17 87 31 0 4 7 8
15 8 8 0 14 -3 14 -7 -5 -28 3 -53 16 -53 8 0 15 -4 15 -8 0 -5 16 -16 36 -25
24 -12 34 -22 30 -32 -3 -8 -1 -15 4 -15 6 0 10 6 11 13 0 10 2 10 6 0 8 -22
33 -14 33 11 0 57 -13 114 -25 110 -14 -6 -29 22 -16 30 4 3 65 10 137 16 71
7 188 20 261 31 144 21 239 24 248 9 3 -5 13 -7 23 -4 12 4 13 3 4 -3 -7 -6
-11 -24 -10 -44 3 -30 0 -34 -22 -35 -43 -2 -70 -16 -70 -34 0 -16 -4 -17 -32
-9 -42 12 -51 11 -43 -1 3 -5 1 -10 -4 -10 -6 0 -11 -5 -11 -11 0 -6 7 -9 14
-6 10 4 13 1 10 -8 -3 -7 -19 -18 -35 -24 -27 -9 -41 -31 -20 -31 5 0 12 -11
15 -25 4 -16 11 -22 21 -19 9 4 15 0 15 -9 0 -8 -7 -17 -15 -21 -20 -7 -19
-30 2 -73 16 -35 17 -36 26 -12 10 23 11 23 17 -11 l7 -35 12 30 c7 17 14 50
14 75 1 51 15 70 50 70 14 0 27 3 30 8 2 4 3 2 1 -4 -1 -6 3 -17 9 -24 10 -10
8 -11 -8 -5 -30 11 -44 11 -45 0 0 -5 8 -11 20 -13 11 -2 20 -9 20 -15 0 -7 4
-6 10 3 7 12 12 11 30 -5 16 -15 20 -27 16 -49 -15 -73 -28 -105 -44 -109 -13
-4 -12 -5 5 -6 22 -1 33 21 48 96 7 34 58 97 88 107 14 5 16 1 11 -22 -5 -25
-4 -25 9 -9 16 19 37 23 37 7 0 -5 6 -10 14 -10 9 0 13 -7 11 -19 -3 -14 1
-18 11 -14 8 3 14 0 14 -7 0 -9 -14 -11 -52 -6 -52 6 -52 6 -26 -9 43 -24 198
-29 267 -10 31 9 66 23 78 31 12 7 35 16 52 19 28 5 31 3 31 -20 0 -16 6 -25
15 -25 20 0 19 -12 -5 -43 -17 -22 -18 -26 -4 -31 33 -13 45 -7 34 15 -7 11
-9 23 -6 26 3 3 12 -9 19 -27 13 -29 12 -37 -6 -73 -10 -22 -25 -47 -32 -54
-15 -15 -30 -71 -21 -80 3 -3 8 3 12 13 10 31 33 76 63 124 20 31 25 49 18 58
-9 12 -6 13 56 16 11 1 25 13 32 26 l13 25 10 -35 c5 -19 14 -34 21 -33 15 4
14 -14 -1 -20 -7 -3 1 -6 19 -6 17 -1 38 5 45 13 9 9 21 10 36 5 24 -9 29 -40
12 -83 -7 -20 -6 -26 5 -26 8 0 18 -6 22 -12 9 -14 93 -20 93 -6 0 4 -4 8 -10
8 -5 0 -10 19 -10 42 0 38 -1 40 -13 23 -9 -11 -19 -15 -27 -10 -10 6 -12 1
-8 -19 3 -14 2 -26 -2 -26 -10 0 -23 38 -24 73 -1 22 2 27 19 25 14 -2 20 3
20 16 0 31 23 30 28 -1 3 -24 4 -22 6 9 0 20 -3 38 -8 40 -4 2 -5 12 0 23 6
17 8 17 8 3 1 -10 7 -18 15 -18 8 0 17 8 21 18 6 16 8 16 21 -3 12 -16 16 -17
23 -6 6 9 11 10 15 2 4 -6 2 -11 -5 -11 -9 0 -9 -4 1 -15 6 -8 9 -18 6 -24 -9
-14 4 -41 20 -41 10 0 14 -13 14 -45 0 -35 3 -43 15 -39 9 4 18 -2 24 -17 10
-24 10 -24 10 4 1 18 -3 26 -10 22 -7 -5 -8 4 -4 28 6 28 3 37 -12 46 -10 6
-13 11 -6 11 6 0 18 -7 26 -15 13 -12 15 -10 21 17 6 31 -8 53 -26 42 -4 -3
-8 0 -8 5 0 14 27 14 35 1 3 -5 14 -10 25 -10 10 0 20 -6 23 -13 5 -15 -30
-129 -43 -137 -4 -3 -10 -15 -14 -27 -4 -13 -15 -24 -24 -24 -16 -1 -16 -2 0
-6 9 -2 19 -14 21 -26 4 -19 4 -18 6 4 0 15 12 47 26 70 14 24 25 52 25 62 0
9 10 27 22 39 l21 21 -6 -29 c-5 -26 -3 -29 20 -30 33 -2 58 -32 67 -77 4 -23
13 -37 21 -37 8 0 15 5 15 10 0 7 7 7 20 0 12 -6 29 -8 40 -5 15 5 17 2 13
-15 -4 -16 -8 -18 -19 -9 -15 12 -18 7 -14 -25 1 -10 -4 -23 -12 -27 -10 -7
-9 -9 4 -9 9 0 19 9 23 20 5 16 9 17 20 7 7 -6 12 -16 12 -22 -1 -5 17 -12 40
-15 24 -4 46 -10 50 -15 5 -4 0 -5 -9 -2 -10 4 -18 3 -18 -2 0 -5 11 -11 25
-13 17 -4 25 -1 25 9 0 8 5 11 10 8 6 -3 10 -15 10 -26 0 -13 7 -19 23 -19 16
0 18 -3 9 -9 -11 -6 -10 -10 4 -15 12 -5 14 -10 7 -17 -7 -7 -3 -24 14 -55 14
-24 28 -44 33 -44 4 0 10 -9 13 -20 3 -11 1 -18 -4 -14 -11 6 -11 2 -3 -20 3
-9 12 -16 20 -16 19 0 18 -13 -4 -31 -17 -15 -32 -19 -74 -20 -25 0 -23 -19 2
-19 14 0 20 -7 20 -21 0 -14 5 -19 18 -17 10 2 16 11 14 21 -2 10 4 17 13 17
14 0 14 -4 -1 -37 -9 -21 -20 -54 -24 -73 -6 -25 -8 -28 -9 -11 -1 16 -5 21
-16 17 -11 -4 -15 1 -15 19 0 14 -4 25 -10 25 -5 0 -10 -13 -10 -30 0 -20 5
-30 15 -30 8 0 15 -8 15 -17 0 -11 -3 -14 -8 -7 -4 7 -15 8 -27 3 -11 -4 -14
-8 -7 -8 6 -1 12 -5 12 -9 0 -13 -63 -11 -79 2 -11 8 -13 8 -7 -1 5 -10 -3
-13 -31 -12 -30 2 -32 3 -11 6 24 4 27 7 18 24 -9 15 -7 21 5 25 8 3 15 13 15
21 0 8 4 12 9 9 5 -3 12 2 15 11 12 29 -36 44 -75 23 -22 -12 -26 -40 -4 -40
18 0 9 -26 -12 -34 -9 -4 -22 -1 -29 5 -10 8 -18 8 -26 1 -7 -5 -22 -12 -33
-16 -11 -3 -2 -4 20 -2 38 3 38 3 13 -7 -34 -13 -37 -27 -5 -20 16 3 18 2 7
-5 -24 -15 -119 -22 -148 -11 -15 6 -37 12 -50 14 -26 3 -24 1 -39 35 -10 22
-12 22 -12 5 0 -28 25 -59 52 -64 12 -2 105 -3 207 -3 102 0 170 -2 152 -5
-28 -4 -31 -7 -21 -19 6 -8 20 -14 30 -14 10 0 21 -5 25 -11 4 -8 9 -7 16 2 8
11 9 10 4 -3 -3 -10 -3 -25 0 -33 7 -17 51 -20 56 -4 3 8 9 6 20 -5 10 -9 18
-12 20 -5 6 19 58 -12 59 -35 1 -18 2 -18 6 -3 3 10 -1 24 -7 32 -9 11 -9 15
-1 15 6 0 15 -8 18 -17 4 -10 15 -29 25 -42 20 -26 24 -61 7 -61 -6 0 -9 6 -6
14 3 8 0 22 -7 32 -11 14 -14 15 -22 3 -4 -8 -10 -23 -11 -34 -4 -27 -33 -47
-60 -42 -13 2 -23 0 -23 -4 0 -5 -7 -6 -15 -3 -11 4 -15 -1 -15 -17 -1 -22 -2
-23 -14 -6 -16 21 -26 22 -26 1 0 -8 -4 -13 -9 -10 -5 3 -11 -3 -14 -14 -3
-14 -14 -20 -31 -20 -14 0 -26 -4 -26 -10 0 -5 16 -10 35 -10 19 0 35 -4 35
-8 0 -5 -14 -6 -31 -4 -30 4 -31 3 -25 -21 3 -14 2 -29 -4 -32 -5 -3 -10 0
-10 7 0 7 -14 14 -33 16 -41 3 -77 -6 -77 -19 0 -6 9 -8 20 -4 11 3 28 2 37
-4 15 -9 14 -10 -11 -11 l-30 0 32 -31 c18 -17 32 -35 32 -40 0 -15 -20 -10
-26 6 -4 8 -10 15 -15 15 -13 0 -11 -38 2 -42 10 -3 13 -32 9 -90 -1 -11 -9
-18 -20 -18 -27 0 -34 17 -9 23 13 4 18 10 14 17 -6 9 -10 9 -16 -1 -8 -12
-10 -12 -18 0 -9 14 -35 6 -26 -9 3 -5 1 -11 -5 -15 -16 -10 -12 -21 13 -32
20 -10 20 -12 4 -18 -12 -5 -23 -1 -32 11 -14 18 -14 18 -15 -4 0 -13 10 -32
22 -42 22 -17 22 -18 4 -45 -14 -21 -15 -29 -6 -35 9 -5 9 -9 1 -14 -6 -4 -11
-2 -11 3 0 6 -6 11 -13 11 -19 0 -35 33 -26 55 6 17 8 17 8 3 1 -10 6 -18 12
-18 8 0 9 12 4 38 -4 20 -8 37 -8 38 -11 8 -77 10 -77 3 0 -5 12 -9 28 -9 21
0 24 -2 12 -10 -12 -8 -10 -10 10 -11 25 -2 25 -2 2 -6 -14 -3 -22 -10 -19
-17 4 -10 -10 -13 -54 -13 -32 0 -59 5 -59 10 0 5 7 7 15 3 8 -3 15 -2 15 2 0
4 3 18 6 32 l5 25 -16 -25 c-12 -18 -15 -20 -10 -5 4 11 9 36 11 55 3 27 2 31
-5 15 -5 -11 -10 -14 -10 -7 -1 6 -8 12 -16 12 -8 0 -15 2 -15 4 0 2 -3 12 -7
22 -5 14 -2 16 15 12 12 -4 22 -2 22 3 0 9 -2 10 -37 14 -29 3 -55 24 -46 38
4 6 1 7 -6 2 -8 -4 -26 6 -48 26 -20 19 -32 27 -27 18 5 -9 26 -30 46 -48 24
-21 35 -38 32 -49 -5 -13 -4 -14 4 -3 7 9 12 10 16 2 4 -6 0 -14 -9 -18 -10
-3 -20 -1 -24 6 -8 13 -41 4 -41 -11 0 -5 -4 -6 -10 -3 -5 3 -10 1 -10 -5 0
-6 -8 -9 -17 -6 -22 6 -58 -18 -48 -33 3 -6 1 -19 -4 -28 -6 -10 -11 -14 -11
-9 0 5 -7 3 -15 -4 -25 -20 -27 -5 -4 23 22 29 8 37 -18 12 -9 -9 -13 -26 -10
-40 3 -17 0 -25 -10 -25 -8 0 -11 5 -8 10 3 6 1 10 -5 10 -6 0 -9 3 -7 8 3 4
-1 12 -8 19 -10 9 -15 3 -25 -28 -7 -21 -17 -36 -22 -33 -5 3 -6 15 -2 26 4
15 3 18 -6 13 -8 -5 -11 -4 -7 3 4 5 4 17 1 26 -9 24 -33 -4 -29 -35 1 -13 0
-16 -2 -6 -5 21 -23 23 -23 2 0 -28 -18 -15 -26 18 -4 17 -9 26 -11 20 -3 -7
-12 -13 -21 -12 -11 0 -12 2 -4 6 6 2 12 9 12 14 0 14 -18 1 -30 -21 -8 -15
-7 -17 12 -12 14 3 26 -1 34 -13 17 -23 18 -71 3 -81 -7 -4 -9 0 -5 14 4 11 2
23 -4 27 -5 3 -10 -1 -10 -10 0 -9 -4 -13 -10 -10 -5 3 -10 18 -10 33 0 24 -1
25 -13 7 -18 -23 -31 -5 -23 33 3 15 3 21 0 15 -3 -7 -16 -13 -28 -13 -19 0
-22 6 -24 45 -1 26 3 45 9 45 6 0 7 -4 4 -10 -9 -15 12 -12 28 5 15 15 27 11
23 -8 -2 -7 -1 -9 1 -5 2 4 11 4 20 1 13 -5 14 -3 3 16 -9 17 -9 26 1 37 11
14 10 15 -13 18 -7 0 -13 8 -13 16 0 23 -32 24 -40 1 -6 -21 -25 -29 -25 -11
0 6 5 10 11 10 6 0 9 7 5 15 -3 9 0 15 9 15 17 0 20 16 5 25 -6 4 -8 11 -5 16
4 5 -1 9 -11 9 -14 0 -16 7 -11 36 3 20 13 44 22 54 18 20 2 41 -17 22 -8 -8
-17 -8 -30 -1 -10 6 -26 8 -36 5 -22 -8 -65 -73 -52 -81 6 -3 10 -16 10 -28 0
-14 -3 -18 -8 -10 -5 8 -13 9 -22 3 -12 -8 -12 -10 -1 -10 9 0 11 -8 7 -24 -4
-17 -1 -28 9 -33 11 -7 13 -16 7 -38 -5 -17 -7 -58 -5 -92 3 -52 1 -63 -12
-63 -8 0 -15 -4 -15 -10 0 -15 11 -12 32 7 17 15 18 15 18 -4 0 -11 -3 -23 -7
-27 -4 -3 -7 -27 -8 -53 0 -27 -6 -48 -13 -51 -7 -2 -12 -10 -12 -18 0 -8 -4
-14 -10 -14 -17 0 -11 28 7 39 10 5 14 13 9 18 -5 4 -11 2 -13 -4 -5 -15 -33
-18 -33 -4 0 5 6 11 13 14 6 2 9 8 5 12 -5 5 -16 1 -26 -8 -10 -10 -21 -15
-24 -12 -3 3 -11 -1 -18 -10 -8 -10 -9 -15 -1 -15 6 0 11 5 11 11 0 5 4 8 10
4 14 -9 1 -33 -18 -31 -23 1 -33 17 -26 41 4 17 3 18 -6 5 -8 -10 -13 -11 -16
-4 -3 7 -13 10 -23 7 -11 -3 -21 2 -25 12 -3 10 -11 13 -18 9 -10 -6 -10 -4 0
8 8 9 19 15 25 12 9 -3 11 9 8 43 -2 27 -6 42 -8 36 -3 -7 -9 -13 -15 -13 -6
0 -8 7 -4 15 3 8 1 15 -4 15 -6 0 -10 -12 -10 -27 l-1 -28 -19 24 -20 23 -1
-43 c0 -39 -2 -41 -11 -22 -6 13 -19 25 -29 28 -14 5 -19 16 -19 41 0 28 4 34
23 35 17 0 15 3 -13 14 -19 7 -31 14 -26 14 5 1 3 8 -4 16 -6 8 -9 18 -6 24 3
5 -1 12 -9 15 -24 9 0 46 30 46 18 0 23 5 22 20 -2 24 1 24 -42 0 -32 -18 -38
-19 -51 -5 -9 8 -13 15 -9 15 3 0 3 5 -1 11 -4 8 -9 7 -15 -2 -7 -12 -14 -11
-39 3 -20 12 -30 13 -30 5 0 -7 25 -23 55 -37 35 -16 55 -31 55 -42 0 -9 5
-20 10 -23 6 -4 10 -12 8 -18 -1 -9 10 -124 17 -167 0 -3 4 -11 8 -17 5 -7 6
-17 3 -22 -4 -5 -2 -11 3 -13 14 -5 18 -43 4 -41 -7 2 -13 -4 -13 -12 0 -32
-18 -13 -24 25 -6 38 -26 57 -26 25 0 -19 -16 -19 -24 0 -3 8 -12 15 -19 15
-8 0 -27 12 -43 26 -16 16 -30 22 -32 15 -6 -19 -22 -12 -22 10 0 17 -3 19
-14 10 -11 -9 -15 -7 -19 11 -4 13 -2 27 4 33 7 7 8 4 4 -7 -8 -21 -2 -22 28
-6 l22 12 -25 6 c-28 8 -60 -13 -60 -38 0 -11 -3 -12 -13 -4 -7 6 -18 7 -26 3
-22 -14 -8 -45 29 -63 l35 -18 -33 6 c-31 6 -33 4 -27 -15 4 -13 2 -21 -5 -21
-7 0 -14 9 -17 20 -6 24 -23 27 -23 4 0 -13 -2 -13 -13 -2 -7 7 -16 21 -20 30
-4 11 -12 15 -22 12 -20 -8 -67 4 -60 16 3 5 1 11 -5 15 -5 3 -10 0 -11 -7 0
-7 -2 -28 -4 -47 -2 -22 0 -29 6 -20 7 11 9 10 9 -3 0 -10 6 -18 14 -18 10 0
12 -7 8 -22 -4 -17 -2 -20 11 -15 9 3 19 2 22 -3 4 -6 -4 -10 -15 -10 -13 0
-24 -8 -27 -20 -3 -11 -9 -20 -14 -20 -5 0 -9 -5 -9 -11 0 -7 -11 -22 -26 -35
-28 -27 -43 -32 -24 -9 7 9 10 18 7 21 -9 9 -37 -22 -37 -40 0 -9 -6 -16 -12
-16 -9 0 -9 -3 -2 -8 20 -14 11 -52 -14 -59 -17 -4 -20 -8 -11 -14 26 -16 0
-21 -30 -6 -17 8 -40 13 -51 10 -11 -3 -20 -1 -20 5 0 5 -7 13 -16 16 -8 3
-12 2 -9 -4 3 -6 -1 -19 -9 -31 -8 -12 -12 -28 -9 -35 3 -8 0 -14 -6 -14 -6 0
-11 7 -11 16 0 14 -7 16 -43 11 -30 -4 -50 -2 -65 8 -16 12 -21 12 -25 2 -3
-7 -6 -4 -6 6 -1 10 -5 16 -10 13 -8 -5 -41 62 -41 83 0 12 85 32 104 25 11
-4 13 0 9 16 -5 18 -2 21 17 18 13 -2 25 3 28 11 3 9 0 11 -8 6 -7 -4 -16 -2
-20 6 -12 19 -62 -5 -54 -26 5 -11 -1 -15 -22 -15 -20 0 -25 3 -15 9 9 6 10
11 2 15 -15 10 -31 -2 -25 -18 4 -11 -36 -48 -58 -52 -5 -1 -11 -2 -15 -3 -4
0 -2 -6 5 -13 7 -7 12 -21 12 -32 0 -18 -1 -18 -18 -3 -24 22 -32 21 -32 -2 0
-13 9 -21 30 -26 17 -4 30 -11 30 -16 0 -12 -53 1 -62 15 -4 6 -8 21 -8 34 0
12 -5 22 -11 22 -5 0 -7 -4 -4 -10 3 -5 -3 -10 -15 -10 -12 0 -19 4 -16 8 11
19 16 72 6 72 -5 0 -10 -7 -10 -15 0 -25 -17 -17 -31 14 -8 19 -18 27 -28 23
-11 -4 -13 0 -8 17 5 21 3 22 -36 17 -23 -3 -33 -2 -23 1 31 8 44 26 35 48 -4
11 -8 16 -9 10 0 -5 -7 -1 -15 9 -11 15 -17 17 -29 7 -10 -8 -16 -9 -21 -1 -3
5 -2 10 3 10 6 0 8 9 5 20 -3 11 0 20 6 20 6 0 11 -7 11 -15 0 -24 14 -17 28
12 8 18 9 30 2 37 -7 7 -10 4 -10 -7 0 -9 -4 -17 -10 -17 -5 0 -10 7 -10 16 0
9 -6 14 -13 11 -9 -3 -13 8 -14 39 -1 24 3 44 8 44 5 0 9 -11 9 -25 0 -14 4
-25 9 -25 11 0 23 43 13 50 -4 3 -12 14 -18 24 -5 11 -20 21 -32 23 -26 3 -28
-3 -7 -23 16 -16 10 -45 -8 -39 -7 3 -21 -2 -32 -11 -20 -15 -20 -15 -1 -30
19 -13 18 -14 -11 -11 -16 2 -35 7 -42 11 -6 4 -11 1 -11 -7 0 -18 16 -24 58
-21 32 2 44 -10 20 -19 -10 -4 -10 -8 1 -15 12 -9 12 -13 -3 -27 -9 -9 -23
-14 -31 -11 -12 4 -14 -4 -10 -42 3 -34 1 -43 -6 -32 -8 11 -9 7 -3 -15 4 -16
7 -47 6 -68 -1 -23 2 -36 8 -32 6 4 8 11 5 16 -4 5 -1 9 5 9 6 0 8 5 5 10 -3
6 -2 10 3 10 15 0 23 -28 10 -32 -22 -8 4 -30 28 -25 29 5 40 -8 25 -27 -9
-11 -6 -15 11 -21 l23 -8 -22 -4 c-13 -2 -23 -9 -23 -14 0 -6 -11 -20 -25 -33
-14 -13 -25 -29 -25 -37 0 -11 -2 -11 -12 0 -10 11 -10 14 0 18 6 3 12 14 12
25 0 14 5 18 15 14 11 -4 15 2 15 22 l0 27 -25 -29 c-14 -17 -28 -40 -31 -53
-6 -21 -16 -27 -36 -24 -11 2 -10 -13 2 -25 6 -6 1 -10 -15 -12 -16 -1 -25 3
-25 13 0 7 -5 17 -11 21 -7 4 -9 0 -5 -14 5 -15 2 -22 -14 -27 -11 -4 -17 -11
-14 -17 5 -8 1 -9 -11 -5 -9 4 -24 2 -31 -4 -14 -11 -38 -3 -29 11 5 8 -68 44
-92 45 -21 1 -26 14 -12 32 11 14 9 13 -12 -2 l-27 -20 23 -15 c19 -12 20 -17
9 -27 -19 -19 -44 -16 -44 5 0 10 -3 13 -8 7 -4 -6 -16 -12 -27 -12 -19 -1
-21 5 -22 70 -1 60 1 66 8 39 5 -17 16 -32 23 -32 16 0 25 19 18 38 -4 11 -6
11 -13 1 -4 -8 -11 -10 -15 -6 -4 4 1 17 12 29 10 12 14 18 7 15 -8 -5 -8 -1
0 18 7 14 18 25 26 25 10 0 12 9 8 35 -4 22 -1 38 6 42 7 5 19 22 28 38 9 17
21 29 28 27 6 -1 14 5 18 14 4 11 8 12 13 4 4 -7 13 -9 19 -5 15 9 -4 35 -25
35 -7 0 -20 14 -29 30 -9 17 -20 30 -25 30 -6 0 -33 23 -60 50 -51 52 -66 86
-32 76 22 -7 67 28 57 44 -3 6 -3 10 2 9 4 -1 18 -1 31 0 30 1 28 21 -3 21
-16 0 -23 4 -19 13 3 9 -3 13 -18 12 -14 -1 -24 -9 -26 -21 -9 -46 -44 -37
-64 15 -13 35 -1 101 18 94 8 -3 14 0 14 6 0 6 -3 11 -7 11 -5 0 -6 22 -5 50
2 27 8 48 12 45 4 -3 6 3 3 14 -3 10 0 22 6 25 6 4 11 1 11 -6 1 -7 7 -2 15
12 12 23 12 26 -6 32 -10 4 -19 12 -19 19 0 6 7 8 16 5 14 -5 15 -4 4 9 -7 8
-16 12 -21 9 -13 -8 -11 13 3 36 10 16 10 24 1 39 -9 15 -8 38 8 112 10 52 22
131 25 176 5 80 4 82 -22 99 -26 17 -26 20 -19 83 3 37 8 89 10 116 4 42 12
97 20 128 2 4 3 12 4 18 1 7 11 9 26 5 14 -4 25 -2 25 4 0 9 -14 14 -32 11 -9
-1 -16 27 -26 104 l-7 60 -34 0 c-29 0 -37 5 -54 38 -11 21 -22 36 -24 33 -5
-4 3 -21 41 -91 9 -16 16 -50 16 -75 0 -34 3 -41 12 -32 7 7 17 12 24 12 12 0
26 -35 16 -44 -2 -3 -7 -38 -9 -78 -6 -96 -8 -120 -24 -201 l-12 -69 29 -23
c26 -20 29 -28 26 -64 -2 -22 -7 -39 -11 -37 -3 2 -6 -24 -7 -57 0 -34 -5 -91
-10 -127 -9 -64 -10 -65 -39 -62 -16 2 -35 8 -41 13 -6 5 -14 6 -17 2 -4 -3
-9 2 -13 11 -3 9 -15 16 -26 16 -19 0 -18 -1 4 -28 13 -16 26 -25 29 -19 4 5
12 0 19 -13 9 -17 18 -21 40 -16 25 4 29 2 28 -17 -1 -12 -6 -28 -11 -35 -6
-7 -10 -26 -9 -42 0 -16 -4 -33 -10 -36 -6 -4 -8 -3 -5 2 3 6 -6 9 -21 8 -40
-2 -42 -3 -42 -15 0 -8 4 -8 15 1 16 13 35 6 35 -15 0 -16 -11 -25 -39 -30
-14 -2 -21 4 -25 21 -4 14 -4 30 0 36 5 7 -2 9 -19 6 -15 -3 -28 -2 -29 2 -2
5 -9 2 -16 -6 -11 -12 -10 -14 3 -14 8 0 15 -4 15 -9 0 -5 3 -17 6 -25 5 -12
2 -15 -10 -10 -10 4 -15 13 -12 20 3 9 -2 14 -15 14 -16 0 -18 -3 -9 -19 5
-11 15 -22 22 -24 7 -3 1 -6 -14 -6 -38 -1 -58 -11 -58 -28 0 -9 -6 -13 -15
-9 -8 3 -15 0 -15 -7 0 -8 16 -11 51 -8 64 4 139 -7 139 -21 0 -10 -21 -8 -80
8 -22 7 -24 6 -11 -9 11 -13 11 -17 1 -17 -8 0 -10 -3 -7 -6 4 -4 14 -1 22 6
12 10 19 10 27 2 7 -7 25 -12 41 -12 24 0 28 3 24 20 -7 26 5 26 21 0 10 -17
9 -31 -9 -83 -23 -68 -76 -124 -114 -119 -16 2 -17 1 -5 -7 8 -6 34 -11 56
-11 25 0 47 -6 54 -15 7 -8 23 -15 36 -15 14 0 25 -8 29 -20 3 -11 14 -20 22
-20 9 0 14 -3 10 -6 -6 -6 12 -31 61 -81 17 -19 32 -38 32 -44 0 -6 -21 -42
-46 -79 -25 -38 -43 -74 -39 -79 4 -7 0 -8 -11 -4 -11 4 -22 -1 -30 -12 -13
-18 -15 -18 -40 6 -14 13 -30 33 -34 44 -8 18 -9 18 -9 2 -1 -23 64 -91 78
-82 16 10 13 -11 -3 -25 -11 -9 -19 -9 -33 0 -17 11 -16 11 2 5 15 -5 17 -3 8
6 -14 14 -34 3 -26 -16 3 -8 0 -15 -6 -15 -6 0 -11 6 -11 13 0 16 -97 16 -127
-1 -29 -16 -33 -15 -27 6 4 12 3 13 -3 4 -7 -9 -17 -10 -34 -4 -29 11 -49 5
-49 -15 0 -12 -2 -12 -16 2 -17 17 -76 12 -102 -8 -8 -6 -17 -5 -27 3 -12 10
-15 10 -15 -4 0 -12 -10 -16 -40 -16 -22 0 -40 -4 -40 -10 0 -5 -5 -10 -11
-10 -5 0 -7 6 -3 13 5 8 2 8 -9 -2 -23 -18 -21 -9 9 49 14 28 27 67 28 87 1
21 10 52 19 70 19 35 23 98 7 88 -6 -3 -10 -21 -10 -40 0 -19 -4 -36 -9 -39
-5 -3 -12 -23 -15 -43 -10 -57 -37 -123 -48 -117 -4 3 -7 2 -6 -3 2 -4 -1 -9
-6 -10 -5 0 -13 -8 -18 -17 -5 -9 -14 -13 -20 -10 -7 4 -8 2 -4 -4 3 -6 -3
-16 -14 -22 -17 -9 -20 -8 -20 9 0 26 -17 36 -35 21 -12 -10 -18 -10 -30 0 -8
7 -13 15 -11 19 2 3 -14 6 -35 6 -21 1 -39 -3 -39 -7 0 -20 -29 -5 -34 18 -7
27 -33 28 -28 0 2 -13 -6 -16 -45 -16 -32 0 -43 -3 -34 -9 8 -5 20 -7 27 -4 7
2 19 -5 26 -16 7 -12 19 -21 26 -21 7 0 11 -4 7 -9 -3 -5 3 -12 12 -14 14 -4
12 -5 -5 -6 -12 0 -31 -6 -42 -13 -10 -7 -23 -8 -27 -4 -4 5 -2 11 5 13 24 9
12 23 -14 17 -19 -5 -25 -4 -20 5 5 7 -1 11 -14 11 -15 0 -20 5 -17 14 3 7 2
17 -3 22 -5 5 -11 32 -15 59 -3 28 -10 75 -16 105 -5 30 -11 63 -11 73 -1 9
-9 17 -18 17 -10 0 -11 3 -4 8 16 9 -3 26 -33 30 -24 3 -32 -13 -10 -21 6 -2
9 -8 5 -12 -4 -4 -28 13 -54 37 -40 39 -48 54 -55 99 -7 42 -5 64 7 96 16 40
15 43 -5 69 -20 25 -21 25 -21 5 0 -11 -4 -21 -9 -21 -5 0 -7 -8 -4 -18 2 -10
-3 -24 -11 -31 -11 -9 -16 -10 -16 -2 0 6 -10 11 -22 11 -19 0 -20 -2 -8 -10
12 -8 11 -10 -8 -10 -19 0 -21 4 -16 25 3 14 3 33 0 42 -6 15 -9 15 -16 3 -6
-9 -8 0 -7 28 2 33 6 42 20 42 10 0 17 8 17 20 0 11 6 20 13 20 7 0 13 9 14
20 1 11 -3 20 -8 20 -22 0 -20 31 2 50 18 15 21 22 11 28 -14 9 -6 42 10 42 6
0 8 -7 4 -15 -5 -15 14 -21 27 -9 9 10 -12 46 -23 39 -6 -3 -7 1 -4 10 5 13 9
13 23 3 28 -23 36 -33 36 -47 0 -8 6 -16 13 -18 21 -8 13 33 -12 54 -36 31
-62 36 -98 19 -17 -9 -39 -16 -49 -16 -10 0 -21 -5 -25 -11 -4 -8 -9 -7 -15 2
-8 12 -11 12 -18 0 -8 -12 -12 -12 -25 -2 -13 11 -19 11 -31 1 -8 -6 -23 -9
-35 -5 -15 5 -20 2 -21 -12 0 -15 -2 -15 -9 3 -5 12 -13 25 -19 29 -6 3 -11
13 -11 21 0 9 -13 35 -30 59 -28 41 -30 49 -30 142 0 58 4 92 9 85 4 -8 19
-12 32 -11 13 2 31 -1 38 -6 8 -5 24 -10 35 -11 12 -2 32 -5 46 -7 14 -3 33
-5 43 -6 10 0 16 -5 13 -10 -3 -5 0 -13 7 -19 13 -12 97 6 97 20 0 4 9 8 20 8
16 0 19 5 17 23 -2 12 -2 16 0 9 6 -16 58 36 58 58 0 8 8 14 17 14 9 -1 18 7
21 16 4 16 0 18 -28 13 -24 -4 -38 0 -52 14 -27 27 -53 36 -53 18 0 -8 7 -15
15 -15 8 0 15 -7 15 -16 0 -10 -5 -14 -15 -10 -8 3 -22 9 -31 13 -14 5 -15 1
-9 -27 6 -27 5 -32 -8 -27 -12 4 -17 -1 -19 -21 -4 -37 -39 -42 -57 -8 -8 14
-11 32 -8 41 5 12 1 15 -20 13 -22 -3 -28 2 -35 30 -5 17 -13 32 -18 32 -18 0
-10 29 12 44 21 15 14 22 -14 17 -5 0 -8 6 -8 14 0 8 6 14 13 12 7 -1 11 6 9
18 -3 16 -1 18 9 8 17 -17 29 -16 29 2 0 8 -4 15 -10 15 -5 0 -8 13 -7 29 1
16 5 27 9 25 3 -2 9 4 11 13 4 14 5 13 6 -4 0 -13 5 -23 11 -23 5 0 7 7 4 15
-4 9 0 15 8 15 8 0 19 19 26 45 14 54 88 138 98 111 9 -23 24 -20 19 4 -2 13
2 20 11 20 23 0 75 30 69 40 -6 9 81 30 123 29 24 0 25 -1 7 -9 -18 -8 -18 -9
-2 -9 12 -1 16 -6 11 -13 -4 -7 -1 -6 7 2 8 8 21 20 29 28 13 12 13 13 -2 8
-10 -3 -18 -2 -18 3 0 5 21 12 46 16 25 3 64 15 87 26 23 11 33 17 22 13 -11
-3 -47 -12 -80 -19 -59 -12 -81 -11 -58 3 6 4 8 21 6 39 -3 18 -9 30 -14 28
-4 -3 -8 3 -8 12 0 27 -20 116 -32 136 -5 9 -9 46 -8 80 1 35 -2 73 -5 85 -4
13 -3 22 3 22 5 0 8 12 5 26 -4 24 -3 25 28 19 42 -9 98 -35 98 -45 0 -15 33
-21 41 -8 14 23 -36 54 -110 68 -39 7 -68 17 -65 22 3 4 0 8 -5 8 -6 0 -11 -5
-11 -10 0 -6 -16 4 -35 23 -33 32 -47 56 -25 42 22 -13 9 46 -15 70 -14 14
-21 25 -15 25 5 0 10 12 10 26 0 14 5 34 10 45 7 12 7 19 1 19 -6 0 -16 -10
-22 -22 -12 -22 -12 -22 -20 -3 -10 25 -11 40 -2 32 8 -9 33 12 33 27 0 6 -5
4 -10 -4 -8 -11 -9 -9 -8 13 1 15 5 27 9 27 4 0 5 9 2 21 -4 15 0 22 16 26 27
7 27 29 1 43 -14 8 -19 17 -15 30 4 14 1 18 -12 16 -10 -2 -17 -10 -15 -18 2
-14 -2 -14 -33 0 -19 9 -35 22 -35 29 0 7 -5 13 -11 13 -5 0 -7 -6 -3 -12 5
-9 2 -9 -9 1 -9 7 -17 23 -18 35 0 11 -3 15 -6 9 -8 -21 -20 -15 -28 15 -7 25
-8 25 -15 7 -7 -17 -9 -17 -9 -3 -1 10 15 35 34 57 19 21 35 45 35 52 -1 10
-5 8 -15 -5 -7 -10 -18 -15 -23 -12 -5 3 -12 -3 -15 -13 -7 -27 -56 -37 -73
-14 -7 10 -12 23 -10 29 6 15 -11 40 -21 31 -4 -5 -1 -12 7 -17 9 -6 10 -10 3
-10 -7 0 -16 8 -22 17 -8 15 -11 15 -26 3 -12 -10 -15 -23 -12 -47 4 -20 2
-31 -4 -28 -5 4 -10 3 -10 -2 -8 -54 -7 -62 9 -65 9 -2 25 6 34 17 17 20 17
19 14 -15 l-3 -35 -52 0 c-28 0 -51 -3 -51 -7 0 -5 -4 -8 -10 -8 -5 0 -10 7
-10 16 0 8 -4 12 -10 9 -6 -3 -10 4 -11 17 l0 23 -11 -23 c-12 -24 -39 -22
-66 4 -7 8 -18 14 -23 14 -13 0 -11 54 3 68 9 9 8 12 -4 12 -9 0 -18 -6 -21
-12 -3 -8 -9 -2 -15 14 -6 14 -16 29 -21 33 -14 8 -14 25 0 25 6 0 29 13 52
28 62 42 92 52 149 52 42 0 57 5 78 25 15 14 48 34 73 43 46 18 46 18 32 45
-13 26 -13 27 11 27 14 0 27 -7 30 -15 9 -22 24 -19 19 4 -3 15 1 18 18 13 12
-3 27 -13 34 -21 11 -14 12 -14 13 2 0 14 5 16 28 11 15 -4 30 -12 34 -18 4
-6 11 -7 15 -2 4 4 -1 14 -12 23 -19 13 -17 14 18 8 34 -7 37 -5 37 16 -1 22
-2 22 -14 7 -12 -16 -14 -16 -29 2 -15 18 -15 19 4 25 30 10 22 22 -13 20
l-31 -2 23 19 c22 18 23 21 7 29 -9 6 -17 19 -17 29 0 10 -5 22 -10 25 -15 9
-8 58 10 72 8 6 25 9 38 6 26 -6 30 13 5 21 -10 3 16 2 57 -1 87 -6 80 -6 105
-4 14 1 16 4 8 12 -6 6 -9 18 -5 27 4 12 1 14 -12 9 -10 -4 -25 -7 -33 -7 -13
0 -13 -3 -3 -15 11 -13 8 -14 -21 -8 -32 7 -70 7 -128 1 -13 -2 -26 3 -28 10
-3 7 1 10 11 6 14 -5 14 -3 1 23 -14 29 -10 73 7 73 5 0 6 5 3 10 -4 6 0 24 9
40 8 17 10 30 5 30 -18 0 -9 59 13 80 12 11 25 20 30 20 4 0 5 7 2 15 -4 9 1
18 11 21 9 4 14 12 11 19 -2 7 4 15 15 18 21 6 36 -9 17 -16 -7 -3 -3 -6 9 -6
17 -1 24 6 29 26 4 15 17 35 28 44 19 16 18 16 -29 13 -27 -3 -46 -1 -42 2 4
4 46 10 94 14 49 5 100 11 115 15 25 6 27 5 23 -16 -7 -36 4 -59 28 -60 21 -1
21 -1 -2 -8 -20 -5 -24 -13 -25 -58 0 -28 0 -50 2 -48 2 2 17 -1 33 -5 17 -5
31 -5 34 1 6 8 -15 13 -42 10 -9 -1 -13 13 -13 44 0 25 5 45 10 45 6 0 10 -12
10 -27 0 -22 2 -25 10 -13 7 10 13 11 18 5 9 -14 50 -17 57 -4 11 17 -6 31
-21 18 -11 -9 -14 -7 -14 10 0 18 6 21 44 21 30 0 46 -5 50 -15 3 -8 16 -15
30 -15 19 0 23 4 19 20 -4 15 -11 19 -24 15 -11 -4 -19 -2 -19 4 0 11 27 16
64 12 24 -2 86 26 86 39 0 13 -17 13 -25 0 -3 -5 -19 -10 -36 -10 -16 0 -29 5
-29 10 0 6 -11 10 -25 10 -14 0 -25 -6 -25 -14 0 -9 -8 -12 -27 -8 -25 5 -27
4 -14 -11 12 -15 11 -17 -7 -17 -22 0 -92 37 -104 55 -4 5 0 13 10 18 12 5 9
6 -10 4 -20 -3 -25 0 -20 11 4 11 1 14 -11 9 -12 -4 -15 -1 -11 11 2 9 -1 7
-7 -5 -13 -25 -37 -33 -101 -33 -43 0 -48 2 -48 22 0 17 -3 19 -12 10 -14 -14
-32 -16 -23 -2 3 6 -1 7 -9 4 -9 -3 -16 -1 -16 5 0 6 10 11 23 12 12 0 16 3
10 6 -7 2 -13 11 -13 18 0 22 29 45 47 38 12 -5 15 -2 10 10 -4 10 -2 17 4 17
6 0 9 7 6 15 -8 19 13 31 24 14 8 -12 11 -12 19 1 14 21 12 30 -5 30 -8 0 -15
4 -15 9 0 5 18 8 39 7 22 0 35 -4 29 -7 -5 -4 -6 -9 -2 -11 5 -3 20 9 33 26
14 17 18 25 11 19 -8 -7 -17 -13 -20 -13 -8 0 -34 52 -32 63 3 12 -26 8 -31
-5 -3 -7 -8 2 -12 20 -4 17 -11 32 -16 32 -4 0 -7 18 -6 41 1 30 -3 43 -16 51
-14 8 -16 13 -6 24 9 11 8 14 -5 14 -9 0 -16 4 -16 9 0 5 -9 11 -20 14 -20 5
-29 37 -11 37 14 0 -15 53 -43 79 -14 13 -22 30 -19 38 4 9 -2 16 -16 20 -14
4 -24 16 -28 35 -3 16 -20 40 -37 54 -30 24 -30 25 -12 39 19 14 18 15 -11 15
-19 0 -33 6 -37 16 -4 9 -5 18 -3 20 2 2 35 5 74 6 63 3 74 0 96 -20 17 -16
39 -24 66 -25 30 -2 40 -6 38 -17 -1 -8 5 -15 13 -15 9 0 15 11 16 33 1 28 -2
32 -23 32 -15 0 -23 5 -20 13 2 6 15 11 29 9 15 -2 29 2 33 7 3 6 1 11 -6 11
-10 0 -10 3 -1 12 7 7 12 22 12 34 0 13 4 25 10 29 5 3 7 12 3 20 -3 9 1 15
10 15 9 0 19 9 22 20 3 11 11 20 16 20 6 0 9 8 8 18 -3 31 1 43 11 37 7 -4 7
2 0 19 -6 17 -6 36 2 56 9 29 11 29 24 13 13 -17 13 -17 14 4 0 16 5 20 20 16
11 -3 20 0 20 6 0 6 -7 11 -15 11 -17 0 -18 2 -9 24 13 33 34 17 34 -24 0 -33
-7 -47 -34 -74 -26 -26 -32 -40 -29 -60 3 -15 9 -29 14 -32 5 -3 6 8 3 23 -4
20 0 35 14 51 30 34 40 27 47 -35 11 -92 24 -142 52 -201 21 -44 26 -72 27
-127 0 -38 -3 -82 -7 -97 -6 -24 -3 -30 33 -53 22 -14 46 -25 55 -25 8 0 15
-4 15 -9 0 -5 7 -11 14 -14 10 -4 13 -1 10 8 -4 10 0 12 15 8 12 -3 21 -1 21
6 0 7 -21 11 -52 11 -38 0 -49 3 -38 10 12 8 11 10 -5 10 -11 0 -30 7 -42 15
-19 13 -20 19 -11 52 5 21 8 66 5 100 -3 42 -1 63 7 63 6 0 0 7 -12 16 -25 17
-37 41 -58 122 -24 92 -22 97 42 99 40 2 60 7 69 19 9 14 27 17 79 17 83 -2
84 -2 68 -11 -8 -6 4 -16 37 -32 58 -27 96 -23 134 12 22 21 24 29 17 58 l-8
35 -1 -33 c-1 -45 -25 -68 -54 -54 -12 6 -44 18 -70 27 -27 8 -61 22 -77 30
-16 8 -35 12 -43 10 -7 -3 -25 6 -40 19 -18 17 -33 23 -45 18 -16 -6 -16 -7 1
-10 27 -5 22 -56 -8 -76 -36 -24 -82 -21 -90 5 -7 21 7 39 31 39 6 0 17 7 25
16 10 13 10 17 -2 25 -11 7 -11 9 4 9 10 0 17 7 17 18 0 14 -2 15 -10 2 -8
-12 -11 -13 -19 -1 -6 10 -13 2 -27 -28 -28 -64 -47 -51 -60 41 -6 43 -19 93
-28 113 -13 27 -14 40 -6 55 6 11 8 36 4 55 -5 30 -3 35 12 36 17 1 17 2 2 6
-10 2 -18 11 -18 19 0 11 7 13 26 8 20 -5 25 -3 22 7 -3 8 -12 13 -22 11 -9
-2 -16 4 -16 13 0 16 33 17 58 2 6 -5 17 -5 22 -2 6 3 10 -1 10 -10 0 -9 8
-19 19 -22 10 -3 27 -22 36 -44 24 -53 17 -168 -14 -210 -12 -16 -20 -29 -18
-29 11 0 47 39 47 52 0 8 4 18 10 24 12 12 13 38 4 119 -5 47 -4 57 6 48 7 -6
22 -8 39 -4 33 9 77 -2 73 -19 -2 -7 3 -10 12 -7 8 3 17 -1 20 -9 8 -21 -11
-54 -32 -54 -30 0 -92 -21 -92 -30 0 -6 9 -10 21 -10 12 0 17 -4 14 -11 -4 -6
3 -13 14 -16 15 -4 20 -11 16 -24 -8 -23 23 -40 81 -46 39 -4 44 -2 44 16 0
11 -10 27 -22 36 l-23 16 30 -3 c17 -2 35 -8 40 -15 6 -6 29 -15 53 -18 42 -6
43 -6 37 22 -5 27 -5 27 6 6 16 -31 27 -29 23 5 -4 32 12 86 29 100 7 5 33 12
58 15 43 6 47 5 42 -13 -4 -15 0 -20 15 -20 26 0 39 -19 21 -31 -8 -5 -9 -9
-3 -9 17 0 31 21 39 58 5 26 11 32 25 27 12 -4 20 0 23 12 4 14 5 13 6 -4 1
-26 21 -32 21 -7 0 8 5 12 10 9 6 -4 8 -10 5 -15 -3 -5 -1 -11 5 -15 5 -3 10
3 10 14 0 33 -1 36 -13 33 -13 -4 -27 17 -27 43 0 16 2 17 9 5 6 -8 7 -18 5
-22 -3 -4 0 -8 5 -8 6 0 11 6 11 13 0 8 4 7 11 -3 8 -11 9 -9 3 10 -4 14 -11
27 -15 28 -5 2 -9 8 -9 14 0 6 7 8 15 4 9 -3 15 0 15 9 0 8 4 15 8 15 5 0 7
-13 4 -29z m3799 -381 c-8 -4 -11 -15 -7 -25 5 -14 9 -15 21 -5 14 11 14 10 7
-11 -5 -13 -12 -37 -16 -54 -5 -24 -4 -26 4 -12 6 9 15 15 21 12 5 -4 9 1 9
10 0 9 -4 13 -10 10 -15 -9 -12 9 6 31 8 10 13 14 10 8 -10 -21 10 -69 27 -66
10 2 17 -1 17 -5 0 -4 3 -19 7 -33 l6 -25 -21 25 -21 25 -1 -22 c0 -13 4 -23
9 -23 12 0 25 -74 14 -77 -11 -4 -4 -86 8 -93 4 -3 -2 -12 -14 -19 -19 -12
-20 -12 -11 0 9 11 9 17 -1 26 -11 10 -13 8 -11 -10 1 -13 6 -28 10 -35 4 -7
1 -12 -9 -12 -9 0 -14 -4 -11 -9 5 -8 -15 -21 -33 -21 -8 0 -31 189 -31 258 0
24 7 56 15 72 9 18 11 31 5 35 -15 9 -33 -43 -34 -95 0 -25 3 -93 8 -152 l9
-108 -24 0 c-16 0 -28 -9 -36 -25 -6 -14 -7 -23 -2 -19 5 3 9 -9 9 -25 0 -20
-5 -31 -14 -31 -8 0 -17 -14 -21 -32 -4 -18 -13 -40 -20 -48 -7 -8 -19 -33
-26 -55 -15 -44 -30 -60 -40 -43 -4 6 -17 -10 -29 -38 -13 -27 -29 -58 -37
-69 -13 -19 -14 -18 -12 15 1 19 -1 42 -4 50 -3 8 -7 24 -9 35 -3 15 -10 19
-32 17 -27 -3 -28 -1 -21 25 8 35 14 41 24 24 6 -9 10 -7 14 8 8 30 26 26 24
-5 -1 -15 4 -28 11 -30 7 -1 8 0 2 3 -16 8 -12 27 10 41 11 7 20 23 20 36 0
14 5 28 10 31 6 3 10 18 11 33 0 24 1 25 9 7 5 -11 9 -15 9 -9 1 7 9 11 19 10
9 0 17 6 18 14 0 8 3 24 6 35 3 11 9 33 13 49 5 23 8 27 16 15 6 -10 9 -7 9
14 0 15 5 27 10 27 6 0 10 12 9 28 0 23 -1 24 -8 7 -7 -17 -9 -15 -16 15 -6
29 -4 36 14 48 14 10 21 24 20 46 -1 21 -3 24 -6 11 -3 -11 -10 -24 -15 -30
-7 -7 -8 -3 -3 13 4 13 2 29 -4 36 -9 10 -8 15 3 19 8 3 17 1 20 -6 4 -11 6 0
10 75 1 16 8 34 15 40 11 11 12 7 7 -22 l-7 -35 21 25 c14 16 20 34 18 52 -3
15 -1 25 3 22 4 -2 11 1 14 7 4 5 10 8 13 4 4 -3 0 -10 -7 -15z m24 -736 c15
19 22 20 28 4 2 -7 3 -6 2 2 -2 8 -6 23 -10 32 -5 13 -2 15 14 11 11 -3 18 -9
15 -14 -18 -30 65 -51 108 -28 16 8 23 8 30 -2 7 -11 11 -11 15 -1 2 6 16 12
30 12 21 0 24 -2 13 -15 -7 -8 -18 -15 -25 -15 -8 0 -16 -6 -18 -12 -4 -10 -7
-10 -14 -1 -7 9 -17 7 -43 -9 -19 -12 -44 -21 -55 -21 -16 1 -17 1 -2 -3 25
-8 21 -29 -8 -42 -14 -7 -28 -19 -31 -27 -4 -8 -17 -15 -30 -15 -15 0 -24 -6
-24 -15 0 -8 -5 -15 -10 -15 -6 0 -9 12 -8 28 3 48 -2 82 -12 82 -5 0 -10 -9
-10 -20 0 -14 -5 -18 -17 -13 -15 5 -16 3 -6 -7 9 -10 10 -17 2 -27 -9 -10 -8
-13 5 -13 9 0 16 7 16 15 0 8 5 15 10 15 15 0 12 -19 -5 -37 -9 -8 -22 -12
-30 -9 -9 3 -19 -3 -25 -14 -6 -11 -17 -20 -25 -20 -18 0 -20 -26 -2 -34 6 -4
-4 -4 -23 -1 -19 3 -36 10 -38 15 -2 6 -12 10 -22 10 -22 0 -33 22 -36 73 -2
34 0 38 19 35 17 -2 21 2 19 16 -2 10 5 28 16 40 11 11 25 31 31 44 7 12 16
20 22 17 5 -4 9 5 9 19 0 34 16 33 25 -1 l8 -28 6 25 c4 14 12 25 18 25 6 0
15 4 19 8 4 4 15 -13 23 -39 12 -39 16 -44 26 -30z m885 -756 c0 -10 15 -35
33 -55 36 -41 49 -67 39 -77 -11 -12 -9 -48 5 -53 7 -3 13 -10 13 -16 0 -8 -3
-8 -11 0 -8 8 -16 7 -30 -5 -30 -26 -54 -25 -55 3 -1 14 -11 42 -22 64 -15 28
-17 42 -9 50 8 8 7 11 -6 11 -9 0 -17 5 -17 10 0 6 6 10 13 10 9 0 8 3 -2 9
-10 6 -10 10 -1 16 6 4 9 13 6 21 -3 7 -1 16 5 20 5 3 9 13 8 22 -1 10 0 24 1
32 2 18 29 -38 30 -62z m-6240 9 c0 -7 -6 -19 -12 -26 -11 -11 -9 -12 10 -6
13 4 22 2 22 -4 0 -6 -4 -11 -10 -11 -5 0 -10 -9 -10 -20 0 -11 4 -20 10 -20
5 0 7 -13 4 -28 -3 -16 -1 -46 5 -67 6 -21 7 -43 2 -49 -5 -6 -7 -29 -6 -51 2
-22 3 -52 4 -67 1 -18 7 -28 16 -28 8 0 15 -4 15 -9 0 -5 3 -16 6 -24 3 -9 -2
-16 -14 -19 -13 -4 -26 5 -43 30 -13 20 -42 52 -64 72 -69 62 -75 69 -69 87 4
14 4 15 -4 4 -7 -10 -15 -6 -36 21 -29 39 -33 53 -11 45 10 -5 16 4 21 28 3
19 10 32 15 29 5 -3 9 3 10 13 0 16 1 16 9 -2 8 -18 9 -17 9 8 1 15 6 27 11
27 6 0 11 -12 11 -27 2 -24 2 -25 6 -5 2 12 9 22 14 22 22 0 47 34 43 57 -3
15 -1 22 6 18 5 -3 10 -1 10 4 0 6 5 11 10 11 6 0 10 -6 10 -13z m4600 -169
c0 -5 -4 -6 -10 -3 -5 3 -10 -1 -10 -9 0 -9 6 -15 13 -13 9 1 11 -15 9 -62 -3
-68 -16 -91 -52 -91 -13 0 -19 -4 -14 -11 3 -6 0 -15 -7 -20 -20 -13 -29 -11
-29 6 0 10 -10 15 -29 15 -16 0 -32 6 -34 13 -4 9 -8 8 -16 -3 -9 -12 -11 -9
-11 15 0 56 12 105 26 105 8 0 14 5 14 11 0 11 24 39 34 39 3 0 7 -15 7 -32 2
-28 2 -29 6 -8 6 31 23 42 41 28 9 -8 16 -8 23 -1 8 8 7 13 0 17 -20 13 -11
23 14 18 14 -2 25 -9 25 -14z m1867 -25 c-7 -7 39 -53 53 -53 5 0 17 -12 27
-27 13 -19 14 -28 5 -31 -6 -2 -12 -11 -12 -19 0 -11 6 -14 21 -10 20 5 20 5
3 -14 -16 -18 -16 -19 2 -20 14 -1 13 -3 -6 -8 -15 -4 -26 -15 -28 -29 -2 -12
-8 -20 -13 -17 -5 4 -9 -2 -9 -12 0 -12 -8 -19 -22 -20 -13 -1 -29 -11 -37
-23 -7 -11 -19 -20 -25 -20 -6 0 -4 4 4 10 8 5 12 12 9 15 -4 3 -18 -10 -33
-30 -27 -36 -50 -47 -40 -20 4 9 0 15 -10 15 -9 0 -16 -5 -16 -11 0 -5 -5 -7
-12 -3 -9 6 -9 9 0 12 15 5 16 32 1 32 -6 0 -9 9 -6 20 3 10 -1 27 -8 37 -9
13 -10 22 -3 30 7 9 7 13 0 13 -6 0 -18 23 -27 52 -8 28 -21 55 -27 59 -9 6
-8 10 5 15 22 8 50 -3 41 -17 -4 -8 -9 -7 -15 2 -6 10 -9 10 -9 2 0 -20 22
-27 35 -10 11 15 13 15 23 -6 8 -16 11 -18 11 -6 1 22 27 32 50 19 21 -11 32
-4 24 16 -3 8 0 14 6 14 6 0 11 8 11 18 0 21 8 32 23 32 6 0 7 -3 4 -7z
m-1071 -302 c5 -5 20 -11 34 -14 21 -4 20 -4 -7 -6 -36 -1 -36 -1 -27 -25 5
-13 9 -14 21 -4 12 10 17 9 25 -6 8 -15 12 -16 20 -5 6 10 7 6 2 -11 -4 -14
-11 -26 -15 -28 -5 -2 -9 -12 -9 -23 0 -10 -7 -19 -15 -19 -9 0 -20 -11 -26
-23 -8 -18 -17 -23 -35 -19 -18 3 -24 0 -24 -13 0 -11 -5 -15 -15 -11 -11 4
-15 -2 -15 -24 0 -17 -4 -30 -10 -30 -5 0 -10 8 -10 18 0 14 -8 19 -30 19 -29
0 -30 -2 -31 -51 -1 -29 -4 -39 -6 -23 -4 25 -8 27 -49 27 -28 0 -44 -4 -44
-12 -1 -9 -5 -8 -13 3 -7 9 -28 19 -47 22 -24 5 -30 4 -20 -2 20 -13 6 -24
-30 -24 -32 0 -53 13 -32 20 6 3 12 11 12 19 0 8 11 23 24 35 19 17 25 34 31
94 5 54 10 72 20 69 7 -3 15 2 18 10 4 9 14 12 26 9 24 -6 28 -23 6 -23 -8 0
-15 -4 -15 -10 0 -5 6 -10 14 -10 17 0 28 -24 20 -45 -8 -20 -21 -19 -32 1 -8
15 -12 14 -31 -5 -17 -17 -21 -30 -18 -67 3 -25 10 -51 16 -57 10 -9 12 -2 10
32 -3 43 11 65 26 42 3 -6 15 -11 27 -11 17 0 18 3 8 15 -10 12 -9 16 4 21 9
3 23 1 30 -5 10 -8 16 -9 21 -1 3 5 1 10 -4 10 -6 0 -11 5 -11 10 0 13 32 9
43 -5 4 -6 11 -3 18 8 5 9 17 17 26 17 10 0 14 6 10 19 -6 24 28 58 63 63 17
2 24 8 22 21 -3 18 8 23 24 8z m-2163 -406 c7 -2 24 -6 40 -9 32 -7 37 -26 6
-26 -34 0 -59 -19 -59 -45 0 -20 5 -24 23 -22 19 2 22 -2 19 -31 -2 -29 0 -33
18 -27 11 3 20 2 20 -4 0 -5 6 -11 13 -14 6 -2 2 -3 -9 -1 -18 3 -22 -3 -28
-34 -10 -61 -8 -71 14 -69 21 1 26 12 10 22 -13 8 -13 55 -1 55 6 0 12 -4 16
-10 3 -5 12 -7 20 -3 11 4 15 -3 15 -25 0 -17 -5 -34 -12 -38 -7 -5 -9 -2 -5
9 3 8 0 21 -8 27 -11 9 -14 6 -12 -17 2 -22 -3 -29 -20 -31 -30 -4 -30 -19 -1
-17 22 2 48 -15 48 -31 0 -5 -5 -3 -12 4 -15 15 -31 16 -22 0 4 -6 3 -8 -4 -4
-6 3 -13 2 -17 -4 -3 -5 -15 -10 -26 -10 -10 0 -19 -4 -19 -10 0 -5 -10 -10
-22 -10 -19 0 -20 2 -8 11 12 9 12 10 -3 5 -10 -3 -23 -6 -28 -6 -6 0 -8 -4
-5 -9 4 -5 -3 -7 -14 -4 -19 5 -20 6 -3 20 16 13 16 13 -4 3 -17 -8 -29 -8
-45 1 -13 7 -36 12 -51 11 -16 -2 -26 1 -23 6 3 5 -9 6 -26 4 -26 -4 -30 -2
-25 12 4 10 7 26 7 36 0 22 30 35 41 18 4 -7 11 -9 15 -5 12 11 -29 37 -42 26
-16 -13 -26 2 -13 18 9 10 8 13 -2 13 -8 0 -6 5 6 13 12 10 14 16 7 21 -17 10
-15 26 3 26 8 0 15 -5 15 -11 0 -5 8 -9 18 -7 9 1 22 0 27 -3 6 -4 19 -3 30 1
18 7 19 8 3 15 -10 4 -18 15 -18 25 0 22 16 35 25 20 9 -15 25 -12 25 5 0 22
40 19 41 -2 0 -10 9 0 19 22 17 35 17 42 4 62 -18 28 -18 33 1 33 9 0 16 10
16 28 l2 27 4 -28 c3 -16 10 -30 16 -32z m-3293 -14 c14 -34 0 -71 -28 -72
-14 0 -14 -2 3 -9 17 -7 17 -9 3 -9 -10 -1 -18 -7 -18 -15 0 -29 20 -27 38 3
10 17 22 28 25 24 11 -10 8 -25 -3 -18 -5 3 -10 2 -10 -4 0 -5 -3 -17 -6 -26
-4 -10 -2 -15 7 -13 8 2 13 -4 13 -14 -1 -11 4 -14 13 -11 13 5 13 2 4 -16
-12 -21 -8 -41 9 -41 5 0 12 15 16 33 4 17 9 27 11 20 2 -6 0 -28 -6 -47 -6
-24 -6 -36 1 -36 6 0 8 -7 4 -15 -3 -8 0 -15 6 -15 7 0 1 -10 -12 -22 -22 -21
-22 -22 -4 -29 16 -6 16 -8 2 -8 -9 -1 -22 7 -27 17 -6 9 -11 13 -11 8 0 -5
-10 6 -23 25 -12 19 -35 40 -50 47 -29 14 -51 46 -44 65 5 14 -29 66 -56 85
-14 11 -15 17 -6 28 6 8 18 14 26 14 7 0 16 7 19 15 4 8 10 12 15 9 5 -3 9 2
9 10 0 9 6 13 14 10 9 -3 20 3 28 15 17 28 23 26 38 -8z m3936 -78 c-15 -4
-16 -7 -5 -15 11 -7 11 -11 2 -15 -21 -8 -15 -29 12 -43 26 -14 34 -53 14 -65
-6 -4 -8 -13 -5 -21 3 -8 -1 -14 -10 -14 -10 0 -14 -6 -11 -15 4 -8 2 -17 -3
-20 -5 -3 -7 -30 -4 -60 l6 -55 -36 0 c-20 0 -36 -4 -36 -10 0 -5 -10 -10 -22
-9 -13 0 -17 3 -10 6 6 2 12 14 11 26 0 21 -1 21 -10 2 -7 -16 -8 -14 -4 10 8
57 10 210 2 222 -5 7 -2 25 5 40 10 22 20 28 45 28 18 1 35 4 39 8 4 4 14 6
23 6 12 -1 11 -3 -3 -6z m-771 -284 c-19 -7 -19 -8 2 -8 37 -2 79 -21 64 -30
-8 -6 -9 -11 -3 -15 6 -3 12 0 15 6 3 10 8 10 21 -1 23 -19 17 -55 -11 -59
-15 -2 -20 -8 -17 -20 4 -12 3 -13 -3 -4 -14 18 -65 11 -71 -10 -2 -10 -11
-18 -19 -18 -12 0 -14 -11 -11 -50 1 -28 -1 -50 -6 -50 -4 0 -6 29 -4 64 2 36
0 62 -4 60 -4 -3 -8 1 -8 9 0 8 -7 28 -15 43 -35 67 -11 106 59 96 27 -4 28
-6 11 -13z m219 -71 c-11 -14 -11 -54 -1 -64 3 -3 11 -3 17 1 9 6 9 10 -1 16
-12 7 -12 9 0 9 21 0 40 -32 41 -69 0 -32 -1 -33 -34 -27 -21 4 -37 2 -44 -6
-8 -10 -2 -13 27 -12 20 0 42 4 48 7 7 4 14 3 18 -2 3 -6 12 -8 20 -4 11 4 17
-4 21 -26 8 -37 24 -41 24 -5 0 14 4 23 8 20 10 -6 9 -36 -1 -54 -6 -8 -3 -10
7 -6 9 3 16 3 16 0 0 -17 -89 -46 -143 -46 -50 0 -61 4 -83 27 -14 15 -21 29
-15 31 6 2 8 14 5 28 -4 15 -2 24 5 24 6 0 11 5 11 11 0 6 -6 9 -14 6 -16 -6
-26 13 -26 46 l1 22 17 -21 c24 -28 62 -41 62 -21 0 10 -7 13 -19 10 -16 -4
-20 0 -18 18 1 13 7 30 14 37 17 18 16 32 -1 32 -24 0 -30 21 -7 27 12 3 21
13 21 21 0 15 2 15 17 0 11 -12 13 -21 7 -30z m2941 -538 c-2 -4 7 -7 20 -7
14 0 25 4 25 10 0 10 30 36 43 37 4 0 7 -8 7 -17 0 -15 2 -16 10 -3 6 9 10 10
10 3 0 -6 9 -14 19 -18 10 -3 22 -16 25 -29 4 -18 11 -22 29 -19 23 5 24 3 21
-46 -2 -28 1 -51 6 -51 6 0 10 -5 10 -11 0 -5 -4 -7 -10 -4 -5 3 -10 -3 -10
-14 0 -10 -3 -27 -7 -37 -4 -12 -3 -15 5 -10 7 4 12 2 12 -3 0 -6 -4 -11 -9
-11 -5 0 -12 -8 -14 -17 -3 -10 -6 7 -7 37 -1 30 -4 47 -7 38 -5 -19 -23 -25
-23 -8 0 19 -39 -14 -51 -42 -9 -21 -16 -27 -30 -23 -10 4 -34 2 -54 -4 -28
-8 -35 -7 -35 5 0 8 6 17 14 20 7 3 14 16 14 30 0 17 -6 24 -20 24 -14 0 -18
-5 -14 -15 3 -10 -1 -18 -12 -21 -9 -3 -25 -10 -34 -15 -24 -12 -23 -13 -24
26 0 31 3 35 25 36 24 2 24 2 4 6 -23 4 -32 40 -15 57 7 7 8 11 11 37 0 6 8 9
16 5 10 -3 15 1 15 13 0 11 6 21 12 23 7 3 12 19 11 39 -2 31 -1 32 7 11 6
-13 8 -27 5 -32z m-4817 -1766 c3 -44 0 -52 -17 -57 -11 -3 -22 0 -25 7 -3 8
-7 7 -14 -3 -8 -11 -10 -11 -15 0 -4 10 -6 9 -6 -3 -1 -19 -31 -25 -31 -7 0 6
-7 8 -16 5 -9 -3 -31 1 -50 10 -26 12 -37 14 -48 5 -11 -9 -13 -6 -13 16 0 16
2 22 4 15 4 -10 8 -10 19 -1 10 8 14 8 14 0 0 -6 7 -11 16 -11 13 0 14 3 5 13
-8 10 -7 17 1 25 16 16 31 15 22 0 -4 -7 4 -3 18 10 13 12 27 19 30 16 4 -3
15 -1 25 5 10 6 32 10 48 8 29 -2 30 -4 33 -53z m-1040 -357 c10 -21 11 -21
11 -2 1 16 3 17 10 6 5 -8 17 -15 28 -16 33 -4 54 -17 49 -32 -4 -10 -2 -12
11 -4 10 5 26 5 39 1 12 -5 24 -6 27 -4 3 3 4 -11 3 -30 -1 -20 2 -36 6 -36 5
0 8 -6 8 -14 0 -8 7 -17 15 -20 12 -4 14 -10 5 -25 -5 -11 -10 -24 -10 -30 0
-18 15 -12 25 10 12 25 31 26 27 1 -2 -15 -1 -15 9 1 6 10 12 37 13 60 2 41 3
42 33 40 18 -2 47 -12 67 -24 l35 -20 -1 23 c-1 13 -6 29 -12 37 -8 11 0 12
47 10 31 -2 57 0 57 4 0 5 5 5 10 2 6 -4 16 -2 23 3 7 5 41 12 77 15 36 4 82
9 103 13 33 6 37 5 37 -15 0 -12 -3 -20 -7 -18 -5 3 -9 -13 -10 -36 -1 -22 -6
-43 -11 -46 -12 -8 -7 -139 7 -173 6 -16 18 -28 26 -28 9 0 13 5 10 10 -12 19
14 10 28 -10 12 -18 16 -18 33 -5 19 15 19 15 0 8 -13 -4 -17 -3 -12 5 8 13
36 16 37 5 0 -5 3 -45 5 -90 5 -81 4 -83 -18 -84 l-23 -2 22 -4 c17 -3 22 -10
19 -26 -3 -12 -5 -22 -6 -22 -1 0 -4 -13 -6 -28 -5 -28 -36 -67 -53 -67 -5 0
-12 -18 -16 -40 -10 -58 -20 -49 -20 18 0 31 -4 57 -10 57 -5 0 -9 -5 -7 -12
2 -7 -1 -12 -6 -11 -13 5 -82 -60 -82 -77 0 -15 -21 -20 -70 -16 -20 1 -22 0
-10 -9 11 -8 4 -10 -28 -7 -24 2 -47 9 -52 17 -6 9 -10 7 -15 -9 -7 -23 -25
-29 -26 -8 0 10 -2 10 -6 0 -2 -7 -9 -13 -14 -13 -4 0 -6 7 -3 15 8 20 -10 19
-26 0 -7 -9 -20 -13 -28 -10 -8 3 -21 0 -28 -6 -11 -9 -14 -8 -14 5 0 9 -5 16
-11 16 -6 0 -8 7 -5 16 3 8 1 24 -5 35 -6 11 -8 25 -6 32 3 7 9 1 15 -13 7
-17 11 -19 11 -8 1 9 -6 24 -15 32 -14 15 -17 14 -35 -6 -14 -17 -17 -18 -13
-5 10 28 -5 20 -26 -15 -13 -22 -20 -27 -20 -16 0 10 16 33 35 52 19 20 35 31
35 25 0 -6 5 -7 10 -4 8 5 8 11 1 19 -8 9 -4 16 17 27 15 8 30 18 34 23 4 6
17 5 35 -2 24 -11 26 -11 10 2 -16 12 -15 15 18 40 19 15 40 24 46 20 7 -4 10
-1 7 7 -2 7 15 33 40 56 41 41 62 47 62 20 0 -7 -4 -6 -11 3 -8 12 -10 12 -7
1 2 -8 12 -15 22 -17 10 -1 26 -10 35 -18 10 -9 26 -16 36 -16 10 0 15 -3 12
-7 -4 -3 17 -14 45 -24 65 -22 74 -17 19 8 -23 11 -38 22 -35 26 4 4 1 7 -7 7
-11 0 -11 2 1 10 11 7 6 8 -18 5 -41 -5 -75 26 -66 62 11 40 -35 30 -76 -17
-37 -43 -74 -53 -130 -36 -19 5 -16 1 11 -16 35 -22 36 -24 20 -44 -14 -18
-68 -46 -88 -46 -16 0 -43 -19 -38 -27 3 -5 -2 -12 -11 -15 -12 -5 -15 -2 -10
10 5 14 4 15 -9 4 -11 -9 -12 -16 -5 -25 13 -15 3 -25 -18 -18 -14 4 -15 3 -2
-6 8 -5 11 -13 7 -17 -3 -4 -14 -1 -23 7 -13 11 -14 14 -2 23 19 14 41 56 34
64 -3 3 -6 0 -6 -6 0 -7 -7 -12 -15 -12 -8 0 -15 -7 -15 -15 0 -8 -6 -15 -13
-15 -9 0 -12 11 -9 35 3 21 0 35 -7 35 -6 0 -2 9 10 21 13 13 18 26 13 37 -4
9 -7 25 -8 35 0 20 -12 23 -20 5 -3 -7 -4 23 -2 67 l3 80 -18 -40 c-16 -37
-17 -37 -12 -9 3 21 0 33 -9 36 -9 4 -13 -4 -14 -24 -1 -17 -7 -34 -15 -39 -8
-5 -9 -9 -3 -9 10 0 11 -20 6 -69 -1 -7 -8 -11 -16 -8 -22 9 -27 -31 -7 -46
18 -12 25 -47 10 -47 -4 0 -16 14 -26 30 -9 17 -24 30 -31 30 -11 0 -12 -3 -3
-14 9 -11 8 -17 -3 -29 -14 -13 -14 -16 -1 -21 9 -3 15 0 15 9 0 21 16 19 24
-2 3 -10 11 -25 17 -34 17 -23 3 -86 -23 -100 -18 -10 -20 -9 -15 5 5 14 3 15
-13 6 -10 -5 -25 -10 -32 -9 -10 0 -10 2 0 6 14 5 17 43 3 43 -5 0 -12 -8 -15
-17 -6 -15 -8 -15 -16 -3 -6 8 -10 11 -10 7 0 -5 -17 5 -37 21 -71 55 -91 59
-249 48 -99 -6 -110 -2 -111 40 -1 38 19 88 31 77 4 -4 4 0 0 10 -3 9 -1 24 6
32 12 15 12 16 -12 19 -9 1 -12 16 -11 45 2 38 9 51 48 91 25 25 43 48 40 51
-2 3 11 13 31 22 19 10 33 13 30 8 -3 -5 1 -12 10 -15 9 -4 13 -2 8 5 -7 12
42 59 61 59 7 0 19 8 26 17 12 15 12 16 -1 8 -8 -4 7 11 33 35 27 24 44 46 38
49 -6 4 7 7 28 8 31 2 41 -3 49 -20z m3456 18 c29 -5 46 -12 46 -21 0 -8 5
-14 10 -14 6 0 10 4 10 8 0 14 38 11 44 -4 3 -9 10 -12 16 -9 5 3 10 1 10 -4
0 -6 -4 -11 -10 -11 -5 0 -10 -4 -10 -10 0 -5 6 -10 13 -10 7 0 13 -9 13 -20
0 -11 -6 -20 -13 -20 -7 0 -13 -5 -13 -11 0 -5 4 -8 9 -4 13 7 41 -34 41 -60
0 -11 -4 -15 -8 -10 -4 6 -16 11 -27 10 -15 0 -19 -6 -18 -22 2 -13 -2 -23 -7
-23 -6 0 -10 -4 -10 -10 0 -5 9 -10 20 -10 11 0 20 -4 20 -10 0 -5 -14 -10
-31 -10 -29 0 -30 -1 -15 -22 20 -28 20 -42 2 -35 -9 4 -16 -3 -18 -17 -6 -28
1 -48 13 -40 5 3 9 -2 9 -10 0 -20 -5 -20 -24 0 -10 10 -14 25 -11 42 3 15 2
21 -1 15 -8 -19 -27 -16 -20 3 4 12 1 14 -13 9 -16 -5 -18 -2 -14 14 3 12 -2
27 -11 37 -24 24 -33 8 -10 -18 l19 -23 -22 19 c-13 11 -23 25 -23 33 0 7 -5
13 -10 13 -6 0 -9 -13 -8 -29 1 -16 5 -29 8 -29 18 2 30 -3 30 -13 0 -6 -6 -9
-12 -7 -7 3 -22 -3 -32 -13 -11 -11 -14 -19 -8 -19 6 0 14 5 17 10 3 6 10 10
16 10 5 0 4 -9 -3 -20 -8 -12 -19 -18 -30 -14 -13 4 -19 -2 -24 -20 -3 -14 -3
-33 0 -41 10 -28 -15 -5 -26 23 l-11 27 -6 -30 c-6 -25 -3 -32 19 -42 24 -11
24 -11 3 -12 -12 -1 -29 -4 -37 -7 -12 -5 -15 -2 -10 10 3 9 1 16 -6 16 -6 0
-8 -4 -5 -10 3 -5 1 -10 -4 -10 -6 0 -11 5 -11 10 0 6 -7 10 -15 10 -9 0 -12
-6 -8 -16 3 -9 0 -19 -7 -24 -7 -4 16 -14 58 -25 75 -18 107 -44 46 -37 -21 3
-34 0 -34 -7 0 -6 9 -11 20 -11 11 0 20 -4 20 -10 0 -10 -10 -13 -45 -11 -11
0 -14 -2 -7 -5 6 -3 12 -22 12 -41 0 -35 0 -36 20 -18 19 18 20 17 20 -1 0
-16 8 -20 47 -22 56 -2 61 -6 40 -30 -23 -25 -22 -29 10 -37 21 -5 24 -8 12
-16 -11 -7 -10 -9 6 -9 15 0 12 -5 -13 -17 -24 -12 -32 -21 -29 -35 3 -10 1
-21 -4 -24 -5 -3 -9 2 -9 10 0 19 -26 21 -34 4 -3 -7 -3 -3 0 10 3 12 1 22 -5
22 -6 0 -11 -4 -11 -10 0 -21 -19 -9 -32 20 -8 20 -18 28 -28 25 -9 -3 -7 1 4
10 11 8 25 15 30 16 6 1 0 4 -14 8 -19 5 -24 13 -22 30 2 15 0 21 -7 17 -7 -4
-9 -1 -5 8 4 11 -6 18 -35 27 -32 10 -41 17 -41 35 0 27 -17 41 -33 25 -17
-17 -27 -13 -27 9 0 27 -27 25 -33 -2 -4 -18 -5 -17 -4 4 1 17 -5 33 -18 41
-16 13 -17 17 -6 31 11 14 11 16 -3 16 -9 0 -16 6 -16 14 0 8 -7 16 -15 20 -8
3 -14 13 -14 23 1 17 2 17 6 1 2 -10 8 -18 13 -18 5 0 7 7 4 15 -3 8 1 22 10
31 15 15 19 15 42 -1 14 -9 23 -19 20 -22 -6 -7 24 -32 38 -33 6 0 1 7 -10 16
-10 8 -12 12 -4 8 8 -4 25 -16 37 -27 13 -11 26 -18 29 -14 10 9 -56 66 -101
87 -26 12 -45 15 -56 9 -9 -4 -19 -5 -23 -2 -4 4 -9 -3 -13 -15 -3 -12 -10
-22 -15 -22 -5 0 -6 5 -3 10 3 6 2 10 -4 10 -5 0 -12 -14 -16 -30 -4 -17 -11
-27 -17 -24 -6 4 -8 -1 -4 -14 5 -14 1 -27 -12 -40 -23 -23 -51 -92 -44 -111
3 -10 -2 -12 -20 -8 -18 5 -30 1 -43 -13 -22 -25 -50 -27 -41 -4 6 15 4 15
-10 3 -10 -8 -12 -15 -5 -17 24 -8 10 -32 -19 -32 -20 0 -30 5 -30 15 0 22
-16 18 -17 -4 -1 -11 6 -22 15 -25 9 -3 -2 -3 -25 -1 -23 3 -50 8 -60 11 -15
5 -15 4 -3 -5 12 -9 11 -11 -7 -11 -13 0 -23 5 -23 10 0 6 -12 8 -27 5 -25 -6
-26 -5 -9 6 11 7 37 12 58 12 21 0 38 3 38 6 0 12 -20 36 -20 25 0 -7 -6 -14
-14 -17 -10 -4 -12 0 -8 15 4 18 2 19 -16 9 -15 -8 -21 -8 -24 1 -4 11 -55
-15 -70 -36 -4 -6 -10 -7 -14 -3 -4 4 -2 13 4 19 17 17 15 33 -3 18 -12 -10
-15 -9 -15 6 0 16 -2 15 -23 -4 -28 -27 -37 -28 -37 -4 0 13 -2 14 -9 4 -6
-11 -15 -8 -37 13 -24 22 -35 26 -64 21 -19 -3 -42 -1 -50 5 -12 9 -11 10 7 6
12 -3 24 0 26 7 3 7 -9 11 -34 11 -21 0 -33 -3 -26 -7 9 -6 9 -8 0 -8 -7 0
-16 6 -20 14 -10 17 -53 31 -53 17 0 -6 8 -11 17 -11 9 0 14 -3 10 -6 -3 -4
-14 -3 -24 1 -10 5 -21 7 -25 7 -5 -1 -8 5 -8 13 0 18 -12 19 -28 3 -10 -10
-14 -10 -21 0 -9 15 -57 7 -82 -14 -12 -11 -28 -11 -73 -4 -32 5 -61 12 -64
15 -12 11 15 24 72 34 90 16 143 13 226 -14 86 -29 120 -30 285 -10 66 8 152
15 191 15 59 0 76 4 95 21 l24 21 -28 -16 c-18 -11 -47 -16 -85 -15 -57 1
-161 -6 -237 -16 -118 -16 -153 -14 -226 9 -41 13 -90 27 -109 30 -32 5 -121
-5 -174 -21 -12 -3 -16 -1 -12 6 4 6 1 11 -7 11 -7 0 -28 15 -47 33 -34 32
-33 20 2 -19 17 -19 17 -22 3 -28 -9 -3 -14 -2 -11 3 4 5 -3 7 -15 4 -18 -5
-19 -7 -5 -15 9 -5 16 -15 16 -23 0 -17 -36 -33 -130 -59 -111 -31 -146 -46
-184 -78 -54 -46 -43 -54 13 -10 27 21 71 44 97 51 27 7 89 26 138 42 49 16
92 27 94 24 3 -2 -4 -7 -14 -10 -10 -4 -35 -14 -54 -23 -19 -8 -41 -15 -48
-13 -15 2 -44 -24 -35 -33 4 -3 -1 -6 -11 -6 -9 0 -15 -4 -12 -9 3 -5 -1 -11
-9 -15 -8 -3 -15 0 -15 7 0 8 -3 9 -8 1 -4 -6 -20 -10 -37 -10 -17 1 -31 -4
-31 -11 -1 -7 -2 -18 -3 -24 0 -5 -6 -7 -12 -3 -8 4 -7 9 2 15 11 7 11 9 1 9
-8 0 -10 5 -6 13 6 9 3 8 -8 -1 -9 -8 -15 -19 -12 -27 3 -7 -5 -23 -18 -35
-13 -12 -18 -21 -13 -20 6 2 18 2 28 1 21 -1 23 -31 2 -31 -8 0 -15 -4 -15
-10 0 -13 -22 -8 -35 8 -7 9 -19 10 -41 3 -31 -9 -32 -9 -37 32 -3 23 -11 43
-16 45 -6 2 -12 13 -12 25 -1 18 -2 19 -6 4 -3 -10 -10 -16 -16 -14 -7 2 -18
-3 -25 -12 -10 -14 -11 -12 -6 13 5 21 4 27 -5 22 -6 -4 -11 -2 -11 4 0 6 -4
9 -9 6 -12 -8 -33 69 -31 112 1 21 1 46 1 57 -2 36 -40 -25 -43 -70 -2 -25 -8
-39 -15 -37 -8 1 -13 -8 -13 -20 0 -21 -20 -64 -20 -44 0 5 -6 3 -14 -3 -11
-10 -16 -8 -24 5 -9 15 -13 16 -26 5 -9 -7 -13 -18 -9 -24 3 -6 1 -7 -6 -3 -9
6 -9 11 0 22 6 7 9 21 5 30 -3 8 -1 25 5 36 8 16 8 23 -2 29 -11 7 -9 9 5 9
18 0 18 1 3 18 -10 10 -17 30 -17 45 0 14 -4 29 -10 32 -5 3 -10 13 -10 21 0
8 4 13 9 10 5 -3 12 1 15 10 9 24 7 46 -4 39 -5 -3 -6 -13 -3 -22 5 -13 2 -15
-20 -9 -16 4 -27 2 -27 -4 0 -5 -6 -10 -14 -10 -8 0 -16 16 -20 41 -8 51 -58
132 -69 112 -5 -10 1 -144 9 -200 5 -35 3 -43 -10 -43 -20 0 -21 -14 -1 -30 8
-7 12 -17 9 -22 -4 -6 -10 -5 -15 3 -6 10 -8 8 -7 -8 1 -11 7 -19 13 -17 13 6
35 -70 24 -87 -4 -7 -2 -20 4 -30 8 -13 7 -21 -6 -33 -14 -15 -17 -15 -32 0
-9 9 -18 14 -21 11 -12 -11 -44 29 -44 54 0 22 6 29 31 34 30 7 30 7 10 22
-12 8 -19 18 -16 23 3 5 1 12 -5 15 -6 4 -8 15 -5 26 4 10 2 19 -3 19 -6 0
-12 36 -14 80 -2 45 -8 84 -13 88 -6 4 -12 18 -13 32 -2 14 -13 45 -24 70 -48
105 -58 135 -64 181 -5 36 -3 50 7 54 22 7 171 13 207 8 31 -5 33 -7 27 -37
-7 -30 -6 -31 9 -9 9 12 13 29 9 40 -4 12 3 8 21 -11 23 -23 30 -26 37 -15 8
12 11 11 20 -3 5 -10 16 -18 24 -18 8 0 19 -9 25 -20 6 -11 15 -18 21 -15 5 4
9 -3 9 -14 0 -14 5 -19 14 -15 9 3 20 -4 27 -18 13 -24 50 -61 56 -55 2 2 -2
18 -8 36 -12 35 -5 81 13 81 6 0 19 6 27 14 9 8 36 20 61 27 41 11 50 10 95
-12 28 -12 52 -23 55 -24 3 0 11 -4 18 -8 7 -5 12 -4 12 2 0 6 5 11 11 11 6 0
8 -7 5 -15 -3 -9 1 -18 9 -21 8 -4 15 -12 15 -20 0 -8 5 -14 11 -14 8 0 8 -4
-1 -15 -6 -8 -8 -20 -4 -27 21 -33 -10 -75 -51 -70 -20 3 -20 2 -1 -13 11 -8
14 -15 8 -15 -22 0 -12 -18 14 -24 22 -6 24 -9 12 -23 -11 -15 -11 -16 6 -10
16 7 18 4 12 -24 -3 -18 -1 -38 5 -45 6 -8 8 -14 5 -14 -4 0 0 -10 8 -21 8
-12 12 -28 9 -37 -5 -11 -2 -14 10 -9 10 4 17 2 17 -4 0 -6 6 -9 14 -6 10 4
12 -1 9 -16 -4 -18 -3 -19 6 -7 10 13 11 13 12 0 1 -8 1 -19 0 -23 -1 -5 9 -7
21 -5 19 2 23 9 21 33 -1 17 2 48 7 70 5 22 12 63 15 90 3 28 9 76 13 108 5
31 5 63 0 70 -4 6 -5 30 -3 51 5 41 15 62 15 33 0 -9 4 -17 9 -17 5 0 12 -11
15 -25 7 -26 20 -32 31 -15 10 17 25 11 25 -9 0 -11 5 -23 10 -26 6 -3 10 1
10 9 0 19 50 22 67 5 7 -7 19 -9 28 -5 13 5 15 14 10 38 -4 24 -3 29 4 18 8
-12 11 -12 17 4 4 10 2 21 -5 26 -20 12 33 18 149 18 58 -1 89 -3 70 -5 -50
-6 -56 -18 -9 -19 46 -2 58 -9 41 -26 -15 -15 -16 -48 -2 -48 6 0 10 8 11 18
0 10 3 12 6 5 2 -7 9 -13 15 -13 6 0 8 7 4 15 -3 10 1 15 12 16 32 2 57 -3 63
-13 4 -6 17 -7 29 -3 15 5 20 4 16 -4 -4 -6 -1 -11 8 -11 14 0 66 -48 66 -61
0 -3 22 -30 50 -60 27 -30 50 -49 50 -43 0 6 -7 17 -15 24 -8 7 -25 30 -37 51
-12 22 -25 39 -30 39 -4 0 -8 5 -8 12 0 7 -19 32 -42 55 -23 24 -37 43 -31 43
7 0 15 -4 18 -10 9 -15 24 -12 21 5 -1 8 -5 17 -8 20 -3 3 -1 17 6 30 9 20 19
25 47 25 20 0 39 3 43 7 4 4 40 9 79 10 40 2 85 8 101 13 16 6 42 10 57 10 16
0 29 4 29 8 0 5 23 10 52 11 28 1 53 3 54 4 7 6 477 8 518 2z m520 -88 c-2
-20 12 -23 20 -4 5 9 7 9 12 0 3 -8 16 -10 33 -7 16 4 32 1 35 -5 4 -6 16 -11
28 -11 13 0 18 -5 15 -14 -3 -7 1 -23 9 -35 17 -24 11 -41 -16 -41 -14 0 -17
-5 -12 -22 4 -15 2 -19 -7 -13 -7 4 -10 16 -8 27 4 14 2 18 -9 14 -8 -3 -25 1
-38 9 -22 15 -36 11 -36 -9 0 -6 5 -4 10 4 9 13 10 13 11 0 1 -8 3 -19 3 -25
1 -5 5 -16 9 -22 5 -9 3 -13 -7 -13 -9 0 -16 4 -16 9 0 5 -6 9 -12 8 -34 -1
-48 4 -48 18 0 8 -4 15 -9 15 -5 0 -20 15 -34 33 -41 55 -16 111 48 104 12 -1
19 -9 19 -20z m397 -179 c0 -18 3 -28 5 -21 6 15 31 6 56 -19 15 -15 17 -22 8
-34 -7 -7 -10 -20 -7 -28 13 -34 -83 -30 -113 4 -8 9 -27 20 -42 24 -34 8 -35
19 -5 35 l22 12 -22 -5 c-15 -3 -23 1 -23 10 0 8 3 13 8 13 30 -5 54 3 49 15
-6 14 9 22 46 25 13 1 17 -7 18 -31z m-5001 -6 c38 -47 41 -61 17 -74 -12 -7
-28 -11 -36 -9 -8 1 1 -12 19 -30 l32 -33 -6 -80 c-7 -83 -25 -166 -37 -166
-4 0 -22 14 -40 32 -23 22 -42 31 -60 29 -15 -1 -33 4 -40 11 -15 15 -33 17
-45 6 -19 -20 -25 -4 -19 50 3 31 7 65 8 75 1 9 5 17 9 17 4 0 8 9 8 20 0 18
6 22 26 19 4 0 11 5 15 13 6 9 9 5 9 -12 0 -26 33 -55 50 -45 6 4 10 1 10 -4
0 -23 17 -9 28 22 15 43 15 67 0 68 -10 0 -10 2 0 6 10 4 7 12 -10 31 -13 14
-17 22 -10 18 13 -8 45 17 35 28 -4 3 -1 6 6 6 7 0 9 5 6 10 -11 18 10 11 25
-8z m498 -309 c20 -9 40 -17 44 -17 4 -1 30 -22 57 -47 28 -26 53 -44 57 -40
4 3 4 0 0 -7 -4 -7 -12 -10 -17 -7 -5 4 -12 -1 -16 -10 -3 -10 0 -21 8 -25 7
-5 10 -12 7 -16 -4 -3 4 -22 17 -42 25 -36 25 -52 -1 -52 -8 0 -22 -4 -32 -9
-26 -14 -56 -24 -65 -22 -5 1 -6 -7 -2 -18 3 -11 1 -22 -5 -26 -5 -3 -10 1
-10 11 0 13 -3 14 -15 4 -13 -10 -15 -9 -15 9 0 13 7 21 18 22 11 0 13 2 4 6
-8 3 -22 -4 -33 -15 l-19 -21 -40 21 c-25 14 -40 29 -40 40 0 11 -5 16 -10 13
-6 -4 -8 -11 -5 -16 4 -5 -3 -9 -13 -9 -21 0 -32 18 -32 50 0 11 -12 24 -30
32 -31 13 -40 28 -17 28 8 0 8 3 -2 9 -17 11 -21 27 -24 94 -1 29 -6 47 -14
47 -6 0 -14 4 -18 10 -3 5 13 7 42 4 26 -3 62 -1 78 5 47 15 102 13 143 -6z"/>
<path d="M1105 11169 l-30 -7 32 -1 c44 -1 56 -26 47 -101 -4 -33 -10 -60 -15
-60 -4 0 -5 -21 -3 -47 3 -33 2 -43 -5 -34 -11 16 -7 -51 4 -69 3 -5 3 -10 -2
-10 -4 0 -13 -11 -20 -25 -10 -22 -8 -27 8 -36 11 -5 23 -24 26 -41 5 -28 7
-29 19 -14 7 10 16 17 21 17 4 -1 8 5 8 12 0 6 -6 11 -13 10 -13 -3 -17 19 -5
31 4 4 8 22 9 39 0 18 4 71 9 120 6 63 5 87 -4 87 -6 0 -11 14 -11 30 0 17 5
30 10 30 6 0 10 9 10 20 0 21 9 23 66 20 22 -1 31 3 31 14 0 16 -34 33 -44 22
-4 -3 1 -6 10 -6 10 0 17 -4 17 -10 0 -13 -7 -13 -33 2 -24 13 -96 17 -142 7z"/>
<path d="M2888 8382 c-4 -16 -18 -20 -76 -26 -40 -4 -74 -11 -77 -17 -4 -5 -2
-9 3 -9 11 0 12 -32 0 -47 -11 -14 -88 -23 -223 -28 -55 -1 -104 -4 -110 -5
-5 -2 -29 1 -52 5 -38 7 -43 11 -43 34 -1 14 -7 40 -15 56 l-15 30 5 -36 c9
-58 -7 -82 -76 -119 -35 -18 -58 -35 -51 -38 7 -2 12 -13 12 -25 1 -12 8 -33
16 -47 8 -14 13 -17 10 -8 -3 9 -8 33 -12 52 -6 35 -6 36 47 61 41 18 56 21
67 13 10 -9 15 -9 21 1 6 9 17 10 42 3 21 -6 44 -6 59 0 14 5 61 8 105 7 44
-2 86 0 93 5 6 4 36 9 64 11 36 2 61 10 76 24 13 12 33 21 45 21 20 0 20 0 1
14 -22 17 -16 21 59 35 l47 8 15 -46 15 -46 -6 48 c-5 46 -4 48 28 62 29 13
30 14 8 13 -14 0 -37 2 -51 6 -21 6 -27 4 -31 -12z"/>
<path d="M2610 8191 c0 -11 32 -52 70 -93 39 -40 73 -83 76 -96 4 -12 16 -25
28 -28 32 -9 83 -85 96 -147 14 -62 9 -87 -18 -87 -10 0 -27 -7 -38 -15 -10
-8 -31 -15 -46 -15 -15 0 -30 -5 -34 -11 -4 -7 -44 -10 -113 -8 -58 1 -167 2
-241 2 -123 -1 -277 2 -324 6 -12 1 -16 6 -12 17 4 9 2 22 -4 29 -6 7 -10 17
-9 21 4 15 -13 84 -20 84 -8 0 -6 -64 3 -108 6 -23 3 -33 -11 -41 -17 -10 -17
-12 0 -21 9 -6 17 -17 17 -24 0 -16 -48 -39 -62 -30 -7 4 -8 2 -4 -4 4 -7 14
-12 22 -12 8 0 22 -9 31 -20 10 -11 22 -20 27 -20 5 0 2 8 -7 18 -21 23 -22
38 -3 45 8 3 16 16 18 29 2 14 9 22 18 19 8 -2 125 -3 260 -2 135 0 252 -2
262 -5 9 -3 24 -27 33 -54 17 -52 30 -69 19 -25 -4 17 -2 25 7 25 9 0 10 3 3
8 -6 4 -13 15 -17 25 -5 12 -1 17 12 17 11 0 27 3 36 7 15 5 16 3 6 -15 -16
-29 -14 -36 5 -17 35 35 66 47 119 49 30 0 55 4 55 9 0 4 5 7 11 7 8 0 8 -4 0
-14 -8 -9 -8 -15 -2 -18 7 -2 7 -8 1 -18 -8 -13 -10 -13 -10 1 0 21 -47 17
-63 -5 -7 -8 -30 -17 -52 -18 -33 -3 -36 -5 -20 -13 11 -5 23 -13 28 -19 5 -8
10 -7 16 2 6 11 9 9 13 -6 10 -36 -3 -67 -38 -91 -46 -32 -43 -47 4 -17 20 14
51 26 67 27 41 4 144 -11 151 -22 3 -5 17 -9 31 -9 16 0 27 -7 30 -20 6 -24
28 -26 37 -4 4 9 5 19 3 21 -6 5 -134 40 -177 48 -50 9 -52 9 -77 1 -14 -5
-23 -3 -23 3 0 6 7 11 15 11 12 0 14 7 9 26 -4 17 -2 29 7 36 10 7 11 11 2 14
-14 6 -6 34 9 34 6 0 8 -7 4 -15 -3 -10 1 -15 12 -15 14 -1 13 -4 -7 -20 -27
-23 -16 -27 13 -5 16 12 22 12 28 2 5 -8 8 -4 8 12 0 24 0 24 15 5 14 -18 14
-18 15 11 1 26 3 27 10 10 8 -19 9 -18 9 4 1 22 4 23 46 19 42 -5 61 4 33 15
-10 4 -9 8 2 16 13 10 13 11 0 11 -13 0 -13 1 0 10 13 8 12 10 -2 10 -11 0
-18 -7 -18 -17 0 -15 -2 -16 -10 -3 -12 18 14 42 36 33 8 -3 45 1 82 8 84 16
107 14 139 -11 19 -15 30 -17 43 -10 10 6 43 10 72 11 41 1 47 3 28 9 -14 4
-44 5 -67 2 -26 -3 -57 1 -81 11 -34 13 -55 14 -133 6 -52 -6 -108 -14 -125
-18 -27 -7 -30 -5 -30 13 1 12 -4 20 -12 18 -25 -5 -50 18 -56 52 -8 41 -89
156 -111 156 -8 0 -15 7 -15 15 0 8 -31 48 -70 89 -42 44 -70 82 -70 95 0 11
-4 21 -10 21 -5 0 -10 -9 -10 -19z"/>
<path d="M1992 8170 c7 -11 18 -20 25 -20 20 0 15 -19 -12 -46 -14 -14 -25
-31 -25 -37 0 -7 -6 -19 -12 -26 -11 -11 -10 -14 0 -18 6 -3 10 -9 6 -14 -3
-5 2 -9 11 -9 15 0 15 -2 1 -22 -9 -12 -16 -40 -16 -61 0 -34 2 -38 20 -32 15
5 18 3 14 -9 -7 -17 11 -22 21 -6 3 5 10 57 14 114 11 136 23 159 81 166 30 3
39 7 28 12 -9 4 -33 4 -52 1 -20 -3 -41 -1 -48 4 -7 6 -25 13 -41 17 -26 6
-27 5 -15 -14z"/>
<path d="M1516 7943 c-4 -4 -22 -6 -41 -5 -29 2 -35 -1 -41 -22 -3 -14 -4 -31
-1 -38 3 -7 6 -3 6 10 1 22 21 32 21 10 0 -27 -13 -58 -21 -52 -5 3 -9 0 -9
-5 0 -6 -5 -11 -11 -11 -11 0 -39 -24 -39 -34 0 -3 8 -6 18 -7 12 0 10 -3 -8
-12 -14 -6 -31 -17 -38 -24 -25 -24 15 -26 59 -4 23 12 44 19 47 16 3 -3 0 -5
-7 -5 -8 0 -9 -5 -1 -19 13 -25 13 -31 0 -31 -5 0 -10 7 -10 15 0 8 -5 15 -11
15 -6 0 -9 -6 -6 -14 3 -7 -4 -21 -14 -30 -23 -20 -16 -39 12 -31 14 5 22 0
28 -17 8 -20 10 -21 16 -6 4 9 3 23 -1 29 -5 9 -2 10 9 6 12 -5 17 -1 17 13 0
10 -4 22 -10 25 -20 12 -9 26 17 23 17 -2 29 -10 31 -21 2 -10 -2 -16 -8 -15
-7 2 -15 -3 -17 -9 -3 -7 3 -13 12 -13 17 0 17 -12 -1 -72 -7 -23 42 -56 58
-40 9 9 7 16 -5 30 -21 22 -22 62 -3 62 8 0 13 -7 12 -16 -2 -26 22 -28 26 -2
2 13 13 27 25 33 25 10 39 85 16 85 -12 0 -14 -7 -17 -54 -1 -11 -6 -21 -13
-23 -13 -5 -12 48 2 80 10 25 -1 47 -25 47 -11 0 -20 7 -20 15 0 9 -10 15 -26
15 -23 0 -24 1 -10 16 20 19 21 53 2 60 -8 3 -12 12 -9 20 6 15 1 18 -11 7z"/>
<path d="M2120 7476 c0 -3 11 -22 25 -42 14 -20 25 -40 25 -45 0 -9 -94 -37
-175 -52 -89 -15 -94 -30 -7 -22 46 4 72 3 72 -3 0 -5 7 -13 16 -16 8 -3 13
-2 10 3 -3 5 1 12 10 15 12 5 15 1 10 -22 -6 -29 -9 -81 -7 -124 1 -20 6 -28
19 -28 10 0 23 -5 30 -12 7 -7 12 -8 12 -2 0 5 4 3 9 -4 6 -11 10 -10 15 3 5
14 2 16 -13 12 -13 -3 -23 3 -32 19 -7 13 -16 24 -21 24 -4 0 -8 4 -8 10 0 5
8 7 18 3 16 -5 16 -5 -1 8 -16 13 -17 20 -6 80 13 64 13 65 42 61 16 -3 32 0
36 7 4 6 34 16 67 21 32 6 77 15 99 20 22 5 95 19 163 31 67 11 125 25 128 30
3 5 2 9 -1 9 -20 0 -258 -43 -300 -54 -27 -8 -75 -16 -105 -19 -55 -5 -56 -5
-80 31 -27 40 -50 67 -50 58z"/>
<path d="M1680 6065 c-7 -8 -18 -15 -24 -15 -7 0 -20 -15 -29 -34 -18 -39 -47
-52 -76 -37 -24 13 -81 14 -81 2 0 -5 -16 -11 -35 -13 -30 -3 -33 -2 -20 12
12 13 10 15 -18 17 -21 2 -27 0 -18 -6 9 -6 11 -19 6 -42 -11 -58 -16 -69 -26
-64 -5 4 -9 -1 -9 -10 0 -9 -8 -30 -17 -45 -13 -23 -20 -27 -35 -19 -21 12
-25 -3 -5 -23 19 -18 29 -76 15 -80 -8 -3 -7 -11 3 -28 11 -21 14 -22 17 -7 4
20 18 23 25 5 3 -8 6 -7 6 4 1 9 -4 20 -9 23 -18 11 14 115 35 115 14 0 29 29
20 39 -3 3 -10 -1 -15 -9 -6 -9 -10 -10 -10 -3 0 6 14 25 30 41 32 33 37 47
18 55 -7 3 -2 6 12 6 14 1 36 8 48 17 18 12 26 13 37 4 8 -7 13 -15 10 -19 -2
-4 9 -6 24 -3 17 2 34 -2 44 -12 22 -22 28 -20 21 8 -7 29 16 77 52 105 15 12
25 24 22 26 -3 3 -11 -1 -18 -10z"/>
<path d="M2056 5758 c-20 -28 -20 -37 -1 -76 19 -38 12 -73 -23 -108 -22 -21
-28 -23 -30 -10 -3 12 -8 14 -21 7 -12 -7 -31 -5 -57 3 -21 8 -62 16 -91 18
-45 4 -50 3 -37 -10 9 -8 36 -16 62 -18 29 -2 51 -9 59 -19 6 -10 16 -14 22
-10 6 3 11 1 11 -5 0 -6 5 -8 10 -5 13 8 13 -11 1 -34 -5 -9 -12 -55 -15 -102
-3 -46 -10 -108 -16 -138 -12 -64 -13 -81 -2 -81 4 0 8 15 9 33 5 74 14 98 41
109 20 8 23 12 11 15 -30 7 -32 70 -7 155 7 25 18 38 34 42 13 4 24 11 24 17
0 6 9 22 20 36 23 30 26 86 6 123 -12 21 -12 29 0 52 17 34 11 37 -10 6z"/>
<path d="M2766 5525 c-9 -24 5 -75 20 -75 8 0 14 -4 14 -10 0 -5 -6 -10 -14
-10 -7 0 -19 -7 -26 -15 -14 -17 -50 -20 -50 -5 0 6 -4 10 -10 10 -5 0 -10 -7
-10 -15 0 -8 -5 -15 -11 -15 -6 0 -9 -9 -6 -20 3 -13 0 -20 -9 -20 -9 0 -11
-6 -7 -17 6 -16 5 -16 -10 -4 -15 12 -17 12 -12 0 4 -11 -3 -14 -34 -11 -21 2
-42 -1 -45 -7 -8 -12 6 -14 67 -11 l39 2 -19 -28 c-10 -16 -12 -25 -5 -20 7 4
14 1 18 -8 7 -18 39 -21 49 -5 15 23 49 26 80 8 41 -26 55 -24 55 7 0 17 -6
28 -20 31 -11 3 -17 10 -14 15 4 6 0 14 -7 19 -10 6 -5 9 16 9 21 0 26 3 18
11 -6 6 -9 17 -7 24 3 7 -5 20 -17 29 -19 13 -20 18 -9 31 10 12 10 21 1 42
-6 14 -9 28 -6 31 3 3 5 0 5 -6 0 -7 9 -12 20 -12 25 0 26 17 3 23 -17 4 -17
5 0 6 24 1 21 18 -5 25 -35 9 -45 7 -52 -9z"/>
<path d="M1280 5468 c0 -7 5 -33 11 -57 8 -34 7 -46 -3 -52 -9 -6 -7 -9 8 -9
12 0 25 7 28 16 10 25 38 -3 30 -29 -5 -17 -3 -19 20 -15 14 3 26 1 26 -4 0
-5 5 -6 10 -3 8 5 7 11 0 20 -13 16 -5 35 13 35 7 0 6 -4 -3 -10 -13 -8 -13
-10 1 -10 9 0 18 3 22 6 6 6 -12 45 -26 55 -5 3 -1 13 8 22 26 26 10 35 -44
23 -43 -8 -53 -7 -69 7 -22 20 -32 22 -32 5z"/>
</g>
</svg>
