<?xml version="1.0" standalone="no"?>
<!DOCTYPE svg PUBLIC "-//W3C//DTD SVG 20010904//EN"
 "http://www.w3.org/TR/2001/REC-SVG-20010904/DTD/svg10.dtd">
<svg version="1.0" xmlns="http://www.w3.org/2000/svg"
 width="1024.000000pt" height="1024.000000pt" viewBox="0 0 1024.000000 1024.000000"
 preserveAspectRatio="xMidYMid meet">
<metadata>
Created by potrace 1.16, written by Peter Selinger 2001-2019
</metadata>
<g transform="translate(0.000000,1024.000000) scale(0.100000,-0.100000)"
fill="#000000" stroke="none">
<path d="M0 5120 l0 -5120 5120 0 5120 0 0 5120 0 5120 -5120 0 -5120 0 0
-5120z m3132 1788 c2 -20 0 -34 -4 -32 -5 3 -6 -12 -3 -33 3 -21 1 -65 -4 -98
-10 -59 -10 -59 -6 25 l4 85 -24 -120 c-14 -66 -29 -147 -35 -180 -30 -174
-66 -291 -78 -256 -2 7 0 16 5 20 15 10 35 95 37 156 0 30 3 55 6 55 3 0 5 14
6 31 2 47 -12 21 -25 -46 -27 -144 -60 -255 -75 -255 -2 0 -4 13 -4 30 1 16 4
27 8 25 3 -2 4 10 2 27 -4 24 -2 29 8 23 10 -6 12 -4 7 7 -7 20 15 109 28 109
15 -1 12 32 -2 37 -7 2 -13 -1 -13 -8 0 -6 5 -8 10 -5 6 3 10 -1 10 -9 0 -10
-6 -13 -15 -10 -19 8 -20 2 15 105 54 156 81 206 59 109 -5 -24 -9 -53 -7 -64
2 -12 9 13 16 54 7 41 18 96 23 122 6 26 12 53 13 60 2 7 8 26 14 41 7 16 12
34 13 40 1 19 7 -5 11 -45z m-547 -938 c0 -98 -3 -189 -7 -202 -5 -19 -6 -17
-8 12 -1 34 -2 34 -11 10 -6 -14 -8 -33 -5 -42 2 -10 0 -16 -5 -12 -5 3 -9 0
-9 -6 0 -17 -42 -111 -47 -106 -3 2 3 31 12 63 10 32 18 63 19 68 1 6 5 16 10
24 5 7 10 43 12 80 3 63 3 64 -5 16 -8 -49 -60 -183 -61 -157 0 16 47 189 60
217 20 45 29 191 15 230 -8 19 -7 19 11 2 17 -16 19 -34 19 -197z m446 53
c-10 -59 -18 -74 -54 -113 -69 -74 -109 -129 -101 -141 4 -7 3 -9 -4 -5 -6 3
-34 -21 -64 -56 -29 -34 -71 -82 -93 -107 -22 -25 -45 -55 -51 -66 -6 -11 -16
-20 -23 -20 -6 0 -28 -19 -50 -42 -21 -24 -45 -43 -52 -43 -12 0 -12 2 0 9 7
5 11 13 7 19 -3 5 1 15 9 22 29 24 15 31 -17 9 -17 -13 -26 -25 -20 -27 7 -2
12 -8 12 -13 0 -6 -6 -7 -12 -3 -9 6 -9 3 0 -9 12 -14 11 -21 -10 -46 -12 -17
-27 -30 -32 -30 -5 -1 -2 7 5 17 13 15 12 16 -3 3 -10 -7 -18 -20 -18 -27 0
-8 -10 -14 -25 -14 -14 0 -25 5 -25 10 0 6 9 10 20 10 11 0 20 5 20 10 0 6 11
15 24 22 14 6 27 17 30 25 4 8 1 11 -5 7 -8 -4 -9 1 -4 17 5 18 4 20 -4 9 -6
-8 -16 -15 -22 -15 -7 0 -17 -9 -23 -20 -19 -34 -51 -49 -39 -19 5 14 2 14
-23 -2 -16 -11 -37 -28 -47 -39 -18 -19 -18 -19 -1 8 15 25 67 62 78 55 14
-10 208 157 351 302 94 95 187 188 207 207 31 30 38 45 49 104 7 38 14 67 17
65 2 -3 -1 -35 -7 -73z m208 -195 c-24 -35 -43 -65 -42 -68 1 -3 -3 -4 -8 -2
-5 1 -9 -5 -9 -13 0 -9 -7 -18 -15 -21 -8 -4 -13 -10 -10 -14 3 -4 -4 -19 -16
-31 -11 -13 -17 -17 -13 -9 10 20 -39 -28 -77 -76 -62 -78 -266 -282 -309
-309 -25 -15 -64 -47 -86 -70 -68 -70 -142 -115 -190 -115 -32 0 -45 -5 -58
-22 -10 -15 -14 -17 -10 -5 4 10 1 17 -7 17 -34 1 23 20 64 21 46 2 105 26
108 44 0 6 5 9 10 8 4 -2 25 12 45 31 25 23 34 38 29 47 -5 8 -5 11 -1 7 7 -6
16 0 69 47 14 13 29 20 32 17 3 -4 3 2 -1 11 -6 17 -7 17 -20 -1 -14 -20 -137
-105 -166 -115 -30 -11 -20 7 16 28 65 38 136 90 136 99 0 5 -11 -1 -25 -14
-14 -13 -28 -21 -31 -17 -8 8 64 71 89 77 22 6 36 30 17 30 -6 0 -8 -5 -4 -12
5 -8 2 -9 -11 -5 -12 5 -30 -4 -62 -34 -24 -22 -47 -38 -50 -35 -11 10 66 75
140 118 40 23 96 60 126 82 83 64 298 275 339 334 20 30 38 49 40 43 2 -5 -16
-38 -39 -73z m369 -533 c-3 -3 -22 -8 -43 -10 -72 -10 -146 -37 -298 -109
-166 -80 -187 -89 -202 -91 -5 -1 -32 -11 -60 -23 -27 -13 -56 -21 -65 -19
-16 4 52 37 77 37 7 0 23 9 35 20 12 11 31 20 42 20 30 1 132 56 115 62 -19 7
-72 -16 -62 -26 5 -5 1 -7 -7 -4 -8 3 -41 -8 -74 -24 -32 -16 -60 -27 -63 -24
-3 3 3 9 15 13 11 5 21 13 21 18 0 6 14 14 33 20 18 5 39 15 46 22 7 7 24 13
37 13 13 0 30 7 39 15 17 18 30 20 20 4 -7 -11 12 -29 31 -29 6 0 4 4 -4 9
-12 8 -13 12 -1 26 7 9 16 12 19 7 3 -4 24 2 46 15 53 30 20 28 -65 -4 -8 -4
-18 -6 -22 -5 -11 2 -160 -28 -171 -35 -5 -3 -7 -2 -4 4 4 6 26 15 49 21 48
12 329 69 368 75 39 7 154 8 148 2z"/>
</g>
</svg>
