<?xml version="1.0" standalone="no"?>
<!DOCTYPE svg PUBLIC "-//W3C//DTD SVG 20010904//EN"
 "http://www.w3.org/TR/2001/REC-SVG-20010904/DTD/svg10.dtd">
<svg version="1.0" xmlns="http://www.w3.org/2000/svg"
 width="853.000000pt" height="1280.000000pt" viewBox="0 0 853.000000 1280.000000"
 preserveAspectRatio="xMidYMid meet">
<metadata>
Created by potrace 1.16, written by Peter Selinger 2001-2019
</metadata>
<g transform="translate(0.000000,1280.000000) scale(0.100000,-0.100000)"
fill="#000000" stroke="none">
<path d="M0 6400 l0 -6400 4265 0 4265 0 0 6400 0 6400 -4265 0 -4265 0 0
-6400z m4256 4570 c-1 -8 -5 -21 -10 -28 -9 -14 -1 -27 17 -27 5 0 12 -6 15
-14 3 -10 0 -12 -13 -7 -11 4 -22 0 -31 -11 -20 -26 -17 -35 9 -27 12 3 18 3
14 -2 -4 -5 -34 -11 -65 -15 -31 -4 -74 -10 -94 -14 -34 -7 -37 -6 -44 20 -4
16 -1 37 7 52 12 22 14 23 20 6 6 -15 8 -14 10 7 1 14 2 31 2 38 -1 6 3 12 8
12 5 0 9 9 9 20 0 11 5 20 11 20 6 0 22 9 36 19 l24 20 39 -27 c21 -15 38 -34
36 -42z m-760 -166 c5 -116 18 -230 28 -237 7 -6 4 -7 -6 -3 -13 4 -18 0 -19
-17 0 -21 -1 -21 -10 -2 -8 18 -8 18 -7 -5 1 -14 -1 -31 -5 -37 -6 -9 -3 -11
7 -7 8 3 17 12 20 20 3 9 10 12 16 9 11 -7 4 -166 -9 -175 -9 -6 -41 -75 -41
-88 0 -6 -4 -13 -9 -16 -5 -4 -10 46 -12 116 -2 121 -5 178 -9 188 -27 71 -19
283 10 265 6 -4 10 0 10 9 0 8 8 13 18 12 11 -2 17 -12 18 -32z m814 -104 c13
-8 13 -10 -1 -10 -9 0 -23 -7 -30 -17 -13 -15 -11 -16 21 -10 28 6 38 3 47
-12 10 -17 8 -18 -30 -18 -23 0 -49 -3 -57 -6 -30 -11 -90 -15 -95 -7 -3 5
-19 1 -35 -8 -27 -15 -32 -15 -40 -2 -15 24 -12 30 18 31 l27 1 -25 8 c-14 4
-20 9 -15 9 6 1 4 5 -4 10 -11 7 -4 12 25 19 84 22 170 28 194 12z m64 -99
c32 -12 2 -21 -35 -11 -19 6 -34 10 -34 10 -1 0 -1 -9 -2 -20 -1 -15 3 -19 20
-16 12 1 16 1 10 -1 -7 -3 -13 -8 -13 -13 0 -9 -111 -52 -146 -56 -28 -3 -29
0 -11 18 12 11 12 16 0 26 -7 8 -13 8 -13 2 0 -5 -11 -10 -24 -10 -14 0 -27
-4 -31 -10 -3 -5 -12 -7 -20 -4 -25 10 42 56 108 75 65 18 159 23 191 10z
m-359 -378 c-4 -10 -9 -32 -10 -49 -2 -17 -11 -46 -20 -64 -11 -21 -15 -43
-11 -64 4 -17 7 -41 6 -53 0 -13 4 -23 9 -23 4 0 6 -11 3 -25 -3 -17 1 -27 12
-31 19 -7 22 -54 4 -72 -8 -8 -8 -12 -1 -12 22 0 21 -39 -1 -55 -11 -9 -15
-13 -8 -10 6 3 12 1 12 -4 0 -6 -7 -11 -15 -11 -8 0 -18 17 -25 43 -6 23 -14
51 -18 62 -4 11 -6 45 -5 75 4 108 4 216 -1 263 l-5 47 41 0 c34 0 39 -3 33
-17z m-520 -143 c-3 -5 2 -10 12 -10 16 -1 16 -2 2 -10 -11 -6 -14 -19 -11
-39 4 -28 5 -29 21 -13 10 9 21 26 25 36 3 10 9 16 12 13 3 -3 0 -15 -6 -27
-13 -25 -4 -42 11 -20 9 13 10 13 6 0 -2 -8 -11 -15 -20 -15 -8 0 -19 -4 -24
-8 -4 -5 -1 -7 7 -5 15 3 16 -7 5 -52 -6 -25 -6 -25 12 3 19 30 28 33 39 15 5
-7 3 -8 -6 -3 -8 5 -11 3 -8 -6 3 -8 1 -22 -4 -31 -5 -11 -5 -18 1 -18 5 0 12
6 14 13 3 7 6 4 6 -6 1 -10 5 -16 11 -12 5 3 7 -10 5 -32 -9 -75 -16 -101 -30
-113 -12 -10 -15 -7 -21 14 -6 25 -7 25 -20 9 -7 -10 -14 -13 -14 -8 0 6 -9
78 -20 160 -23 175 -23 175 -9 175 5 0 7 -4 4 -10z m-760 -1429 c-3 -6 -10 -9
-14 -6 -5 2 -6 -7 -3 -21 6 -31 -18 -118 -29 -107 -5 5 -2 28 7 52 20 59 10
64 -17 7 -11 -25 -24 -46 -29 -46 -4 0 -15 -16 -26 -35 -10 -19 -21 -35 -24
-35 -4 0 -17 -18 -29 -41 -13 -22 -25 -38 -28 -35 -9 8 16 68 37 91 10 11 24
33 30 49 9 26 9 27 -5 16 -16 -13 -20 -21 -69 -111 -16 -30 -32 -55 -37 -57
-4 -2 -7 -9 -5 -15 1 -7 1 -9 -1 -4 -3 4 -8 7 -12 7 -12 0 -71 -59 -71 -70 0
-6 -7 -10 -15 -10 -22 0 -19 9 11 33 15 11 33 35 40 54 15 34 29 42 37 21 2
-7 4 1 4 17 1 17 -4 36 -10 43 -7 9 -7 16 1 24 9 9 12 8 12 -6 0 -13 8 -7 26
20 15 21 31 42 37 45 5 4 7 12 3 18 -5 7 -1 8 10 4 12 -4 15 -3 10 5 -7 12 77
72 101 72 7 0 13 4 13 8 0 9 42 32 49 26 1 -1 0 -8 -4 -13z m-285 -1591 c0 -4
-7 -13 -15 -20 -13 -11 -13 -15 -3 -21 20 -13 31 -10 24 6 -3 8 -2 16 2 16 31
6 52 5 52 -2 0 -4 -10 -10 -22 -13 -13 -3 11 -3 52 0 53 3 71 2 60 -6 -13 -8
-13 -10 2 -10 9 0 20 -9 23 -20 7 -22 49 -28 61 -9 4 8 9 7 15 -2 7 -11 9 -11
9 -1 0 7 5 10 10 7 17 -10 11 -23 -12 -28 -20 -4 -19 -4 5 -6 17 0 30 5 34 15
6 15 8 15 21 -2 13 -17 14 -16 8 16 l-6 35 20 -24 c15 -17 20 -19 20 -7 0 12
7 14 28 11 15 -3 43 -8 63 -11 44 -7 66 -42 47 -74 -15 -24 -27 -25 -34 -5 -4
8 -13 15 -22 15 -13 0 -12 -3 3 -20 16 -18 16 -20 1 -26 -23 -9 -20 -24 7 -25
20 -1 20 -2 2 -6 -11 -3 -23 -10 -27 -17 -6 -8 -8 -8 -8 0 0 7 -11 9 -25 6
-14 -2 -25 -10 -25 -18 0 -7 -4 -16 -10 -19 -5 -3 -7 0 -4 8 3 8 1 17 -4 21
-12 7 -82 -15 -82 -26 0 -5 -5 -6 -10 -3 -6 4 -17 1 -25 -5 -8 -6 -19 -9 -24
-6 -14 9 -26 -15 -22 -44 l3 -25 -27 28 c-15 15 -38 27 -50 27 -12 0 -28 6
-34 14 -15 18 -51 28 -48 13 3 -17 -81 -17 -87 0 -3 7 -21 13 -40 13 -19 0
-36 3 -39 8 -2 4 -2 1 -1 -5 3 -13 -13 -16 -71 -14 -29 1 -29 1 -6 -9 30 -13
22 -23 -12 -15 -17 5 -24 12 -20 21 3 8 -1 14 -11 14 -9 0 -16 -5 -16 -11 0
-8 -6 -7 -17 2 -14 12 -16 12 -8 0 6 -11 4 -13 -9 -8 -25 10 -72 -3 -54 -14 9
-6 7 -9 -8 -9 -13 0 -24 8 -27 20 -3 11 -13 20 -22 20 -9 0 -14 -4 -11 -8 2
-4 -7 -8 -22 -7 -15 0 -29 -3 -32 -7 -3 -4 -39 4 -79 17 -90 31 -97 35 -80 46
9 6 1 6 -20 2 -27 -5 -32 -3 -26 7 6 10 2 11 -19 6 -19 -5 -28 -2 -33 10 -4
12 -8 13 -14 3 -6 -10 -11 -10 -24 1 -14 11 -18 11 -25 0 -4 -7 -17 -11 -29
-7 -12 3 -21 1 -21 -4 0 -5 -5 -9 -12 -9 -6 0 -3 9 7 20 10 11 16 23 12 26 -4
5 -52 -21 -67 -36 -13 -13 -32 -10 -26 5 3 9 2 13 -4 10 -6 -3 -11 0 -11 7 -1
7 -5 0 -9 -17 -6 -24 -8 -26 -9 -7 0 12 -6 22 -12 22 -5 0 -7 4 -4 10 3 6 -1
7 -9 4 -11 -4 -16 0 -16 12 -1 17 -3 16 -20 -5 -24 -28 -26 -16 -4 27 16 33
42 57 31 30 -7 -20 3 -31 17 -19 15 12 49 17 62 8 7 -4 29 0 50 7 32 12 35 15
14 15 -23 1 -23 2 -7 18 15 16 18 15 38 -3 20 -17 22 -17 16 -2 -4 11 0 21 11
27 14 9 12 10 -11 11 -17 0 -26 4 -22 11 4 6 9 8 12 5 3 -2 16 -1 28 4 16 6
25 5 28 -3 2 -6 19 -13 38 -14 31 -3 69 -9 78 -12 2 0 -2 -7 -8 -15 -11 -13
-5 -46 8 -46 16 0 20 14 10 27 -9 10 -8 13 5 13 9 0 16 -4 16 -9 0 -4 10 -8
23 -7 12 1 21 7 19 14 -1 7 5 12 13 12 8 0 15 -7 15 -15 0 -8 5 -15 10 -15 6
0 10 5 10 10 0 6 5 10 10 10 6 0 10 -6 10 -14 0 -16 43 -30 48 -16 2 6 14 7
26 4 15 -3 29 3 45 20 13 13 29 22 37 19 8 -3 14 -1 14 4 0 4 9 14 21 21 12 8
18 9 14 3 -3 -7 3 -11 15 -11 19 0 21 -4 16 -25 -5 -18 -2 -25 8 -25 20 0 29
17 14 23 -7 3 16 6 52 6 65 1 123 19 70 22 -19 1 -16 3 14 11 33 9 41 8 52 -6
13 -19 27 -7 19 16 -3 8 3 13 20 14 14 1 25 -2 25 -6z m210 -920 c0 -5 -4 -10
-10 -10 -5 0 -9 -12 -9 -27 1 -17 3 -21 6 -10 2 9 11 17 18 17 9 0 12 -6 8
-16 -5 -13 -2 -15 18 -9 13 4 27 12 30 17 4 6 9 5 12 -3 4 -10 8 -7 12 9 5 16
15 22 34 21 25 0 25 0 4 -9 -26 -11 -31 -30 -7 -30 10 0 14 -6 10 -15 -4 -11
1 -15 19 -15 14 0 25 5 25 10 0 6 5 10 10 10 20 0 10 -55 -11 -69 -13 -8 -18
-16 -11 -20 6 -4 2 -16 -12 -32 -24 -28 -66 -47 -66 -31 0 5 10 13 23 17 14 4
17 8 9 12 -18 7 -52 -25 -45 -43 9 -25 -147 -147 -165 -129 -3 3 0 5 7 5 7 0
10 4 7 9 -7 11 -55 2 -85 -18 -18 -12 -26 -12 -29 -3 -5 16 -22 15 -22 -1 0
-16 -47 -43 -57 -34 -3 4 -1 7 5 7 7 0 12 5 12 10 0 6 -28 10 -65 10 -36 0
-65 -4 -65 -10 0 -5 -6 -7 -12 -5 -16 7 -20 55 -4 55 7 0 6 3 -2 9 -8 4 -13
11 -13 15 1 3 -2 5 -6 4 -5 -2 -7 -9 -5 -15 2 -7 -2 -13 -8 -13 -6 0 -8 -4 -5
-10 3 -5 3 -15 -1 -22 -5 -8 -11 -6 -20 7 -7 10 -27 18 -44 19 -16 1 -30 4
-30 7 0 11 27 18 48 12 12 -3 28 3 39 14 15 15 29 18 59 15 21 -3 33 -7 27 -9
-20 -7 -15 -33 6 -33 22 0 36 26 18 34 -7 4 0 4 15 1 22 -4 26 -2 22 10 -6 13
17 21 48 16 4 0 5 6 2 14 -4 10 0 15 12 16 16 1 17 2 2 6 -10 2 -15 10 -11 19
4 10 0 12 -13 7 -12 -4 -15 -3 -10 5 9 15 36 16 36 2 0 -5 5 -10 10 -10 19 0
10 38 -10 43 -11 3 -20 2 -20 -2 0 -4 -18 -8 -40 -7 -22 0 -40 4 -40 9 0 4 -9
3 -21 -3 -15 -9 -24 -8 -35 1 -19 15 -19 60 0 53 7 -3 16 2 20 11 3 9 10 13
16 10 11 -7 40 18 40 34 0 14 16 14 58 -1 31 -12 35 -11 51 11 15 19 19 21 24
8 3 -9 -3 -22 -16 -32 -19 -14 -19 -15 -3 -10 11 3 27 -2 37 -11 17 -16 28 -6
12 10 -14 13 -12 38 3 32 8 -3 14 -1 14 4 0 6 -8 10 -17 11 -14 0 -15 2 -3 6
8 3 21 12 28 21 11 14 12 14 12 -1 0 -22 17 -21 65 3 44 22 55 24 55 10z"/>
</g>
</svg>
