<?xml version="1.0" standalone="no"?>
<!DOCTYPE svg PUBLIC "-//W3C//DTD SVG 20010904//EN"
 "http://www.w3.org/TR/2001/REC-SVG-20010904/DTD/svg10.dtd">
<svg version="1.0" xmlns="http://www.w3.org/2000/svg"
 width="1280.000000pt" height="1280.000000pt" viewBox="0 0 1280.000000 1280.000000"
 preserveAspectRatio="xMidYMid meet">
<metadata>
Created by potrace 1.16, written by Peter Selinger 2001-2019
</metadata>
<g transform="translate(0.000000,1280.000000) scale(0.100000,-0.100000)"
fill="#000000" stroke="none">
<path d="M0 6400 l0 -6400 6400 0 6400 0 0 6400 0 6400 -6400 0 -6400 0 0
-6400z m6439 5799 c19 -11 39 -26 46 -32 7 -7 56 -47 109 -91 86 -71 106 -96
74 -96 -19 0 -78 -50 -78 -66 0 -7 -5 -14 -11 -14 -5 0 -7 -4 -4 -10 3 -5 -5
-15 -19 -21 -14 -7 -35 -32 -47 -56 -29 -61 -21 -101 35 -169 25 -30 68 -101
97 -157 68 -134 84 -154 169 -207 113 -71 635 -432 789 -546 120 -89 445 -359
570 -473 206 -188 441 -442 631 -681 28 -36 62 -78 76 -95 14 -16 57 -77 95
-133 39 -57 94 -127 122 -155 28 -29 68 -79 90 -112 22 -33 52 -76 68 -96 20
-25 29 -48 28 -70 0 -31 -1 -32 -9 -11 -10 23 -34 30 -45 12 -5 -8 -11 -8 -19
-1 -16 13 -26 4 -26 -22 0 -14 5 -17 16 -13 14 5 15 4 4 -9 -7 -8 -21 -15 -32
-15 -15 0 -18 5 -13 20 4 13 0 23 -14 32 -13 8 -21 23 -21 41 0 16 -4 26 -10
22 -5 -3 -10 -17 -10 -30 0 -13 -6 -25 -12 -28 -10 -3 -7 -16 10 -47 18 -34
20 -45 10 -52 -7 -4 -16 -8 -20 -8 -11 0 -38 61 -38 87 0 12 -5 23 -11 23 -7
0 -20 10 -30 22 -11 11 -19 17 -19 13 0 -4 -16 12 -35 36 -19 24 -35 48 -35
53 0 5 -12 24 -26 43 -14 19 -23 41 -20 49 3 8 2 13 -3 10 -13 -8 -39 25 -55
70 -8 21 -15 32 -15 24 -1 -9 -7 -6 -18 10 -10 14 -18 28 -18 31 0 4 -21 31
-47 60 -25 30 -93 113 -149 184 -56 72 -121 153 -143 180 -23 28 -50 61 -61
75 -11 13 -44 50 -72 81 -29 30 -53 63 -53 72 0 10 -6 17 -12 17 -7 0 -42 27
-78 61 -320 300 -656 558 -1205 924 -104 70 -215 148 -245 173 -66 56 -242
234 -278 280 -13 17 -28 32 -32 32 -4 0 -24 -21 -43 -46 -66 -85 -215 -238
-279 -288 -35 -26 -162 -115 -283 -197 -253 -171 -274 -186 -479 -334 -249
-180 -322 -241 -569 -467 -78 -72 -147 -128 -158 -128 -11 0 -19 -7 -19 -17 0
-10 -15 -34 -33 -53 -18 -19 -85 -100 -148 -180 -63 -80 -122 -152 -130 -160
-8 -8 -37 -44 -64 -79 -28 -35 -55 -70 -62 -78 -11 -14 -14 -14 -27 0 -18 17
-22 72 -6 62 16 -10 52 5 46 20 -2 7 2 22 10 33 12 17 12 21 -2 26 -21 8 -44
-11 -44 -34 0 -23 -29 -35 -36 -15 -4 9 0 23 7 32 10 12 10 15 2 9 -18 -10
-16 10 3 40 17 25 14 41 -5 29 -6 -3 -11 -15 -11 -25 0 -10 -5 -20 -11 -22 -6
-2 -12 -17 -13 -33 -1 -17 -9 -41 -18 -53 l-16 -24 -7 22 c-12 37 -15 16 -4
-24 9 -32 8 -40 -8 -51 -10 -7 -21 -11 -25 -9 -4 3 -5 -9 -2 -25 4 -17 3 -38
-1 -48 -4 -10 -8 -36 -10 -59 -1 -22 -9 -54 -18 -70 -8 -16 -18 -47 -22 -67
-6 -28 -11 -37 -22 -32 -12 4 -14 0 -10 -16 7 -27 -19 -69 -44 -69 -14 0 -19
7 -19 29 0 16 6 31 15 35 25 9 17 25 -12 23 -26 -2 -28 1 -27 31 2 28 -1 32
-22 32 -21 0 -24 3 -18 28 l6 27 -21 -25 c-25 -30 -26 -39 -5 -54 19 -14 8
-50 -14 -41 -8 3 -21 -3 -29 -12 -13 -17 -13 -16 -7 7 l7 25 -21 -25 c-12 -14
-21 -20 -22 -13 0 6 5 15 10 18 6 3 10 11 10 16 0 23 -20 -5 -31 -44 -15 -51
-28 -69 -42 -60 -6 4 -8 0 -4 -11 4 -9 3 -15 -3 -11 -5 3 -20 -7 -34 -22 -38
-40 -32 -16 10 42 19 28 51 78 71 113 23 42 40 61 49 58 8 -3 27 12 46 39 18
25 63 85 101 135 37 50 67 92 67 95 0 9 105 143 223 285 120 145 337 380 433
470 125 116 279 252 354 311 30 23 63 51 75 60 88 76 455 349 564 421 14 9 89
60 166 113 77 53 170 117 208 142 150 102 240 209 297 352 22 56 22 56 74 117
59 68 42 128 -52 186 -41 25 -122 97 -122 109 0 8 233 199 265 217 26 15 25
15 64 -9z m-48 -1264 c5 4 9 24 9 46 l0 39 34 -22 c19 -13 67 -45 106 -73 40
-27 80 -54 89 -60 22 -13 163 -107 176 -118 6 -5 22 -16 37 -25 14 -9 64 -44
110 -77 46 -33 90 -64 100 -70 28 -17 148 -108 201 -152 28 -24 54 -43 58 -43
12 0 119 -82 119 -91 0 -4 15 -16 33 -28 18 -11 70 -56 117 -100 47 -44 90
-81 97 -81 6 0 13 -3 15 -7 2 -5 23 -24 48 -43 52 -40 85 -68 150 -130 26 -25
71 -65 100 -90 28 -25 58 -59 66 -77 7 -17 23 -34 34 -38 11 -4 18 -11 15 -16
-4 -5 1 -9 9 -9 9 0 16 -7 16 -15 0 -8 5 -15 10 -15 6 0 10 -7 10 -16 0 -8 4
-13 9 -9 5 3 12 -3 15 -13 4 -11 17 -24 30 -30 29 -13 106 -114 106 -138 0
-10 3 -15 6 -11 9 9 44 -26 44 -45 0 -10 5 -18 10 -18 6 0 10 -7 10 -15 0 -8
6 -15 14 -15 15 0 29 -73 20 -106 -4 -15 0 -20 17 -21 26 -2 43 -17 45 -41 3
-56 5 -63 15 -56 7 4 9 22 4 50 -4 26 -2 44 3 44 16 0 24 -30 28 -104 3 -64
14 -107 14 -58 0 12 5 22 10 22 6 0 10 -7 10 -16 0 -12 6 -15 25 -10 23 6 24
5 14 -18 -14 -29 -4 -70 11 -46 7 12 13 10 29 -9 12 -13 21 -29 21 -36 0 -6 5
-16 12 -23 29 -29 39 -91 43 -257 2 -93 1 -160 -1 -147 -3 13 -12 26 -20 29
-8 3 -14 13 -14 22 0 12 -2 13 -8 3 -9 -14 -52 -25 -52 -13 0 4 5 12 11 18 6
6 9 26 6 44 -4 34 -4 34 -7 -6 -2 -32 -5 -22 -15 45 -9 63 -13 74 -14 43 -2
-60 -21 -54 -21 6 0 28 -4 53 -10 56 -6 4 -10 -15 -10 -50 0 -62 -19 -69 -21
-7 -1 25 -5 12 -13 -38 l-11 -75 -6 75 c-3 41 -6 60 -7 43 -1 -18 -5 -33 -10
-33 -4 0 -9 -39 -10 -87 -2 -68 -7 -91 -19 -100 -16 -12 -15 -16 1 -49 31 -66
10 -46 -27 25 -19 38 -37 68 -39 66 -2 -3 -99 151 -133 214 -6 10 -17 26 -24
35 -7 9 -11 22 -7 31 3 8 0 14 -6 12 -11 -2 -44 40 -210 264 -85 115 -194 239
-211 239 -5 0 20 -34 55 -75 35 -42 91 -115 126 -163 35 -48 68 -94 75 -102 7
-9 25 -36 42 -60 16 -25 53 -77 81 -116 44 -61 86 -130 138 -228 6 -12 21 -35
34 -53 12 -17 22 -34 22 -37 0 -3 16 -31 35 -63 19 -32 35 -62 35 -68 0 -9
-42 58 -156 250 -107 182 -308 460 -455 630 -183 212 -457 449 -903 783 -193
145 -542 367 -551 352 -3 -4 -62 -43 -133 -86 -149 -90 -350 -226 -442 -298
-213 -168 -504 -419 -625 -540 -135 -135 -333 -364 -425 -491 -24 -33 -46 -62
-50 -65 -3 -3 -39 -54 -78 -113 -67 -101 -88 -126 -61 -74 41 78 264 397 299
427 3 3 44 52 91 110 264 323 898 843 1321 1085 l118 67 112 -67 c62 -37 140
-84 172 -104 81 -50 487 -354 599 -449 94 -79 250 -201 277 -216 22 -12 -58
64 -110 104 -56 44 -69 54 -155 127 -225 190 -462 365 -639 472 -61 37 -143
87 -183 112 l-72 44 -2 75 c-1 93 -7 162 -14 169 -3 2 -3 -52 1 -121 l7 -125
-124 -73 c-187 -110 -463 -302 -605 -420 -16 -14 -44 -35 -60 -48 -17 -12 -44
-33 -60 -46 -16 -13 -65 -52 -109 -87 -124 -98 -385 -359 -518 -519 -67 -80
-124 -147 -128 -150 -12 -10 -177 -237 -214 -295 -21 -33 -67 -104 -102 -158
-36 -55 -67 -106 -70 -115 -4 -8 -21 -38 -40 -66 -35 -53 -44 -52 -17 2 8 18
13 41 9 52 -4 12 1 33 13 53 17 29 18 40 9 108 -10 70 -13 77 -39 87 -30 11
-48 40 -30 51 5 3 13 27 17 52 5 36 3 49 -10 63 -13 13 -20 14 -31 5 -8 -6
-11 -16 -8 -21 3 -5 -3 -12 -15 -15 -22 -5 -25 -15 -35 -90 -4 -23 -11 -54
-16 -69 -10 -26 -12 -26 -28 -10 -12 12 -14 19 -5 24 11 7 26 79 28 142 4 108
9 118 42 85 14 -14 17 -14 34 1 25 23 25 60 -1 67 -24 6 -27 39 -5 61 8 8 15
21 15 28 0 7 13 39 28 71 27 55 42 64 42 25 0 -10 5 -18 10 -18 6 0 10 5 10
10 0 6 5 10 12 10 14 0 58 40 58 52 0 5 -8 7 -19 3 -25 -8 -64 25 -56 48 4 9
18 17 30 17 15 0 26 8 30 19 3 11 12 18 20 15 7 -3 16 -1 20 5 3 6 1 11 -5 11
-6 0 -13 7 -16 15 -7 18 53 90 75 90 8 0 19 13 24 30 12 34 191 223 226 236
13 5 22 12 19 15 -3 2 5 17 18 32 83 98 83 98 94 82 8 -13 10 -13 10 3 0 9 4
17 10 17 5 0 16 14 22 30 7 17 28 38 47 48 19 9 34 22 35 27 1 14 29 45 41 45
5 0 23 16 39 35 16 19 35 35 43 35 7 0 13 4 13 8 0 5 37 40 82 78 45 38 98 83
117 101 19 17 38 30 43 27 4 -3 17 5 28 16 12 12 28 19 38 16 12 -4 21 3 31
25 11 25 18 30 37 25 19 -5 24 -2 24 13 0 22 27 54 39 46 5 -2 23 14 40 35 18
22 37 38 42 34 5 -3 28 13 49 35 22 23 47 41 54 41 8 0 19 6 23 13 7 12 84 70
134 102 42 26 205 139 209 145 8 9 131 90 139 90 3 0 22 15 41 34 l35 33 3
-49 c2 -27 7 -46 13 -43z m-3277 -623 c43 -85 83 -199 73 -208 -2 -3 -24 26
-48 63 -24 37 -47 70 -51 71 -5 2 -8 11 -9 20 0 11 -2 12 -6 5 -2 -7 22 -60
55 -117 33 -57 65 -120 72 -140 6 -20 26 -57 43 -84 31 -45 51 -84 67 -127 18
-49 34 -74 43 -68 6 3 7 1 3 -6 -10 -15 3 -53 15 -46 5 4 9 0 9 -8 0 -23 53
-113 75 -129 6 -5 6 -8 0 -8 -6 0 -5 -3 1 -8 12 -7 78 -122 70 -122 -2 0 -48
71 -101 158 -165 266 -203 324 -257 401 -29 41 -68 104 -86 140 -29 57 -33 74
-29 120 2 30 0 69 -6 87 -7 23 -6 40 4 63 8 17 15 31 16 31 2 0 23 -40 47 -88z
m6649 76 c2 -7 0 -31 -5 -53 -5 -21 -13 -78 -17 -126 -6 -62 -15 -101 -33
-136 -29 -54 -107 -175 -119 -183 -4 -3 -14 -17 -21 -30 -13 -23 -93 -148
-187 -290 -20 -30 -41 -64 -47 -75 -30 -57 -67 -115 -71 -112 -2 2 22 53 54
113 111 213 273 553 273 575 0 8 7 27 15 43 8 16 22 56 31 90 14 56 59 150 87
182 15 17 34 18 40 2z m-3230 -144 c72 -47 158 -103 190 -123 77 -48 267 -186
401 -291 60 -47 132 -103 160 -124 198 -151 408 -343 534 -490 150 -174 358
-468 452 -641 19 -33 40 -68 48 -77 8 -10 12 -18 8 -18 -4 0 2 -12 13 -27 26
-32 19 -45 -8 -15 -10 12 -24 22 -30 22 -7 0 -11 8 -9 18 2 9 -3 16 -9 15 -16
-4 -48 56 -45 82 2 15 1 17 -6 7 -12 -18 -47 29 -57 78 -7 38 -33 85 -42 77
-2 -3 3 -17 13 -31 9 -15 14 -29 11 -32 -3 -3 -23 21 -46 54 -22 33 -37 63
-33 67 4 3 2 5 -5 3 -6 -1 -46 44 -90 102 -116 156 -221 274 -425 476 -188
185 -199 195 -425 377 -258 208 -670 492 -728 501 -27 5 -45 -2 -97 -36 -34
-23 -65 -45 -68 -48 -3 -3 -39 -27 -80 -55 -414 -274 -667 -493 -1065 -918
-60 -64 -115 -117 -121 -117 -13 0 -74 -84 -74 -101 0 -5 -11 -15 -25 -21 -14
-6 -25 -20 -25 -31 0 -10 -9 -21 -20 -24 -10 -3 -22 -14 -25 -24 -4 -10 -17
-27 -30 -38 -14 -10 -29 -30 -35 -45 -5 -14 -15 -26 -21 -26 -6 0 -8 -7 -5
-17 4 -10 4 -14 0 -10 -10 10 -44 -22 -44 -42 -1 -23 -24 -51 -43 -51 -11 0
-15 -6 -11 -17 5 -15 4 -15 -4 -4 -12 17 3 55 18 46 6 -4 7 1 3 11 -5 13 -3
15 7 9 9 -5 11 -4 6 4 -13 20 141 241 325 467 110 136 365 382 532 514 11 8
24 20 31 25 109 98 418 337 462 357 13 6 24 15 24 20 0 4 5 8 11 8 7 0 34 16
60 35 27 19 51 35 54 35 3 0 15 8 26 18 10 11 32 25 47 33 15 7 44 27 66 43
63 48 100 74 109 75 4 1 67 -38 140 -85z m-3043 -486 c56 -112 116 -228 133
-258 51 -92 57 -104 57 -123 0 -17 -2 -17 -29 3 -70 49 -204 267 -250 407 -34
100 -37 118 -20 107 12 -7 8 20 -8 62 -4 10 -2 15 4 11 5 -3 56 -98 113 -209z
m5940 145 c0 -16 -3 -23 -8 -16 -4 6 -8 -8 -8 -30 -2 -57 -67 -204 -139 -313
-56 -85 -140 -184 -156 -184 -14 0 15 68 86 205 138 265 173 327 197 348 26
22 28 22 28 -10z m-3018 -778 c5 -22 11 -703 14 -1512 l6 -1473 -26 -11 c-25
-12 -37 -49 -16 -49 6 0 10 5 10 11 0 5 5 7 11 3 8 -5 8 -9 -1 -14 -7 -4 -9
-22 -6 -46 3 -21 3 -31 0 -21 -3 9 -11 17 -19 17 -7 0 -22 17 -33 38 -15 29
-17 41 -8 55 8 13 7 24 -6 47 -12 22 -15 37 -9 53 5 13 5 30 0 39 -11 20 -8
2877 3 2894 4 7 22 11 40 10 30 -1 33 -5 40 -41z m-128 -95 c3 -30 7 -109 8
-175 2 -92 0 -119 -9 -117 -7 1 -13 -2 -13 -6 0 -5 -15 -17 -34 -27 -39 -21
-66 -65 -40 -65 20 0 65 35 81 63 10 17 12 -240 12 -1210 1 -678 -2 -1246 -5
-1262 -4 -17 -10 -28 -15 -25 -5 3 -9 -22 -9 -56 0 -38 -4 -59 -10 -55 -6 4
-10 -17 -10 -57 0 -70 -13 -104 -30 -78 -6 10 -8 3 -3 -24 4 -27 2 -40 -8 -46
-22 -14 -27 -3 -21 45 5 47 -8 60 -27 28 -10 -17 -12 -17 -25 0 -14 18 -15 17
-18 -9 -3 -29 -28 -47 -28 -20 0 25 -24 19 -56 -15 -84 -88 -211 -118 -347
-83 -77 20 -120 43 -177 93 -25 23 -48 41 -52 41 -4 0 -29 -21 -55 -46 -61
-59 -99 -75 -193 -81 -81 -5 -196 15 -238 43 -36 24 -21 26 34 5 82 -32 192
-43 255 -26 87 22 102 30 147 80 43 47 49 49 88 20 21 -15 22 -15 20 17 -2 18
1 43 5 56 10 26 2 28 -22 6 -10 -9 -15 -22 -12 -30 4 -10 -2 -13 -20 -12 -22
2 -24 5 -15 31 13 35 4 46 -13 15 -6 -12 -23 -33 -36 -45 -12 -12 -23 -28 -24
-35 0 -7 -5 1 -10 17 -5 17 -9 408 -9 916 l1 886 71 104 c102 150 252 340 349
444 21 22 47 51 58 65 l20 25 2 -47 c4 -93 2 -134 -10 -173 -11 -36 -16 -61
-20 -91 0 -6 -11 -23 -24 -38 -32 -37 -47 -122 -43 -245 3 -91 7 -113 30 -156
14 -27 32 -53 39 -57 9 -6 9 -10 -2 -17 -12 -8 -12 -16 0 -58 11 -39 13 -201
14 -855 0 -443 -2 -808 -5 -811 -3 -3 -25 -7 -49 -8 -36 -3 -44 -1 -47 14 -1
11 4 17 17 17 10 0 19 4 19 9 0 4 -11 6 -25 3 -21 -4 -25 -1 -25 21 0 27 -15
44 -24 29 -3 -5 -7 -23 -8 -41 -1 -17 -6 -31 -11 -31 -4 0 -5 -5 -2 -10 4 -6
-17 -1 -45 10 -28 11 -53 20 -55 20 -2 0 -13 9 -24 21 -11 12 -21 16 -25 11
-9 -15 37 -48 102 -74 78 -30 228 -31 287 0 63 32 127 82 122 95 -2 7 0 21 6
32 15 28 19 85 7 85 -5 0 -10 -4 -10 -9 0 -5 -8 -12 -17 -15 -17 -6 -103 -125
-103 -141 0 -10 -41 -45 -51 -45 -11 0 -11 1541 0 1558 5 9 10 1 15 -27 5 -35
10 -41 31 -41 21 0 25 -5 25 -30 0 -29 1 -30 45 -24 36 4 45 2 45 -11 0 -8 6
-15 14 -15 15 0 28 68 14 76 -12 8 13 52 30 50 9 0 18 9 21 22 3 12 17 28 31
35 14 7 30 27 36 46 6 18 15 36 20 39 10 8 14 43 15 162 2 185 2 184 -34 206
-30 18 -31 19 -9 22 18 3 22 8 16 25 -9 31 -14 34 -25 17 -8 -12 -13 -10 -30
13 -11 15 -27 27 -35 27 -8 0 -14 10 -14 25 0 20 5 25 25 25 18 0 23 4 18 16
-3 9 -13 14 -23 11 -13 -3 -20 3 -23 22 -3 14 -13 53 -21 86 -17 62 -38 179
-38 205 0 8 4 47 9 85 l9 70 8 -98 c5 -53 12 -99 16 -102 4 -3 10 23 12 56 2
33 9 64 14 67 6 4 19 21 29 39 10 17 30 37 44 44 l26 12 -33 7 c-18 4 -35 10
-38 13 -16 16 76 106 144 141 71 37 10 74 -89 55 -61 -12 -140 -2 -147 19 -2
6 2 12 8 12 6 0 18 7 26 15 8 8 22 12 32 9 12 -4 10 1 -7 15 -13 12 -30 21
-38 21 -28 0 -93 -23 -93 -32 0 -5 -14 -7 -31 -3 -22 5 -29 4 -25 -4 4 -6 14
-11 22 -11 18 0 18 -9 -1 -30 -13 -15 -21 -16 -48 -6 -18 6 -38 15 -44 19 -19
12 -16 30 4 23 10 -4 15 -4 11 -1 -13 13 27 45 57 45 23 0 27 -3 15 -10 -17
-11 -6 -13 28 -4 12 4 21 11 20 18 -1 6 4 22 11 36 8 13 14 33 15 44 1 19 54
57 69 49 4 -3 -4 -14 -18 -25 -30 -23 -26 -33 22 -53 47 -20 49 -19 16 10 -19
16 -23 24 -13 25 8 0 21 14 28 30 8 17 18 30 24 30 5 0 16 7 24 15 9 8 28 15
44 15 16 0 32 5 35 10 4 6 19 9 35 8 27 -2 29 -5 34 -58z m-2127 -249 c1 -162
-1 -190 -14 -196 -9 -3 -18 -3 -21 0 -13 12 -20 148 -11 198 5 28 12 77 15
107 5 45 18 80 28 80 1 0 2 -85 3 -189z m1523 -41 c0 -5 9 -10 20 -10 11 0 20
-6 20 -14 0 -8 13 -24 29 -37 17 -13 27 -29 23 -37 -3 -8 1 -20 9 -26 9 -6 18
-19 22 -28 3 -10 13 -18 21 -18 33 0 11 -31 -113 -166 -103 -111 -331 -404
-331 -425 0 -5 -3 -9 -8 -9 -4 0 -12 -9 -17 -20 -22 -44 -110 -185 -117 -188
-4 -2 -8 -8 -8 -13 0 -5 -11 -27 -25 -49 -13 -21 -43 -81 -66 -132 -23 -51
-52 -117 -65 -146 -13 -29 -24 -55 -24 -58 0 -3 -9 -17 -20 -31 -18 -23 -20
-23 -20 -6 0 10 5 24 11 30 6 6 7 13 2 16 -5 3 -16 -9 -25 -26 -29 -59 -56
-122 -66 -157 -5 -19 -21 -60 -35 -91 -14 -31 -23 -59 -20 -62 3 -4 -2 -13
-11 -22 -9 -9 -16 -25 -16 -36 0 -10 -4 -19 -10 -19 -5 0 -12 -17 -16 -37 -4
-21 -11 -41 -17 -44 -11 -8 -1 -29 14 -29 6 0 16 14 23 31 11 27 14 29 18 11
5 -18 1 -46 -18 -124 -3 -15 -10 -25 -15 -22 -5 3 -10 0 -10 -5 -3 -26 -4 -30
-11 -37 -12 -11 -10 -26 2 -19 15 9 12 -27 -4 -47 -7 -10 -16 -18 -20 -18 -3
0 -6 8 -6 18 -1 16 -1 16 -11 -1 -6 -9 -7 -26 -4 -37 4 -13 2 -20 -6 -18 -7 2
-21 -29 -36 -77 -13 -44 -36 -118 -51 -165 -15 -47 -26 -89 -24 -93 1 -4 -9
-20 -23 -35 -14 -15 -25 -33 -25 -40 0 -8 -6 -12 -12 -10 -9 3 -14 31 -16 81
-3 73 -4 77 -26 77 -18 0 -23 5 -20 23 9 63 12 137 6 137 -4 0 -12 -10 -17
-22 -29 -63 -63 -4 -41 70 28 93 47 179 61 282 14 99 34 183 57 240 5 13 19
51 30 85 11 33 28 78 38 100 45 99 52 119 41 123 -15 5 -14 24 4 58 l15 29 0
-28 c0 -16 -4 -26 -10 -22 -6 3 -7 -1 -4 -9 3 -9 10 -13 15 -10 13 8 59 111
59 132 0 10 4 22 8 28 12 14 44 122 46 157 1 4 6 11 11 15 6 4 21 29 35 56 14
27 33 51 42 54 23 6 23 22 1 22 -9 0 -13 3 -9 7 4 4 14 8 23 8 8 0 20 16 28
38 7 20 9 37 4 37 -18 0 -8 18 12 23 12 3 18 10 14 16 -3 6 1 14 10 17 9 4 26
27 37 53 19 40 37 68 78 118 6 7 10 16 10 21 0 5 11 19 25 32 14 13 23 26 20
28 -2 3 10 21 28 42 62 71 76 89 99 133 13 24 54 74 91 112 37 38 67 75 67 83
0 7 15 19 33 27 19 8 56 31 83 53 74 58 104 73 104 52z m847 -28 c5 -22 3
-192 -13 -897 -2 -121 -4 -235 -4 -253 0 -18 -4 -31 -9 -28 -5 4 -12 0 -14 -6
-3 -7 -6 6 -6 29 -1 24 4 43 12 46 9 4 8 8 -3 16 -10 7 -11 11 -2 11 7 0 12
14 12 36 0 19 -4 33 -9 30 -11 -7 -22 54 -21 109 1 22 -2 168 -6 325 -4 157
-3 360 1 451 l7 166 24 -5 c16 -3 26 -13 31 -30z m593 -37 c0 -8 5 -15 12 -15
6 0 28 -18 48 -40 44 -48 60 -50 60 -10 0 20 -8 35 -25 46 -27 18 -33 34 -11
34 7 0 21 -12 31 -26 10 -16 23 -24 34 -21 12 3 30 -11 57 -44 21 -26 47 -51
57 -54 9 -4 24 -20 32 -36 9 -16 22 -29 29 -29 17 0 96 -101 96 -123 0 -10 6
-17 14 -17 17 0 46 -42 46 -67 0 -14 2 -15 9 -4 6 10 12 3 21 -25 15 -45 44
-86 54 -76 4 3 4 -1 0 -11 -3 -10 -1 -17 5 -17 6 0 11 -6 11 -13 0 -14 35 -47
50 -47 5 0 12 -11 16 -25 3 -14 10 -25 14 -25 5 0 18 -17 31 -37 12 -21 37
-61 56 -90 18 -28 33 -60 33 -71 0 -28 29 -81 51 -92 10 -6 19 -17 19 -25 0
-7 7 -20 15 -29 8 -8 18 -30 21 -48 4 -25 3 -29 -5 -18 -6 9 -11 10 -11 3 0
-22 12 -43 26 -43 8 0 14 -7 14 -16 0 -14 63 -150 90 -194 16 -27 40 -83 40
-94 0 -12 40 -116 71 -182 10 -23 19 -53 19 -68 0 -14 4 -26 9 -26 12 0 21
-27 15 -45 -5 -12 -9 -12 -30 3 -13 9 -24 25 -24 35 0 9 -7 17 -15 17 -8 0
-15 6 -15 14 0 7 -7 27 -15 42 -8 16 -15 37 -15 47 0 9 -5 17 -10 17 -12 0 -3
-49 11 -64 5 -6 9 -18 9 -27 0 -9 7 -22 15 -29 8 -7 15 -21 15 -31 0 -11 4
-19 9 -19 5 0 17 -21 26 -47 10 -27 21 -57 25 -68 52 -127 59 -162 65 -302 4
-87 2 -143 -4 -143 -5 0 -8 -14 -7 -31 1 -42 -15 -46 -37 -9 -24 41 -38 38
-36 -7 1 -21 1 -82 -1 -135 -2 -92 -3 -96 -21 -85 -15 9 -23 9 -38 0 -27 -17
-41 2 -41 59 0 36 4 48 15 48 21 0 19 52 -4 81 -10 13 -20 35 -23 49 -3 14
-13 52 -23 85 -10 33 -20 77 -22 97 -6 44 -29 70 -43 48 -13 -21 -24 13 -25
72 0 27 -5 48 -11 48 -6 0 -18 16 -27 35 -13 28 -14 41 -6 62 11 26 12 27 20
8 15 -34 0 42 -28 135 -13 47 -32 103 -42 125 -10 22 -40 95 -66 163 -26 67
-52 122 -57 122 -5 0 -4 -9 2 -19 5 -11 10 -28 9 -38 0 -19 -41 56 -64 117 -7
19 -25 61 -40 93 -24 49 -25 59 -14 74 12 14 12 16 -1 11 -16 -5 -70 69 -70
96 0 8 -4 17 -9 21 -6 3 -28 38 -51 78 -22 39 -52 90 -66 112 -13 22 -30 50
-36 63 -6 12 -15 22 -20 22 -4 0 -8 6 -8 14 0 7 -7 19 -16 27 -8 7 -13 21 -11
31 3 10 2 16 -2 13 -13 -8 -51 53 -45 72 4 12 3 14 -3 6 -7 -9 -20 2 -48 40
-22 28 -44 57 -50 63 -45 49 -89 109 -91 123 -5 34 -33 96 -43 94 -14 -4 -14
7 -1 27 8 13 10 12 10 -2 0 -10 5 -18 10 -18 17 0 11 43 -10 80 -11 19 -23 43
-26 53 -4 9 -14 17 -23 17 -14 1 -14 2 2 14 21 16 22 30 2 22 -8 -3 -15 -1
-15 4 0 6 11 10 25 10 16 0 25 -6 25 -15z m-479 -56 c-22 -20 -22 -22 -4 -39
49 -47 101 -108 107 -126 21 -66 8 -186 -29 -276 -4 -10 -3 -18 1 -18 5 0 27
36 49 80 21 43 40 78 42 77 5 -5 -29 -122 -38 -131 -11 -12 -12 -50 -2 -60 27
-26 46 -187 24 -200 -10 -7 -21 17 -21 45 0 27 -40 33 -96 14 -58 -20 -73 -38
-74 -91 0 -54 21 -102 59 -137 33 -29 33 -40 0 -57 -16 -9 -22 -5 -41 35 -28
56 -40 58 -33 3 5 -43 5 -43 -7 -10 -6 17 -15 32 -19 32 -15 0 -10 29 7 38 19
10 22 68 4 85 -10 10 -11 7 -7 -13 4 -14 3 -31 -2 -38 -11 -19 -13 148 -5 466
l7 283 23 -5 c21 -6 22 -4 17 29 -5 30 -2 36 18 44 35 13 47 -5 20 -30z m319
-237 c10 -109 34 -198 65 -238 10 -13 8 -1 -6 41 -15 42 -19 71 -14 102 5 37
25 71 25 44 0 -6 4 -11 10 -11 5 0 7 8 3 18 -5 15 -4 15 9 2 78 -80 246 -288
340 -420 94 -132 87 -49 83 -1031 -2 -475 -5 -875 -8 -889 -2 -14 -5 -29 -6
-33 -2 -16 -21 5 -21 24 0 10 -4 19 -10 19 -5 0 -12 16 -16 35 -4 25 -11 35
-25 35 -22 0 -27 -35 -6 -43 21 -8 -7 -42 -37 -45 l-26 -3 21 37 c13 25 17 40
10 42 -6 2 -9 8 -5 13 10 17 -24 9 -47 -11 -20 -17 -22 -21 -9 -29 12 -8 12
-13 2 -23 -9 -9 -12 -9 -12 1 0 10 -3 11 -14 2 -8 -7 -12 -19 -9 -29 10 -41
-107 -129 -187 -139 -39 -5 -120 13 -118 26 2 18 -3 24 -11 13 -13 -21 -60 5
-54 29 4 13 0 19 -10 19 -18 0 -71 48 -79 70 -3 11 -6 10 -11 -3 -5 -13 11
-35 56 -81 50 -51 74 -67 117 -80 91 -27 206 -15 263 28 18 13 46 31 62 41 23
13 19 7 -17 -27 -57 -55 -113 -73 -223 -73 -103 1 -167 24 -236 86 -29 26 -56
46 -58 43 -3 -3 1 -9 9 -14 11 -7 8 -10 -12 -10 -32 0 -32 0 -13 64 8 27 13
52 10 54 -3 3 -6 3 -7 1 -2 -2 -11 -17 -20 -34 -9 -16 -27 -32 -40 -35 -19 -5
-23 -13 -25 -44 -1 -44 -19 -69 -29 -43 -8 22 -24 12 -24 -14 0 -27 -24 -19
-28 9 -2 12 3 45 11 72 8 28 11 53 6 56 -5 3 -9 32 -9 65 0 48 -4 61 -20 71
-20 13 -20 24 -20 625 0 397 4 614 10 618 6 3 10 -2 10 -13 0 -23 8 -32 23
-26 8 3 11 26 8 67 -3 52 -5 58 -13 37 l-9 -25 -13 23 c-6 12 -10 37 -8 55 3
27 8 33 25 33 15 -1 23 6 25 22 3 20 -10 28 -40 23 -5 0 -6 9 -4 22 3 12 5 25
5 30 2 14 31 7 31 -8 0 -8 5 -15 10 -15 6 0 10 -7 10 -15 0 -9 6 -18 13 -21 8
-3 25 -38 38 -79 18 -55 29 -75 42 -75 10 0 17 -8 17 -19 0 -10 10 -31 22 -46
12 -16 22 -40 22 -54 1 -34 14 -53 34 -49 10 1 30 -11 46 -27 19 -18 31 -25
34 -17 2 7 22 12 47 12 25 0 45 5 48 13 5 10 12 -233 9 -273 -1 -8 -2 -246 -2
-527 0 -285 -5 -513 -9 -513 -5 0 -7 -9 -4 -20 10 -39 29 -21 29 28 -1 188 5
422 12 420 4 -2 8 0 10 5 1 4 -1 6 -5 5 -15 -5 -19 377 -9 726 8 292 12 353
25 368 8 10 21 18 27 18 14 0 24 23 24 56 0 13 4 24 10 24 9 0 30 41 74 142
15 34 15 40 1 67 -8 17 -15 39 -15 50 0 48 -31 99 -75 122 -24 13 -41 27 -39
31 10 16 46 7 69 -17 15 -14 25 -19 25 -11 0 18 -76 86 -95 86 -8 0 -15 7 -15
15 0 8 -5 15 -11 15 -8 0 -8 5 1 15 15 18 6 45 -15 45 -9 0 -15 9 -15 25 0 14
-9 52 -20 85 -17 51 -26 167 -21 269 2 40 11 -7 21 -107z m-1640 -1551 c0
-473 -4 -869 -7 -878 -6 -15 -8 -14 -14 7 -6 21 -7 18 -8 -15 -1 -35 -3 -38
-13 -20 -7 12 -12 88 -14 210 -1 104 -7 226 -13 271 -6 44 -10 126 -7 181 2
56 0 116 -4 135 -5 20 -8 25 -9 12 -1 -11 -8 -21 -16 -21 -12 0 -15 15 -15 70
0 60 -17 194 -26 206 -2 2 -10 -1 -17 -8 -22 -18 -41 12 -33 52 12 61 39 137
49 137 5 0 7 10 4 22 -3 12 -1 31 5 42 15 28 21 86 8 86 -5 0 -10 -6 -10 -12
0 -29 -21 -86 -39 -107 l-18 -21 -13 30 c-7 17 -10 33 -6 37 3 3 6 -1 6 -11 0
-9 5 -14 10 -11 6 3 7 18 4 32 -5 18 -3 24 4 19 8 -5 10 -2 6 8 -6 17 30 134
56 181 9 17 40 76 70 133 29 56 55 100 57 98 3 -2 4 -391 3 -865z m2210 762
c0 -38 5 -50 35 -80 19 -19 35 -40 36 -46 1 -7 4 -1 8 13 l7 25 17 -32 c10
-18 15 -33 11 -33 -4 0 -1 -7 6 -15 6 -8 9 -23 5 -36 -4 -12 -3 -24 3 -28 6
-4 7 -22 2 -50 -5 -27 -3 -71 5 -117 18 -106 19 -254 2 -295 -8 -19 -20 -65
-25 -102 -6 -38 -17 -76 -25 -85 -15 -17 -27 -81 -27 -140 1 -18 -6 -53 -15
-79 -18 -53 -23 -220 -10 -359 5 -59 4 -93 -2 -97 -6 -4 -8 3 -5 18 2 15 0 25
-7 25 -6 0 -12 -7 -12 -15 -2 -24 -4 -29 -15 -49 -9 -16 -12 -11 -16 31 -3 27
-5 401 -7 832 -1 700 0 782 14 771 9 -8 15 -29 15 -57z m-4291 -1613 l74 -70
-242 0 c-190 0 -242 3 -239 13 4 12 150 23 347 26 l75 1 -29 30 c-22 23 -31
27 -42 18 -10 -8 -10 -14 -2 -24 9 -11 5 -14 -21 -14 -28 0 -31 2 -20 15 14
16 10 18 -37 15 -41 -2 -52 5 -46 30 3 13 14 20 29 20 13 0 23 -3 23 -7 -4
-22 3 -32 17 -26 8 3 13 11 10 19 -4 11 5 20 24 23 3 1 39 -30 79 -69z m6459
22 c-2 -12 -14 -18 -38 -19 -43 -2 -61 -6 -80 -18 -23 -14 20 -23 121 -24 47
-1 89 -5 95 -10 5 -5 30 -6 56 -2 26 4 53 4 60 0 7 -5 23 -9 36 -9 12 0 22 -5
22 -10 0 -11 -428 -14 -455 -3 -10 3 3 22 37 57 47 49 54 53 100 54 41 1 49
-2 46 -16z m-543 -252 c137 -13 155 -17 155 -41 0 -18 -12 -19 -254 -19 l-255
0 1 39 0 40 122 -5 c66 -3 171 -9 231 -14z m-5167 2 c18 -2 22 -8 22 -38 l0
-37 -246 8 c-135 4 -254 9 -263 10 -9 2 -18 4 -21 4 -2 1 1 6 7 12 26 26 346
52 501 41z m5732 -14 c61 -2 80 -12 80 -39 0 -17 -8 -19 -77 -19 -43 0 -108
-3 -145 -7 -59 -5 -68 -4 -68 10 0 9 10 22 23 29 30 17 99 36 117 32 8 -2 40
-4 70 -6z m-6434 -22 c8 -11 14 -24 14 -29 0 -14 -319 -2 -333 12 -8 8 -4 11
14 11 14 0 29 4 35 9 14 14 59 19 162 17 80 -1 96 -4 108 -20z"/>
</g>
</svg>
