<svg xmlns="http://www.w3.org/2000/svg" viewBox="0 0 24 24" fill="none">
  <defs>
    <linearGradient id="shieldGradient" x1="0%" y1="0%" x2="100%" y2="100%">
      <stop offset="0%" style="stop-color:#4169E1;stop-opacity:1" />
      <stop offset="50%" style="stop-color:#6495ED;stop-opacity:1" />
      <stop offset="100%" style="stop-color:#191970;stop-opacity:1" />
    </linearGradient>
    <linearGradient id="emblemGradient" x1="0%" y1="0%" x2="100%" y2="100%">
      <stop offset="0%" style="stop-color:#FFD700;stop-opacity:1" />
      <stop offset="50%" style="stop-color:#FFA500;stop-opacity:1" />
      <stop offset="100%" style="stop-color:#FF8C00;stop-opacity:1" />
    </linearGradient>
  </defs>
  <!-- Shield body -->
  <path d="M12 2 C8 2 4 4 4 8 C4 12 6 16 12 22 C18 16 20 12 20 8 C20 4 16 2 12 2 Z" fill="url(#shieldGradient)" stroke="#000080" stroke-width="1"/>
  <!-- Shield rim -->
  <path d="M12 2 C8 2 4 4 4 8 C4 12 6 16 12 22 C18 16 20 12 20 8 C20 4 16 2 12 2 Z" fill="none" stroke="#000080" stroke-width="1.5"/>
  <!-- Cross emblem -->
  <path d="M12 6 L12 18 M8 12 L16 12" stroke="url(#emblemGradient)" stroke-width="2" stroke-linecap="round"/>
  <!-- Decorative studs -->
  <circle cx="8" cy="8" r="0.8" fill="#C0C0C0" stroke="#808080" stroke-width="0.3"/>
  <circle cx="16" cy="8" r="0.8" fill="#C0C0C0" stroke="#808080" stroke-width="0.3"/>
  <circle cx="8" cy="16" r="0.8" fill="#C0C0C0" stroke="#808080" stroke-width="0.3"/>
  <circle cx="16" cy="16" r="0.8" fill="#C0C0C0" stroke="#808080" stroke-width="0.3"/>
</svg>