<svg width="56" height="56" viewBox="0 0 56 56" fill="none" xmlns="http://www.w3.org/2000/svg">
  <defs>
    <linearGradient id="logoGrad" x1="0%" y1="0%" x2="100%" y2="100%">
      <stop offset="0%" style="stop-color:#D4AF37;stop-opacity:1" />
      <stop offset="50%" style="stop-color:#FFD700;stop-opacity:1" />
      <stop offset="100%" style="stop-color:#B8860B;stop-opacity:1" />
    </linearGradient>
    <linearGradient id="shieldGrad" x1="0%" y1="0%" x2="100%" y2="100%">
      <stop offset="0%" style="stop-color:#2C1810;stop-opacity:1" />
      <stop offset="50%" style="stop-color:#4A2C17;stop-opacity:1" />
      <stop offset="100%" style="stop-color:#1A0F08;stop-opacity:1" />
    </linearGradient>
  </defs>
  
  <!-- Escudo base -->
  <path d="M28 4 L44 12 L44 32 C44 42 36 50 28 52 C20 50 12 42 12 32 L12 12 Z" fill="url(#shieldGrad)" stroke="url(#logoGrad)" stroke-width="2"/>
  
  <!-- Torre central -->
  <rect x="24" y="16" width="8" height="20" fill="url(#logoGrad)" stroke="#1A0F08" stroke-width="1"/>
  
  <!-- Torres laterais -->
  <rect x="18" y="20" width="6" height="16" fill="url(#logoGrad)" stroke="#1A0F08" stroke-width="1"/>
  <rect x="32" y="20" width="6" height="16" fill="url(#logoGrad)" stroke="#1A0F08" stroke-width="1"/>
  
  <!-- Ameias -->
  <rect x="17" y="18" width="2" height="4" fill="url(#logoGrad)"/>
  <rect x="21" y="18" width="2" height="4" fill="url(#logoGrad)"/>
  <rect x="23" y="14" width="2" height="4" fill="url(#logoGrad)"/>
  <rect x="27" y="14" width="2" height="4" fill="url(#logoGrad)"/>
  <rect x="31" y="14" width="2" height="4" fill="url(#logoGrad)"/>
  <rect x="33" y="18" width="2" height="4" fill="url(#logoGrad)"/>
  <rect x="37" y="18" width="2" height="4" fill="url(#logoGrad)"/>
  
  <!-- Portão -->
  <path d="M26 28 L26 36 L30 36 L30 28 C30 26 28 26 28 26 C28 26 26 26 26 28 Z" fill="#1A0F08" stroke="url(#logoGrad)" stroke-width="1"/>
  
  <!-- Detalhes decorativos -->
  <circle cx="28" cy="24" r="2" fill="url(#logoGrad)" stroke="#1A0F08" stroke-width="1"/>
  
  <!-- Brilho no topo -->
  <ellipse cx="28" cy="10" rx="8" ry="2" fill="url(#logoGrad)" opacity="0.6"/>
</svg>